<?xml version="1.0" encoding="utf-8"?>
<!-- Generator: Adobe Illustrator 16.0.0, SVG Export Plug-In . SVG Version: 6.00 Build 0)  -->
<!DOCTYPE svg PUBLIC "-//W3C//DTD SVG 1.1//EN" "http://www.w3.org/Graphics/SVG/1.1/DTD/svg11.dtd">
<svg version="1.1" id="lace" xmlns="http://www.w3.org/2000/svg" xmlns:xlink="http://www.w3.org/1999/xlink" x="0px" y="0px"
	 width="171.512px" height="247.046px" viewBox="0 0 171.512 247.046" enable-background="new 0 0 171.512 247.046"
	 xml:space="preserve">
<pattern  x="-163.744" y="224.023" width="4.585" height="4.596" patternUnits="userSpaceOnUse" id="SVGID_1_" viewBox="0 -4.596 4.585 4.596" overflow="visible">
	<g>
		<polygon fill="none" points="0,0 4.585,0 4.585,-4.596 0,-4.596 		"/>
		<g>
			<polygon fill="none" points="0,-4.596 4.585,-4.596 4.585,0 0,0 			"/>
			<path d="M2.292-4.596l2.292,2.297L2.292,0L0-2.299L2.292-4.596z"/>
		</g>
	</g>
</pattern>
<path fill="none" stroke="#000000" stroke-width="0.5" stroke-miterlimit="10" d="M162.156,2.5c3.769,0,6.857,3.089,6.857,6.867
	v228.315c0,3.778-3.09,6.866-6.857,6.866H9.367c-3.778,0-6.867-3.088-6.867-6.866V9.367C2.5,5.589,5.589,2.5,9.367,2.5H162.156"/>
<path fill="#D4D4D4" d="M162.156,2.5c3.769,0,6.857,3.089,6.857,6.867v228.315c0,3.778-3.09,6.866-6.857,6.866H9.367
	c-3.778,0-6.867-3.088-6.867-6.866V9.367C2.5,5.589,5.589,2.5,9.367,2.5H162.156 M162.156,0H9.367C4.202,0,0,4.202,0,9.367v228.315
	c0,5.165,4.202,9.366,9.367,9.366h152.789c5.16,0,9.357-4.201,9.357-9.366V9.367C171.513,4.202,167.315,0,162.156,0z"/>
<path fill="#FFFFFF" d="M9.367,245.8c-4.476,0-8.117-3.643-8.117-8.117V9.367c0-4.476,3.642-8.117,8.117-8.117h152.789
	c4.47,0,8.107,3.642,8.107,8.117v228.315c0,4.476-3.638,8.116-8.107,8.116H9.367V245.8z"/>
<pattern  id="SVGID_2_" xlink:href="#SVGID_1_" patternTransform="matrix(0.7642 0 0 0.766 -3382.4814 12780.9922)">
</pattern>
<path fill="url(#SVGID_2_)" d="M9.367,245.8c-4.476,0-8.117-3.643-8.117-8.117V9.367c0-4.476,3.642-8.117,8.117-8.117h152.789
	c4.47,0,8.107,3.642,8.107,8.117v228.315c0,4.476-3.638,8.116-8.107,8.116H9.367V245.8z"/>
</svg>
