<?xml version="1.0" encoding="utf-8"?>
<!-- Generator: Adobe Illustrator 16.0.0, SVG Export Plug-In . SVG Version: 6.00 Build 0)  -->
<!DOCTYPE svg PUBLIC "-//W3C//DTD SVG 1.1//EN" "http://www.w3.org/Graphics/SVG/1.1/DTD/svg11.dtd">
<svg version="1.1" id="Layer_1" xmlns="http://www.w3.org/2000/svg" xmlns:xlink="http://www.w3.org/1999/xlink" x="0px" y="0px"
	 width="171.512px" height="247.046px" viewBox="0 0 171.512 247.046" enable-background="new 0 0 171.512 247.046"
	 xml:space="preserve">
<g>
	<path fill="#FFFFFF" d="M9.367,245.8c-4.476,0-8.117-3.643-8.117-8.118V9.367c0-4.476,3.643-8.117,8.117-8.117h152.788
		c4.471,0,8.107,3.641,8.107,8.117v228.315c0,4.476-3.638,8.118-8.107,8.118H9.367z"/>
	<path fill="#D4D4D4" d="M162.155,2.5c3.769,0,6.857,3.089,6.857,6.867v228.315c0,3.778-3.09,6.868-6.857,6.868H9.367
		c-3.778,0-6.867-3.09-6.867-6.868V9.367C2.5,5.589,5.589,2.5,9.367,2.5H162.155 M162.155,0H9.367C4.202,0,0,4.202,0,9.367v228.315
		c0,5.166,4.202,9.368,9.367,9.368h152.788c5.16,0,9.357-4.202,9.357-9.368V9.367C171.513,4.202,167.315,0,162.155,0z"/>
	<path d="M12.806,47.976c0,1.809,1.51,3.279,3.379,3.279s3.379-1.47,3.379-3.279c0-1.81-1.51-3.279-3.379-3.279
		S12.806,46.167,12.806,47.976z"/>
	<path d="M8.447,54.184c0,1.81,1.51,3.279,3.379,3.279s3.379-1.469,3.379-3.279s-1.51-3.279-3.379-3.279S8.447,52.374,8.447,54.184z
		"/>
	<path d="M17.104,54.204c0,0.66,0.2,1.279,0.55,1.799c0.6,0.89,1.649,1.479,2.829,1.479c1.869,0,3.379-1.47,3.379-3.279
		c0-1.81-1.51-3.279-3.379-3.279S17.104,52.394,17.104,54.204z"/>
	<path d="M12.217,60.571c1.67,0,2.55-1.359,3.009-2.719c0.46-1.359,0.5-2.719,0.5-2.719h0.859c0,0,0.159,5.428,3.498,5.438H12.217z"
		/>
	<path d="M18.474,50.385c-1.899,1.899-1.899,4.749-1.899,4.749l-0.85,0.01c0,0,0-2.909-1.85-4.758"/>
	<path d="M18.094,56.483c-1.898-1.899-4.748-1.899-4.748-1.899v-0.85c0,0,2.908,0,4.758-1.85"/>
	<path d="M14.285,56.493c1.899-1.899,4.748-1.899,4.748-1.899v-0.85c0,0-2.908,0-4.758-1.849"/>
	<path d="M159.722,198.078c0-1.811-1.511-3.279-3.38-3.279c-1.868,0-3.379,1.469-3.379,3.279c0,1.809,1.511,3.278,3.379,3.278
		C158.212,201.356,159.722,199.886,159.722,198.078z"/>
	<path d="M164.08,191.869c0-1.809-1.51-3.279-3.379-3.279s-3.379,1.471-3.379,3.279c0,1.811,1.51,3.279,3.379,3.279
		S164.08,193.679,164.08,191.869z"/>
	<path d="M155.423,191.849c0-0.66-0.199-1.279-0.55-1.799c-0.6-0.891-1.648-1.479-2.829-1.479c-1.869,0-3.379,1.47-3.379,3.279
		s1.51,3.278,3.379,3.278S155.423,193.66,155.423,191.849z"/>
	<path d="M160.311,185.481c-1.669,0-2.549,1.36-3.008,2.72c-0.461,1.358-0.5,2.719-0.5,2.719h-0.86c0,0-0.159-5.428-3.498-5.438
		H160.311L160.311,185.481z"/>
	<path d="M154.054,195.667c1.898-1.898,1.898-4.748,1.898-4.748l0.851-0.01c0,0,0,2.908,1.849,4.758"/>
	<path d="M154.434,189.57c1.897,1.899,4.748,1.899,4.748,1.899v0.85c0,0-2.909,0-4.759,1.849"/>
	<path d="M158.242,189.56c-1.899,1.898-4.748,1.898-4.748,1.898v0.851c0,0,2.908,0,4.758,1.849"/>
	<path d="M38.311,28.066c0,4.342,3.623,7.869,8.108,7.869c4.486,0,8.109-3.526,8.109-7.869c0-4.343-3.623-7.869-8.109-7.869
		C41.934,20.197,38.311,23.724,38.311,28.066z"/>
	<path d="M27.851,42.965c0,4.342,3.623,7.869,8.108,7.869c4.486,0,8.108-3.527,8.108-7.869c0-4.343-3.622-7.869-8.108-7.869
		C31.474,35.096,27.851,38.622,27.851,42.965z"/>
	<path d="M48.627,43.013c0,1.583,0.48,3.071,1.319,4.318c1.438,2.135,3.959,3.551,6.79,3.551c4.486,0,8.108-3.527,8.108-7.869
		c0-4.342-3.622-7.869-8.108-7.869S48.627,38.67,48.627,43.013z"/>
	<path d="M36.896,58.295c4.007,0,6.118-3.263,7.222-6.525c1.104-3.262,1.199-6.526,1.199-6.526h2.062c0,0,0.385,13.027,8.396,13.051
		H36.896z"/>
	<path d="M51.914,33.848c-4.559,4.558-4.559,11.396-4.559,11.396l-2.039,0.024c0,0,0-6.981-4.438-11.419"/>
	<path d="M51.002,48.482c-4.558-4.558-11.396-4.558-11.396-4.558v-2.039c0,0,6.98,0,11.42-4.438"/>
	<path d="M41.861,48.507c4.559-4.559,11.396-4.559,11.396-4.559v-2.039c0,0-6.98,0-11.42-4.438"/>
	<path d="M38.311,82.202c0,4.343,3.623,7.869,8.108,7.869c4.486,0,8.109-3.526,8.109-7.869c0-4.342-3.623-7.869-8.109-7.869
		C41.934,74.333,38.311,77.86,38.311,82.202z"/>
	<path d="M27.851,97.101c0,4.343,3.623,7.869,8.108,7.869c4.486,0,8.108-3.526,8.108-7.869c0-4.342-3.622-7.869-8.108-7.869
		C31.474,89.232,27.851,92.758,27.851,97.101z"/>
	<path d="M48.627,97.149c0,1.583,0.48,3.071,1.319,4.318c1.438,2.135,3.959,3.551,6.79,3.551c4.486,0,8.108-3.527,8.108-7.869
		c0-4.342-3.622-7.869-8.108-7.869S48.627,92.807,48.627,97.149z"/>
	<path d="M36.896,112.431c4.007,0,6.118-3.263,7.222-6.526c1.104-3.263,1.199-6.525,1.199-6.525h2.062
		c0,0,0.385,13.027,8.396,13.051H36.896z"/>
	<path d="M51.914,87.984c-4.559,4.558-4.559,11.396-4.559,11.396l-2.039,0.024c0,0,0-6.981-4.438-11.419"/>
	<path d="M51.002,102.619c-4.558-4.558-11.396-4.558-11.396-4.558v-2.039c0,0,6.98,0,11.42-4.438"/>
	<path d="M41.861,102.643c4.559-4.558,11.396-4.558,11.396-4.558v-2.039c0,0-6.98,0-11.42-4.438"/>
	<path d="M54.385,159.703c0-4.344-3.621-7.869-8.107-7.869s-8.109,3.525-8.109,7.869c0,4.342,3.623,7.868,8.109,7.868
		S54.385,164.044,54.385,159.703z"/>
	<path d="M64.846,144.802c0-4.342-3.623-7.868-8.109-7.868s-8.109,3.526-8.109,7.868c0,4.344,3.623,7.869,8.109,7.869
		S64.846,149.146,64.846,144.802z"/>
	<path d="M44.069,144.755c0-1.584-0.48-3.071-1.319-4.318c-1.438-2.135-3.959-3.551-6.79-3.551c-4.485,0-8.107,3.527-8.107,7.869
		s3.622,7.869,8.107,7.869C40.446,152.625,44.069,149.097,44.069,144.755z"/>
	<path d="M55.801,129.473c-4.007,0-6.117,3.263-7.222,6.524c-1.104,3.264-1.199,6.526-1.199,6.526h-2.062
		c0,0-0.384-13.026-8.396-13.051H55.801z"/>
	<path d="M40.782,153.919c4.559-4.559,4.559-11.396,4.559-11.396l2.039-0.023c0,0,0,6.98,4.438,11.418"/>
	<path d="M41.693,139.285c4.559,4.559,11.396,4.559,11.396,4.559v2.039c0,0-6.98,0-11.42,4.438"/>
	<path d="M50.834,139.261c-4.558,4.558-11.396,4.558-11.396,4.558v2.039c0,0,6.98,0,11.42,4.438"/>
	<path d="M54.385,213.837c0-4.342-3.621-7.869-8.107-7.869s-8.109,3.527-8.109,7.869s3.623,7.869,8.109,7.869
		S54.385,218.18,54.385,213.837z"/>
	<path d="M64.846,198.939c0-4.342-3.623-7.869-8.109-7.869s-8.109,3.527-8.109,7.869s3.623,7.869,8.109,7.869
		S64.846,203.281,64.846,198.939z"/>
	<path d="M44.069,198.891c0-1.583-0.48-3.071-1.319-4.317c-1.438-2.136-3.959-3.552-6.79-3.552c-4.485,0-8.107,3.526-8.107,7.869
		c0,4.342,3.622,7.869,8.107,7.869C40.446,206.76,44.069,203.233,44.069,198.891z"/>
	<path d="M55.801,183.609c-4.007,0-6.117,3.264-7.222,6.525c-1.104,3.262-1.199,6.525-1.199,6.525h-2.062
		c0,0-0.384-13.027-8.396-13.051H55.801z"/>
	<path d="M40.782,208.056c4.559-4.559,4.559-11.396,4.559-11.396l2.039-0.023c0,0,0,6.98,4.438,11.42"/>
	<path d="M41.693,193.421c4.559,4.559,11.396,4.559,11.396,4.559v2.039c0,0-6.98,0-11.42,4.438"/>
	<path d="M50.834,193.397c-4.558,4.56-11.396,4.56-11.396,4.56v2.039c0,0,6.98,0,11.42,4.438"/>
	<path d="M118.139,28.066c0,4.342,3.623,7.869,8.108,7.869c4.486,0,8.108-3.526,8.108-7.869c0-4.343-3.622-7.869-8.108-7.869
		C121.762,20.197,118.139,23.724,118.139,28.066z"/>
	<path d="M107.679,42.965c0,4.342,3.622,7.869,8.108,7.869s8.108-3.527,8.108-7.869c0-4.343-3.622-7.869-8.108-7.869
		S107.679,38.622,107.679,42.965z"/>
	<path d="M128.455,43.013c0,1.583,0.479,3.071,1.319,4.318c1.438,2.135,3.959,3.551,6.79,3.551c4.485,0,8.107-3.527,8.107-7.869
		c0-4.342-3.622-7.869-8.107-7.869C132.078,35.144,128.455,38.67,128.455,43.013z"/>
	<path d="M116.724,58.295c4.007,0,6.116-3.263,7.221-6.525c1.104-3.263,1.2-6.526,1.2-6.526h2.062c0,0,0.385,13.027,8.397,13.051
		H116.724z"/>
	<path d="M131.742,33.848c-4.559,4.558-4.559,11.396-4.559,11.396l-2.039,0.024c0,0,0-6.981-4.438-11.419"/>
	<path d="M130.83,48.482c-4.559-4.558-11.396-4.558-11.396-4.558v-2.039c0,0,6.98,0,11.42-4.438"/>
	<path d="M121.689,48.507c4.559-4.559,11.396-4.559,11.396-4.559v-2.039c0,0-6.98,0-11.419-4.438"/>
	<path d="M118.139,82.202c0,4.343,3.623,7.869,8.108,7.869c4.486,0,8.108-3.526,8.108-7.869c0-4.342-3.622-7.869-8.108-7.869
		C121.762,74.333,118.139,77.86,118.139,82.202z"/>
	<path d="M107.679,97.101c0,4.343,3.622,7.869,8.108,7.869s8.108-3.526,8.108-7.869c0-4.342-3.622-7.869-8.108-7.869
		S107.679,92.758,107.679,97.101z"/>
	<path d="M128.455,97.149c0,1.583,0.479,3.071,1.319,4.318c1.438,2.135,3.959,3.551,6.79,3.551c4.485,0,8.107-3.527,8.107-7.869
		c0-4.342-3.622-7.869-8.107-7.869C132.078,89.28,128.455,92.807,128.455,97.149z"/>
	<path d="M116.724,112.431c4.007,0,6.116-3.263,7.221-6.526c1.104-3.263,1.2-6.525,1.2-6.525h2.062c0,0,0.385,13.027,8.397,13.051
		H116.724z"/>
	<path d="M131.742,87.984c-4.559,4.558-4.559,11.396-4.559,11.396l-2.039,0.024c0,0,0-6.981-4.438-11.419"/>
	<path d="M130.83,102.619c-4.559-4.558-11.396-4.558-11.396-4.558v-2.039c0,0,6.98,0,11.42-4.438"/>
	<path d="M121.689,102.643c4.559-4.558,11.396-4.558,11.396-4.558v-2.039c0,0-6.98,0-11.419-4.438"/>
	<path d="M134.213,159.703c0-4.344-3.623-7.869-8.108-7.869c-4.486,0-8.108,3.525-8.108,7.869c0,4.342,3.622,7.868,8.108,7.868
		C130.59,167.571,134.213,164.044,134.213,159.703z"/>
	<path d="M144.673,144.802c0-4.342-3.622-7.868-8.107-7.868c-4.486,0-8.109,3.526-8.109,7.868c0,4.344,3.623,7.869,8.109,7.869
		C141.051,152.671,144.673,149.146,144.673,144.802z"/>
	<path d="M123.896,144.755c0-1.584-0.479-3.071-1.319-4.318c-1.438-2.135-3.958-3.551-6.789-3.551c-4.486,0-8.108,3.527-8.108,7.869
		s3.622,7.869,8.108,7.869S123.896,149.097,123.896,144.755z"/>
	<path d="M135.629,129.473c-4.007,0-6.117,3.263-7.222,6.524c-1.104,3.264-1.199,6.526-1.199,6.526h-2.062
		c0,0-0.384-13.026-8.396-13.051H135.629z"/>
	<path d="M120.61,153.919c4.558-4.559,4.558-11.396,4.558-11.396l2.04-0.023c0,0,0,6.98,4.438,11.418"/>
	<path d="M121.521,139.285c4.559,4.559,11.396,4.559,11.396,4.559v2.039c0,0-6.98,0-11.42,4.438"/>
	<path d="M130.662,139.261c-4.559,4.558-11.396,4.558-11.396,4.558v2.039c0,0,6.98,0,11.42,4.438"/>
	<path d="M134.213,213.837c0-4.342-3.623-7.869-8.108-7.869c-4.486,0-8.108,3.527-8.108,7.869s3.622,7.869,8.108,7.869
		C130.59,221.707,134.213,218.18,134.213,213.837z"/>
	<path d="M144.673,198.939c0-4.342-3.622-7.869-8.107-7.869c-4.486,0-8.109,3.527-8.109,7.869s3.623,7.869,8.109,7.869
		C141.051,206.808,144.673,203.281,144.673,198.939z"/>
	<path d="M123.896,198.891c0-1.583-0.479-3.071-1.319-4.317c-1.438-2.136-3.958-3.552-6.789-3.552c-4.486,0-8.108,3.526-8.108,7.869
		c0,4.342,3.622,7.869,8.108,7.869S123.896,203.233,123.896,198.891z"/>
	<path d="M135.629,183.609c-4.007,0-6.117,3.264-7.222,6.525c-1.104,3.262-1.199,6.525-1.199,6.525h-2.062
		c0,0-0.384-13.027-8.396-13.051H135.629z"/>
	<path d="M120.61,208.056c4.558-4.559,4.558-11.396,4.558-11.396l2.04-0.023c0,0,0,6.98,4.438,11.42"/>
	<path d="M121.521,193.421c4.559,4.559,11.396,4.559,11.396,4.559v2.039c0,0-6.98,0-11.42,4.438"/>
	<path d="M130.662,193.397c-4.559,4.56-11.396,4.56-11.396,4.56v2.039c0,0,6.98,0,11.42,4.438"/>
	<path d="M78.225,55.134c0,4.342,3.623,7.869,8.108,7.869c4.486,0,8.109-3.527,8.109-7.869c0-4.342-3.623-7.869-8.109-7.869
		C81.848,47.265,78.225,50.792,78.225,55.134z"/>
	<path d="M67.765,70.033c0,4.342,3.623,7.869,8.108,7.869c4.486,0,8.108-3.527,8.108-7.869c0-4.342-3.622-7.869-8.108-7.869
		C71.388,62.164,67.765,65.69,67.765,70.033z"/>
	<path d="M88.541,70.081c0,1.583,0.48,3.071,1.319,4.318c1.438,2.135,3.959,3.551,6.79,3.551c4.486,0,8.107-3.527,8.107-7.869
		c0-4.343-3.621-7.869-8.107-7.869S88.541,65.738,88.541,70.081z"/>
	<path d="M76.81,85.363c4.007,0,6.118-3.263,7.222-6.526c1.104-3.263,1.199-6.525,1.199-6.525h2.062c0,0,0.385,13.027,8.396,13.051
		H76.81z"/>
	<path d="M91.828,60.916c-4.559,4.559-4.559,11.396-4.559,11.396l-2.039,0.024c0,0,0-6.981-4.438-11.42"/>
	<path d="M90.916,75.551c-4.558-4.558-11.396-4.558-11.396-4.558v-2.04c0,0,6.98,0,11.42-4.438"/>
	<path d="M81.775,75.575c4.559-4.558,11.396-4.558,11.396-4.558v-2.039c0,0-6.98,0-11.42-4.438"/>
	<path d="M94.299,186.77c0-4.342-3.623-7.869-8.108-7.869c-4.486,0-8.108,3.527-8.108,7.869s3.622,7.869,8.108,7.869
		C90.676,194.639,94.299,191.112,94.299,186.77z"/>
	<path d="M104.759,171.871c0-4.342-3.621-7.869-8.107-7.869s-8.109,3.527-8.109,7.869s3.623,7.869,8.109,7.869
		S104.759,176.212,104.759,171.871z"/>
	<path d="M83.982,171.824c0-1.584-0.479-3.072-1.319-4.318c-1.438-2.135-3.958-3.551-6.789-3.551c-4.485,0-8.108,3.526-8.108,7.869
		c0,4.342,3.623,7.868,8.108,7.868C80.36,179.692,83.982,176.166,83.982,171.824z"/>
	<path d="M95.715,156.541c-4.007,0-6.117,3.264-7.222,6.525c-1.104,3.262-1.199,6.525-1.199,6.525H85.23
		c0,0-0.384-13.027-8.396-13.051H95.715L95.715,156.541z"/>
	<path d="M80.696,180.988c4.558-4.558,4.558-11.396,4.558-11.396l2.04-0.023c0,0,0,6.98,4.438,11.42"/>
	<path d="M81.607,166.353c4.559,4.559,11.396,4.559,11.396,4.559v2.039c0,0-6.98,0-11.42,4.438"/>
	<path d="M90.748,166.33c-4.559,4.559-11.396,4.559-11.396,4.559v2.039c0,0,6.98,0,11.42,4.438"/>
	<path d="M166.335,232.921c-2.082,0-3.502,0.138-4.26,0.414c-0.758,0.274-1.455,0.822-2.092,1.638h-0.361v-21.165
		c0-0.697-0.035-1.143-0.104-1.334c-0.035-0.098-0.152-0.199-0.353-0.307c-0.196-0.108-0.553-0.199-1.062-0.271
		c-0.51-0.072-1.076-0.107-1.697-0.107v-0.324h9.928v0.324c-0.742,0-1.387,0.035-1.932,0.107s-0.916,0.163-1.115,0.271
		c-0.197,0.107-0.328,0.24-0.389,0.396c-0.062,0.157-0.09,0.572-0.09,1.247v16.763c0,0.65,0.047,1.065,0.143,1.246
		c0.096,0.182,0.246,0.325,0.453,0.434s0.52,0.181,0.934,0.217c0.414,0.035,1.08,0.055,1.996,0.055V232.921z"/>
	<path d="M150.03,211.141c1.436,0,2.688,1.067,3.76,3.204c1.158,2.304,1.736,5.208,1.736,8.712s-0.57,6.396-1.711,8.676
		c-1.072,2.16-2.332,3.24-3.785,3.24c-1.451,0-2.713-1.068-3.783-3.204c-1.158-2.305-1.736-5.208-1.736-8.712
		s0.558-6.366,1.673-8.586C147.296,212.251,148.579,211.141,150.03,211.141z M150.03,211.464c-0.689,0-1.209,0.971-1.555,2.912
		c-0.347,1.94-0.519,4.84-0.519,8.699c0,3.713,0.025,6.026,0.076,6.938c0.174,3.091,0.84,4.637,1.996,4.637
		c0.674,0,1.184-0.965,1.529-2.895c0.346-1.928,0.52-4.822,0.52-8.68c0-3.738-0.024-6.063-0.078-6.974
		C151.829,213.011,151.171,211.464,150.03,211.464z"/>
	<path d="M6.012,12.249c2.081,0,3.502-0.138,4.26-0.414c0.758-0.275,1.455-0.822,2.092-1.638h0.361v21.165
		c0,0.697,0.034,1.142,0.104,1.334c0.035,0.097,0.152,0.199,0.353,0.307c0.196,0.108,0.553,0.199,1.062,0.271
		c0.51,0.072,1.076,0.108,1.697,0.108v0.324H6.012V33.38c0.741,0,1.387-0.036,1.932-0.108s0.916-0.163,1.115-0.271
		c0.196-0.108,0.328-0.241,0.389-0.397c0.061-0.157,0.09-0.572,0.09-1.247V14.595c0-0.65-0.047-1.065-0.143-1.246
		c-0.097-0.181-0.246-0.325-0.453-0.434c-0.207-0.108-0.521-0.18-0.935-0.216c-0.414-0.036-1.079-0.055-1.995-0.055V12.249z"/>
	<path d="M22.316,34.029c-1.437,0-2.688-1.068-3.76-3.204c-1.158-2.304-1.736-5.208-1.736-8.712c0-3.504,0.57-6.396,1.711-8.676
		c1.072-2.16,2.332-3.24,3.785-3.24c1.451,0,2.713,1.068,3.783,3.204c1.157,2.304,1.735,5.208,1.735,8.712
		c0,3.504-0.557,6.366-1.672,8.586C25.051,32.919,23.768,34.029,22.316,34.029z M22.316,33.705c0.688,0,1.209-0.97,1.555-2.912
		c0.346-1.94,0.519-4.84,0.519-8.698c0-3.714-0.025-6.027-0.076-6.938c-0.174-3.091-0.84-4.637-1.996-4.637
		c-0.674,0-1.185,0.965-1.529,2.894c-0.346,1.929-0.52,4.823-0.52,8.681c0,3.738,0.024,6.063,0.078,6.973
		C20.518,32.159,21.176,33.705,22.316,33.705z"/>
</g>
</svg>
