<?xml version="1.0" encoding="utf-8"?>
<!-- Generator: Adobe Illustrator 16.0.0, SVG Export Plug-In . SVG Version: 6.00 Build 0)  -->
<!DOCTYPE svg PUBLIC "-//W3C//DTD SVG 1.1//EN" "http://www.w3.org/Graphics/SVG/1.1/DTD/svg11.dtd">
<svg version="1.1" id="Layer_1" xmlns="http://www.w3.org/2000/svg" xmlns:xlink="http://www.w3.org/1999/xlink" x="0px" y="0px"
	 width="171.512px" height="247.046px" viewBox="0 0 171.512 247.046" enable-background="new 0 0 171.512 247.046"
	 xml:space="preserve">
<g>
	<path fill="#FFFFFF" d="M9.367,245.8c-4.476,0-8.117-3.643-8.117-8.118V9.367c0-4.476,3.643-8.117,8.117-8.117h152.788
		c4.471,0,8.107,3.641,8.107,8.117v228.315c0,4.476-3.638,8.118-8.107,8.118H9.367z"/>
	<path fill="#D4D4D4" d="M162.155,2.5c3.769,0,6.857,3.089,6.857,6.867v228.315c0,3.778-3.09,6.868-6.857,6.868H9.367
		c-3.778,0-6.867-3.09-6.867-6.868V9.367C2.5,5.589,5.589,2.5,9.367,2.5H162.155 M162.155,0H9.367C4.202,0,0,4.202,0,9.367v228.315
		c0,5.166,4.202,9.368,9.367,9.368h152.788c5.16,0,9.357-4.202,9.357-9.368V9.367C171.513,4.202,167.315,0,162.155,0z"/>
	<path d="M12.796,47.976c0,1.809,1.511,3.279,3.379,3.279c1.869,0,3.38-1.47,3.38-3.279c0-1.81-1.511-3.279-3.38-3.279
		C14.306,44.697,12.796,46.167,12.796,47.976z"/>
	<path d="M8.438,54.184c0,1.81,1.51,3.279,3.379,3.279s3.379-1.469,3.379-3.279s-1.51-3.279-3.379-3.279S8.438,52.374,8.438,54.184z
		"/>
	<path d="M17.095,54.204c0,0.66,0.199,1.279,0.55,1.799c0.6,0.89,1.648,1.479,2.829,1.479c1.868,0,3.379-1.47,3.379-3.279
		c0-1.81-1.511-3.279-3.379-3.279C18.605,50.924,17.095,52.394,17.095,54.204z"/>
	<path d="M12.207,60.571c1.669,0,2.549-1.359,3.008-2.719c0.46-1.359,0.5-2.719,0.5-2.719h0.86c0,0,0.159,5.428,3.498,5.438H12.207z
		"/>
	<path d="M18.464,50.385c-1.898,1.899-1.898,4.749-1.898,4.749l-0.851,0.01c0,0,0-2.909-1.849-4.758"/>
	<path d="M18.084,56.483c-1.897-1.899-4.748-1.899-4.748-1.899v-0.85c0,0,2.909,0,4.759-1.85"/>
	<path d="M14.275,56.493c1.898-1.899,4.748-1.899,4.748-1.899v-0.85c0,0-2.908,0-4.758-1.849"/>
	<path d="M159.712,198.078c0-1.811-1.51-3.279-3.379-3.279s-3.379,1.469-3.379,3.279c0,1.809,1.51,3.278,3.379,3.278
		S159.712,199.886,159.712,198.078z"/>
	<path d="M164.07,191.869c0-1.809-1.51-3.279-3.379-3.279s-3.379,1.471-3.379,3.279c0,1.811,1.51,3.279,3.379,3.279
		S164.07,193.679,164.07,191.869z"/>
	<path d="M155.413,191.849c0-0.66-0.2-1.279-0.55-1.799c-0.6-0.891-1.649-1.479-2.829-1.479c-1.869,0-3.379,1.47-3.379,3.279
		s1.51,3.278,3.379,3.278S155.413,193.66,155.413,191.849z"/>
	<path d="M160.301,185.481c-1.669,0-2.549,1.36-3.008,2.72c-0.46,1.358-0.5,2.719-0.5,2.719h-0.859c0,0-0.159-5.428-3.498-5.438
		H160.301L160.301,185.481z"/>
	<path d="M154.044,195.667c1.899-1.898,1.899-4.748,1.899-4.748l0.85-0.01c0,0,0,2.908,1.85,4.758"/>
	<path d="M154.424,189.57c1.898,1.899,4.748,1.899,4.748,1.899v0.85c0,0-2.908,0-4.758,1.849"/>
	<path d="M158.232,189.56c-1.899,1.898-4.748,1.898-4.748,1.898v0.851c0,0,2.908,0,4.758,1.849"/>
	<path d="M38.306,28.066c0,4.342,3.623,7.869,8.108,7.869c4.486,0,8.108-3.526,8.108-7.869c0-4.343-3.622-7.869-8.108-7.869
		C41.929,20.197,38.306,23.724,38.306,28.066z"/>
	<path d="M27.846,42.965c0,4.342,3.623,7.869,8.108,7.869c4.486,0,8.108-3.527,8.108-7.869c0-4.343-3.622-7.869-8.108-7.869
		C31.469,35.096,27.846,38.622,27.846,42.965z"/>
	<path d="M48.622,43.013c0,1.583,0.479,3.071,1.319,4.318c1.438,2.135,3.959,3.551,6.79,3.551c4.485,0,8.107-3.527,8.107-7.869
		c0-4.342-3.622-7.869-8.107-7.869C52.245,35.144,48.622,38.67,48.622,43.013z"/>
	<path d="M36.891,58.295c4.007,0,6.116-3.263,7.221-6.525c1.104-3.263,1.2-6.526,1.2-6.526h2.062c0,0,0.384,13.027,8.396,13.051
		H36.891z"/>
	<path d="M51.909,33.848c-4.559,4.558-4.559,11.396-4.559,11.396l-2.039,0.024c0,0,0-6.981-4.438-11.419"/>
	<path d="M50.997,48.482c-4.558-4.558-11.396-4.558-11.396-4.558v-2.039c0,0,6.98,0,11.42-4.438"/>
	<path d="M41.856,48.507c4.559-4.559,11.396-4.559,11.396-4.559v-2.039c0,0-6.979,0-11.419-4.438"/>
	<path d="M38.306,82.202c0,4.343,3.623,7.869,8.108,7.869c4.486,0,8.108-3.526,8.108-7.869c0-4.342-3.622-7.869-8.108-7.869
		C41.929,74.333,38.306,77.86,38.306,82.202z"/>
	<path d="M27.846,97.101c0,4.343,3.623,7.869,8.108,7.869c4.486,0,8.108-3.526,8.108-7.869c0-4.342-3.622-7.869-8.108-7.869
		C31.469,89.232,27.846,92.758,27.846,97.101z"/>
	<path d="M48.622,97.149c0,1.583,0.479,3.071,1.319,4.318c1.438,2.135,3.959,3.551,6.79,3.551c4.485,0,8.107-3.527,8.107-7.869
		c0-4.342-3.622-7.869-8.107-7.869C52.245,89.28,48.622,92.807,48.622,97.149z"/>
	<path d="M36.891,112.431c4.007,0,6.116-3.263,7.221-6.526c1.104-3.263,1.2-6.525,1.2-6.525h2.062c0,0,0.384,13.027,8.396,13.051
		H36.891z"/>
	<path d="M51.909,87.984C47.35,92.542,47.35,99.38,47.35,99.38l-2.039,0.024c0,0,0-6.981-4.438-11.419"/>
	<path d="M50.997,102.619c-4.558-4.558-11.396-4.558-11.396-4.558v-2.039c0,0,6.98,0,11.42-4.438"/>
	<path d="M41.856,102.643c4.559-4.558,11.396-4.558,11.396-4.558v-2.039c0,0-6.979,0-11.419-4.438"/>
	<path d="M54.38,159.703c0-4.344-3.623-7.869-8.108-7.869c-4.486,0-8.108,3.525-8.108,7.869c0,4.342,3.622,7.868,8.108,7.868
		C50.757,167.571,54.38,164.044,54.38,159.703z"/>
	<path d="M64.84,144.802c0-4.342-3.622-7.868-8.107-7.868c-4.486,0-8.109,3.526-8.109,7.868c0,4.344,3.623,7.869,8.109,7.869
		C61.218,152.671,64.84,149.146,64.84,144.802z"/>
	<path d="M44.063,144.755c0-1.584-0.479-3.071-1.319-4.318c-1.438-2.135-3.959-3.551-6.789-3.551c-4.486,0-8.108,3.527-8.108,7.869
		s3.622,7.869,8.108,7.869S44.063,149.097,44.063,144.755z"/>
	<path d="M55.795,129.473c-4.006,0-6.116,3.263-7.221,6.524c-1.104,3.264-1.199,6.526-1.199,6.526h-2.062
		c0,0-0.384-13.026-8.397-13.051H55.795z"/>
	<path d="M40.777,153.919c4.558-4.559,4.558-11.396,4.558-11.396l2.04-0.023c0,0,0,6.98,4.438,11.418"/>
	<path d="M41.688,139.285c4.559,4.559,11.396,4.559,11.396,4.559v2.039c0,0-6.979,0-11.419,4.438"/>
	<path d="M50.829,139.261c-4.559,4.558-11.396,4.558-11.396,4.558v2.039c0,0,6.98,0,11.42,4.438"/>
	<path d="M54.38,213.837c0-4.342-3.623-7.869-8.108-7.869c-4.486,0-8.108,3.527-8.108,7.869s3.622,7.869,8.108,7.869
		C50.757,221.707,54.38,218.18,54.38,213.837z"/>
	<path d="M64.84,198.939c0-4.342-3.622-7.869-8.107-7.869c-4.486,0-8.109,3.527-8.109,7.869s3.623,7.869,8.109,7.869
		C61.218,206.808,64.84,203.281,64.84,198.939z"/>
	<path d="M44.063,198.891c0-1.583-0.479-3.071-1.319-4.317c-1.438-2.136-3.959-3.552-6.789-3.552c-4.486,0-8.108,3.526-8.108,7.869
		c0,4.342,3.622,7.869,8.108,7.869S44.063,203.233,44.063,198.891z"/>
	<path d="M55.795,183.609c-4.006,0-6.116,3.264-7.221,6.525c-1.104,3.262-1.199,6.525-1.199,6.525h-2.062
		c0,0-0.384-13.027-8.397-13.051H55.795z"/>
	<path d="M40.777,208.056c4.558-4.559,4.558-11.396,4.558-11.396l2.04-0.023c0,0,0,6.98,4.438,11.42"/>
	<path d="M41.688,193.421c4.559,4.559,11.396,4.559,11.396,4.559v2.039c0,0-6.979,0-11.419,4.438"/>
	<path d="M50.829,193.397c-4.559,4.56-11.396,4.56-11.396,4.56v2.039c0,0,6.98,0,11.42,4.438"/>
	<path d="M118.134,28.066c0,4.342,3.623,7.869,8.109,7.869s8.108-3.526,8.108-7.869c0-4.343-3.622-7.869-8.108-7.869
		S118.134,23.724,118.134,28.066z"/>
	<path d="M107.674,42.965c0,4.342,3.623,7.869,8.109,7.869s8.108-3.527,8.108-7.869c0-4.343-3.622-7.869-8.108-7.869
		S107.674,38.622,107.674,42.965z"/>
	<path d="M128.45,43.013c0,1.583,0.479,3.071,1.319,4.318c1.438,2.135,3.959,3.551,6.79,3.551c4.485,0,8.107-3.527,8.107-7.869
		c0-4.342-3.622-7.869-8.107-7.869C132.073,35.144,128.45,38.67,128.45,43.013z"/>
	<path d="M116.719,58.295c4.006,0,6.116-3.263,7.221-6.525c1.104-3.262,1.2-6.526,1.2-6.526h2.062c0,0,0.384,13.027,8.396,13.051
		H116.719z"/>
	<path d="M131.737,33.848c-4.559,4.558-4.559,11.396-4.559,11.396l-2.039,0.024c0,0,0-6.981-4.438-11.419"/>
	<path d="M130.825,48.482c-4.559-4.558-11.396-4.558-11.396-4.558v-2.039c0,0,6.98,0,11.42-4.438"/>
	<path d="M121.685,48.507c4.559-4.559,11.396-4.559,11.396-4.559v-2.039c0,0-6.98,0-11.42-4.438"/>
	<path d="M118.134,82.202c0,4.343,3.623,7.869,8.109,7.869s8.108-3.526,8.108-7.869c0-4.342-3.622-7.869-8.108-7.869
		S118.134,77.86,118.134,82.202z"/>
	<path d="M107.674,97.101c0,4.343,3.623,7.869,8.109,7.869s8.108-3.526,8.108-7.869c0-4.342-3.622-7.869-8.108-7.869
		S107.674,92.758,107.674,97.101z"/>
	<path d="M128.45,97.149c0,1.583,0.479,3.071,1.319,4.318c1.438,2.135,3.959,3.551,6.79,3.551c4.485,0,8.107-3.527,8.107-7.869
		c0-4.342-3.622-7.869-8.107-7.869C132.073,89.28,128.45,92.807,128.45,97.149z"/>
	<path d="M116.719,112.431c4.006,0,6.116-3.263,7.221-6.526c1.104-3.263,1.2-6.525,1.2-6.525h2.062c0,0,0.384,13.027,8.396,13.051
		H116.719z"/>
	<path d="M131.737,87.984c-4.559,4.558-4.559,11.396-4.559,11.396l-2.039,0.024c0,0,0-6.981-4.438-11.419"/>
	<path d="M130.825,102.619c-4.559-4.558-11.396-4.558-11.396-4.558v-2.039c0,0,6.98,0,11.42-4.438"/>
	<path d="M121.685,102.643c4.559-4.558,11.396-4.558,11.396-4.558v-2.039c0,0-6.98,0-11.42-4.438"/>
	<path d="M134.208,159.703c0-4.344-3.623-7.869-8.108-7.869c-4.486,0-8.108,3.525-8.108,7.869c0,4.342,3.622,7.868,8.108,7.868
		C130.585,167.571,134.208,164.044,134.208,159.703z"/>
	<path d="M144.668,144.802c0-4.342-3.623-7.868-8.108-7.868c-4.486,0-8.108,3.526-8.108,7.868c0,4.344,3.622,7.869,8.108,7.869
		C141.045,152.671,144.668,149.146,144.668,144.802z"/>
	<path d="M123.892,144.755c0-1.584-0.479-3.071-1.319-4.318c-1.439-2.135-3.959-3.551-6.789-3.551c-4.486,0-8.109,3.527-8.109,7.869
		s3.623,7.869,8.109,7.869S123.892,149.097,123.892,144.755z"/>
	<path d="M135.623,129.473c-4.006,0-6.117,3.263-7.221,6.524c-1.104,3.264-1.2,6.526-1.2,6.526h-2.062
		c0,0-0.385-13.026-8.397-13.051H135.623z"/>
	<path d="M120.605,153.919c4.558-4.559,4.558-11.396,4.558-11.396l2.039-0.023c0,0,0,6.98,4.438,11.418"/>
	<path d="M121.517,139.285c4.559,4.559,11.396,4.559,11.396,4.559v2.039c0,0-6.98,0-11.42,4.438"/>
	<path d="M130.657,139.261c-4.559,4.558-11.396,4.558-11.396,4.558v2.039c0,0,6.98,0,11.42,4.438"/>
	<path d="M134.208,213.837c0-4.342-3.623-7.869-8.108-7.869c-4.486,0-8.108,3.527-8.108,7.869s3.622,7.869,8.108,7.869
		C130.585,221.707,134.208,218.18,134.208,213.837z"/>
	<path d="M144.668,198.939c0-4.342-3.623-7.869-8.108-7.869c-4.486,0-8.108,3.527-8.108,7.869s3.622,7.869,8.108,7.869
		C141.045,206.808,144.668,203.281,144.668,198.939z"/>
	<path d="M123.892,198.891c0-1.583-0.479-3.071-1.319-4.317c-1.439-2.136-3.959-3.552-6.789-3.552c-4.486,0-8.109,3.526-8.109,7.869
		c0,4.342,3.623,7.869,8.109,7.869S123.892,203.233,123.892,198.891z"/>
	<path d="M135.623,183.609c-4.006,0-6.117,3.264-7.221,6.525c-1.104,3.262-1.2,6.525-1.2,6.525h-2.062
		c0,0-0.385-13.027-8.397-13.051H135.623z"/>
	<path d="M120.605,208.056c4.558-4.559,4.558-11.396,4.558-11.396l2.039-0.023c0,0,0,6.98,4.438,11.42"/>
	<path d="M121.517,193.421c4.559,4.559,11.396,4.559,11.396,4.559v2.039c0,0-6.98,0-11.42,4.438"/>
	<path d="M130.657,193.397c-4.559,4.56-11.396,4.56-11.396,4.56v2.039c0,0,6.98,0,11.42,4.438"/>
	<path d="M78.22,55.134c0,4.342,3.622,7.869,8.108,7.869s8.108-3.527,8.108-7.869c0-4.342-3.622-7.869-8.108-7.869
		S78.22,50.792,78.22,55.134z"/>
	<path d="M67.76,70.033c0,4.342,3.623,7.869,8.109,7.869s8.108-3.527,8.108-7.869c0-4.342-3.622-7.869-8.108-7.869
		S67.76,65.69,67.76,70.033z"/>
	<path d="M88.536,70.081c0,1.583,0.479,3.071,1.319,4.318c1.438,2.135,3.959,3.551,6.79,3.551c4.485,0,8.107-3.527,8.107-7.869
		c0-4.343-3.622-7.869-8.107-7.869C92.159,62.212,88.536,65.738,88.536,70.081z"/>
	<path d="M76.805,85.363c4.006,0,6.116-3.263,7.221-6.526c1.104-3.263,1.2-6.525,1.2-6.525h2.062c0,0,0.384,13.027,8.396,13.051
		H76.805z"/>
	<path d="M91.823,60.916c-4.559,4.559-4.559,11.396-4.559,11.396l-2.039,0.024c0,0,0-6.981-4.438-11.42"/>
	<path d="M90.911,75.551c-4.559-4.558-11.396-4.558-11.396-4.558v-2.04c0,0,6.98,0,11.42-4.438"/>
	<path d="M81.771,75.575c4.559-4.558,11.396-4.558,11.396-4.558v-2.039c0,0-6.98,0-11.42-4.438"/>
	<path d="M160.626,213.444c-0.289-0.573-0.6-0.995-0.936-1.271c-0.625-0.473-1.478-0.709-2.558-0.709
		c-1.104,0-2.021,0.451-2.754,1.352c-0.732,0.9-1.17,2.107-1.313,3.62c-0.145,1.513-0.215,3.612-0.215,6.304
		c0.381-1.021,0.873-1.759,1.471-2.211c0.717-0.57,1.709-0.855,2.977-0.855c1.65,0,3.052,0.66,4.197,1.98
		c1.148,1.319,1.723,3.071,1.723,5.256c0,2.495-0.672,4.465-2.016,5.903c-1.344,1.44-3.119,2.16-5.328,2.16
		c-2.256,0-4.024-1.002-5.311-3.007c-1.283-2.004-1.926-4.721-1.926-8.153c0-3.384,0.696-6.252,2.088-8.604
		c1.606-2.713,3.793-4.067,6.553-4.067c1.561,0,2.771,0.407,3.635,1.226c0.744,0.694,1.117,1.522,1.117,2.482
		c0,1.056-0.393,1.691-1.178,1.908c-0.261,0.072-0.511,0.107-0.748,0.107c-0.523,0-0.963-0.166-1.32-0.498
		c-0.354-0.334-0.535-0.762-0.535-1.283c0-0.547,0.15-0.98,0.451-1.301c0.301-0.322,0.689-0.482,1.17-0.482
		c0.146,0,0.275,0.013,0.396,0.035C160.386,213.361,160.507,213.396,160.626,213.444z M156.267,220.322
		c-1.328,0-2.254,0.649-2.775,1.948c-0.404,1.011-0.604,2.671-0.604,4.979c0,2.117,0.153,3.717,0.463,4.801
		c0.498,1.732,1.375,2.599,2.633,2.599c1.067,0,1.852-0.589,2.35-1.769s0.746-2.947,0.746-5.305c0-2.384-0.225-4.188-0.676-5.414
		C157.95,220.934,157.239,220.322,156.267,220.322z"/>
	<path d="M10.545,31.726c0.289,0.573,0.601,0.996,0.937,1.27c0.625,0.473,1.477,0.709,2.557,0.709c1.104,0,2.021-0.45,2.754-1.351
		c0.733-0.901,1.17-2.107,1.314-3.62c0.144-1.513,0.215-3.613,0.215-6.304c-0.381,1.022-0.873,1.759-1.471,2.211
		c-0.718,0.57-1.709,0.855-2.978,0.855c-1.649,0-3.051-0.66-4.197-1.98c-1.147-1.319-1.723-3.071-1.723-5.256
		c0-2.495,0.672-4.464,2.016-5.903c1.345-1.44,3.119-2.16,5.328-2.16c2.257,0,4.025,1.002,5.312,3.006
		c1.283,2.004,1.926,4.722,1.926,8.154c0,3.384-0.697,6.252-2.088,8.604c-1.607,2.713-3.793,4.068-6.553,4.068
		c-1.562,0-2.771-0.408-3.636-1.225c-0.743-0.695-1.116-1.523-1.116-2.483c0-1.056,0.393-1.692,1.178-1.908
		c0.26-0.072,0.51-0.108,0.748-0.108c0.522,0,0.963,0.167,1.32,0.499c0.354,0.333,0.534,0.761,0.534,1.283
		c0,0.547-0.149,0.98-0.45,1.301c-0.302,0.321-0.689,0.481-1.171,0.481c-0.145,0-0.274-0.012-0.396-0.035
		C10.785,31.809,10.664,31.774,10.545,31.726z M14.904,24.848c1.328,0,2.254-0.649,2.775-1.948c0.403-1.011,0.604-2.671,0.604-4.98
		c0-2.117-0.154-3.717-0.463-4.8c-0.498-1.732-1.375-2.599-2.633-2.599c-1.068,0-1.853,0.589-2.351,1.769
		c-0.498,1.179-0.746,2.947-0.746,5.305c0,2.383,0.226,4.188,0.677,5.414C13.221,24.236,13.932,24.848,14.904,24.848z"/>
</g>
</svg>
