<?xml version="1.0" encoding="utf-8"?>
<!-- Generator: Adobe Illustrator 16.0.0, SVG Export Plug-In . SVG Version: 6.00 Build 0)  -->
<!DOCTYPE svg PUBLIC "-//W3C//DTD SVG 1.1//EN" "http://www.w3.org/Graphics/SVG/1.1/DTD/svg11.dtd">
<svg version="1.1" id="Layer_1" xmlns="http://www.w3.org/2000/svg" xmlns:xlink="http://www.w3.org/1999/xlink" x="0px" y="0px"
	 width="171.512px" height="247.046px" viewBox="0 0 171.512 247.046" enable-background="new 0 0 171.512 247.046"
	 xml:space="preserve">
<g>
	<path fill="#FFFFFF" d="M9.367,245.8c-4.476,0-8.117-3.643-8.117-8.118V9.367c0-4.476,3.642-8.117,8.117-8.117h152.789
		c4.47,0,8.107,3.641,8.107,8.117v228.315c0,4.476-3.638,8.118-8.107,8.118H9.367z"/>
	<path fill="#D4D4D4" d="M162.156,2.5c3.769,0,6.857,3.089,6.857,6.867v228.315c0,3.778-3.09,6.868-6.857,6.868H9.367
		c-3.778,0-6.867-3.09-6.867-6.868V9.367C2.5,5.589,5.589,2.5,9.367,2.5H162.156 M162.156,0H9.367C4.202,0,0,4.202,0,9.367v228.315
		c0,5.166,4.202,9.368,9.367,9.368h152.789c5.16,0,9.357-4.202,9.357-9.368V9.367C171.513,4.202,167.315,0,162.156,0z"/>
	<path d="M12.796,47.976c0,1.809,1.511,3.279,3.379,3.279c1.869,0,3.38-1.47,3.38-3.279c0-1.81-1.511-3.279-3.38-3.279
		C14.306,44.697,12.796,46.167,12.796,47.976z"/>
	<path d="M8.438,54.184c0,1.81,1.51,3.279,3.379,3.279s3.379-1.469,3.379-3.279s-1.51-3.279-3.379-3.279S8.438,52.374,8.438,54.184z
		"/>
	<path d="M17.095,54.204c0,0.66,0.199,1.279,0.55,1.799c0.6,0.89,1.648,1.479,2.829,1.479c1.87,0,3.379-1.47,3.379-3.279
		c0-1.81-1.51-3.279-3.379-3.279C18.604,50.925,17.095,52.394,17.095,54.204z"/>
	<path d="M12.207,60.571c1.669,0,2.549-1.359,3.009-2.719c0.459-1.359,0.5-2.719,0.5-2.719h0.86c0,0,0.16,5.428,3.499,5.438H12.207z
		"/>
	<path d="M18.464,50.385c-1.898,1.899-1.898,4.749-1.898,4.749l-0.851,0.01c0,0,0-2.909-1.849-4.758"/>
	<path d="M18.084,56.483c-1.898-1.899-4.748-1.899-4.748-1.899v-0.85c0,0,2.909,0,4.759-1.85"/>
	<path d="M14.275,56.493c1.898-1.899,4.749-1.899,4.749-1.899v-0.85c0,0-2.909,0-4.758-1.849"/>
	<path d="M159.716,198.078c0-1.811-1.509-3.279-3.378-3.279c-1.87,0-3.379,1.469-3.379,3.279c0,1.809,1.509,3.278,3.379,3.278
		C158.207,201.356,159.716,199.886,159.716,198.078z"/>
	<path d="M164.075,191.869c0-1.809-1.509-3.279-3.378-3.279c-1.87,0-3.379,1.471-3.379,3.279c0,1.811,1.509,3.279,3.379,3.279
		C162.565,195.148,164.075,193.679,164.075,191.869z"/>
	<path d="M155.418,191.849c0-0.66-0.2-1.279-0.55-1.799c-0.6-0.891-1.649-1.479-2.829-1.479c-1.87,0-3.379,1.47-3.379,3.279
		s1.509,3.278,3.379,3.278S155.418,193.66,155.418,191.849z"/>
	<path d="M160.306,185.481c-1.669,0-2.55,1.36-3.01,2.72c-0.46,1.358-0.5,2.719-0.5,2.719h-0.858c0,0-0.16-5.428-3.499-5.438
		H160.306L160.306,185.481z"/>
	<path d="M154.048,195.667c1.899-1.898,1.899-4.748,1.899-4.748l0.85-0.01c0,0,0,2.908,1.851,4.758"/>
	<path d="M154.428,189.57c1.898,1.899,4.748,1.899,4.748,1.899v0.85c0,0-2.908,0-4.758,1.849"/>
	<path d="M158.237,189.56c-1.899,1.898-4.748,1.898-4.748,1.898v0.851c0,0,2.909,0,4.758,1.849"/>
	<path d="M78.219,104.979c0,4.342,3.622,7.869,8.108,7.869s8.109-3.527,8.109-7.869s-3.623-7.869-8.109-7.869
		S78.219,100.637,78.219,104.979z"/>
	<path d="M67.759,119.877c0,4.341,3.623,7.869,8.109,7.869s8.109-3.527,8.109-7.869c0-4.342-3.623-7.869-8.109-7.869
		S67.759,115.535,67.759,119.877z"/>
	<path d="M88.536,119.925c0,1.583,0.479,3.071,1.319,4.319c1.438,2.135,3.958,3.551,6.79,3.551c4.485,0,8.108-3.527,8.108-7.87
		c0-4.342-3.623-7.869-8.108-7.869C92.159,112.056,88.536,115.583,88.536,119.925z"/>
	<path d="M76.804,135.208c4.007,0,6.117-3.264,7.222-6.525c1.104-3.264,1.199-6.525,1.199-6.525h2.062c0,0,0.384,13.027,8.397,13.05
		H76.804L76.804,135.208z"/>
	<path d="M91.822,110.761c-4.558,4.559-4.558,11.396-4.558,11.396l-2.04,0.024c0,0,0-6.981-4.438-11.42"/>
	<path d="M90.911,125.396c-4.558-4.559-11.396-4.559-11.396-4.559v-2.039c0,0,6.98,0,11.42-4.438"/>
	<path d="M81.77,125.419c4.558-4.559,11.396-4.559,11.396-4.559v-2.04c0,0-6.98,0-11.42-4.438"/>
	<path d="M96.763,152.229C97.921,152.703,96.718,153.371,96.763,152.229 M80.757,152.229
		C80.757,153.981,82.1,152.523,80.757,152.229 M83.031,151.117c0.705-0.016,1.831,0.893,0.612,1.199
		C82.847,152.517,81.925,151.332,83.031,151.117 M88.804,152.316C86.474,151.576,89.352,149.737,88.804,152.316 M80.582,150.479
		c0.441,0.924,0.714,2.541,2.013,2.536c-0.5-0.7-0.919-0.939-1.051-1.836c0.27,0.21,1.581,1.434,1.447,1.74
		c-0.669,1.543-2.46-0.006-3.108-0.59C78.206,150.822,78.034,150.81,80.582,150.479 M77.538,150.354
		C77.783,150.846,77.427,150.987,77.538,150.354 M92.915,149.779c-0.098,0.194-0.244,0.311-0.438,0.35
		C92.533,149.917,92.693,149.792,92.915,149.779 M92.04,149.867c-0.231-0.115-0.465-0.145-0.7-0.088c0.212,0.2,0.33,0.434,0.351,0.7
		h-0.438c0.34,1.192,0.308,2.075-0.771,2.912c-0.438,0.339-1.126,0.833-1.353,0.237C89.51,153.046,90.666,147.605,92.04,149.867
		 M77.171,150.128c-0.221,1.479-2.679,0.113-2.624-0.875C75.415,149.643,76.248,149.726,77.171,150.128 M90.378,149.255
		c-0.208,0.5-0.543,0.892-1.05,1.049C89.302,149.767,89.695,148.9,90.378,149.255 M77.521,149.08
		C78.001,149.724,76.87,149.898,77.521,149.08 M82.506,150.128c0.021,0.281-4.235,0.414-4.11-0.524
		c1.011,0.255,0.641-0.765,1.761-0.462c0.466,0.126,1.038,0.092,1.462,0.287C82.037,149.858,81.922,150.125,82.506,150.128
		 M100.875,149.255c0.421,0.015,0.827-0.101,1.226-0.264C101.683,148.919,101.234,149.018,100.875,149.255 M92.827,148.905
		l0.088,0.087C92.801,149.46,92.1,149.612,92.827,148.905 M84.78,148.38c0.345,0.438,0.67,1.043,1.05,1.312
		C86.101,149.16,85.448,148.022,84.78,148.38 M85.743,150.742c-0.809-0.201-2.564-1.957-1.579-2.648
		c1.587-1.11,2.344,0.962,2.57,2.023c0.116,0.549,2.43,3.449,1.282,3.573C87.369,153.736,85.128,151.332,85.743,150.742
		 M99.387,147.332c0.12,0.037,0.186,0.479,0.438,0C99.641,147.233,99.544,147.358,99.387,147.332 M71.923,145.843
		c-0.101,0.473-0.07,0.939,0.087,1.4C71.447,146.896,70.325,145.33,71.923,145.843 M96.239,145.582
		c0.55,2.489-3.448,0.879-3.412,2.887c-1.358-1.754,1.603-3.399,1.225-1.75C94.796,146.388,95.482,145.912,96.239,145.582
		 M67.724,144.531c0.986,0.762,2.234,1.082,3.056,2.027c0.143,0.164,0.928,0.992,0.005,0.859c-0.313,0.082-0.62-0.648-0.707-0.729
		C69.23,146.203,67.932,145.488,67.724,144.531 M94.664,145.755c-0.466-0.084-0.917-0.621-0.612-1.135
		C94.619,143.667,95.206,145.037,94.664,145.755 M89.941,143.919c-0.029,0.291-0.06,0.582-0.087,0.875
		C89.495,144.515,89.573,144.146,89.941,143.919 M89.154,143.744c0.031,0.422-0.008,0.875,0,1.312
		C88.773,144.716,88.786,144.125,89.154,143.744 M100.699,143.22c-0.081,0.209-0.175,0.371-0.175,0.611
		c0.23-0.068,0.377-0.244,0.438-0.524L100.699,143.22 M67.024,143.22c0.383,0.301,0.613,0.652,0.612,1.137
		C67.158,144.154,66.908,143.716,67.024,143.22 M102.011,142.345c-0.06,0.232-0.116,0.466-0.176,0.699
		C102.146,142.759,102.026,142.222,102.011,142.345 M103.411,141.82c-0.453,1.336-2.178,2.145-2.449,3.236
		c0.771-0.211,1.564-0.329,2.361-0.35c-0.348-0.27-0.823-0.181-1.312-0.176c0.459-0.672,1.277-0.792,1.837-1.224h-0.351
		c0.253-0.222,0.428-0.483,0.524-0.788c-0.146,0.029-0.291,0.059-0.438,0.088C103.543,140.597,103.602,142.375,103.411,141.82
		 M114.694,140.945c-0.113,1.18-0.69,3.27-2.323,3.088c-1.428-0.158-2.151,2.461-3.56,0.814c-0.647-0.16-2.013,0.484-2.295-0.141
		c-0.452-0.998,3.467-0.931,3.892-0.787c-0.718-1.021,1.009-0.949,1.575-0.701C112.107,142.039,113.759,141.541,114.694,140.945
		 M69.999,140.158c0.169,0.512,0.628,1.018,0.438,1.574c-0.438-0.081-0.876-0.139-1.312-0.087c0.738,1.288,2.025,0.203,2.624,1.662
		c-0.833,0.03-1.165-0.468-2.012-0.438c0.221,0.262,0.449,0.205,0.787,0.262c-0.27,0.418-0.502,0.316-0.612,0.701
		c0.89-0.045,2.604-0.35,3.149,0.611c-0.481,0.077-0.882,0.051-1.226,0.35c0.501,0.006,0.997-0.043,1.487-0.145
		c0.722,0.465,1.409,0.994,2.187,1.369c-0.298-0.374-0.617-0.885-0.611-1.398c-0.832,0.029-0.75-0.021-1.026-0.853
		c-0.521-1.573-1.266-1.986-0.548-0.022C71.784,143.525,71.238,140.884,69.999,140.158 M99.825,146.193
		c0.144-0.68-0.781,0.65,0.175-0.787c-0.791,0.379-1.727,0.324-2.449,0.787c0.325-0.312,0.487-0.66,0.524-1.137
		c-0.873,0.337-1.396,1.375-0.35,1.662c-0.149,0.834-1.069,0.816-1.718,1.044c-0.802,0.28-1.769,1.39-2.48,1.491
		c0.713-1.387,1.467-1.314,2.616-2.392c0.28-0.262,1.468-3.067,0.489-2.567c-0.54,0.275-1.646-0.065-1.398-0.896
		c0.506-1.459,1.552,0.295,2.143,0.169c0.524,0.34,0.833,0.717,1.487,0.461c1.182-0.461,0.703-2.451,1.749-2.861
		c0.334-0.131,0.746,0.453,1.181,0.361c0.881-0.185,1.023-1.75,1.793-1.842c0.751-0.262,0.663,0.775,1.226,1.04
		c0.793,0.374,1.507-0.858,2.055,0.129c0.273,0.491-0.038,0.804-0.308,1.2c-1.229,0.9-1.019,0.896-1.178,2.298
		c-0.269,0.729-2.207,2.735-3.02,2.763c-0.954-0.41-0.964-0.729-1.875-0.127c-0.389,0.67-1.122,1.912-1.984,1.084
		C97.959,146.578,98.347,146.305,99.825,146.193 M113.382,141.121c-0.061-0.107-0.089-0.226-0.087-0.351
		c-0.526,0.493-0.772,1.229-1.574,1.487c0.062-0.338,0.012-0.682,0.175-1.051c-0.442,0.705-0.532,1.517-1.487,1.662
		c-0.081-0.383,0.007-0.732,0.263-1.05c-0.823,0.832-1.063,1.981-1.486,0.351c-0.32,0.164-1.035,2.48-2.1,1.643
		c-0.798-0.629,0.858-2.657,1.487-2.986c1.3,0.09,1.566-0.826,2.537-1.289c0.753-0.358,1.392,0.137,2.266-0.166
		c0.601-0.209,1.675-0.381,1.668,0.523C115.036,140.695,113.94,140.773,113.382,141.121 M58.103,138.583
		c-0.16,0.455,0.17,0.978,0.438,1.312c-0.763-0.345-1.512-0.942-2.273-1.138c0.49,0.744,1.287,1.133,1.836,1.75
		c-0.244,0.049-0.319,0.08-0.524,0.088v0.175c1.812,0.067,3.103,1.224,4.898,1.662c-0.583-0.845-1.412-1.907-2.274-2.449
		c0.163,0.521,0.564,0.89,0.787,1.399C59.35,140.955,59.153,139.391,58.103,138.583 M76.383,146.98
		c-1.342-0.417-3.513,0.008-3.849-1.837c-2.455,0.812-2.555-0.331-4.418-1.528c-0.2-0.312-0.222-0.594-0.375-0.921
		c0.191-0.999-1.188-1.479-0.979-2.187c0.188-0.635,0.207-0.471,0.965-0.52c1.031-0.064,1.074-0.533,1.452-1.449
		c1.144-0.72,1.748,0.739,1.976,1.617c0.688,0.655,1.709,0.17,2.33,0.77c0.555,0.535,0.163,1.347,0.713,1.914
		c1.028,1.059,1.183-0.043,1.103,1.56c-0.025,0.53,0.481,0.62,0.789,1.013C76.289,145.855,76.232,146.505,76.383,146.98
		 M112.245,137.884C112.213,139.732,109.816,138.66,112.245,137.884 M113.995,136.484
		C114.041,137.363,113.432,137.173,113.995,136.484 M108.396,138.41c-0.937-0.138-1.433-1.834-0.263-1.83
		C110.059,137.31,108.126,137.333,108.396,138.41 M62.651,136.397c-0.48,0.297-1.656,0.073-1.399-0.786
		C61.324,134.89,62.878,135.212,62.651,136.397 M113.645,134.735c-0.022,0.459-0.077,0.729-0.438,0.787
		C113.185,135.179,113.318,134.824,113.645,134.735 M109.608,134.473c0.979,0.705,0.714,2.45-0.73,1.918
		C107.783,135.987,108.94,134.667,109.608,134.473 M118.63,134.066c1.388,0.087,0.517,1.221-0.146,1.645
		C116.966,136.683,117.728,134.384,118.63,134.066 M114.869,134.035c0.422,0.711,0.311,1.857-0.438,2.274
		C114.505,135.632,114.211,134.449,114.869,134.035 M62.389,133.074C63.241,136.375,59.699,133.875,62.389,133.074 M116.006,132.548
		c-0.004,0.176-0.079,0.375-0.175,0.525c-0.33-0.084-0.488-0.076-0.437-0.351C115.599,132.666,115.802,132.607,116.006,132.548
		 M56.528,132.111c0.587,0.311,0.79,1.514,0.875,2.1C56.855,134.111,56.508,132.646,56.528,132.111 M51.893,130.583
		c0.991,0.076,1.705,1.147,0.438,1.439C51.194,132.137,50.5,130.949,51.893,130.583 M56.003,131.062
		C55.324,130.296,56.447,129.958,56.003,131.062 M51.28,128.962c-0.169,0.582,0.158,0.566,0.612,0.787
		C51.089,132.042,49.62,128.876,51.28,128.962 M53.467,126.164c0.562,0.537,1.119,1.06,1.575,1.662
		C54.24,128.046,53.615,126.705,53.467,126.164 M115.219,125.639c0.188,1.168,0.325,2.632-0.264,3.673
		c0.003-0.238-0.119-0.4-0.35-0.438c0.017,0.195,0,1.978,0.466,1.709c0.347-0.199,1.174-2.119,1.283-2.584
		c-0.249,0.209-0.598,0.623-0.7,0.787c-0.261-1.043,0.27-1.738,0.525-2.711c-0.421,0.471-0.66,0.194-0.7-0.437H115.219
		 M120.205,125.55c-0.117,0.729-0.232,1.459-0.35,2.188C120.266,127.259,120.502,125.925,120.205,125.55 M120.03,123.627
		c0.017,0.33,0.068,1.656-0.7,1.225C119.471,124.354,119.646,123.854,120.03,123.627 M51.98,122.752
		c0.974,0.84,0.903,1.161,0.438,2.274C51.769,124.496,51.303,123.404,51.98,122.752 M119.505,129.487
		c0.282-0.397,0.662-0.446,1.138-0.612c-1.336-0.438,0.812-1.81,1.486-2.012c-1.141-0.277,0.85-2.199,1.226-2.712
		c-0.646,0.317-0.935,1.056-1.574,1.399c0.02-0.45,0.107-0.887,0.262-1.311c-0.647,0.68-0.875,1.932-1.349,2.813
		c-0.595,1.108-1.387,2.06-2.15,3.046c0.53,0.619-0.35,1.001-0.925,1.193c-1.926,0.647-0.295-0.787,0.188-1.424
		c0.418-0.552,1.194-1.42,1.194-2.132c-0.35-0.606-0.712-1.262-0.337-1.905c0.282-0.483,0.749-0.444,1.28-0.562
		c0.646-0.479,0.395-0.546,0.556-1.429c0.367-1.996,1.591-0.69,2.898-0.924c1.543-0.276,1.795,0.589,0.641,1.759
		c-0.212,0.777,0.426,1.441,0.228,2.174c-0.172,0.634-1.389,0.472-1.874,0.682C120.6,128.91,122.256,129.535,119.505,129.487
		 M118.718,121.965c0.114,0.251,0.062,0.493-0.175,0.612C118.54,122.365,118.603,122.146,118.718,121.965 M53.292,121.615
		c0.152,1.208,0.592,2.876,2.013,2.798c-0.13,0.672-2.079,1.748-2.224,0.642c-0.057-0.435,0.272-0.815,0.193-1.253
		C52.955,122.722,52.208,122.558,53.292,121.615 M119.243,121.44c0.259,0.217,0.28,0.44,0,0.612
		C119.109,121.817,119.109,121.613,119.243,121.44 M53.992,122.49c-0.145-0.472-0.225-0.931-0.087-1.399
		C54.591,121.241,54.645,122.303,53.992,122.49 M115.744,120.328c1.063-0.114,1.626,1.203,0.525,1.2
		C115.542,121.604,115.063,120.652,115.744,120.328 M118.718,120.041c0.271,0.4,0.444,0.837,0.525,1.312
		C118.821,121.075,118.546,120.519,118.718,120.041 M53.467,119.341C56.064,120.211,52.925,121.258,53.467,119.341 M118.805,118.554
		c-0.029,0.116-0.06,0.233-0.088,0.35c0.268,0.087,0.529,0.057,0.787-0.087c0.018,0.444,0.013,0.884-0.087,1.312
		C118.941,119.774,118.201,118.916,118.805,118.554 M52.68,118.554c0.118,0.399,0.178,0.807,0.175,1.225
		C52.245,119.712,52.479,118.853,52.68,118.554 M121.867,118.346c0.682,0.143,1.731,1.547,0.524,1.738
		C121.472,120.229,121.369,118.796,121.867,118.346 M116.356,119.778c-1.623,0.875-1.341-1.281-0.673-1.346
		C116.766,118.326,115.994,119.085,116.356,119.778 M56.003,119.953C53.441,120.756,55.254,115.923,56.003,119.953 M55.916,118.116
		C53.989,117.798,57.78,115.824,55.916,118.116 M53.03,116.542c0.669,0.367,0.604,1.288,0.7,1.924
		C53.066,118.048,52.769,117.27,53.03,116.542 M51.368,122.752c-0.683-0.418-0.354-1.415-0.087-2.099
		c-1.133,1.184-0.85-0.911-0.612-1.837c-0.169,0.177-0.24,0.078-0.438,0.35c-0.672-0.957-1.421-2.233-0.7,0.175
		c-0.282,0.111-0.575,0.082-0.875-0.087c0.579,0.704,1.267,1.356,1.399,2.362c-0.371-0.121-0.818-0.259-1.226-0.263
		c0.294,0.39,0.893,0.786,1.399,0.612c0.352,0.931,0.667,1.673,1.137,2.537c-0.571,0.162-1.135,0.187-1.509-0.262
		c-0.27-1.289-1.089-1.064-1.481-2.1c-0.095-0.252,0.073-0.606,0.108-0.822c0.129-0.812-0.513-0.92-0.817-1.551
		c-0.434-0.9,0.804-1.53,0.568-2.55c-0.663-2.886,1.706,0.363,2.518,0.638c0.783,0.762,0.315,0.87,0.705,1.88
		c0.172,0.447,0.876,0.585,0.998,1.008C52.625,121.363,51.751,122.346,51.368,122.752 M52.942,115.23
		c0.155,0.28,0.331,0.386,0.175,0.612c-0.376-0.112-0.295-0.354-0.438-0.612H52.942 M119.33,117.941
		c-0.583-0.337-0.532-0.765-0.524-1.487c-0.445-0.806-0.742-0.656-0.533-1.546C118.937,112.084,119.31,117.554,119.33,117.941
		 M53.642,115.23C53.035,111.256,55.437,113.532,53.642,115.23 M118.805,111.381c0.064,0.513,0.103,1.05,0.087,1.574
		C118.283,112.49,118.142,111.801,118.805,111.381 M53.205,111.207c0.245,0.575,0.183,1.225,0,1.836
		C52.47,112.528,52.849,111.658,53.205,111.207 M116.269,111.031c-0.043,0.526-0.19,1.022-0.438,1.487
		c-0.637-0.198-0.823-0.602-1.224-0.175c0.371,0.128,1.291,0.834,1.707,0.62C116.658,112.787,116.812,111.139,116.269,111.031
		 M54.517,112.081c-0.579-0.375-1.196-1.408-1.226-2.099C54.02,110.372,54.405,111.274,54.517,112.081 M50.581,108.757
		c-0.096,0.518-0.098,2.15-1.17,1.008C48.65,108.957,49.893,108.7,50.581,108.757 M123.354,109.457
		c-0.585,0.049-1.917,0.711-1.521-0.612C123.134,107.098,122.939,108.718,123.354,109.457 M118.28,107.97
		c0.028,0.108,0.003,0.197-0.087,0.262C117.977,108.04,117.975,107.936,118.28,107.97 M53.555,106.92
		c0.423,0.574,0.368,1.213,0.087,1.837C52.998,108.365,53.078,107.451,53.555,106.92 M50.581,106.396
		c-0.104,0.163-0.163,0.338-0.175,0.525c0.955-0.063-0.422,1.667-1.079,1.274C48.521,107.713,49.699,105.478,50.581,106.396
		 M116.968,114.18c0.318,0.916,0.874,1.722,1.226,2.624c-1.63-0.206-1.438-1.792-2.843-2.053c-1.415-0.262-0.909-1.439-1.531-2.407
		c-0.289-0.45-1.039-0.564-0.941-1.226c0.851-1.7,1.618-0.562,2.778,0.175c0.152-0.629,0.808-2.571,0.175-2.886
		c-0.079,0.432-0.138,0.881-0.175,1.312c-0.657-0.777-0.416-1.965-0.787-2.799c-0.177,1.214,0.199,2.394,0.35,3.586
		c-1.086-0.616-2.955-1.811-1.962-3.195c1.038-0.782,0.841-1.137,1.024-2.216c0.169-0.988,1.698-0.218,1.849,0.426
		c0.145,0.608-0.186,1.176,0.443,1.617c0.482,0.339,0.581,0.758,0.292,1.269c-0.562,0.992,0.555,1.135,0.873,1.924
		c0.268,0.664-0.625,1.149-0.558,1.837C117.591,112.836,118.152,113.986,116.968,114.18 M54.429,105.346
		c-0.38-0.134-0.549-0.484-0.438-0.875C54.364,104.609,54.435,104.898,54.429,105.346 M58.365,103.597
		c0.375,0.786,0.73,0.485,1.312,0.263c0.06,0.481-0.002,0.948-0.181,1.399c0.107,0.457,0.421,0.825,0.4,1.312
		c-0.013,0.285-0.492,0.429-0.638,0.708c-0.186,0.356-0.002,0.908,0.012,1.303c-0.615,1.063-1.256,0.279-1.524,1.749
		c-0.712,0.539-1.228,0.492-2.094,0.612c0-0.438,0.213-0.461,0.35-0.85c1.077-0.964,0.396-0.102,0.636-0.986
		c0.143-0.527,0.636-0.756,0.938-1.165c0.15-1.18,0.896-2.134,1.489-3.121c-0.602,0.222-0.855,0.819-1.399,1.225
		c-0.638-0.775-0.399,1.426-0.962,1.837c-0.065-0.495-0.125-0.99-0.175-1.487c-0.452,0.458-0.434,1.327,0.175,1.575
		c-0.464,1.013-1.095,2.529-1.836,3.236c-0.371-1.093,1.837-2.876,0.525-3.236v0.962c-0.894-0.576-0.521-0.89-0.351-1.533
		c0.729-0.482,0.468-1.049,0.771-1.789c0.388-0.517,0.91-0.362,1.504-0.599C57.812,104.69,57.937,103.969,58.365,103.597
		 M116.793,104.996C115.157,104.622,117.817,102.158,116.793,104.996 M116.094,102.459c-0.288-0.101-0.447-0.315-0.438-0.612
		C116.039,101.905,116.208,102.092,116.094,102.459 M56.354,101.848c-0.036,0.254-0.183,0.429-0.438,0.524
		C55.794,102.022,56.079,102.028,56.354,101.848 M114.519,100.623v0.175h-0.176C114.342,100.694,114.412,100.641,114.519,100.623
		 M114.869,100.098c-0.031,0.209-0.075,0.34-0.262,0.437C114.671,100.21,114.582,100.041,114.869,100.098 M59.065,101.235
		c-0.662,0.038-1.252-0.483-1.11-1.181C58.304,98.339,59.793,99.568,59.065,101.235 M114.344,99.136
		C116.003,98.768,114.631,100.863,114.344,99.136 M60.202,100.186c-0.921-0.165-0.721-1.55,0.126-1.697
		C62.328,98.143,60.465,99.808,60.202,100.186 M113.382,98.174c0.237,0.379,0.23,0.881,0.088,1.312
		C112.905,99.218,113.061,98.687,113.382,98.174 M108.747,97.736c0.473,1.028,0.37,1.904,1.282,2.748
		c0.575,0.533,0.806,1.551,1.691,1.625c0.01-0.791-0.332-1.79-1.226-1.808c-0.88-0.72-1.122-0.89-0.523-2.041
		C109.574,98.06,109.166,97.885,108.747,97.736 M112.42,97.649c0.064,0.191,0.003,0.352-0.175,0.438
		C112.253,97.891,112.268,97.766,112.42,97.649 M116.706,96.25c0.278,1.058,0.898,2.205,0.7,3.324
		c-0.334-0.35-0.713-0.641-1.137-0.875c0.469,0.78,1.221,1.43,1.662,2.274c0.382,0.067,1.067-2.052,1.225-2.361
		c-0.387-0.001-0.708,0.145-0.962,0.437c-0.044-0.714,0.92-2.112-0.175-2.361c-0.108,0.396-0.169,0.82-0.176,1.224
		C117.395,97.418,117.116,96.587,116.706,96.25 M60.727,94.938C62.467,95.278,60.522,96.139,60.727,94.938 M109.271,94.325
		c0.098,0.422,0.055,0.782,0.35,0.962C109.608,94.789,109.616,94.499,109.271,94.325 M107.872,93.363
		c0.078,0.377,0.225,0.728,0.438,1.049C108.417,94.016,108.228,93.581,107.872,93.363 M114.957,94.763
		c0.195-0.941,0.441-1.076,1.186-0.963c0.432,0.066,0.636,0.777,0.789,1.138c0.572,0.595,1.16,0.434,1.875,0.619
		c0.314,0.237,0.315,0.415,0.572,0.693c-0.206,1.311,0.96,0.802,1.208,1.75c0.109,0.417-0.427,0.886-0.588,1.225
		c-0.128,0.771,0.793,1.331,0.395,2.041c-0.485,0.862-0.932,1.022-0.6,2.07c-0.259,0.771-1.337,1.248-0.898,2.187
		c0.492-0.573,1.26-1.195,1.509-1.924c0.061-1.045,0.805-1.865,0.711-2.844c-0.063-0.655-0.563-1.188-0.18-1.787
		c0.303-0.472,0.422-1.084,0.087-1.554c-0.758-1.06-1.062-1.881-2.126-2.551c-1.339-0.012-1.646-1.328-2.968-1.62
		C114.638,92.958,114.406,93.776,114.957,94.763 M104.46,92.751c0.187,0.115-0.011,0.184,0.351,0.175
		C104.718,92.808,104.602,92.749,104.46,92.751 M106.21,92.576c0.062,0.108,0.338,0.926,0.263,0.788
		c-0.485,0.12-1.017-0.346-1.487-0.438c0.869,0.656,1.85,1.277,2.799,1.837C107.322,94.017,106.688,93.336,106.21,92.576
		 M56.791,94.413c-0.086-0.068-0.375-0.287-0.523-0.35c-0.015,0.944-0.01,1.817-0.438,2.711c-0.382-0.434-0.328-2.034-0.921-1.924
		c-0.167,0.031,0.271,3.249,0.134,3.673c-0.327-0.363-0.45-0.99-1.05-0.7c0.68,1.086,0.664,2.212,0.787,3.412
		c0.3-0.328,0.482-1.089,0.612-1.66c0.407-0.627,1.261-0.947,1.775-1.511c1.524-1.669-1.244,0.525-1.513,0.723
		c0.206-1.609,1.78-2.403,2.537-3.674c-0.585-0.049-0.991,0.647-1.4,0.962C57.272,94.622,58.132,90.623,56.791,94.413 M62.563,94.15
		c1.46-0.158,2.782,0.508,4.199,0.7c-0.211-0.242-0.521-0.453-0.788-0.612c1.051-0.472,1.575,0.35,2.537,0.35
		c-0.186-0.248-0.344-0.689-0.525-0.875c0.614-0.128,1.213,0.054,1.837,0.087c-0.319-0.412-0.231-0.703,0.263-0.875
		c-1.526-0.354-1.09,0.216-2.537,0.542c-0.699,0.176-1.026-0.348-1.924,0.268c-0.354,0.067-0.55-0.327-0.876-0.284
		c-0.772,0.323-1.619,0.428-2.447,0.304c-0.388,0.306-0.544,0.506-1.05,0.483c0.466-0.384,0.971-0.964,1.561-1.233
		c0.449-0.205,0.927,0.01,1.327-0.198c1.032-0.539,0.851-1.854,2.183-1.102c0.768,0.433,0.715,0.388,1.629,0.029
		c1.327-0.521,0.917,0.105,2.091,0.264c0.295,0.041,2.225-0.336,1.658,0.737c-0.329,0.624-0.885,0.767-1.373,1.282
		c-0.351,0.371-0.549,1.274-1.031,1.477c-0.74,0.312-1.46-0.308-2.189,0.238c-0.831,0.62-1.394-0.475-2.226-0.553
		C63.919,95.09,62.846,95.518,62.563,94.15 M57.228,91.119c0.525,0.015,0.819,0.409,1.083,0.845c0.018,0.929,0.973,1.405,0.99,2.187
		c0.021,0.813-0.692,1.178-0.586,2.08c0.195,1.638-1.338,3.038-2.624,3.787c-0.621,0.955-0.457,1.418-1.573,2.005
		c-0.578-0.001-0.635-1.146-0.812-1.521c-0.263-0.555-0.83-0.984-0.85-1.628c-0.017-0.506,0.508-0.808,0.557-1.312
		c-0.727-2.251,0.016-1.002,0.999-2.624c0.643-1.059-0.166-1.346,1.382-1.929C56.942,92.575,56.218,91.529,57.228,91.119
		 M109.009,96.862c-0.541-0.1-1.424-0.729-2.187-0.928c-0.884,0.326-1.534,0.248-1.977-0.55c-0.445-0.804-1.018-0.169-1.674-0.671
		c-0.371-0.284-1.445-2.31-1.36-2.574c0.373-1.15,2.235-0.457,3.087-0.787c0.123,0.747,1.062,0.559,1.662,0.699
		c-0.515-1.94-2.337-0.761-3.762-0.938c-2.237,0.461-1.112,1.492-0.62,2.749c0.585,1.494,1.596,1.426,2.814,2.31
		c0.622,0.45,1.272,0.323,2.003,0.121C107.537,96.576,108.355,97.266,109.009,96.862 M111.371,90.389
		c-0.261,0.551-0.744,0.435-1.225,0.145c-0.147-0.088-0.187-0.298-0.119-0.429C110.269,89.627,111.065,90.326,111.371,90.389
		 M65.712,90.039C65.719,88.307,67.297,89.964,65.712,90.039 M62.476,88.552c0.106,0.699,0.061,1.432-0.176,2.099
		C61.856,90.087,61.873,88.895,62.476,88.552 M68.074,87.678c-0.052,0.373-0.255,0.704-0.612,0.787
		C67.379,88.078,67.679,87.82,68.074,87.678 M110.232,87.394c0.688,0.596,0.807,2.537-0.583,2.1
		C108.84,89.239,109.284,87.419,110.232,87.394 M65.013,86.191c-0.265,1.133-0.479,2.495-1.487,3.236
		C63.597,88.453,64.248,86.811,65.013,86.191 M94.751,85.841c-0.523,0.036-0.787-0.22-0.962,0.262
		c1.032,0.16,2.779,0.893,1.531-0.819C94.827,85.108,94.813,85.408,94.751,85.841 M73.935,86.453
		c0.719,0.423,1.312,0.274,2.096,0.49c0.959,0.264,1.838,0.75,2.802,0.997c-0.498-1.244,1.614,0.138,2.013,0.35
		c-0.179-1.189,1.264-0.792,1.837-1.05c-1.127-0.067-2.31,0.241-3.411-0.175c0.195-0.354,0.622-0.504,1.049-0.7
		c-1.011,0.014-1.937,0.926-2.886,0.437c0.071-0.323,0.274-0.557,0.611-0.7c-0.614,0.26-2.787,1.024-3.264,0.175
		c-0.734-1.311,3.475-1.068,3.486-1.072c0.749-0.276,0.626-0.315,1.347,0.001c0.742,0.326,1.906-0.433,2.424-0.011
		c0.578,0.979,0.501,0.993,1.604,1.287c0.222,0.192,0.636,0.497,0.6,0.845c-0.091,0.883-1.044,0.743-1.643,1.118
		c-0.41,0.258-0.733,0.8-1.231,0.879c-0.489,0.077-0.902-0.378-1.398-0.303c-1.379,0.208-0.786,1.094-2.017,0.083
		c-0.825-0.678-1.663-0.399-2.525-1.179C74.941,87.484,74.138,86.973,73.935,86.453 M93.002,84.791
		c-0.011,0.353,0.02,0.703,0.087,1.05c-0.687-0.324-0.925,0.157-0.787,0.875C92.366,86.653,95.09,85.038,93.002,84.791
		 M99.737,84.616v0.175h0.7C100.245,84.636,100.011,84.578,99.737,84.616 M91.166,84.704c-1.168-0.901-0.996,0.687-0.438,0.788
		c0.061-0.108,0.09-0.225,0.087-0.35c0.562,0.185,1.059,0.442,1.662,0.438C92.22,84.947,91.273,83.303,91.166,84.704
		 M101.574,83.304c0.019,0.268,0.136,0.5,0.35,0.7C102.169,83.565,101.818,83.567,101.574,83.304 M100.524,83.304
		c-0.409,0.014-0.065,0.199-0.875,0.087c0.422,0.406,1.313,0.613,1.049,1.312c0.914-0.056,1.499-0.146,1.05,0.7
		c0.496,0.092,0.991,0.092,1.487,0C102.475,84.43,101.477,84.058,100.524,83.304 M71.135,82.867
		c-0.119,0.854-0.021,1.825-0.875,2.274c0.021-0.835-1.629-1.558-0.763-2.5C70.003,82.091,70.661,82.642,71.135,82.867
		 M93.79,82.955c0.156,0.399,0.333,1.006,0.7,1.318c0.765,0.267,1.466,1.076,2.143,1.252c0.544,0.142,2.052,0.24,0.93,1.142
		c-0.723,0.58-1.267,0.367-2.11,0.464c-0.665,0.613-0.625,0.856-1.453,0.351c-1.297-0.792-0.434,0.184-1.784,0.02
		c-1.255-0.416-1.021-0.922-2.298-0.532c-1.213,0.371-1.116-0.542-1.033-1.393c-0.353-0.807-0.942-0.524-1.653-0.946
		c-1.181-0.7,1.058-2.035,1.398-2.728c0.372,0.13,1.357,0.769,1.73,0.751c0.16-0.007,0.376-0.782,0.716-0.664
		c0.579,0.201,0.617,0.942,1.314,1.26C92.919,83.397,93.293,83.068,93.79,82.955 M96.063,82.955
		c0.375-0.954,1.714,1.209,1.541,1.858c-0.215,0.807-2.876-2.029-3.188-2.271c-0.451-0.353-2.276,0.375-1.996-0.542
		C92.958,80.25,95.598,82.58,96.063,82.955 M82.594,81.292v0.175c0.279,0.119,0.542,0.119,0.786,0
		C83.158,81.312,82.875,81.253,82.594,81.292 M103.848,86.103h-0.438v0.175c1.633,0,0.018-1.354,0.484-2.005
		c0.291-1.037,1.816,1.964,1.855,2.354c-0.636,1.644-0.152,1.018-1.991,1.267c-0.381-0.131-0.632-0.131-0.894-0.479
		c-0.743-0.986-1.438,0.149-2.375-0.438c-0.65-1.215-1.413-0.453-2.099-1.399c-0.318-1.249-0.332-1.896-1.263-2.909
		c-0.34-0.37-0.8-0.69-0.279-1.147c0.427-0.378,1.412,0.056,1.837,0.171c1.307-0.603,1.631-0.325,2.711,0.431
		c0.516,0.241,1.101,0.076,1.457,0.545C103.392,83.374,103.911,85.161,103.848,86.103 M81.019,80.243
		c-0.996,1.782-2.902,2.739,0.875,2.187c-0.899-0.014-1.006-0.131-0.875-0.787c-0.306,0.239-0.626,0.327-0.962,0.262
		C80.499,81.469,81.203,80.59,81.019,80.243 M82.331,79.543c-0.341,0.498-0.586,1.069-0.7,1.662
		c0.206,0.002,0.438-0.074,0.612-0.175C82.081,80.487,82.629,79.769,82.331,79.543 M68.949,86.891
		c0.42-0.145,0.789-0.477,1.137-0.788c0.584-0.286,1.094,0.064,1.662-0.437c-0.377,0.06-0.755,0.09-1.137,0.087
		c0.356-1.659,1.67-0.996,2.624-1.75c-2.19,0.145-0.107-1.114,0.7-1.312c-0.843-0.286-0.495-0.399-0.264-1.225
		c-0.313,0.426-1,1.211-0.875,0c-0.278,0.41-0.547,2.362-1.225,2.362c-0.732,0,0.233-3.146,0.35-3.499
		c1.104,0.692,1.396-0.167,2.361-0.65c0.809-0.405,1.605,0.043,1.451,0.938c-0.24,1.393,0.134,2.776-1.398,3.574
		c-0.391,0.822-0.44,1.314-1.385,1.655c-0.577,0.208-0.777,0.072-1.021,0.607c-0.308,0.67-0.86,0.711-1.521,0.878
		c-1.273,0.322-1.541,1.07-1.891-0.237C67.976,85.068,70.675,84.866,68.949,86.891 M84.78,79.281
		c-0.094,0.101-0.152,0.218-0.175,0.35C84.793,79.575,84.866,79.45,84.78,79.281 M91.166,80.943
		c0.272-0.177,0.766-1.386,1.295-0.919c0.286,0.252-0.341,1.459,0.629,0.744c0.061,1.582-3.395,0.212-3.271-1.134
		c0.061-0.659,0.937-1.167,1.518-0.787C92.048,79.314,90.957,80.347,91.166,80.943 M89.066,78.668
		c0.329,0.521,1.386,2.579,1.063,3.062c-0.284,0.428-1.343-0.188-1.721-0.141c-0.693,0.087-1.131,0.942-1.52,1.43
		c-1.024,1.284-0.309,1.878,1.116,2.23c0.296,0.423-0.132,0.855,0.064,1.378c0.482,0.967,1.093,0.968,1.952,0.758
		c0.842-0.206,0.601-0.149,1.247,0.342c0.714,0.543,1.226,0.34,2.082,0.093c0.595,0.061,1.114,0.778,1.795,0.419
		c0.465-0.246,0.7-0.593,1.181-0.772c1.413,0.207,2.159-1.403,3.315-0.928c0.406,0.167,0.398,0.866,0.883,1.095
		c1.564,0.438,1.454-0.712,2.537,0.917c-1.372-0.363-2.162,0.191-3.467,0.393c-1.012,0.156-2.413-0.109-3.181,0.569
		c1.011-0.304,3.015-0.068,1.574,1.312c0.625-0.625,1.358-1.021,2.132-1.442c1.452-0.792,2.366-0.033,3.816-0.479
		c0.555,0.431,1.394,0.484,1.885,0.901c0.489,0.909,0.755,2.136,1.876,2.072c0.545,0.378,1.085,0.853,1.662,1.223
		c0.976,0.178,1.071-0.212,1.352,0.829c0.18,0.666-0.022,1.479,0.123,1.97c0.437,0.729,0.87,1.084,0.539,1.924
		c-0.672-0.425-1.016-1.525-1.837-1.574c0.476,0.699,0.919,1.419,1.448,2.081c0.502,0.629,0.538,1.676,1.352,1.331
		c-0.065,0.471,0.146,0.774,0.612,0.875c-0.191,0.355-0.346,0.758-0.437,1.137c0.399-0.045,0.75,0.071,1.049,0.35
		c-0.388-0.813,0.102-1.705,0.788-2.187c-0.181,0.528,0.269,1.199-0.351,1.312c0.09,0.673,0.144,0.381,0.263,0.7
		c0.222-0.083,0.426-0.199,0.611-0.35c-0.138,0.763-0.399,1.47-1.137,0.612c0.451,2.205,1.213-0.26,1.749-0.087
		c-0.281,1.167-0.35,1.74-1.399,2.559c-0.276,0.535-0.396,0.904-0.304,1.552c-0.192,0.453-0.68,0.703-0.95,1.146
		c-0.927,1.523,0.363,1.385,0.466,2.439c0.105,1.069-1.612,1.282-0.343,2.45c0.821,0.755,0.613,1.701,1.306,2.623
		c0.488,0.412,1.26,0.425,1.782,0.789c0.202,1.033,1.062,1.243,1.884,1.749c0.351,0.578,0.238,1.324,0.216,1.988
		c-0.042,1.212,0.06,4.559-0.646,5.184c-0.126-0.737-0.261-1.479-0.261-2.229c0-0.969,0.569-1.624,0.297-2.61
		c-0.31-1.122-1.236-1.641-1.699-2.597c-1.134,0.871-1.686,3.847-0.063,4.648c0.261,0.129,0.708,0.026,0.909,0.218
		c0.386,0.366,0.39,2.212,0.38,2.655c-0.999-0.701-1.88-1.95-2.948-0.418c-0.565,0.812,0.097,1.535-0.698,2.267
		c-0.087,0.515,0.279,1.36,0.063,1.737c-0.396,0.693-1.494,1.32-0.853,2.219c0.495,0.693,1.076,0.75,1.372,1.63
		c0.045,0.494-0.551,1.204-0.7,1.662c0.606-0.58,1.158-1.317,1.662-2.013c-0.432-0.157-2.01-1.23-2.13-1.75
		c-0.091-0.391,0.117-0.621,0.293-0.949c0.75-0.604,1.009-0.639,0.722-1.541c-0.16-0.504,0.249-2.596,0.572-3.113
		c0.489-0.785,1.074-0.657,1.615,0.018c0.296,0.902,1.278,1.242,1.45,2.088c-0.289,1.146-0.812,1.638,0.104,2.537
		c-0.113,0.781-0.397,1.254-1.225,1.486c0.021-0.1,0.093-0.682,0.087-0.611c-1.244,1.078,0.17,1.649-1.148,2.472
		c-2.196,1.368-2.763,4.177-4.713,5.663c-0.145-0.87-0.103-1.775,0.139-2.624c-0.271-0.665-0.378-1.386-0.313-2.099
		c-1.152,0.758-4.258,3.344-3.121,4.981c1.913,2.755-3.201,0.735-4.139,1.205c-0.379,0.312-0.997,1.646-1.533,1.503
		c-0.488-0.13-0.708-0.439-1.266-0.27c-0.764,0.598-1.188,2.908-2.101,2.838c-0.685-0.051-0.733-0.446-0.523-1.074
		c-1.542,0.086-3.619-0.072-4.287,1.705c-0.659,1.755-2.424,5.543-4.897,4.505c0.971-1.378,3.526-2.487,2.29-4.435
		c-0.815-1.285-2.516-0.898-3.799-0.865c-1.604,0.043-3.031-0.209-4.594-0.523c-4.898-0.986-3.592,4.355,0.331,4.773
		c-0.789-0.846-2.092-1.225-2.896-2.274c-0.422-0.726-0.468-2.034,0.62-2.03c1.211,0.004,3.049-0.371,4.031,0.621
		c0.429,0.432,0.093,1.137,0.692,1.321c0.065-1.323,0.04-1.981,0.875-0.612c0.134-1.158,0.65-0.85,0.962,0.176
		c0.37-0.027,0.228-0.762,0.611-1.051c0,0.418,0.06,0.825,0.175,1.225c0.491-0.307,0.07-0.939,0.525-1.225
		c0.162,0.742-0.271,1.666,0.087,2.012c-0.345,0.555-0.842,1.029-1.049,1.574c0.603-0.506,1.351-1.127,2.099-1.398
		c0.358,0.994-1.49,2.561-2.361,2.638c-0.32,0.028-1.116-0.685-1.419-0.817c-1.317-0.582-1.892-1.008-2.691-2.258
		c1.543,0.269,3.172,0.662,4.723,0.262c-1.441-0.229-6.298-1.92-7.26-0.438c1.121,0,0.829-0.378,1.462,0.535
		c0.486,0.702,1.076,0.546,1.598,1.111c0.798,0.863-0.269,1.074-0.697,1.766c0.334,0.018,0.558,0.203,0.612,0.525
		c-1.374-0.33-3.053-0.228-4.326-0.814c-1.001-0.462-1.233-1.062-2.146-0.936c0.514-0.506,0.119-2.094-0.171-2.75
		c-0.612-1.387-0.129-1.625-1.491-2.672c-0.603-1.047-1.525-2.477-2.974-2.217c-0.679-0.438-0.878-1.267-1.636-1.693
		c-1.592-0.896-1.812,0.684-2.825,1.295c-0.7-0.059-1.582,0.058-1.793,0.865c-0.268,1.018,1.052,1.183,1.006,2.013
		c-0.788-0.362-1.838-0.931-2.482-1.575c-0.488-1.191-1.562-1.71-2.004-2.93c-0.28-0.773,1.124-1.602,1.26-2.534
		c0.199-1.384-0.856-2.447-1.496-3.545c-0.208,0.485-0.536,0.856-0.886,1.276c-0.709,0.849-0.584,2.444-1.65,1.436
		c0.284,0.857,0.57,1.725,1.022,2.512c0.376,0.654,1.077,1.072,1.419,1.692c0.27,0.485-0.226,0.687-0.693,0.694
		c-0.071-0.207-0.231-0.367-0.438-0.438c-0.147,1.116,0.681,1.253,1.616,1.235c0.722-0.014,0.854,0.283,1.276,0.897
		c0.724,1.058,0.707,1.611,2.004,2.065c-0.194,0.171-0.312,0.375-0.351,0.611c-0.897-0.451-1.561-1.091-2.273-1.662
		c0.118,0.896,1.106,1.252,0.611,2.012c1.308-0.381,2.67,0.627,3.499,1.574c1.476-0.537-1.195,0.494-0.962,0.438h0.875
		c-1.003,0.56,0.269,1.249,0.263,2.274c0.388-0.303,2.359-1.357,1.946,0.086c-0.444,1.561-4.582-0.289-3.783-2.273
		c-0.588,0.18-1.109,0.031-1.574,0.262c0.72,0.032,0.755,0.43,0.816,1.051c0.441,0.893,1.328,1.498,2.286,1.714
		c1.013,0.229,2.069,0.096,2.693-0.771c0.74-1.029,1.51-0.738,2.688-0.418c-0.04-0.432-0.14-0.984-0.175-1.312
		c0.688,0.4,3.472,1.24,4.024,0.35c0.142,0.514-0.094,0.898-0.7,0.875c0.029,0.35,0.204,0.641,0.525,0.875
		c-0.626-0.062-2.676,0.1-2.188-1.137c-0.441-0.146-0.925,0.217-1.137,0.525c0.197,0.27,0.431,0.502,0.7,0.699
		c-0.24,0.078-0.236,0.065-0.438,0.088c1.396,1.59-0.906,1.461-0.438,0.086c-0.538-0.006-0.916,0.33-0.771,0.832
		c0.089,0.305,0.395,0.545,0.683,0.693c1.328,0.188,2.361-0.287,3.575,0.637c0.863,0.658-1.682,1.254-0.907,1.858
		c0.773,0.604,2.6,0.998,3.367,0.354c-0.769,0.019-1.938,0.301-1.137-0.701c-0.422,0.173-0.86,0.289-1.312,0.351
		c-0.126-2.722,2.753-1.104,3.616-0.026c1.848,2.305,3.35-0.9,4.999-1.398c0.64-0.193,1.407,1.438,1.733,1.836
		c1.14,1.052,2.697,0.783,3.92,0.043c0.423-0.256,1.095-1.227,1.629-0.826c0.815,0.613,1.054,1.958,2.383,1.598
		c-1.081-0.17-2.697-1.771-1.05-2.449c0.184,0.666,1.995,3.063,2.449,2.012c-1.083-0.146-2.042-1.141-2.012-2.273
		c0.674,0.284,2.559,2.068,3.323,1.805c0.792-0.274,0.496-1.107-0.091-1.4c-1.219-0.607-3.062,0.286-4.021-1.385
		c-0.187-0.325,0.055-0.204,0.089-0.492c0.281-0.186,0.589-0.273,0.925-0.268c0.404-0.287,0.148-0.864,0.649-1.234
		c-0.031,0.454,0.179,0.771,0.611,0.875c-0.135-1.635,1.214-1.673,2.21-0.925c2.086,1.565,4.851,1.471,7.324,1.362
		c-1.229-0.375-2.019,0.01-3.264-0.227c-1.194-0.227-3.141-0.133-1.771-1.309c0.348-0.297,0.55-1.023,1.011-1.156
		c0.318-0.094,0.91,0.456,1.401,0.439c1.139-0.035,1.823,0.318,2.878-0.35c0.333,0.049,0.363-0.045,0.603,0.282
		c0.245,0.336,0.457,0.987,0.628,1.374c0.068,0.154,0.583,0.105,0.628,0.421c-0.064,0.448-0.446,0.481-0.803,0.644
		c-0.285,0.26-0.55,0.541-0.792,0.842c-0.839,0.197-1.374-0.18-2.2,0.158c-1.448,0.592-2.146-0.955-3.655,0.073
		c-1.379,0.167-1.774-2.754-3.761-2.419c0.61,0.631,1.594,0.788,2.181,1.695c0.214,0.332,0.398,0.818,0.793,1.017
		c0.714,0.144,1.633-0.374,2.203-0.231c0.972,1.619,2.201,0.346,3.524,0.391c1.217,0.041,2.327-0.729,3.207-1.54
		c0.548-0.507,0.337-0.788,0.134-1.267c-0.991-0.477-1.214-1.733-2.332-1.896c-0.564-0.082-1.341,0.882-1.759,0.343
		c-0.519-0.681,0.591-1.182,0.966-1.388c0.521-0.33,0.375-0.451,0.857-0.503c0.794,0.882,2.204,0.111,3.205,0.395
		c1.571,0.442,1.86-0.933,3.111-1.037c1.273-0.105,1.223-0.646,2.282-1.355c1.599-1.07,2.013-5.102-0.804-4.162
		c-0.281,0.096-1.595,0.631-1.491-0.215c0.091-0.748,0.465-1.916,1.152-2.318c0.019,0.793-0.621,1.487,0.525,1.487
		c1.014-0.39,1.938-0.985,2.711-1.75c1.446-0.035,2.217-0.495,3.144-1.575c0.738-1.543-1.377-0.809-1.804-0.447
		c-1.034,0.873-2.224,3.262-3.739,3.16c1.529-2.154,1.568-4.297,4.032-5.812c1.125-0.692,1.517-1.547,2.916-1.172
		c1.102-0.443,1.058-1.432,1.836-2.072c1.116-0.202,2.267-1.007,2.136-2.247c-0.041-0.39-0.399-0.981-0.33-1.335
		c0.102-0.525,0.56-0.875,0.684-1.443c0.004-1.154-1.066-1.233-1.931-1.008c-1.028,0.267-1.635-0.318-2.745,0.046
		c0.359-1.513,1.709-1.84,2.886-2.502c1.388-1.14,0.357-2.625,0.612-4.058c-0.758,0.641-2.077,0.546-2.449,1.662
		c0.844-0.437,1.857-1.225,2.273,0.263c-1.074,0.274-1.344,0.251-2.448-0.087c-0.489,0.809-0.561,1.584-0.12,2.449
		c-0.133,0.661-1.231,1.647-1.629,2.362c-0.151-1.776,0.083-3.986,0.549-5.728c0.317-1.184,0.751-2.333,1.075-3.516
		c0.365-1.333,0.803-0.366,1.349-1.34c-0.641,0.05-2.486-0.864-1.662-1.746c0.522-0.835,2.125,0.688,2.1,1.396
		c1.452-0.915,0.748-3.514,0.699-4.898c-0.689,0.248-2.312,1.784-2.703,2.392c-0.66,1.029-0.535,1.833-0.074,2.943
		c-0.048,0.369-0.183,0.705-0.401,1.007c-0.74,0.515-0.546,1.118-0.932,1.879c-1.437-2.413-1.524-6.576-1.051-9.271
		c-0.772,0.055-1.222,0.094-1.471-0.962c0.452-1.228-0.288-1.762-0.793-2.792c-0.269-0.55-1.001-0.615-1.184-1.232
		c-0.173-0.587,0.558-1.119,0.105-1.656c-1.479-1.253-0.352-1.237-0.854-2.804c-0.39,0.277-0.613,0.863-0.787,1.399
		c-1.339-0.937-0.398-1.973-0.788-3.324c0.363-1.623-0.551-1.809-1.021-3.205c-0.346-1.028-0.231-2.593-0.834-3.484
		c-0.379-0.56-1.265-0.719-1.817-1.008c-0.321,1.587-0.743,4.241,1.574,4.516c1.352,1.143,0.739,2.641,1.312,4.144
		c-0.929,0.169-0.871-2.634-1.924-3.149c0.103,2.078-1.707-1.249-1.945-1.761c-0.839-1.81-0.851-0.411-1.902-0.076
		c1.104-3.531-0.641-5.856-3.178-8.057c-1.498-1.299-2.955-0.905-4.606-0.885c-1.073-0.472-2.515-0.143-2.537,1.158
		c-0.771-0.541-1.552-1.063-2.325-1.599c-0.333-0.43-0.279-1.005-0.589-1.462C92.189,78.305,90.456,78.447,89.066,78.668
		 M82.943,80.68c0.321-0.205,2.363-3.882,3.033-1.921c0.128,0.377-0.158,0.592-0.357,0.894c-0.381,0.581,0.15,1.101-0.224,1.625
		c-0.271,0.378-0.945,0.416-1.285,0.58c-0.241,0.171-0.191,0.575-0.37,0.795c-0.51,0.63-1.913,0.375-2.611,0.712
		c-0.767,0.37-1.718,0.483-2.209-0.236c-0.431-1.691,0.867-1.376,0.648-2.974c0.614-0.779,1.163-0.55,1.903-1.242
		c0.35-0.212,0.363-1.168,0.963-0.512C83.473,79.539,83.156,78.962,82.943,80.68 M62.826,92.051
		c-0.426-2.021,2.545-4.443,2.974-6.472c-1.617-0.698-2.021,2.466-2.711,2.886c-0.037-0.962,0.308-2.094-0.875-2.187
		c-0.265,1.888-0.434,3.788-0.621,5.686c-0.116,1.185-0.702,1.056-0.865,2.011c-1.255-1.306-3.568-5.297-4.729-1.706
		c-0.21,0.65-1.472,0.663-1.866,1.27c-0.793,1.221-0.119,1.228-1.577,2.209c-0.411,0.695,0.09,1.269,0.037,1.987
		c-0.784,1.615,0.3,2.699,0.925,4.199c0.658,1.582-0.44,3.864-0.722,5.459c-0.354,2.016-0.625,4.048-0.814,6.086
		c-0.132-0.399-0.243-1.035-0.574-1.399c-0.434-0.226-0.928-0.538-0.939-1.091c-0.011-0.534,0.533-0.599,0.85-0.947
		c0.674-0.745,0.378-1.584,0.131-2.453c-0.21-0.739-0.635-2.25-1.354-2.641c-0.377-0.205-1.076,1.436-1.224,1.744
		c-1.177,2.464,0.869,3.589,1.538,5.738c-0.495-0.104-0.831-0.352-1.312-0.35c0.773,1.094,2.154,0.784,2.528,2.452
		c0.284,1.267,0.85,2.176,0.883,3.583c-0.812-0.883-1.808-1.678-2.744-2.381c-0.617-0.463-1.595-0.417-2,0.282
		c-0.112,0.192-0.084,0.485-0.153,0.7c0.342,1.125-0.104,1.48-0.5,2.537c-0.002,0.52,0.059,0.623,0.404,1.112
		c0.621,0.88,0.125,0.776,0.216,1.687c0.083,0.834,1.081,0.983,1.5,1.576c0.45,0.637,0.209,0.924,1.004,1.35
		c1.386-0.232,2.619,1.566,3.388,2.484c1.218,1.459,1.695,3.418,2.298,5.174c-1.402-0.323,0.475,1.144,0.612,1.312
		c-1.723,0.346-3.061-1.599-2.904-3.062c-0.438-2.236-1.794-1.967-3.153-3.061c-0.756,0.23-0.574,2.738-0.159,3.5
		c0.458,0.84,1.34,1.246,2.28,1.076c0.896,0.348,1.802,1.086,2.6,1.645c0.945,0.66,4.178,3.05,1.256,3.346
		c-1.047,0.105-1.277,0.217-1.836,1.05c-0.574,0.854,0.67,1.458,0.892,2.11c0.327,0.961,0.159,1.67,1.199,2.265
		c1.088,0.315,1.463,0.292,2.509,0.834c0.945,0.491,1.405-0.401,2.216-0.188c0.949,0.547,1.167,1.246,2.36,0.981
		c-0.825-0.741-2.119-1.655-3.272-1.125c-1.082,0.497-1.645-0.758-2.669-0.881c-1.226-0.146-1.258-0.666-1.586-1.792
		c-0.203-0.693-1.436-1.536-1.04-2.219c0.458-0.791,0.838-0.379,1.746-0.514c1.18-0.328,1.087-1.068,2.033,0.409
		c0.832,0.414,0.768-0.003,1.728-0.087c-0.785-0.389-1.042-0.959-1.137-1.924c-0.188,0.141-0.274,0.345-0.264,0.611
		c-0.9-0.438-1.7-1.164-2.099-2.1c0.576,0.482,0.954-0.176,1.05-0.438c0.112,0.693,0.04,1.334,0.438,1.662
		c0-1.479,0.012-1.486-0.396-2.406c-0.545-0.801-1.343-1.592-1.749-2.404c-0.274-0.547,0.408-0.714-0.185-1.311
		c-0.427-0.43-0.997-0.248-1.264-0.963c-0.136-0.53,0.559-0.893,0.498-1.4c-0.938-1.624-0.199-1.359,0.347-2.755
		c0.25-0.638-0.396-1.163,0.153-1.646c0.96-0.845,1.753,1.053,2.419,1.467c1.98-0.303,1.228,0.81,1.571,1.885
		c0.196,0.613,0.695,0.799,0.825,1.398c0.038,0.178-0.353,0.428-0.34,0.612c0.061,0.218,0.512,1.216,0.416,1.399
		c-0.137,0.258-0.524,0.488-0.729,0.701c-0.171,0.356,0.173,0.703,0.104,1.092c-0.029,0.166-0.174,0.609-0.446,0.523
		c-0.734-0.23-0.247-2.439-0.087-2.929c-0.184,0.147-0.384,0.337-0.525,0.524c-0.434-1.07-0.248-1.914,0.175-2.974
		c-0.408-0.047-0.769,0.392-0.962,0.7c-0.27-0.827,0.014-1.205,0.087-2.012c-0.24,0.02-0.312,0.186-0.437,0.35
		c-0.301-0.417-0.504-1.557-1.137-1.398c0.169,0.459,0.315,0.924,0.437,1.398c-0.299-0.175-0.62-0.292-0.962-0.35
		c0.51,0.859,1.312,1.359,1.574,2.361c-0.441-0.187-1.559-0.979-1.924-0.438c1.151,0.328,2.092,1.211,2.448,2.361
		c-0.55-0.147-0.784-0.344-1.312-0.35c0.761,0.846,1.543,0.979,1.809,2.189c0.188,0.854,0.246,1.953,0.729,2.621
		c0.351-1.852,2.392-3.396,1.855-5.334c0.129-0.945,0.646-0.936,0.07-1.812c-0.545-0.83-0.782-2.149-1.415-2.802
		c-0.503-0.52-0.964-0.396-1.561-0.704c-0.457-0.568-1.093-0.987-1.807-1.151c-1.333-0.306-2.396,0.994-2.2-1.49
		c0.057-0.107,0.092-0.181,0.176-0.262c1.095-0.024,1.683-0.346,2.177-1.335c0.609-1.222,0.205-2.476,0.166-3.741
		c-0.562,0.933-1.966,0.911-2.862,1.597c-0.936-0.263-0.126-2.428,0.196-2.996c-0.021-0.758,0.021-1.752,0.529-2.361
		c0.689-0.829,1.634-0.396,2.502-0.813c0.637-0.307,0.752-0.494,0.83-1.11c0.538-0.528,1.199-0.638,1.414-1.475
		c0.182-0.712,0.792-1.021,0.923-1.676c0.132-0.662-0.07-1.326,0.011-2.009c0.102-0.855-0.053-1.16-0.832-1.66
		c-0.465-0.158-1.879-0.548-2.316-0.226c-0.48,1.648-0.541,1.225-1.531,1.895c-0.602,0.407-0.729,0.139-0.947,1.002
		c-0.147,0.582-0.097,0.964-0.715,1.084c0.812-2.033,2.051-3.86,2.974-5.86c2.309,2.078,4.05-1.031,4.724-2.887
		c-1.299-0.275-2.413,0.163-3.626,0.465c0.094-0.883,1.465-1.495,2.263-1.827c1.158-0.483,0.391-0.446,0.979-1.14
		c0.349-0.411,1.102,0.345,1.26,0.446c0.534,0.139,0.73,0.135,1.32-0.02c1.001-0.262,1.229,0.277,2.217,0.167
		c0.862-0.095,1.158-0.51,2.048-0.459c0.869,0.05,1.372-0.284,1.97-0.913c0.511-0.538,2.257-1.403,2.08-2.325
		c-0.284-1.474-2.853-1.647-4.124-1.543c-1.081,0.58-1.519,0.818-2.405-0.068c-0.178-0.179-0.186-0.341-0.045-0.554
		c0.632-0.96,2.878-1.756,3.896-2.268c2.025-1.018,3.208-1.727,4.909,0.068c0.709,0.749,1.249,0.92,2.306,0.966
		c0.376,0.309,0.738,0.717,1.225,0.816c0.567,0.116,1.194-0.253,1.662-0.552c0.465,0.139,1.238,0.285,1.703,0.082
		c0.541-0.236,2.07-1.109,2.467-1.509c0.305-0.308,0.288-0.73,0.132-1.116c-0.39-0.964-1.485-0.708-1.966-1.748
		c-0.851-0.478-1.287,0.084-2.162-0.026c-1.336-0.695-1.415-0.124-2.755-0.109c-0.426,0.004-0.945-0.157-0.921-0.647
		c0.045-0.92,1.908,0.017,2.284-0.131c2.599-1.019,5.127-0.071,7.072-2.675c0.478-1.29,1.418-3.852-1.025-3.493
		c-0.883,0.129-1.124,0.305-1.974,0.013c-0.654-0.226-0.95-0.157-1.546,0.134c-0.412,0.147-0.894,0.78-1.422,0.996
		c-1.396,0.57-0.679,1.446-1.759,2.375c-0.101,0.196-0.113,1.016-0.347,1.081c-1.449,0.406-1.146-1.356-1.262-2.396
		c-0.195-1.767-1.881-1.821-3.072-0.62c-0.672,0.678-1.455-0.109-2.076,0.531c-0.413,0.424-0.479,1.064-0.966,1.389
		c-0.741,0.492-1.646,0.566-1.779,1.651c0.142,0.733,0.758,1.287,0.092,1.893c-0.517,0.471-0.995,0.42-1.02,1.212
		C67.773,88.574,63.904,90.072,62.826,92.051"/>
	<path d="M152.323,219.242h6.937l1.109-3.184c0.286-0.796,0.429-1.482,0.429-2.062c0-0.892-0.336-1.531-1.008-1.916
		c-0.671-0.387-1.62-0.578-2.844-0.578v-0.36h9.144v0.36c-1.655,0-2.939,0.625-3.852,1.873c-0.504,0.697-1.152,2.141-1.944,4.328
		l-6.084,16.945h-0.72l-7.776-21.129c-0.359-0.984-0.72-1.568-1.08-1.749c-0.359-0.181-1.439-0.271-3.239-0.271v-0.359h13.283v0.359
		c-1.8,0-3.035,0.065-3.707,0.198c-0.673,0.134-1.009,0.404-1.009,0.813l0.072,0.361L152.323,219.242z M152.501,219.637l3.29,9.166
		l3.29-9.166H152.501z"/>
	<path d="M19.652,25.605h-6.938l-1.108,3.183c-0.286,0.796-0.43,1.483-0.43,2.062c0,0.892,0.337,1.531,1.009,1.917
		c0.671,0.386,1.62,0.578,2.844,0.578v0.36H5.885v-0.36c1.656,0,2.94-0.625,3.853-1.874c0.504-0.697,1.152-2.14,1.944-4.327
		l6.084-16.946h0.72l7.776,21.129c0.359,0.985,0.72,1.569,1.079,1.749c0.36,0.18,1.44,0.27,3.24,0.27v0.36H17.297v-0.36
		c1.801,0,3.036-0.065,3.708-0.198c0.672-0.133,1.009-0.404,1.009-0.813l-0.072-0.362L19.652,25.605z M19.474,25.208l-3.29-9.166
		l-3.29,9.166H19.474z"/>
</g>
</svg>
