<?xml version="1.0" encoding="utf-8"?>
<!-- Generator: Adobe Illustrator 16.0.0, SVG Export Plug-In . SVG Version: 6.00 Build 0)  -->
<!DOCTYPE svg PUBLIC "-//W3C//DTD SVG 1.1//EN" "http://www.w3.org/Graphics/SVG/1.1/DTD/svg11.dtd">
<svg version="1.1" id="Layer_1" xmlns="http://www.w3.org/2000/svg" xmlns:xlink="http://www.w3.org/1999/xlink" x="0px" y="0px"
	 width="171.512px" height="247.046px" viewBox="0 0 171.512 247.046" enable-background="new 0 0 171.512 247.046"
	 xml:space="preserve">
<g>
	<path fill="#FFFFFF" d="M9.367,245.8c-4.476,0-8.117-3.643-8.117-8.118V9.367c0-4.476,3.642-8.117,8.117-8.117h152.788
		c4.47,0,8.107,3.641,8.107,8.117v228.315c0,4.476-3.638,8.118-8.107,8.118H9.367z"/>
	<path fill="#D4D4D4" d="M162.155,2.5c3.769,0,6.857,3.089,6.857,6.867v228.315c0,3.778-3.09,6.868-6.857,6.868H9.367
		c-3.778,0-6.867-3.09-6.867-6.868V9.367C2.5,5.589,5.589,2.5,9.367,2.5H162.155 M162.155,0H9.367C4.202,0,0,4.202,0,9.367v228.315
		c0,5.166,4.202,9.368,9.367,9.368h152.788c5.16,0,9.357-4.202,9.357-9.368V9.367C171.513,4.202,167.315,0,162.155,0z"/>
	<path d="M12.796,47.976c0,1.809,1.511,3.279,3.379,3.279c1.869,0,3.38-1.47,3.38-3.279c0-1.81-1.511-3.279-3.38-3.279
		C14.306,44.697,12.796,46.167,12.796,47.976z"/>
	<path d="M8.438,54.184c0,1.81,1.51,3.279,3.379,3.279s3.379-1.469,3.379-3.279s-1.51-3.279-3.379-3.279S8.438,52.374,8.438,54.184z
		"/>
	<path d="M17.095,54.204c0,0.66,0.199,1.279,0.55,1.799c0.6,0.89,1.648,1.479,2.829,1.479c1.868,0,3.378-1.47,3.378-3.279
		c0-1.81-1.51-3.279-3.378-3.279C18.604,50.925,17.095,52.394,17.095,54.204z"/>
	<path d="M12.206,60.571c1.67,0,2.55-1.359,3.009-2.719c0.46-1.359,0.5-2.719,0.5-2.719h0.86c0,0,0.159,5.428,3.498,5.438H12.206z"
		/>
	<path d="M18.464,50.385c-1.898,1.899-1.898,4.749-1.898,4.749l-0.851,0.01c0,0,0-2.909-1.849-4.758"/>
	<path d="M18.084,56.483c-1.898-1.899-4.748-1.899-4.748-1.899v-0.85c0,0,2.909,0,4.759-1.85"/>
	<path d="M14.275,56.493c1.898-1.899,4.748-1.899,4.748-1.899v-0.85c0,0-2.908,0-4.758-1.849"/>
	<path d="M159.717,198.078c0-1.811-1.51-3.279-3.379-3.279s-3.379,1.469-3.379,3.279c0,1.809,1.51,3.278,3.379,3.278
		S159.717,199.886,159.717,198.078z"/>
	<path d="M164.075,191.869c0-1.809-1.51-3.279-3.379-3.279s-3.379,1.471-3.379,3.279c0,1.811,1.51,3.279,3.379,3.279
		S164.075,193.679,164.075,191.869z"/>
	<path d="M155.418,191.849c0-0.66-0.2-1.279-0.55-1.799c-0.6-0.891-1.649-1.479-2.829-1.479c-1.869,0-3.379,1.47-3.379,3.279
		s1.51,3.278,3.379,3.278S155.418,193.66,155.418,191.849z"/>
	<path d="M160.307,185.481c-1.67,0-2.551,1.36-3.01,2.72c-0.46,1.358-0.5,2.719-0.5,2.719h-0.859c0,0-0.159-5.428-3.498-5.438
		H160.307L160.307,185.481z"/>
	<path d="M154.049,195.667c1.899-1.898,1.899-4.748,1.899-4.748l0.85-0.01c0,0,0,2.908,1.85,4.758"/>
	<path d="M154.429,189.57c1.898,1.899,4.747,1.899,4.747,1.899v0.85c0,0-2.908,0-4.758,1.849"/>
	<path d="M158.237,189.56c-1.899,1.898-4.748,1.898-4.748,1.898v0.851c0,0,2.908,0,4.758,1.849"/>
	<path d="M38.305,28.066c0,4.342,3.623,7.869,8.108,7.869c4.486,0,8.108-3.526,8.108-7.869c0-4.343-3.622-7.869-8.108-7.869
		C41.928,20.197,38.305,23.724,38.305,28.066z"/>
	<path d="M27.845,42.965c0,4.342,3.622,7.869,8.108,7.869s8.108-3.527,8.108-7.869c0-4.343-3.622-7.869-8.108-7.869
		S27.845,38.622,27.845,42.965z"/>
	<path d="M48.621,43.013c0,1.583,0.479,3.071,1.319,4.318c1.438,2.135,3.959,3.551,6.789,3.551c4.486,0,8.108-3.527,8.108-7.869
		c0-4.342-3.622-7.869-8.108-7.869S48.621,38.67,48.621,43.013z"/>
	<path d="M36.89,58.295c4.006,0,6.116-3.263,7.221-6.525c1.104-3.262,1.2-6.526,1.2-6.526h2.062c0,0,0.384,13.027,8.397,13.051
		H36.89z"/>
	<path d="M51.908,33.848c-4.559,4.558-4.559,11.396-4.559,11.396l-2.039,0.024c0,0,0-6.981-4.438-11.419"/>
	<path d="M50.996,48.482C46.437,43.924,39.6,43.924,39.6,43.924v-2.039c0,0,6.98,0,11.42-4.438"/>
	<path d="M41.855,48.507c4.559-4.559,11.396-4.559,11.396-4.559v-2.039c0,0-6.98,0-11.42-4.438"/>
	<path d="M54.379,213.837c0-4.342-3.623-7.869-8.108-7.869c-4.486,0-8.108,3.527-8.108,7.869s3.622,7.869,8.108,7.869
		C50.756,221.707,54.379,218.18,54.379,213.837z"/>
	<path d="M64.839,198.939c0-4.342-3.622-7.869-8.108-7.869s-8.108,3.527-8.108,7.869s3.622,7.869,8.108,7.869
		S64.839,203.281,64.839,198.939z"/>
	<path d="M44.062,198.891c0-1.583-0.479-3.071-1.319-4.317c-1.438-2.136-3.959-3.552-6.789-3.552c-4.486,0-8.108,3.526-8.108,7.869
		c0,4.342,3.622,7.869,8.108,7.869S44.062,203.233,44.062,198.891z"/>
	<path d="M55.794,183.609c-4.006,0-6.117,3.264-7.221,6.525c-1.104,3.262-1.2,6.525-1.2,6.525h-2.062c0,0-0.385-13.027-8.397-13.051
		H55.794z"/>
	<path d="M40.776,208.056c4.558-4.559,4.558-11.396,4.558-11.396l2.039-0.023c0,0,0,6.98,4.438,11.42"/>
	<path d="M41.688,193.421c4.559,4.559,11.396,4.559,11.396,4.559v2.039c0,0-6.98,0-11.419,4.438"/>
	<path d="M50.828,193.397c-4.559,4.56-11.396,4.56-11.396,4.56v2.039c0,0,6.98,0,11.42,4.438"/>
	<path d="M118.133,28.066c0,4.342,3.622,7.869,8.108,7.869s8.109-3.526,8.109-7.869c0-4.343-3.623-7.869-8.109-7.869
		S118.133,23.724,118.133,28.066z"/>
	<path d="M107.673,42.965c0,4.342,3.622,7.869,8.108,7.869s8.109-3.527,8.109-7.869c0-4.343-3.623-7.869-8.109-7.869
		S107.673,38.622,107.673,42.965z"/>
	<path d="M128.449,43.013c0,1.583,0.479,3.071,1.319,4.318c1.438,2.135,3.958,3.551,6.789,3.551c4.485,0,8.108-3.527,8.108-7.869
		c0-4.342-3.623-7.869-8.108-7.869C132.071,35.144,128.449,38.67,128.449,43.013z"/>
	<path d="M116.717,58.295c4.008,0,6.118-3.263,7.223-6.525c1.104-3.262,1.199-6.526,1.199-6.526h2.062
		c0,0,0.384,13.027,8.396,13.051H116.717z"/>
	<path d="M131.735,33.848c-4.56,4.558-4.56,11.396-4.56,11.396l-2.038,0.024c0,0,0-6.981-4.438-11.419"/>
	<path d="M130.824,48.482c-4.559-4.558-11.396-4.558-11.396-4.558v-2.039c0,0,6.98,0,11.42-4.438"/>
	<path d="M121.684,48.507c4.558-4.559,11.396-4.559,11.396-4.559v-2.039c0,0-6.98,0-11.42-4.438"/>
	<path d="M134.207,213.837c0-4.342-3.623-7.869-8.108-7.869c-4.486,0-8.108,3.527-8.108,7.869s3.622,7.869,8.108,7.869
		C130.584,221.707,134.207,218.18,134.207,213.837z"/>
	<path d="M144.667,198.939c0-4.342-3.623-7.869-8.108-7.869c-4.486,0-8.108,3.527-8.108,7.869s3.622,7.869,8.108,7.869
		C141.044,206.808,144.667,203.281,144.667,198.939z"/>
	<path d="M123.891,198.891c0-1.583-0.479-3.071-1.319-4.317c-1.439-2.136-3.959-3.552-6.79-3.552c-4.486,0-8.108,3.526-8.108,7.869
		c0,4.342,3.622,7.869,8.108,7.869S123.891,203.233,123.891,198.891z"/>
	<path d="M135.622,183.609c-4.006,0-6.117,3.264-7.221,6.525c-1.104,3.262-1.2,6.525-1.2,6.525h-2.062
		c0,0-0.385-13.027-8.396-13.051H135.622z"/>
	<path d="M120.604,208.056c4.559-4.559,4.559-11.396,4.559-11.396l2.039-0.023c0,0,0,6.98,4.438,11.42"/>
	<path d="M121.516,193.421c4.559,4.559,11.396,4.559,11.396,4.559v2.039c0,0-6.98,0-11.42,4.438"/>
	<path d="M130.656,193.397c-4.559,4.56-11.396,4.56-11.396,4.56v2.039c0,0,6.981,0,11.42,4.438"/>
	<path d="M151.836,217.765v-3.947c0-0.701-0.048-1.146-0.144-1.341c-0.048-0.097-0.21-0.199-0.486-0.308
		c-0.275-0.109-0.726-0.199-1.35-0.271s-1.188-0.107-1.692-0.107v-0.36h12.204v0.36c-0.887,0-1.697,0.035-2.43,0.107
		s-1.236,0.162-1.513,0.271c-0.274,0.107-0.455,0.24-0.539,0.397c-0.083,0.157-0.127,0.573-0.127,1.25v3.947h7.345l-10.656,16.884
		h-0.612v-15.624h-3.672v-1.26L151.836,217.765L151.836,217.765z M155.76,219.025v9.686l6.049-9.686H155.76z"/>
	<path d="M18.739,27.369v3.947c0,0.701,0.048,1.147,0.144,1.341c0.049,0.097,0.21,0.199,0.486,0.308
		c0.276,0.109,0.727,0.199,1.351,0.271c0.623,0.072,1.188,0.108,1.691,0.108v0.36H10.207v-0.36c0.887,0,1.697-0.036,2.431-0.108
		c0.731-0.072,1.235-0.162,1.512-0.271c0.274-0.108,0.456-0.241,0.54-0.398c0.083-0.157,0.126-0.573,0.126-1.25V27.37H7.471
		l10.655-16.884h0.612V26.11h3.672v1.26L18.739,27.369L18.739,27.369z M14.815,26.109v-9.685l-6.048,9.685H14.815z"/>
</g>
</svg>
