<?xml version="1.0" encoding="utf-8"?>
<!-- Generator: Adobe Illustrator 16.0.0, SVG Export Plug-In . SVG Version: 6.00 Build 0)  -->
<!DOCTYPE svg PUBLIC "-//W3C//DTD SVG 1.1//EN" "http://www.w3.org/Graphics/SVG/1.1/DTD/svg11.dtd">
<svg version="1.1" id="Layer_1" xmlns="http://www.w3.org/2000/svg" xmlns:xlink="http://www.w3.org/1999/xlink" x="0px" y="0px"
	 width="171.512px" height="247.046px" viewBox="0 0 171.512 247.046" enable-background="new 0 0 171.512 247.046"
	 xml:space="preserve">
<g>
	<path fill="#FFFFFF" d="M9.367,245.8c-4.476,0-8.117-3.643-8.117-8.118V9.367c0-4.476,3.642-8.117,8.117-8.117h152.788
		c4.47,0,8.107,3.641,8.107,8.117v228.315c0,4.476-3.638,8.118-8.107,8.118H9.367z"/>
	<path fill="#D4D4D4" d="M162.155,2.5c3.769,0,6.857,3.089,6.857,6.867v228.315c0,3.778-3.09,6.868-6.857,6.868H9.367
		c-3.778,0-6.867-3.09-6.867-6.868V9.367C2.5,5.589,5.589,2.5,9.367,2.5H162.155 M162.155,0H9.367C4.202,0,0,4.202,0,9.367v228.315
		c0,5.166,4.202,9.368,9.367,9.368h152.788c5.16,0,9.357-4.202,9.357-9.368V9.367C171.513,4.202,167.315,0,162.155,0z"/>
	<path d="M12.796,47.976c0,1.809,1.511,3.279,3.379,3.279c1.869,0,3.38-1.47,3.38-3.279c0-1.81-1.511-3.279-3.38-3.279
		C14.306,44.697,12.796,46.167,12.796,47.976z"/>
	<path d="M8.438,54.184c0,1.81,1.51,3.279,3.379,3.279s3.379-1.469,3.379-3.279s-1.51-3.279-3.379-3.279S8.438,52.374,8.438,54.184z
		"/>
	<path d="M17.095,54.204c0,0.66,0.199,1.279,0.55,1.799c0.6,0.89,1.648,1.479,2.829,1.479c1.868,0,3.378-1.47,3.378-3.279
		c0-1.81-1.51-3.279-3.378-3.279C18.604,50.925,17.095,52.394,17.095,54.204z"/>
	<path d="M12.206,60.571c1.67,0,2.55-1.359,3.009-2.719c0.46-1.359,0.5-2.719,0.5-2.719h0.859c0,0,0.16,5.428,3.499,5.438H12.206z"
		/>
	<path d="M18.464,50.385c-1.898,1.899-1.898,4.749-1.898,4.749l-0.851,0.01c0,0,0-2.909-1.85-4.758"/>
	<path d="M18.084,56.483c-1.898-1.899-4.748-1.899-4.748-1.899v-0.85c0,0,2.909,0,4.759-1.85"/>
	<path d="M14.275,56.493c1.898-1.899,4.748-1.899,4.748-1.899v-0.85c0,0-2.908,0-4.758-1.849"/>
	<path d="M159.717,198.078c0-1.811-1.51-3.279-3.379-3.279s-3.379,1.469-3.379,3.279c0,1.809,1.51,3.278,3.379,3.278
		S159.717,199.886,159.717,198.078z"/>
	<path d="M164.075,191.869c0-1.809-1.51-3.279-3.379-3.279s-3.379,1.471-3.379,3.279c0,1.811,1.51,3.279,3.379,3.279
		S164.075,193.679,164.075,191.869z"/>
	<path d="M155.418,191.849c0-0.66-0.2-1.279-0.55-1.799c-0.6-0.891-1.649-1.479-2.829-1.479c-1.869,0-3.379,1.47-3.379,3.279
		s1.51,3.278,3.379,3.278S155.418,193.66,155.418,191.849z"/>
	<path d="M160.307,185.481c-1.67,0-2.551,1.36-3.011,2.72c-0.459,1.358-0.499,2.719-0.499,2.719h-0.859c0,0-0.159-5.428-3.498-5.438
		H160.307L160.307,185.481z"/>
	<path d="M154.049,195.667c1.899-1.898,1.899-4.748,1.899-4.748l0.85-0.01c0,0,0,2.908,1.85,4.758"/>
	<path d="M154.429,189.57c1.898,1.899,4.747,1.899,4.747,1.899v0.85c0,0-2.908,0-4.759,1.849"/>
	<path d="M158.237,189.56c-1.899,1.898-4.748,1.898-4.748,1.898v0.851c0,0,2.908,0,4.758,1.849"/>
	<path d="M38.305,28.066c0,4.342,3.623,7.869,8.108,7.869c4.486,0,8.109-3.526,8.109-7.869c0-4.343-3.623-7.869-8.109-7.869
		C41.928,20.197,38.305,23.724,38.305,28.066z"/>
	<path d="M27.845,42.965c0,4.342,3.622,7.869,8.108,7.869s8.108-3.527,8.108-7.869c0-4.343-3.622-7.869-8.108-7.869
		S27.845,38.622,27.845,42.965z"/>
	<path d="M48.621,43.013c0,1.583,0.479,3.071,1.319,4.318c1.438,2.135,3.959,3.551,6.79,3.551c4.485,0,8.107-3.527,8.107-7.869
		c0-4.342-3.622-7.869-8.107-7.869C52.244,35.144,48.621,38.67,48.621,43.013z"/>
	<path d="M36.89,58.295c4.007,0,6.116-3.263,7.222-6.525c1.104-3.263,1.199-6.526,1.199-6.526h2.062c0,0,0.384,13.027,8.396,13.051
		H36.89z"/>
	<path d="M51.908,33.848c-4.559,4.558-4.559,11.396-4.559,11.396l-2.039,0.024c0,0,0-6.981-4.438-11.419"/>
	<path d="M50.996,48.482C46.437,43.924,39.6,43.924,39.6,43.924v-2.039c0,0,6.98,0,11.42-4.438"/>
	<path d="M41.855,48.507c4.559-4.559,11.396-4.559,11.396-4.559v-2.039c0,0-6.98,0-11.42-4.438"/>
	<path d="M54.379,213.837c0-4.342-3.622-7.869-8.107-7.869c-4.486,0-8.109,3.527-8.109,7.869s3.623,7.869,8.109,7.869
		C50.757,221.707,54.379,218.18,54.379,213.837z"/>
	<path d="M64.839,198.939c0-4.342-3.622-7.869-8.107-7.869c-4.486,0-8.109,3.527-8.109,7.869s3.623,7.869,8.109,7.869
		C61.217,206.808,64.839,203.281,64.839,198.939z"/>
	<path d="M44.062,198.891c0-1.583-0.479-3.071-1.319-4.317c-1.438-2.136-3.958-3.552-6.789-3.552c-4.486,0-8.108,3.526-8.108,7.869
		c0,4.342,3.622,7.869,8.108,7.869S44.062,203.233,44.062,198.891z"/>
	<path d="M55.795,183.609c-4.007,0-6.118,3.264-7.222,6.525c-1.104,3.262-1.199,6.525-1.199,6.525h-2.062
		c0,0-0.385-13.027-8.396-13.051H55.795z"/>
	<path d="M40.776,208.056c4.558-4.559,4.558-11.396,4.558-11.396l2.04-0.023c0,0,0,6.98,4.438,11.42"/>
	<path d="M41.688,193.421c4.559,4.559,11.396,4.559,11.396,4.559v2.039c0,0-6.98,0-11.42,4.438"/>
	<path d="M50.828,193.397c-4.558,4.56-11.396,4.56-11.396,4.56v2.039c0,0,6.98,0,11.42,4.438"/>
	<path d="M118.133,28.066c0,4.342,3.623,7.869,8.109,7.869s8.108-3.526,8.108-7.869c0-4.343-3.622-7.869-8.108-7.869
		S118.133,23.724,118.133,28.066z"/>
	<path d="M107.673,42.965c0,4.342,3.623,7.869,8.109,7.869s8.108-3.527,8.108-7.869c0-4.343-3.622-7.869-8.108-7.869
		S107.673,38.622,107.673,42.965z"/>
	<path d="M128.449,43.013c0,1.583,0.479,3.071,1.319,4.318c1.438,2.135,3.959,3.551,6.79,3.551c4.485,0,8.107-3.527,8.107-7.869
		c0-4.342-3.622-7.869-8.107-7.869C132.072,35.144,128.449,38.67,128.449,43.013z"/>
	<path d="M116.718,58.295c4.007,0,6.117-3.263,7.222-6.525c1.104-3.262,1.2-6.526,1.2-6.526h2.062c0,0,0.385,13.027,8.397,13.051
		H116.718z"/>
	<path d="M131.736,33.848c-4.56,4.558-4.56,11.396-4.56,11.396l-2.038,0.024c0,0,0-6.981-4.438-11.419"/>
	<path d="M130.824,48.482c-4.559-4.558-11.396-4.558-11.396-4.558v-2.039c0,0,6.98,0,11.42-4.438"/>
	<path d="M121.684,48.507c4.559-4.559,11.396-4.559,11.396-4.559v-2.039c0,0-6.98,0-11.419-4.438"/>
	<path d="M134.207,213.837c0-4.342-3.623-7.869-8.108-7.869c-4.486,0-8.108,3.527-8.108,7.869s3.622,7.869,8.108,7.869
		C130.584,221.707,134.207,218.18,134.207,213.837z"/>
	<path d="M144.667,198.939c0-4.342-3.622-7.869-8.107-7.869c-4.486,0-8.109,3.527-8.109,7.869s3.623,7.869,8.109,7.869
		C141.045,206.808,144.667,203.281,144.667,198.939z"/>
	<path d="M123.891,198.891c0-1.583-0.479-3.071-1.319-4.317c-1.439-2.136-3.958-3.552-6.789-3.552c-4.486,0-8.109,3.526-8.109,7.869
		c0,4.342,3.623,7.869,8.109,7.869S123.891,203.233,123.891,198.891z"/>
	<path d="M135.623,183.609c-4.007,0-6.118,3.264-7.222,6.525c-1.104,3.262-1.2,6.525-1.2,6.525h-2.062
		c0,0-0.385-13.027-8.397-13.051H135.623z"/>
	<path d="M120.604,208.056c4.558-4.559,4.558-11.396,4.558-11.396l2.039-0.023c0,0,0,6.98,4.438,11.42"/>
	<path d="M121.516,193.421c4.559,4.559,11.396,4.559,11.396,4.559v2.039c0,0-6.98,0-11.419,4.438"/>
	<path d="M130.656,193.397c-4.559,4.56-11.396,4.56-11.396,4.56v2.039c0,0,6.981,0,11.421,4.438"/>
	<path d="M78.219,104.979c0,4.342,3.622,7.869,8.108,7.869s8.108-3.527,8.108-7.869s-3.622-7.869-8.108-7.869
		S78.219,100.637,78.219,104.979z"/>
	<path d="M67.759,119.877c0,4.341,3.623,7.869,8.109,7.869s8.108-3.527,8.108-7.869c0-4.342-3.622-7.869-8.108-7.869
		S67.759,115.535,67.759,119.877z"/>
	<path d="M88.535,119.925c0,1.583,0.479,3.071,1.319,4.319c1.438,2.135,3.959,3.551,6.79,3.551c4.485,0,8.107-3.527,8.107-7.87
		c0-4.342-3.622-7.869-8.107-7.869C92.158,112.056,88.535,115.583,88.535,119.925z"/>
	<path d="M76.804,135.208c4.006,0,6.116-3.264,7.221-6.525c1.104-3.262,1.2-6.525,1.2-6.525h2.062c0,0,0.385,13.027,8.397,13.05
		H76.804L76.804,135.208z"/>
	<path d="M91.822,110.761c-4.559,4.559-4.559,11.396-4.559,11.396l-2.039,0.024c0,0,0-6.981-4.438-11.42"/>
	<path d="M90.91,125.396c-4.559-4.559-11.396-4.559-11.396-4.559v-2.039c0,0,6.98,0,11.42-4.438"/>
	<path d="M81.77,125.419c4.559-4.559,11.396-4.559,11.396-4.559v-2.04c0,0-6.98,0-11.419-4.438"/>
	<path d="M149.136,234.973c0.72-1.562,1.481-2.694,2.285-3.402c0.806-0.708,1.819-1.062,3.043-1.062c1.2,0,2.845,0.383,4.933,1.15
		l1.008-8.152c-0.909,1.145-1.765,1.9-2.566,2.271c-0.801,0.37-1.859,0.556-3.176,0.556c-1.649,0-3.067-0.763-4.252-2.285
		c-1.185-1.524-1.777-3.366-1.777-5.526c0-1.729,0.769-3.36,2.305-4.896c1.728-1.729,3.864-2.592,6.408-2.592
		c1.487,0,2.771,0.443,3.852,1.332c1.176,0.959,1.764,2.195,1.764,3.707c0,0.912-0.218,1.596-0.652,2.053
		c-0.436,0.455-0.969,0.685-1.599,0.685c-0.896,0-1.487-0.36-1.778-1.08c-0.146-0.36-0.219-0.756-0.219-1.188
		c0-0.479,0.097-0.814,0.288-1.008c0.48-0.552,1.008-0.828,1.584-0.828c0.145,0,0.276,0.024,0.396,0.072
		c0.121,0.049,0.229,0.108,0.324,0.18c0.048-0.191,0.071-0.322,0.071-0.396c0-0.744-0.359-1.44-1.08-2.088
		c-0.84-0.744-1.877-1.116-3.112-1.116c-1.47,0-2.561,0.794-3.271,2.383c-0.64,1.42-0.96,3.403-0.96,5.954
		c0,2.453,0.232,4.103,0.696,4.943c0.464,0.843,1.1,1.264,1.909,1.264c1.546,0,2.854-0.653,3.924-1.958
		c0.809-0.99,1.296-2.007,1.463-3.046l0.468,0.072l-1.794,13.896c-1.315-0.527-2.393-0.912-3.229-1.15
		c-1.269-0.36-2.393-0.541-3.373-0.541c-0.813,0-1.501,0.127-2.064,0.379c-0.562,0.252-1.011,0.689-1.346,1.312L149.136,234.973z"/>
	<path d="M21.762,10.088c-0.721,1.561-1.482,2.694-2.286,3.402c-0.806,0.708-1.819,1.062-3.043,1.062
		c-1.2,0-2.845-0.383-4.933-1.151l-1.008,8.153c0.909-1.145,1.765-1.901,2.566-2.271c0.801-0.37,1.859-0.555,3.176-0.555
		c1.649,0,3.068,0.762,4.252,2.285c1.185,1.524,1.777,3.366,1.777,5.526c0,1.729-0.769,3.36-2.305,4.896
		c-1.728,1.728-3.863,2.592-6.408,2.592c-1.487,0-2.771-0.444-3.852-1.332c-1.176-0.96-1.764-2.196-1.764-3.708
		c0-0.912,0.218-1.596,0.652-2.052c0.436-0.456,0.969-0.685,1.599-0.685c0.896,0,1.487,0.36,1.778,1.08
		c0.146,0.36,0.219,0.756,0.219,1.188c0,0.479-0.097,0.815-0.288,1.008c-0.48,0.552-1.008,0.828-1.584,0.828
		c-0.145,0-0.276-0.024-0.396-0.072c-0.121-0.048-0.229-0.108-0.324-0.18c-0.048,0.192-0.071,0.323-0.071,0.396
		c0,0.744,0.359,1.44,1.08,2.088c0.84,0.744,1.877,1.116,3.112,1.116c1.47,0,2.561-0.794,3.271-2.382
		c0.64-1.42,0.96-3.404,0.96-5.955c0-2.453-0.232-4.102-0.696-4.943c-0.464-0.843-1.1-1.264-1.909-1.264
		c-1.546,0-2.854,0.653-3.924,1.958c-0.809,0.991-1.296,2.007-1.463,3.046L9.484,24.09l1.794-13.896
		c1.315,0.528,2.393,0.912,3.229,1.151c1.269,0.36,2.393,0.54,3.373,0.54c0.813,0,1.501-0.126,2.064-0.378
		c0.562-0.252,1.011-0.689,1.346-1.313L21.762,10.088z"/>
</g>
</svg>
