<?xml version="1.0" encoding="utf-8"?>
<!-- Generator: Adobe Illustrator 16.0.0, SVG Export Plug-In . SVG Version: 6.00 Build 0)  -->
<!DOCTYPE svg PUBLIC "-//W3C//DTD SVG 1.1//EN" "http://www.w3.org/Graphics/SVG/1.1/DTD/svg11.dtd">
<svg version="1.1" id="Layer_1" xmlns="http://www.w3.org/2000/svg" xmlns:xlink="http://www.w3.org/1999/xlink" x="0px" y="0px"
	 width="171.512px" height="247.046px" viewBox="0 0 171.512 247.046" enable-background="new 0 0 171.512 247.046"
	 xml:space="preserve">
<g>
	<path fill="#FFFFFF" d="M9.367,245.8c-4.476,0-8.117-3.643-8.117-8.118V9.367c0-4.476,3.642-8.117,8.117-8.117h152.788
		c4.47,0,8.107,3.641,8.107,8.117v228.315c0,4.476-3.638,8.118-8.107,8.118H9.367z"/>
	<path fill="#D4D4D4" d="M162.155,2.5c3.769,0,6.857,3.089,6.857,6.867v228.315c0,3.778-3.09,6.868-6.857,6.868H9.367
		c-3.778,0-6.867-3.09-6.867-6.868V9.367C2.5,5.589,5.589,2.5,9.367,2.5H162.155 M162.155,0H9.367C4.202,0,0,4.202,0,9.367v228.315
		c0,5.166,4.202,9.368,9.367,9.368h152.788c5.16,0,9.357-4.202,9.357-9.368V9.367C171.513,4.202,167.315,0,162.155,0z"/>
	<path d="M12.796,47.976c0,1.809,1.511,3.279,3.379,3.279c1.869,0,3.38-1.47,3.38-3.279c0-1.81-1.511-3.279-3.38-3.279
		C14.306,44.697,12.796,46.167,12.796,47.976z"/>
	<path d="M8.438,54.184c0,1.81,1.51,3.279,3.379,3.279s3.379-1.469,3.379-3.279s-1.51-3.279-3.379-3.279S8.438,52.374,8.438,54.184z
		"/>
	<path d="M17.095,54.204c0,0.66,0.199,1.279,0.55,1.799c0.6,0.89,1.648,1.479,2.829,1.479c1.87,0,3.379-1.47,3.379-3.279
		c0-1.81-1.51-3.279-3.379-3.279C18.604,50.925,17.095,52.394,17.095,54.204z"/>
	<path d="M12.207,60.571c1.669,0,2.549-1.359,3.009-2.719c0.459-1.359,0.5-2.719,0.5-2.719h0.86c0,0,0.16,5.428,3.499,5.438H12.207z
		"/>
	<path d="M18.464,50.385c-1.898,1.899-1.898,4.749-1.898,4.749l-0.851,0.01c0,0,0-2.909-1.849-4.758"/>
	<path d="M18.084,56.483c-1.898-1.899-4.748-1.899-4.748-1.899v-0.85c0,0,2.909,0,4.759-1.85"/>
	<path d="M14.275,56.493c1.898-1.899,4.749-1.899,4.749-1.899v-0.85c0,0-2.909,0-4.758-1.849"/>
	<path d="M159.717,198.078c0-1.811-1.51-3.279-3.379-3.279s-3.379,1.469-3.379,3.279c0,1.809,1.51,3.278,3.379,3.278
		S159.717,199.886,159.717,198.078z"/>
	<path d="M164.075,191.869c0-1.809-1.51-3.279-3.379-3.279s-3.379,1.471-3.379,3.279c0,1.811,1.51,3.279,3.379,3.279
		S164.075,193.679,164.075,191.869z"/>
	<path d="M155.418,191.849c0-0.66-0.2-1.279-0.55-1.799c-0.6-0.891-1.649-1.479-2.829-1.479c-1.869,0-3.379,1.47-3.379,3.279
		s1.51,3.278,3.379,3.278S155.418,193.66,155.418,191.849z"/>
	<path d="M160.307,185.481c-1.67,0-2.551,1.36-3.01,2.72c-0.46,1.358-0.5,2.719-0.5,2.719h-0.859c0,0-0.159-5.428-3.498-5.438
		H160.307L160.307,185.481z"/>
	<path d="M154.049,195.667c1.899-1.898,1.899-4.748,1.899-4.748l0.85-0.01c0,0,0,2.908,1.85,4.758"/>
	<path d="M154.429,189.57c1.898,1.899,4.747,1.899,4.747,1.899v0.85c0,0-2.908,0-4.759,1.849"/>
	<path d="M158.237,189.56c-1.899,1.898-4.748,1.898-4.748,1.898v0.851c0,0,2.908,0,4.758,1.849"/>
	<path d="M94.293,213.837c0-4.342-3.623-7.869-8.108-7.869c-4.486,0-8.109,3.527-8.109,7.869s3.623,7.869,8.109,7.869
		C90.67,221.707,94.293,218.18,94.293,213.837z"/>
	<path d="M104.753,198.939c0-4.342-3.623-7.869-8.108-7.869c-4.486,0-8.108,3.527-8.108,7.869s3.622,7.869,8.108,7.869
		C101.13,206.808,104.753,203.281,104.753,198.939z"/>
	<path d="M83.977,198.891c0-1.583-0.479-3.071-1.319-4.317c-1.439-2.136-3.959-3.552-6.79-3.552c-4.486,0-8.108,3.526-8.108,7.869
		c0,4.342,3.622,7.869,8.108,7.869S83.977,203.233,83.977,198.891z"/>
	<path d="M95.708,183.609c-4.007,0-6.117,3.264-7.222,6.525c-1.104,3.263-1.199,6.525-1.199,6.525h-2.062
		c0,0-0.385-13.027-8.396-13.051H95.708z"/>
	<path d="M80.689,208.056c4.559-4.559,4.559-11.396,4.559-11.396l2.039-0.023c0,0,0,6.98,4.438,11.42"/>
	<path d="M81.602,193.421c4.558,4.559,11.396,4.559,11.396,4.559v2.039c0,0-6.98,0-11.42,4.438"/>
	<path d="M90.742,193.397c-4.559,4.56-11.396,4.56-11.396,4.56v2.039c0,0,6.98,0,11.42,4.438"/>
	<path d="M78.219,104.979c0,4.342,3.621,7.869,8.107,7.869c4.487,0,8.109-3.527,8.109-7.869s-3.622-7.869-8.109-7.869
		C81.841,97.11,78.219,100.637,78.219,104.979z"/>
	<path d="M67.759,119.877c0,4.341,3.622,7.869,8.108,7.869s8.109-3.527,8.109-7.869c0-4.342-3.623-7.869-8.109-7.869
		S67.759,115.535,67.759,119.877z"/>
	<path d="M88.535,119.925c0,1.583,0.479,3.071,1.319,4.319c1.438,2.135,3.958,3.551,6.789,3.551c4.485,0,8.108-3.527,8.108-7.87
		c0-4.342-3.623-7.869-8.108-7.869C92.157,112.056,88.535,115.583,88.535,119.925z"/>
	<path d="M76.803,135.208c4.007,0,6.117-3.264,7.222-6.525c1.104-3.262,1.199-6.525,1.199-6.525h2.062c0,0,0.384,13.027,8.397,13.05
		H76.803L76.803,135.208z"/>
	<path d="M91.821,110.761c-4.558,4.559-4.558,11.396-4.558,11.396l-2.04,0.024c0,0,0-6.981-4.438-11.42"/>
	<path d="M90.91,125.396c-4.559-4.559-11.396-4.559-11.396-4.559v-2.039c0,0,6.98,0,11.42-4.438"/>
	<path d="M81.77,125.419c4.558-4.559,11.396-4.559,11.396-4.559v-2.04c0,0-6.98,0-11.42-4.438"/>
	<path d="M78.219,28.066c0,4.342,3.621,7.869,8.107,7.869c4.487,0,8.109-3.526,8.109-7.869c0-4.343-3.622-7.869-8.109-7.869
		C81.841,20.197,78.219,23.724,78.219,28.066z"/>
	<path d="M67.759,42.965c0,4.342,3.622,7.869,8.108,7.869s8.109-3.527,8.109-7.869c0-4.343-3.623-7.869-8.109-7.869
		S67.759,38.622,67.759,42.965z"/>
	<path d="M88.535,43.013c0,1.583,0.479,3.071,1.319,4.318c1.438,2.135,3.958,3.551,6.789,3.551c4.485,0,8.108-3.527,8.108-7.869
		c0-4.342-3.623-7.869-8.108-7.869C92.157,35.144,88.535,38.67,88.535,43.013z"/>
	<path d="M76.803,58.295c4.007,0,6.117-3.263,7.222-6.525c1.104-3.262,1.199-6.526,1.199-6.526h2.062c0,0,0.384,13.027,8.397,13.051
		H76.803z"/>
	<path d="M91.821,33.848c-4.558,4.558-4.558,11.396-4.558,11.396l-2.04,0.024c0,0,0-6.981-4.438-11.419"/>
	<path d="M90.91,48.482c-4.559-4.558-11.396-4.558-11.396-4.558v-2.039c0,0,6.98,0,11.42-4.438"/>
	<path d="M81.77,48.507c4.558-4.559,11.396-4.559,11.396-4.559v-2.039c0,0-6.98,0-11.42-4.438"/>
	<path d="M156.569,224.605c-0.119-0.023-0.298-0.036-0.537-0.036c-0.931,0-1.629,0.406-2.095,1.22
		c-0.465,0.813-0.698,1.842-0.698,3.086c0,2.225,0.311,3.777,0.933,4.664c0.527,0.74,1.293,1.11,2.299,1.11
		c1.005,0,1.885-0.258,2.639-0.772c0.754-0.518,1.239-1.278,1.454-2.287c-0.096,0.072-0.196,0.127-0.304,0.162
		c-0.106,0.037-0.219,0.055-0.338,0.055c-0.403,0-0.777-0.208-1.124-0.624c-0.345-0.416-0.47-0.886-0.374-1.408
		c0.097-0.522,0.333-0.938,0.714-1.248c0.38-0.31,0.819-0.464,1.318-0.464c0.833,0,1.368,0.408,1.605,1.225
		c0.07,0.289,0.106,0.588,0.106,0.899c0,1.2-0.54,2.28-1.62,3.239c-1.176,1.031-2.64,1.549-4.392,1.549
		c-2.16,0-3.947-0.646-5.364-1.943c-1.271-1.177-1.908-2.496-1.908-3.961c0-1.318,0.612-2.376,1.837-3.168
		c1.057-0.672,2.483-1.14,4.283-1.402c-2.159,0-3.815-0.469-4.968-1.404c-1.248-1.032-1.872-2.557-1.872-4.572
		c0-2.398,1.116-4.309,3.349-5.725c1.728-1.104,3.433-1.655,5.111-1.655c1.824,0,3.384,0.606,4.681,1.817
		c1.296,1.213,1.943,2.599,1.943,4.158c0,0.911-0.244,1.596-0.731,2.053c-0.488,0.455-1.077,0.684-1.769,0.684
		c-0.452,0-0.81-0.084-1.07-0.252c-0.596-0.312-0.894-0.863-0.894-1.654c0-0.602,0.191-1.117,0.572-1.55s0.893-0.647,1.536-0.647
		c0.143,0,0.292,0.013,0.446,0.037c0.154,0.022,0.304,0.06,0.446,0.106c0.121-0.896-0.251-1.826-1.113-2.794
		c-0.98-1.089-2.166-1.635-3.554-1.635c-1.005,0-1.951,0.435-2.837,1.301c-1.173,1.131-1.759,2.742-1.759,4.838
		c0,2.383,0.269,4.085,0.806,5.107c0.538,1.022,1.271,1.535,2.203,1.535c0.334,0,0.687-0.066,1.057-0.199
		c0.37-0.131,0.747-0.252,1.128-0.359c0.384-0.107,0.729-0.162,1.039-0.162c0.573,0,0.907,0.217,1.003,0.648
		c-0.022,0.264-0.137,0.449-0.34,0.558s-0.471,0.162-0.806,0.162c-0.286,0-0.614-0.036-0.984-0.106
		C157.255,224.712,156.903,224.653,156.569,224.605z"/>
	<path d="M14.148,20.565c0.119,0.023,0.298,0.036,0.537,0.036c0.931,0,1.629-0.406,2.095-1.22c0.465-0.813,0.698-1.842,0.698-3.086
		c0-2.224-0.312-3.777-0.934-4.663c-0.526-0.741-1.293-1.111-2.298-1.111s-1.885,0.258-2.639,0.773
		c-0.754,0.517-1.239,1.278-1.454,2.286c0.095-0.072,0.196-0.126,0.303-0.162c0.107-0.036,0.219-0.054,0.338-0.054
		c0.404,0,0.778,0.208,1.124,0.624s0.471,0.886,0.374,1.408c-0.096,0.523-0.333,0.939-0.713,1.248
		c-0.38,0.31-0.82,0.464-1.318,0.464c-0.833,0-1.368-0.408-1.605-1.225c-0.071-0.288-0.107-0.588-0.107-0.899
		c0-1.2,0.54-2.28,1.62-3.24c1.177-1.031,2.641-1.548,4.393-1.548c2.16,0,3.946,0.647,5.363,1.943
		c1.272,1.177,1.908,2.497,1.908,3.961c0,1.319-0.611,2.376-1.836,3.168c-1.057,0.672-2.483,1.14-4.284,1.403
		c2.16,0,3.816,0.468,4.969,1.404c1.248,1.032,1.872,2.556,1.872,4.572c0,2.399-1.116,4.308-3.349,5.724
		c-1.728,1.104-3.433,1.656-5.112,1.656c-1.823,0-3.384-0.606-4.68-1.818s-1.944-2.598-1.944-4.158c0-0.911,0.244-1.596,0.732-2.052
		c0.488-0.455,1.077-0.684,1.768-0.684c0.452,0,0.811,0.084,1.071,0.252c0.595,0.312,0.894,0.863,0.894,1.655
		c0,0.601-0.191,1.116-0.572,1.549c-0.381,0.432-0.894,0.647-1.536,0.647c-0.143,0-0.292-0.012-0.447-0.036
		c-0.153-0.023-0.303-0.06-0.445-0.107c-0.121,0.895,0.251,1.826,1.112,2.794c0.981,1.089,2.166,1.634,3.555,1.634
		c1.005,0,1.95-0.434,2.837-1.3c1.173-1.131,1.759-2.743,1.759-4.838c0-2.383-0.27-4.085-0.806-5.107
		c-0.538-1.023-1.271-1.535-2.203-1.535c-0.334,0-0.688,0.066-1.058,0.198c-0.37,0.132-0.747,0.252-1.128,0.36
		c-0.383,0.107-0.729,0.162-1.039,0.162c-0.572,0-0.906-0.217-1.003-0.648c0.023-0.264,0.138-0.45,0.34-0.558
		c0.203-0.108,0.472-0.162,0.807-0.162c0.286,0,0.613,0.036,0.983,0.107C13.462,20.457,13.814,20.517,14.148,20.565z"/>
</g>
</svg>
