<?xml version="1.0" encoding="utf-8"?>
<!-- Generator: Adobe Illustrator 16.0.0, SVG Export Plug-In . SVG Version: 6.00 Build 0)  -->
<!DOCTYPE svg PUBLIC "-//W3C//DTD SVG 1.1//EN" "http://www.w3.org/Graphics/SVG/1.1/DTD/svg11.dtd">
<svg version="1.1" id="Layer_1" xmlns="http://www.w3.org/2000/svg" xmlns:xlink="http://www.w3.org/1999/xlink" x="0px" y="0px"
	 width="171.512px" height="247.046px" viewBox="0 0 171.512 247.046" enable-background="new 0 0 171.512 247.046"
	 xml:space="preserve">
<g>
	<path fill="#FFFFFF" d="M9.367,245.8c-4.476,0-8.117-3.643-8.117-8.118V9.367c0-4.476,3.642-8.117,8.117-8.117h152.789
		c4.47,0,8.107,3.641,8.107,8.117v228.315c0,4.476-3.638,8.118-8.107,8.118H9.367z"/>
	<path fill="#D4D4D4" d="M162.156,2.5c3.769,0,6.857,3.089,6.857,6.867v228.315c0,3.778-3.09,6.868-6.857,6.868H9.367
		c-3.778,0-6.867-3.09-6.867-6.868V9.367C2.5,5.589,5.589,2.5,9.367,2.5H162.156 M162.156,0H9.367C4.202,0,0,4.202,0,9.367v228.315
		c0,5.166,4.202,9.368,9.367,9.368h152.789c5.16,0,9.357-4.202,9.357-9.368V9.367C171.513,4.202,167.315,0,162.156,0z"/>
	<path d="M12.796,47.976c0,1.809,1.511,3.279,3.379,3.279c1.869,0,3.38-1.47,3.38-3.279c0-1.81-1.511-3.279-3.38-3.279
		C14.306,44.697,12.796,46.167,12.796,47.976z"/>
	<path d="M8.438,54.184c0,1.81,1.51,3.279,3.379,3.279s3.379-1.469,3.379-3.279s-1.51-3.279-3.379-3.279S8.438,52.374,8.438,54.184z
		"/>
	<path d="M17.095,54.204c0,0.66,0.199,1.279,0.55,1.799c0.6,0.89,1.648,1.479,2.829,1.479c1.87,0,3.379-1.47,3.379-3.279
		c0-1.81-1.51-3.279-3.379-3.279C18.604,50.925,17.095,52.394,17.095,54.204z"/>
	<path d="M12.207,60.571c1.669,0,2.549-1.359,3.009-2.719c0.459-1.359,0.5-2.719,0.5-2.719h0.86c0,0,0.16,5.428,3.499,5.438H12.207z
		"/>
	<path d="M18.464,50.385c-1.898,1.899-1.898,4.749-1.898,4.749l-0.851,0.01c0,0,0-2.909-1.849-4.758"/>
	<path d="M18.084,56.483c-1.898-1.899-4.748-1.899-4.748-1.899v-0.85c0,0,2.909,0,4.759-1.85"/>
	<path d="M14.275,56.493c1.898-1.899,4.749-1.899,4.749-1.899v-0.85c0,0-2.909,0-4.758-1.849"/>
	<path d="M159.716,198.078c0-1.811-1.509-3.279-3.378-3.279c-1.87,0-3.379,1.469-3.379,3.279c0,1.809,1.509,3.278,3.379,3.278
		C158.207,201.356,159.716,199.886,159.716,198.078z"/>
	<path d="M164.075,191.869c0-1.809-1.509-3.279-3.378-3.279c-1.87,0-3.379,1.471-3.379,3.279c0,1.811,1.509,3.279,3.379,3.279
		C162.565,195.148,164.075,193.679,164.075,191.869z"/>
	<path d="M155.418,191.849c0-0.66-0.2-1.279-0.55-1.799c-0.6-0.891-1.649-1.479-2.829-1.479c-1.87,0-3.379,1.47-3.379,3.279
		s1.509,3.278,3.379,3.278S155.418,193.66,155.418,191.849z"/>
	<path d="M160.306,185.481c-1.669,0-2.55,1.36-3.01,2.72c-0.46,1.358-0.5,2.719-0.5,2.719h-0.858c0,0-0.16-5.428-3.499-5.438
		H160.306L160.306,185.481z"/>
	<path d="M154.049,195.667c1.899-1.898,1.899-4.748,1.899-4.748l0.85-0.01c0,0,0,2.908,1.851,4.758"/>
	<path d="M154.428,189.57c1.898,1.899,4.748,1.899,4.748,1.899v0.85c0,0-2.908,0-4.758,1.849"/>
	<path d="M158.237,189.56c-1.899,1.898-4.748,1.898-4.748,1.898v0.851c0,0,2.909,0,4.758,1.849"/>
	<path d="M94.292,213.837c0-4.342-3.623-7.869-8.108-7.869c-4.486,0-8.109,3.527-8.109,7.869s3.623,7.869,8.109,7.869
		C90.669,221.707,94.292,218.18,94.292,213.837z"/>
	<path d="M104.752,198.939c0-4.342-3.623-7.869-8.108-7.869c-4.486,0-8.109,3.527-8.109,7.869s3.623,7.869,8.109,7.869
		C101.129,206.808,104.752,203.281,104.752,198.939z"/>
	<path d="M83.976,198.891c0-1.583-0.479-3.071-1.319-4.317c-1.439-2.136-3.958-3.552-6.79-3.552c-4.486,0-8.109,3.526-8.109,7.869
		c0,4.342,3.623,7.869,8.109,7.869S83.976,203.233,83.976,198.891z"/>
	<path d="M95.708,183.609c-4.007,0-6.118,3.264-7.222,6.525c-1.104,3.263-1.199,6.525-1.199,6.525h-2.062
		c0,0-0.385-13.027-8.396-13.051H95.708z"/>
	<path d="M80.689,208.056c4.558-4.559,4.558-11.396,4.558-11.396l2.04-0.023c0,0,0,6.98,4.438,11.42"/>
	<path d="M81.601,193.421c4.559,4.559,11.396,4.559,11.396,4.559v2.039c0,0-6.98,0-11.42,4.438"/>
	<path d="M90.742,193.397c-4.558,4.56-11.396,4.56-11.396,4.56v2.039c0,0,6.98,0,11.419,4.438"/>
	<path d="M78.218,28.066c0,4.342,3.623,7.869,8.109,7.869s8.109-3.526,8.109-7.869c0-4.343-3.623-7.869-8.109-7.869
		S78.218,23.724,78.218,28.066z"/>
	<path d="M67.758,42.965c0,4.342,3.623,7.869,8.109,7.869s8.109-3.527,8.109-7.869c0-4.343-3.623-7.869-8.109-7.869
		S67.758,38.622,67.758,42.965z"/>
	<path d="M88.535,43.013c0,1.583,0.479,3.071,1.319,4.318c1.438,2.135,3.958,3.551,6.79,3.551c4.485,0,8.108-3.527,8.108-7.869
		c0-4.342-3.623-7.869-8.108-7.869C92.158,35.144,88.535,38.67,88.535,43.013z"/>
	<path d="M76.803,58.295c4.007,0,6.117-3.263,7.222-6.525c1.104-3.263,1.199-6.526,1.199-6.526h2.062c0,0,0.384,13.027,8.397,13.051
		H76.803z"/>
	<path d="M91.821,33.848c-4.558,4.558-4.558,11.396-4.558,11.396l-2.04,0.024c0,0,0-6.981-4.438-11.419"/>
	<path d="M90.91,48.482c-4.558-4.558-11.396-4.558-11.396-4.558v-2.039c0,0,6.98,0,11.42-4.438"/>
	<path d="M81.769,48.507c4.558-4.559,11.396-4.559,11.396-4.559v-2.039c0,0-6.98,0-11.42-4.438"/>
	<path d="M149.568,219.169v-1.478c0-0.96,0.042-1.806,0.126-2.537s0.271-1.362,0.56-1.891c0.386-0.72,0.85-1.255,1.391-1.603
		s1.125-0.521,1.751-0.521c0.746,0,1.443,0.203,2.094,0.611s1.204,0.961,1.661,1.656c0.649,1.008,1.107,1.62,1.372,1.836
		c0.337,0.289,0.854,0.432,1.553,0.432c0.385,0,0.746-0.275,1.083-0.827c0.434-0.72,0.65-1.728,0.65-3.022h0.611
		c0,3.096-0.686,5.422-2.06,6.982c-0.747,0.863-1.999,1.668-3.758,2.412c-1.229,0.529-2.145,1.396-2.747,2.599
		c-0.603,1.203-0.903,2.587-0.903,4.151c0,1.371,0.253,2.742,0.759,4.115c0.411,1.106,0.881,1.828,1.412,2.166
		c0.386,0.24,0.952,0.36,1.7,0.36c1.447,0,2.653-0.772,3.617-2.317c0.84-1.353,1.26-2.752,1.26-4.198
		c0-0.288-0.012-0.492-0.036-0.612c-0.118,0.336-0.278,0.588-0.479,0.758c-0.201,0.166-0.443,0.252-0.729,0.252
		c-0.354,0-0.675-0.14-0.96-0.414c-0.284-0.276-0.485-0.69-0.604-1.242c-0.049-0.168-0.072-0.396-0.072-0.685
		c0-0.647,0.179-1.2,0.535-1.655c0.356-0.457,0.797-0.686,1.319-0.686c0.263,0,0.487,0.048,0.678,0.145
		c0.428,0.217,0.755,0.611,0.98,1.188c0.227,0.577,0.339,1.272,0.339,2.088c0,1.872-0.516,3.563-1.548,5.076
		c-1.224,1.776-2.844,2.664-4.859,2.664c-2.593,0-4.523-1.009-5.797-3.022c-0.936-1.488-1.403-3.218-1.403-5.186
		c0-1.584,0.336-2.796,1.008-3.637c0.744-0.937,1.992-1.596,3.744-1.979c2.688-0.601,4.5-1.271,5.436-2.017
		c0.937-0.744,1.598-1.775,1.98-3.096c-0.192,0.168-0.481,0.252-0.867,0.252c-0.168,0-1.456-0.309-3.864-0.924
		c-1.154-0.297-2.154-0.443-2.998-0.443c-0.169,0-0.354,0.006-0.56,0.018c-0.205,0.014-0.488,0.055-0.851,0.128
		c-0.817,0.169-1.384,0.558-1.696,1.162c-0.217,0.435-0.325,1.063-0.325,1.888c0.023,0.508,0.036,0.883,0.036,1.125L149.568,219.169
		z"/>
	<path d="M21.474,26v1.477c0,0.96-0.042,1.806-0.126,2.537c-0.084,0.732-0.271,1.363-0.561,1.891
		c-0.385,0.72-0.849,1.254-1.39,1.602c-0.541,0.348-1.125,0.522-1.751,0.522c-0.746,0-1.444-0.204-2.094-0.612
		c-0.65-0.408-1.204-0.96-1.661-1.656c-0.65-1.008-1.108-1.62-1.372-1.836c-0.337-0.288-0.854-0.432-1.554-0.432
		c-0.385,0-0.745,0.276-1.083,0.828c-0.434,0.72-0.649,1.728-0.649,3.023H8.622c0-3.096,0.687-5.423,2.061-6.983
		c0.747-0.864,1.999-1.668,3.758-2.412c1.229-0.529,2.144-1.396,2.747-2.599c0.602-1.203,0.902-2.587,0.902-4.151
		c0-1.371-0.253-2.743-0.759-4.115c-0.411-1.107-0.881-1.829-1.412-2.166c-0.386-0.24-0.952-0.361-1.7-0.361
		c-1.446,0-2.652,0.773-3.616,2.318c-0.84,1.352-1.261,2.751-1.261,4.198c0,0.288,0.013,0.492,0.036,0.612
		c0.118-0.336,0.278-0.588,0.48-0.757c0.201-0.167,0.442-0.252,0.728-0.252c0.355,0,0.676,0.139,0.96,0.414
		c0.284,0.276,0.485,0.69,0.604,1.242c0.048,0.168,0.072,0.396,0.072,0.684c0,0.648-0.18,1.201-0.535,1.656
		c-0.357,0.456-0.797,0.685-1.32,0.685c-0.262,0-0.487-0.048-0.677-0.145c-0.428-0.216-0.755-0.611-0.981-1.188
		c-0.226-0.577-0.339-1.272-0.339-2.087c0-1.872,0.517-3.564,1.548-5.076c1.225-1.776,2.845-2.664,4.86-2.664
		c2.592,0,4.522,1.008,5.796,3.023c0.936,1.488,1.404,3.217,1.404,5.185c0,1.584-0.336,2.796-1.008,3.636
		c-0.744,0.937-1.992,1.597-3.744,1.98c-2.688,0.6-4.5,1.271-5.437,2.016c-0.936,0.745-1.597,1.776-1.979,3.096
		c0.191-0.167,0.48-0.252,0.866-0.252c0.169,0,1.456,0.309,3.864,0.925c1.155,0.296,2.155,0.443,2.998,0.443
		c0.169,0,0.355-0.006,0.561-0.018c0.205-0.013,0.487-0.055,0.85-0.128c0.818-0.169,1.384-0.557,1.697-1.162
		c0.217-0.435,0.325-1.064,0.325-1.888c-0.024-0.508-0.036-0.883-0.036-1.125L21.474,26z"/>
</g>
</svg>
