<?xml version="1.0" encoding="utf-8"?>
<!-- Generator: Adobe Illustrator 16.0.0, SVG Export Plug-In . SVG Version: 6.00 Build 0)  -->
<!DOCTYPE svg PUBLIC "-//W3C//DTD SVG 1.1//EN" "http://www.w3.org/Graphics/SVG/1.1/DTD/svg11.dtd">
<svg version="1.1" id="Layer_1" xmlns="http://www.w3.org/2000/svg" xmlns:xlink="http://www.w3.org/1999/xlink" x="0px" y="0px"
	 width="171.512px" height="247.046px" viewBox="0 0 171.512 247.046" enable-background="new 0 0 171.512 247.046"
	 xml:space="preserve">
<g>
	<path fill="#FFFFFF" d="M9.367,245.8c-4.476,0-8.117-3.643-8.117-8.118V9.367c0-4.476,3.643-8.117,8.117-8.117h152.788
		c4.471,0,8.107,3.641,8.107,8.117v228.315c0,4.476-3.638,8.118-8.107,8.118H9.367z"/>
	<path fill="#D4D4D4" d="M162.155,2.5c3.769,0,6.857,3.089,6.857,6.867v228.315c0,3.778-3.09,6.868-6.857,6.868H9.367
		c-3.778,0-6.867-3.09-6.867-6.868V9.367C2.5,5.589,5.589,2.5,9.367,2.5H162.155 M162.155,0H9.367C4.202,0,0,4.202,0,9.367v228.315
		c0,5.166,4.202,9.368,9.367,9.368h152.788c5.16,0,9.357-4.202,9.357-9.368V9.367C171.513,4.202,167.315,0,162.155,0z"/>
	<path d="M12.796,47.976c0,1.809,1.511,3.279,3.379,3.279c1.869,0,3.38-1.47,3.38-3.279c0-1.81-1.511-3.279-3.38-3.279
		C14.306,44.697,12.796,46.167,12.796,47.976z"/>
	<path d="M8.438,54.184c0,1.81,1.51,3.279,3.379,3.279s3.379-1.469,3.379-3.279s-1.51-3.279-3.379-3.279S8.438,52.374,8.438,54.184z
		"/>
	<path d="M17.095,54.204c0,0.66,0.199,1.279,0.55,1.799c0.6,0.89,1.648,1.479,2.829,1.479c1.868,0,3.378-1.47,3.378-3.279
		c0-1.81-1.51-3.279-3.378-3.279C18.604,50.925,17.095,52.394,17.095,54.204z"/>
	<path d="M12.206,60.571c1.67,0,2.55-1.359,3.009-2.719c0.46-1.359,0.5-2.719,0.5-2.719h0.859c0,0,0.16,5.428,3.499,5.438H12.206z"
		/>
	<path d="M18.464,50.385c-1.898,1.899-1.898,4.749-1.898,4.749l-0.851,0.01c0,0,0-2.909-1.85-4.758"/>
	<path d="M18.084,56.483c-1.898-1.899-4.748-1.899-4.748-1.899v-0.85c0,0,2.909,0,4.759-1.85"/>
	<path d="M14.275,56.493c1.898-1.899,4.748-1.899,4.748-1.899v-0.85c0,0-2.908,0-4.758-1.849"/>
	<path d="M159.722,198.078c0-1.811-1.511-3.279-3.38-3.279c-1.868,0-3.379,1.469-3.379,3.279c0,1.809,1.511,3.278,3.379,3.278
		C158.212,201.356,159.722,199.886,159.722,198.078z"/>
	<path d="M164.08,191.869c0-1.809-1.51-3.279-3.379-3.279s-3.379,1.471-3.379,3.279c0,1.811,1.51,3.279,3.379,3.279
		S164.08,193.679,164.08,191.869z"/>
	<path d="M155.423,191.849c0-0.66-0.199-1.279-0.55-1.799c-0.6-0.891-1.648-1.479-2.829-1.479c-1.869,0-3.379,1.47-3.379,3.279
		s1.51,3.278,3.379,3.278S155.423,193.66,155.423,191.849z"/>
	<path d="M160.311,185.481c-1.669,0-2.549,1.36-3.008,2.72c-0.461,1.358-0.5,2.719-0.5,2.719h-0.86c0,0-0.159-5.428-3.498-5.438
		H160.311L160.311,185.481z"/>
	<path d="M154.054,195.667c1.898-1.898,1.898-4.748,1.898-4.748l0.851-0.01c0,0,0,2.908,1.849,4.758"/>
	<path d="M154.434,189.57c1.897,1.899,4.748,1.899,4.748,1.899v0.85c0,0-2.909,0-4.759,1.849"/>
	<path d="M158.242,189.56c-1.899,1.898-4.748,1.898-4.748,1.898v0.851c0,0,2.908,0,4.758,1.849"/>
	<path d="M38.311,28.066c0,4.342,3.623,7.869,8.108,7.869c4.486,0,8.108-3.526,8.108-7.869c0-4.343-3.622-7.869-8.108-7.869
		C41.934,20.197,38.311,23.724,38.311,28.066z"/>
	<path d="M27.851,42.965c0,4.342,3.622,7.869,8.107,7.869c4.486,0,8.109-3.527,8.109-7.869c0-4.343-3.623-7.869-8.109-7.869
		C31.473,35.096,27.851,38.622,27.851,42.965z"/>
	<path d="M48.627,43.013c0,1.583,0.479,3.071,1.319,4.318c1.438,2.135,3.959,3.551,6.79,3.551c4.486,0,8.108-3.527,8.108-7.869
		c0-4.342-3.622-7.869-8.108-7.869S48.627,38.67,48.627,43.013z"/>
	<path d="M36.896,58.295c4.006,0,6.117-3.263,7.221-6.525c1.104-3.262,1.2-6.526,1.2-6.526h2.062c0,0,0.386,13.027,8.397,13.051
		H36.896z"/>
	<path d="M51.914,33.848c-4.559,4.558-4.559,11.396-4.559,11.396l-2.039,0.024c0,0,0-6.981-4.438-11.419"/>
	<path d="M51.002,48.482c-4.559-4.558-11.396-4.558-11.396-4.558v-2.039c0,0,6.98,0,11.419-4.438"/>
	<path d="M41.861,48.507c4.559-4.559,11.396-4.559,11.396-4.559v-2.039c0,0-6.98,0-11.42-4.438"/>
	<path d="M38.311,82.202c0,4.343,3.623,7.869,8.108,7.869c4.486,0,8.108-3.526,8.108-7.869c0-4.342-3.622-7.869-8.108-7.869
		C41.934,74.333,38.311,77.86,38.311,82.202z"/>
	<path d="M27.851,97.101c0,4.343,3.622,7.869,8.107,7.869c4.486,0,8.109-3.526,8.109-7.869c0-4.342-3.623-7.869-8.109-7.869
		C31.473,89.232,27.851,92.758,27.851,97.101z"/>
	<path d="M48.627,97.149c0,1.583,0.479,3.071,1.319,4.318c1.438,2.135,3.959,3.551,6.79,3.551c4.486,0,8.108-3.527,8.108-7.869
		c0-4.342-3.622-7.869-8.108-7.869S48.627,92.807,48.627,97.149z"/>
	<path d="M36.896,112.431c4.006,0,6.117-3.263,7.221-6.526c1.104-3.263,1.2-6.525,1.2-6.525h2.062c0,0,0.386,13.027,8.397,13.051
		H36.896z"/>
	<path d="M51.914,87.984c-4.559,4.558-4.559,11.396-4.559,11.396l-2.039,0.024c0,0,0-6.981-4.438-11.419"/>
	<path d="M51.002,102.619c-4.559-4.558-11.396-4.558-11.396-4.558v-2.039c0,0,6.98,0,11.419-4.438"/>
	<path d="M41.861,102.643c4.559-4.558,11.396-4.558,11.396-4.558v-2.039c0,0-6.98,0-11.42-4.438"/>
	<path d="M54.385,159.703c0-4.344-3.622-7.869-8.108-7.869s-8.108,3.525-8.108,7.869c0,4.342,3.622,7.868,8.108,7.868
		S54.385,164.044,54.385,159.703z"/>
	<path d="M64.845,144.802c0-4.342-3.623-7.868-8.109-7.868s-8.108,3.526-8.108,7.868c0,4.344,3.622,7.869,8.108,7.869
		S64.845,149.146,64.845,144.802z"/>
	<path d="M44.068,144.755c0-1.584-0.479-3.071-1.319-4.318c-1.438-2.135-3.959-3.551-6.79-3.551c-4.485,0-8.107,3.527-8.107,7.869
		s3.622,7.869,8.107,7.869C40.445,152.625,44.068,149.097,44.068,144.755z"/>
	<path d="M55.8,129.473c-4.007,0-6.116,3.263-7.221,6.524c-1.104,3.264-1.2,6.526-1.2,6.526h-2.062c0,0-0.385-13.026-8.397-13.051
		H55.8z"/>
	<path d="M40.781,153.919c4.559-4.559,4.559-11.396,4.559-11.396l2.039-0.023c0,0,0,6.98,4.438,11.418"/>
	<path d="M41.693,139.285c4.559,4.559,11.396,4.559,11.396,4.559v2.039c0,0-6.98,0-11.42,4.438"/>
	<path d="M50.834,139.261c-4.559,4.558-11.396,4.558-11.396,4.558v2.039c0,0,6.98,0,11.419,4.438"/>
	<path d="M54.385,213.837c0-4.342-3.622-7.869-8.108-7.869s-8.108,3.527-8.108,7.869s3.622,7.869,8.108,7.869
		S54.385,218.18,54.385,213.837z"/>
	<path d="M64.845,198.939c0-4.342-3.623-7.869-8.109-7.869s-8.108,3.527-8.108,7.869s3.622,7.869,8.108,7.869
		S64.845,203.281,64.845,198.939z"/>
	<path d="M44.068,198.891c0-1.583-0.479-3.071-1.319-4.317c-1.438-2.136-3.959-3.552-6.79-3.552c-4.485,0-8.107,3.526-8.107,7.869
		c0,4.342,3.622,7.869,8.107,7.869C40.445,206.76,44.068,203.233,44.068,198.891z"/>
	<path d="M55.8,183.609c-4.007,0-6.116,3.264-7.221,6.525c-1.104,3.263-1.2,6.525-1.2,6.525h-2.062c0,0-0.385-13.027-8.397-13.051
		H55.8z"/>
	<path d="M40.781,208.056c4.559-4.559,4.559-11.396,4.559-11.396l2.039-0.023c0,0,0,6.98,4.438,11.42"/>
	<path d="M41.693,193.421c4.559,4.559,11.396,4.559,11.396,4.559v2.039c0,0-6.98,0-11.42,4.438"/>
	<path d="M50.834,193.397c-4.559,4.56-11.396,4.56-11.396,4.56v2.039c0,0,6.98,0,11.419,4.438"/>
	<path d="M118.139,28.066c0,4.342,3.623,7.869,8.108,7.869c4.486,0,8.108-3.526,8.108-7.869c0-4.343-3.622-7.869-8.108-7.869
		C121.762,20.197,118.139,23.724,118.139,28.066z"/>
	<path d="M107.679,42.965c0,4.342,3.621,7.869,8.107,7.869s8.109-3.527,8.109-7.869c0-4.343-3.623-7.869-8.109-7.869
		S107.679,38.622,107.679,42.965z"/>
	<path d="M128.455,43.013c0,1.583,0.479,3.071,1.319,4.318c1.438,2.135,3.958,3.551,6.789,3.551c4.485,0,8.108-3.527,8.108-7.869
		c0-4.342-3.623-7.869-8.108-7.869C132.077,35.144,128.455,38.67,128.455,43.013z"/>
	<path d="M116.723,58.295c4.007,0,6.117-3.263,7.222-6.525c1.104-3.262,1.2-6.526,1.2-6.526h2.062c0,0,0.384,13.027,8.397,13.051
		H116.723z"/>
	<path d="M131.741,33.848c-4.558,4.558-4.558,11.396-4.558,11.396l-2.039,0.024c0,0,0-6.981-4.438-11.419"/>
	<path d="M130.83,48.482c-4.559-4.558-11.396-4.558-11.396-4.558v-2.039c0,0,6.98,0,11.419-4.438"/>
	<path d="M121.689,48.507c4.559-4.559,11.396-4.559,11.396-4.559v-2.039c0,0-6.98,0-11.42-4.438"/>
	<path d="M118.139,82.202c0,4.343,3.623,7.869,8.108,7.869c4.486,0,8.108-3.526,8.108-7.869c0-4.342-3.622-7.869-8.108-7.869
		C121.762,74.333,118.139,77.86,118.139,82.202z"/>
	<path d="M107.679,97.101c0,4.343,3.621,7.869,8.107,7.869s8.109-3.526,8.109-7.869c0-4.342-3.623-7.869-8.109-7.869
		S107.679,92.758,107.679,97.101z"/>
	<path d="M128.455,97.149c0,1.583,0.479,3.071,1.319,4.318c1.438,2.135,3.958,3.551,6.789,3.551c4.485,0,8.108-3.527,8.108-7.869
		c0-4.342-3.623-7.869-8.108-7.869C132.077,89.28,128.455,92.807,128.455,97.149z"/>
	<path d="M116.723,112.431c4.007,0,6.117-3.263,7.222-6.526c1.104-3.263,1.2-6.525,1.2-6.525h2.062c0,0,0.384,13.027,8.397,13.051
		H116.723z"/>
	<path d="M131.741,87.984c-4.558,4.558-4.558,11.396-4.558,11.396l-2.039,0.024c0,0,0-6.981-4.438-11.419"/>
	<path d="M130.83,102.619c-4.559-4.558-11.396-4.558-11.396-4.558v-2.039c0,0,6.98,0,11.419-4.438"/>
	<path d="M121.689,102.643c4.559-4.558,11.396-4.558,11.396-4.558v-2.039c0,0-6.98,0-11.42-4.438"/>
	<path d="M134.213,159.703c0-4.344-3.623-7.869-8.108-7.869c-4.486,0-8.109,3.525-8.109,7.869c0,4.342,3.623,7.868,8.109,7.868
		C130.59,167.571,134.213,164.044,134.213,159.703z"/>
	<path d="M144.673,144.802c0-4.342-3.623-7.868-8.108-7.868c-4.486,0-8.108,3.526-8.108,7.868c0,4.344,3.622,7.869,8.108,7.869
		C141.05,152.671,144.673,149.146,144.673,144.802z"/>
	<path d="M123.896,144.755c0-1.584-0.48-3.071-1.319-4.318c-1.438-2.135-3.959-3.551-6.79-3.551c-4.486,0-8.107,3.527-8.107,7.869
		s3.621,7.869,8.107,7.869S123.896,149.097,123.896,144.755z"/>
	<path d="M135.628,129.473c-4.007,0-6.118,3.263-7.222,6.524c-1.104,3.264-1.199,6.526-1.199,6.526h-2.062
		c0,0-0.385-13.026-8.396-13.051H135.628z"/>
	<path d="M120.609,153.919c4.559-4.559,4.559-11.396,4.559-11.396l2.039-0.023c0,0,0,6.98,4.438,11.418"/>
	<path d="M121.521,139.285c4.559,4.559,11.396,4.559,11.396,4.559v2.039c0,0-6.98,0-11.42,4.438"/>
	<path d="M130.662,139.261c-4.559,4.558-11.396,4.558-11.396,4.558v2.039c0,0,6.981,0,11.42,4.438"/>
	<path d="M134.213,213.837c0-4.342-3.623-7.869-8.108-7.869c-4.486,0-8.109,3.527-8.109,7.869s3.623,7.869,8.109,7.869
		C130.59,221.707,134.213,218.18,134.213,213.837z"/>
	<path d="M144.673,198.939c0-4.342-3.623-7.869-8.108-7.869c-4.486,0-8.108,3.527-8.108,7.869s3.622,7.869,8.108,7.869
		C141.05,206.808,144.673,203.281,144.673,198.939z"/>
	<path d="M123.896,198.891c0-1.583-0.48-3.071-1.319-4.317c-1.438-2.136-3.959-3.552-6.79-3.552c-4.486,0-8.107,3.526-8.107,7.869
		c0,4.342,3.621,7.869,8.107,7.869S123.896,203.233,123.896,198.891z"/>
	<path d="M135.628,183.609c-4.007,0-6.118,3.264-7.222,6.525c-1.104,3.262-1.199,6.525-1.199,6.525h-2.062
		c0,0-0.385-13.027-8.396-13.051H135.628z"/>
	<path d="M120.609,208.056c4.559-4.559,4.559-11.396,4.559-11.396l2.039-0.023c0,0,0,6.98,4.438,11.42"/>
	<path d="M121.521,193.421c4.559,4.559,11.396,4.559,11.396,4.559v2.039c0,0-6.98,0-11.42,4.438"/>
	<path d="M130.662,193.397c-4.559,4.56-11.396,4.56-11.396,4.56v2.039c0,0,6.981,0,11.42,4.438"/>
	<path d="M152.525,224.641c-1.08-0.265-1.967-0.966-2.664-2.104c-0.695-1.142-1.045-2.502-1.045-4.086
		c0-1.873,0.647-3.518,1.945-4.934c1.463-1.584,3.396-2.376,5.795-2.376c2.137,0,3.938,0.708,5.399,2.124
		c1.465,1.416,2.195,3.072,2.195,4.968c0,1.058-0.443,2.089-1.33,3.097c-0.049,0.049-0.721,0.672-2.018,1.873
		c0.815,0.479,1.44,1.133,1.872,1.961c0.433,0.828,0.648,1.782,0.648,2.861c0,1.85-0.613,3.434-1.836,4.752
		c-1.369,1.465-3.133,2.196-5.293,2.196c-2.039,0-3.707-0.769-5.004-2.304c-1.058-1.248-1.584-2.484-1.584-3.709
		C149.609,227.33,150.582,225.889,152.525,224.641z M160.301,222.951c0.562-0.48,0.955-1.22,1.179-2.216
		c0.223-0.996,0.334-2.058,0.334-3.187c0-1.991-0.463-3.504-1.396-4.535c-0.928-1.032-2.18-1.549-3.754-1.549
		c-1.619,0-2.906,0.457-3.858,1.369c-0.955,0.912-1.433,2.1-1.433,3.562c0,2.473,1.076,4.116,3.228,4.934
		C156.514,221.857,158.412,222.397,160.301,222.951z M152.922,224.822c-0.418,0.527-0.77,1.157-1.053,1.891
		c-0.281,0.73-0.424,1.506-0.424,2.322c0,1.92,0.504,3.37,1.512,4.354c0.865,0.84,1.992,1.26,3.385,1.26
		c1.32,0,2.447-0.378,3.384-1.134c0.938-0.756,1.403-1.83,1.403-3.223c0-1.992-1.146-3.383-3.438-4.176
		C157.211,225.949,155.621,225.517,152.922,224.822z"/>
	<path d="M19.041,20.529c1.08,0.264,1.967,0.966,2.664,2.105c0.695,1.141,1.045,2.502,1.045,4.086c0,1.872-0.647,3.517-1.944,4.933
		c-1.464,1.584-3.396,2.376-5.796,2.376c-2.137,0-3.938-0.708-5.399-2.124c-1.465-1.416-2.195-3.072-2.195-4.968
		c0-1.057,0.443-2.089,1.33-3.097c0.049-0.048,0.721-0.671,2.019-1.872c-0.816-0.479-1.441-1.134-1.873-1.962
		c-0.433-0.828-0.65-1.782-0.65-2.861c0-1.849,0.613-3.433,1.836-4.752c1.369-1.464,3.133-2.196,5.293-2.196
		c2.039,0,3.707,0.769,5.004,2.304c1.058,1.248,1.584,2.484,1.584,3.708C21.957,17.841,20.984,19.281,19.041,20.529z M11.266,22.22
		c-0.562,0.48-0.955,1.219-1.179,2.215c-0.223,0.996-0.334,2.058-0.334,3.186c0,1.992,0.463,3.504,1.396,4.536
		c0.928,1.032,2.18,1.548,3.754,1.548c1.619,0,2.906-0.456,3.859-1.368c0.954-0.912,1.432-2.1,1.432-3.563
		c0-2.472-1.076-4.116-3.228-4.933C15.053,23.313,13.154,22.773,11.266,22.22z M18.645,20.348c0.418-0.527,0.77-1.157,1.053-1.89
		c0.281-0.731,0.424-1.506,0.424-2.322c0-1.92-0.504-3.371-1.512-4.354c-0.865-0.84-1.992-1.26-3.385-1.26
		c-1.32,0-2.447,0.378-3.384,1.134c-0.938,0.756-1.403,1.83-1.403,3.222c0,1.992,1.146,3.384,3.438,4.176
		C14.355,19.221,15.945,19.653,18.645,20.348z"/>
</g>
</svg>
