<?xml version="1.0" encoding="utf-8"?>
<!-- Generator: Adobe Illustrator 16.0.0, SVG Export Plug-In . SVG Version: 6.00 Build 0)  -->
<!DOCTYPE svg PUBLIC "-//W3C//DTD SVG 1.1//EN" "http://www.w3.org/Graphics/SVG/1.1/DTD/svg11.dtd">
<svg version="1.1" id="Layer_1" xmlns="http://www.w3.org/2000/svg" xmlns:xlink="http://www.w3.org/1999/xlink" x="0px" y="0px"
	 width="171.512px" height="247.046px" viewBox="0 0 171.512 247.046" enable-background="new 0 0 171.512 247.046"
	 xml:space="preserve">
<g>
	<path fill="#FFFFFF" d="M9.367,245.8c-4.476,0-8.117-3.643-8.117-8.118V9.367c0-4.476,3.642-8.117,8.117-8.117h152.788
		c4.471,0,8.107,3.641,8.107,8.117v228.315c0,4.476-3.638,8.118-8.107,8.118H9.367z"/>
	<path fill="#D4D4D4" d="M162.155,2.5c3.769,0,6.857,3.089,6.857,6.867v228.315c0,3.778-3.09,6.868-6.857,6.868H9.367
		c-3.778,0-6.867-3.09-6.867-6.868V9.367C2.5,5.589,5.589,2.5,9.367,2.5H162.155 M162.155,0H9.367C4.202,0,0,4.202,0,9.367v228.315
		c0,5.166,4.202,9.368,9.367,9.368h152.788c5.16,0,9.357-4.202,9.357-9.368V9.367C171.513,4.202,167.315,0,162.155,0z"/>
	<path d="M12.796,47.976c0,1.809,1.511,3.279,3.379,3.279c1.869,0,3.38-1.47,3.38-3.279c0-1.81-1.511-3.279-3.38-3.279
		C14.306,44.697,12.796,46.167,12.796,47.976z"/>
	<path d="M8.438,54.184c0,1.81,1.51,3.279,3.379,3.279s3.379-1.469,3.379-3.279s-1.51-3.279-3.379-3.279S8.438,52.374,8.438,54.184z
		"/>
	<path d="M17.095,54.204c0,0.66,0.199,1.279,0.55,1.799c0.6,0.89,1.648,1.479,2.829,1.479c1.868,0,3.378-1.47,3.378-3.279
		c0-1.81-1.51-3.279-3.378-3.279C18.604,50.925,17.095,52.394,17.095,54.204z"/>
	<path d="M12.206,60.571c1.67,0,2.55-1.359,3.009-2.719c0.46-1.359,0.5-2.719,0.5-2.719h0.859c0,0,0.16,5.428,3.499,5.438H12.206z"
		/>
	<path d="M18.464,50.385c-1.898,1.899-1.898,4.749-1.898,4.749l-0.851,0.01c0,0,0-2.909-1.85-4.758"/>
	<path d="M18.084,56.483c-1.898-1.899-4.748-1.899-4.748-1.899v-0.85c0,0,2.909,0,4.759-1.85"/>
	<path d="M14.275,56.493c1.898-1.899,4.748-1.899,4.748-1.899v-0.85c0,0-2.908,0-4.758-1.849"/>
	<path d="M159.712,198.078c0-1.811-1.51-3.279-3.379-3.279s-3.379,1.469-3.379,3.279c0,1.809,1.51,3.278,3.379,3.278
		S159.712,199.886,159.712,198.078z"/>
	<path d="M164.07,191.869c0-1.809-1.51-3.279-3.379-3.279s-3.379,1.471-3.379,3.279c0,1.811,1.51,3.279,3.379,3.279
		S164.07,193.679,164.07,191.869z"/>
	<path d="M155.413,191.849c0-0.66-0.2-1.279-0.55-1.799c-0.6-0.891-1.649-1.479-2.829-1.479c-1.869,0-3.379,1.47-3.379,3.279
		s1.51,3.278,3.379,3.278S155.413,193.66,155.413,191.849z"/>
	<path d="M160.301,185.481c-1.669,0-2.549,1.36-3.009,2.72c-0.459,1.358-0.499,2.719-0.499,2.719h-0.859
		c0,0-0.159-5.428-3.498-5.438H160.301L160.301,185.481z"/>
	<path d="M154.044,195.667c1.899-1.898,1.899-4.748,1.899-4.748l0.85-0.01c0,0,0,2.908,1.85,4.758"/>
	<path d="M154.424,189.57c1.898,1.899,4.748,1.899,4.748,1.899v0.85c0,0-2.908,0-4.759,1.849"/>
	<path d="M158.232,189.56c-1.899,1.898-4.749,1.898-4.749,1.898v0.851c0,0,2.909,0,4.759,1.849"/>
	<path d="M38.306,28.066c0,4.342,3.622,7.869,8.107,7.869c4.486,0,8.109-3.526,8.109-7.869c0-4.343-3.623-7.869-8.109-7.869
		C41.928,20.197,38.306,23.724,38.306,28.066z"/>
	<path d="M27.845,42.965c0,4.342,3.622,7.869,8.108,7.869s8.109-3.527,8.109-7.869c0-4.343-3.623-7.869-8.109-7.869
		S27.845,38.622,27.845,42.965z"/>
	<path d="M48.621,43.013c0,1.583,0.48,3.071,1.32,4.318c1.438,2.135,3.958,3.551,6.789,3.551c4.485,0,8.108-3.527,8.108-7.869
		c0-4.342-3.623-7.869-8.108-7.869C52.244,35.144,48.621,38.67,48.621,43.013z"/>
	<path d="M36.89,58.295c4.007,0,6.117-3.263,7.222-6.525c1.104-3.262,1.199-6.526,1.199-6.526h2.062c0,0,0.384,13.027,8.396,13.051
		H36.89z"/>
	<path d="M51.908,33.848c-4.559,4.558-4.559,11.396-4.559,11.396l-2.039,0.024c0,0,0-6.981-4.438-11.419"/>
	<path d="M50.996,48.482C46.438,43.924,39.6,43.924,39.6,43.924v-2.039c0,0,6.98,0,11.42-4.438"/>
	<path d="M41.855,48.507c4.559-4.559,11.396-4.559,11.396-4.559v-2.039c0,0-6.98,0-11.42-4.438"/>
	<path d="M38.306,104.979c0,4.342,3.622,7.869,8.107,7.869c4.486,0,8.109-3.527,8.109-7.869S50.9,97.11,46.414,97.11
		C41.928,97.11,38.306,100.637,38.306,104.979z"/>
	<path d="M27.845,119.877c0,4.341,3.622,7.869,8.108,7.869s8.109-3.527,8.109-7.869c0-4.342-3.623-7.869-8.109-7.869
		S27.845,115.535,27.845,119.877z"/>
	<path d="M48.621,119.925c0,1.583,0.48,3.071,1.32,4.319c1.438,2.135,3.958,3.551,6.789,3.551c4.485,0,8.108-3.527,8.108-7.87
		c0-4.342-3.623-7.869-8.108-7.869C52.244,112.056,48.621,115.583,48.621,119.925z"/>
	<path d="M36.89,135.208c4.007,0,6.117-3.264,7.222-6.525c1.104-3.262,1.199-6.525,1.199-6.525h2.062c0,0,0.384,13.027,8.396,13.05
		H36.89L36.89,135.208z"/>
	<path d="M51.908,110.761c-4.559,4.559-4.559,11.396-4.559,11.396l-2.039,0.024c0,0,0-6.981-4.438-11.42"/>
	<path d="M50.996,125.396c-4.558-4.559-11.396-4.559-11.396-4.559v-2.039c0,0,6.98,0,11.42-4.438"/>
	<path d="M41.855,125.419c4.559-4.559,11.396-4.559,11.396-4.559v-2.04c0,0-6.98,0-11.42-4.438"/>
	<path d="M54.38,213.837c0-4.342-3.623-7.869-8.108-7.869c-4.486,0-8.108,3.527-8.108,7.869s3.622,7.869,8.108,7.869
		C50.757,221.707,54.38,218.18,54.38,213.837z"/>
	<path d="M64.84,198.939c0-4.342-3.623-7.869-8.108-7.869c-4.486,0-8.108,3.527-8.108,7.869s3.622,7.869,8.108,7.869
		C61.217,206.808,64.84,203.281,64.84,198.939z"/>
	<path d="M44.063,198.891c0-1.583-0.479-3.071-1.319-4.317c-1.438-2.136-3.959-3.552-6.79-3.552c-4.486,0-8.107,3.526-8.107,7.869
		c0,4.342,3.621,7.869,8.107,7.869S44.063,203.233,44.063,198.891z"/>
	<path d="M55.795,183.609c-4.006,0-6.116,3.264-7.221,6.525c-1.104,3.263-1.2,6.525-1.2,6.525h-2.062c0,0-0.385-13.027-8.396-13.051
		H55.795z"/>
	<path d="M40.776,208.056c4.559-4.559,4.559-11.396,4.559-11.396l2.039-0.023c0,0,0,6.98,4.438,11.42"/>
	<path d="M41.688,193.421c4.559,4.559,11.396,4.559,11.396,4.559v2.039c0,0-6.98,0-11.42,4.438"/>
	<path d="M50.829,193.397c-4.559,4.56-11.396,4.56-11.396,4.56v2.039c0,0,6.979,0,11.419,4.438"/>
	<path d="M118.133,28.066c0,4.342,3.623,7.869,8.109,7.869s8.109-3.526,8.109-7.869c0-4.343-3.623-7.869-8.109-7.869
		S118.133,23.724,118.133,28.066z"/>
	<path d="M107.673,42.965c0,4.342,3.623,7.869,8.109,7.869s8.108-3.527,8.108-7.869c0-4.343-3.622-7.869-8.108-7.869
		S107.673,38.622,107.673,42.965z"/>
	<path d="M128.449,43.013c0,1.583,0.48,3.071,1.319,4.318c1.438,2.135,3.959,3.551,6.79,3.551c4.485,0,8.107-3.527,8.107-7.869
		c0-4.342-3.622-7.869-8.107-7.869C132.072,35.144,128.449,38.67,128.449,43.013z"/>
	<path d="M116.718,58.295c4.008,0,6.118-3.263,7.223-6.525c1.104-3.262,1.199-6.526,1.199-6.526h2.062
		c0,0,0.384,13.027,8.396,13.051H116.718z"/>
	<path d="M131.736,33.848c-4.56,4.558-4.56,11.396-4.56,11.396l-2.038,0.024c0,0,0-6.981-4.438-11.419"/>
	<path d="M130.824,48.482c-4.558-4.558-11.396-4.558-11.396-4.558v-2.039c0,0,6.98,0,11.42-4.438"/>
	<path d="M121.684,48.507c4.559-4.559,11.396-4.559,11.396-4.559v-2.039c0,0-6.98,0-11.42-4.438"/>
	<path d="M118.133,104.979c0,4.342,3.623,7.869,8.109,7.869s8.109-3.527,8.109-7.869s-3.623-7.869-8.109-7.869
		S118.133,100.637,118.133,104.979z"/>
	<path d="M107.673,119.877c0,4.341,3.623,7.869,8.109,7.869s8.108-3.527,8.108-7.869c0-4.342-3.622-7.869-8.108-7.869
		S107.673,115.535,107.673,119.877z"/>
	<path d="M128.449,119.925c0,1.583,0.48,3.071,1.319,4.319c1.438,2.135,3.959,3.551,6.79,3.551c4.485,0,8.107-3.527,8.107-7.87
		c0-4.342-3.622-7.869-8.107-7.869C132.072,112.056,128.449,115.583,128.449,119.925z"/>
	<path d="M116.718,135.208c4.008,0,6.118-3.264,7.223-6.525c1.104-3.262,1.199-6.525,1.199-6.525h2.062
		c0,0,0.384,13.027,8.396,13.05H116.718L116.718,135.208z"/>
	<path d="M131.736,110.761c-4.56,4.559-4.56,11.396-4.56,11.396l-2.038,0.024c0,0,0-6.981-4.438-11.42"/>
	<path d="M130.824,125.396c-4.558-4.559-11.396-4.559-11.396-4.559v-2.039c0,0,6.98,0,11.42-4.438"/>
	<path d="M121.684,125.419c4.559-4.559,11.396-4.559,11.396-4.559v-2.04c0,0-6.98,0-11.42-4.438"/>
	<path d="M134.207,213.837c0-4.342-3.622-7.869-8.107-7.869c-4.486,0-8.109,3.527-8.109,7.869s3.623,7.869,8.109,7.869
		C130.585,221.707,134.207,218.18,134.207,213.837z"/>
	<path d="M144.668,198.939c0-4.342-3.623-7.869-8.108-7.869c-4.486,0-8.109,3.527-8.109,7.869s3.623,7.869,8.109,7.869
		C141.045,206.808,144.668,203.281,144.668,198.939z"/>
	<path d="M123.892,198.891c0-1.583-0.48-3.071-1.319-4.317c-1.439-2.136-3.959-3.552-6.79-3.552c-4.486,0-8.108,3.526-8.108,7.869
		c0,4.342,3.622,7.869,8.108,7.869S123.892,203.233,123.892,198.891z"/>
	<path d="M135.623,183.609c-4.007,0-6.118,3.264-7.222,6.525c-1.104,3.262-1.199,6.525-1.199,6.525h-2.062
		c0,0-0.385-13.027-8.396-13.051H135.623z"/>
	<path d="M120.604,208.056c4.559-4.559,4.559-11.396,4.559-11.396l2.039-0.023c0,0,0,6.98,4.438,11.42"/>
	<path d="M121.517,193.421c4.558,4.559,11.396,4.559,11.396,4.559v2.039c0,0-6.98,0-11.42,4.438"/>
	<path d="M130.657,193.397c-4.559,4.56-11.396,4.56-11.396,4.56v2.039c0,0,6.98,0,11.42,4.438"/>
	<path d="M78.22,82.202c0,4.343,3.621,7.869,8.107,7.869s8.109-3.526,8.109-7.869c0-4.342-3.623-7.869-8.109-7.869
		S78.22,77.86,78.22,82.202z"/>
	<path d="M67.76,97.101c0,4.343,3.622,7.869,8.108,7.869s8.109-3.526,8.109-7.869c0-4.342-3.623-7.869-8.109-7.869
		S67.76,92.758,67.76,97.101z"/>
	<path d="M88.535,97.149c0,1.583,0.48,3.071,1.32,4.318c1.438,2.135,3.958,3.551,6.789,3.551c4.485,0,8.108-3.527,8.108-7.869
		c0-4.342-3.623-7.869-8.108-7.869C92.158,89.28,88.535,92.807,88.535,97.149z"/>
	<path d="M76.804,112.431c4.007,0,6.117-3.263,7.222-6.526c1.104-3.263,1.199-6.525,1.199-6.525h2.062
		c0,0,0.384,13.027,8.396,13.051H76.804z"/>
	<path d="M91.822,87.984c-4.559,4.558-4.559,11.396-4.559,11.396l-2.039,0.024c0,0,0-6.981-4.438-11.419"/>
	<path d="M90.911,102.619c-4.559-4.558-11.396-4.558-11.396-4.558v-2.039c0,0,6.98,0,11.42-4.438"/>
	<path d="M81.771,102.643c4.558-4.558,11.396-4.558,11.396-4.558v-2.039c0,0-6.98,0-11.42-4.438"/>
	<path d="M161.729,232.833c-0.405,0.951-0.812,1.545-1.217,1.783c-0.405,0.236-1.038,0.355-1.897,0.355
		c-1.001,0-2.117-0.75-3.346-2.25c-1.229-1.5-2.152-2.25-2.773-2.25c-0.835,0-1.461,0.4-1.879,1.206
		c-0.417,0.804-0.626,1.901-0.626,3.294h-0.433c-0.023-0.168-0.035-0.42-0.035-0.756c0-0.984,0.197-2.016,0.594-3.096
		c0.397-1.08,0.834-1.992,1.314-2.736c1.104-1.68,1.799-2.82,2.088-3.42c0.72-1.512,1.08-4.188,1.08-8.028
		c0-2.136,0.19-3.636,0.575-4.5c0.384-0.862,0.984-1.296,1.8-1.296c0.647,0,1.151,0.229,1.513,0.686
		c0.432,0.551,0.646,1.463,0.646,2.735c0,0.96-0.264,2.089-0.791,3.385c-0.646,1.562-1.778,3.576-3.403,6.05
		c-0.859,1.271-1.713,2.545-2.562,3.816c-0.849,1.271-1.38,2.186-1.595,2.736c0.43-0.182,0.805-0.312,1.127-0.391
		c0.322-0.078,0.662-0.117,1.021-0.117c0.452,0,0.918,0.047,1.395,0.144c0.812,0.239,1.467,0.42,1.967,0.54
		c0.955,0.264,1.754,0.396,2.397,0.396c0.523,0,0.988-0.086,1.396-0.254c0.787-0.34,1.336-1.16,1.646-2.466
		c0.19-0.772,0.287-1.618,0.287-2.537h0.432c0,0.72-0.023,1.728-0.072,3.023c-0.048,1.296-0.071,2.231-0.071,2.809v0.396
		c0,0.938,0.071,1.896,0.217,2.881h-0.434L161.729,232.833z"/>
	<path d="M9.628,12.336c0.406-0.951,0.812-1.545,1.218-1.783c0.405-0.237,1.037-0.356,1.896-0.356c1.001,0,2.117,0.75,3.346,2.25
		c1.229,1.5,2.153,2.25,2.774,2.25c0.835,0,1.461-0.401,1.878-1.206c0.417-0.804,0.626-1.902,0.626-3.294h0.432
		c0.023,0.168,0.036,0.42,0.036,0.756c0,0.984-0.197,2.016-0.594,3.096c-0.396,1.08-0.834,1.992-1.314,2.736
		c-1.104,1.68-1.8,2.82-2.088,3.42c-0.72,1.512-1.08,4.188-1.08,8.028c0,2.136-0.191,3.636-0.575,4.5
		c-0.385,0.863-0.984,1.296-1.801,1.296c-0.647,0-1.151-0.229-1.512-0.685c-0.432-0.552-0.647-1.464-0.647-2.736
		c0-0.96,0.264-2.089,0.792-3.385c0.645-1.561,1.778-3.576,3.403-6.05c0.859-1.271,1.713-2.544,2.562-3.816
		c0.849-1.272,1.38-2.185,1.595-2.737c-0.43,0.182-0.805,0.312-1.127,0.391c-0.322,0.079-0.662,0.118-1.02,0.118
		c-0.453,0-0.919-0.048-1.396-0.144c-0.811-0.24-1.466-0.42-1.967-0.54c-0.954-0.264-1.753-0.396-2.397-0.396
		c-0.524,0-0.989,0.085-1.395,0.254c-0.788,0.339-1.336,1.16-1.646,2.465c-0.19,0.773-0.287,1.619-0.287,2.537H8.91
		c0-0.72,0.024-1.728,0.072-3.023c0.048-1.296,0.072-2.232,0.072-2.809v-0.396c0-0.937-0.072-1.896-0.217-2.88H9.27L9.628,12.336z"
		/>
</g>
</svg>
