<?xml version="1.0" encoding="utf-8"?>
<!-- Generator: Adobe Illustrator 16.0.0, SVG Export Plug-In . SVG Version: 6.00 Build 0)  -->
<!DOCTYPE svg PUBLIC "-//W3C//DTD SVG 1.1//EN" "http://www.w3.org/Graphics/SVG/1.1/DTD/svg11.dtd">
<svg version="1.1" id="Layer_1" xmlns="http://www.w3.org/2000/svg" xmlns:xlink="http://www.w3.org/1999/xlink" x="0px" y="0px"
	 width="171.512px" height="247.046px" viewBox="0 0 171.512 247.046" enable-background="new 0 0 171.512 247.046"
	 xml:space="preserve">
<g>
	<path fill="#FFFFFF" d="M9.367,245.8c-4.476,0-8.117-3.643-8.117-8.118V9.367c0-4.476,3.642-8.117,8.117-8.117h152.788
		c4.47,0,8.107,3.641,8.107,8.117v228.315c0,4.476-3.638,8.118-8.107,8.118H9.367z"/>
	<path fill="#D4D4D4" d="M162.155,2.5c3.769,0,6.857,3.089,6.857,6.867v228.315c0,3.778-3.09,6.868-6.857,6.868H9.367
		c-3.778,0-6.867-3.09-6.867-6.868V9.367C2.5,5.589,5.589,2.5,9.367,2.5H162.155 M162.155,0H9.367C4.202,0,0,4.202,0,9.367v228.315
		c0,5.166,4.202,9.368,9.367,9.368h152.788c5.16,0,9.357-4.202,9.357-9.368V9.367C171.513,4.202,167.315,0,162.155,0z"/>
	<path d="M12.796,47.976c0,1.809,1.511,3.279,3.379,3.279c1.869,0,3.38-1.47,3.38-3.279c0-1.81-1.511-3.279-3.38-3.279
		C14.306,44.697,12.796,46.167,12.796,47.976z"/>
	<path d="M8.438,54.184c0,1.81,1.51,3.279,3.379,3.279s3.379-1.469,3.379-3.279s-1.51-3.279-3.379-3.279S8.438,52.374,8.438,54.184z
		"/>
	<path d="M17.095,54.204c0,0.66,0.199,1.279,0.55,1.799c0.6,0.89,1.648,1.479,2.829,1.479c1.868,0,3.379-1.47,3.379-3.279
		c0-1.81-1.511-3.279-3.379-3.279C18.605,50.924,17.095,52.394,17.095,54.204z"/>
	<path d="M12.206,60.571c1.67,0,2.55-1.359,3.009-2.719c0.46-1.359,0.5-2.719,0.5-2.719h0.86c0,0,0.159,5.428,3.498,5.438H12.206z"
		/>
	<path d="M18.464,50.385c-1.898,1.899-1.898,4.749-1.898,4.749l-0.851,0.01c0,0,0-2.909-1.849-4.758"/>
	<path d="M18.084,56.483c-1.898-1.899-4.748-1.899-4.748-1.899v-0.85c0,0,2.909,0,4.759-1.85"/>
	<path d="M14.275,56.493c1.898-1.899,4.748-1.899,4.748-1.899v-0.85c0,0-2.908,0-4.758-1.849"/>
	<path d="M159.717,198.078c0-1.811-1.51-3.279-3.379-3.279s-3.379,1.469-3.379,3.279c0,1.809,1.51,3.278,3.379,3.278
		S159.717,199.886,159.717,198.078z"/>
	<path d="M164.075,191.869c0-1.809-1.51-3.279-3.379-3.279s-3.379,1.471-3.379,3.279c0,1.811,1.51,3.279,3.379,3.279
		S164.075,193.679,164.075,191.869z"/>
	<path d="M155.418,191.849c0-0.66-0.2-1.279-0.55-1.799c-0.6-0.891-1.649-1.479-2.829-1.479c-1.869,0-3.379,1.47-3.379,3.279
		s1.51,3.278,3.379,3.278S155.418,193.66,155.418,191.849z"/>
	<path d="M160.307,185.481c-1.67,0-2.551,1.36-3.01,2.72c-0.46,1.358-0.5,2.719-0.5,2.719h-0.859c0,0-0.159-5.428-3.498-5.438
		H160.307L160.307,185.481z"/>
	<path d="M154.049,195.667c1.899-1.898,1.899-4.748,1.899-4.748l0.85-0.01c0,0,0,2.908,1.85,4.758"/>
	<path d="M154.429,189.57c1.898,1.899,4.747,1.899,4.747,1.899v0.85c0,0-2.908,0-4.758,1.849"/>
	<path d="M158.237,189.56c-1.899,1.898-4.748,1.898-4.748,1.898v0.851c0,0,2.908,0,4.758,1.849"/>
	<path d="M38.306,28.066c0,4.342,3.622,7.869,8.107,7.869c4.486,0,8.109-3.526,8.109-7.869c0-4.343-3.623-7.869-8.109-7.869
		C41.928,20.197,38.306,23.724,38.306,28.066z"/>
	<path d="M27.845,42.965c0,4.342,3.622,7.869,8.108,7.869s8.109-3.527,8.109-7.869c0-4.343-3.623-7.869-8.109-7.869
		S27.845,38.622,27.845,42.965z"/>
	<path d="M48.621,43.013c0,1.583,0.48,3.071,1.319,4.318c1.439,2.135,3.959,3.551,6.79,3.551c4.485,0,8.108-3.527,8.108-7.869
		c0-4.342-3.623-7.869-8.108-7.869C52.244,35.144,48.621,38.67,48.621,43.013z"/>
	<path d="M36.89,58.295c4.007,0,6.117-3.263,7.222-6.525c1.104-3.262,1.199-6.526,1.199-6.526h2.062c0,0,0.384,13.027,8.396,13.051
		H36.89z"/>
	<path d="M51.908,33.848c-4.559,4.558-4.559,11.396-4.559,11.396l-2.039,0.024c0,0,0-6.981-4.438-11.419"/>
	<path d="M50.997,48.482c-4.559-4.558-11.396-4.558-11.396-4.558v-2.039c0,0,6.98,0,11.42-4.438"/>
	<path d="M41.856,48.507c4.558-4.559,11.396-4.559,11.396-4.559v-2.039c0,0-6.98,0-11.42-4.438"/>
	<path d="M38.306,104.979c0,4.342,3.622,7.869,8.107,7.869c4.486,0,8.109-3.527,8.109-7.869S50.9,97.11,46.414,97.11
		C41.928,97.11,38.306,100.637,38.306,104.979z"/>
	<path d="M27.845,119.877c0,4.341,3.622,7.869,8.108,7.869s8.109-3.527,8.109-7.869c0-4.342-3.623-7.869-8.109-7.869
		S27.845,115.535,27.845,119.877z"/>
	<path d="M48.621,119.925c0,1.583,0.48,3.071,1.319,4.319c1.439,2.135,3.959,3.551,6.79,3.551c4.485,0,8.108-3.527,8.108-7.87
		c0-4.342-3.623-7.869-8.108-7.869C52.244,112.056,48.621,115.583,48.621,119.925z"/>
	<path d="M36.89,135.208c4.007,0,6.117-3.264,7.222-6.525c1.104-3.262,1.199-6.525,1.199-6.525h2.062c0,0,0.384,13.027,8.396,13.05
		H36.89L36.89,135.208z"/>
	<path d="M51.908,110.761c-4.559,4.559-4.559,11.396-4.559,11.396l-2.039,0.024c0,0,0-6.981-4.438-11.42"/>
	<path d="M50.997,125.396c-4.559-4.559-11.396-4.559-11.396-4.559v-2.039c0,0,6.98,0,11.42-4.438"/>
	<path d="M41.856,125.419c4.558-4.559,11.396-4.559,11.396-4.559v-2.04c0,0-6.98,0-11.42-4.438"/>
	<path d="M54.379,213.837c0-4.342-3.622-7.869-8.107-7.869c-4.486,0-8.109,3.527-8.109,7.869s3.623,7.869,8.109,7.869
		C50.757,221.707,54.379,218.18,54.379,213.837z"/>
	<path d="M64.84,198.939c0-4.342-3.623-7.869-8.108-7.869c-4.486,0-8.109,3.527-8.109,7.869s3.623,7.869,8.109,7.869
		C61.217,206.808,64.84,203.281,64.84,198.939z"/>
	<path d="M44.063,198.891c0-1.583-0.48-3.071-1.319-4.317c-1.439-2.136-3.959-3.552-6.79-3.552c-4.486,0-8.108,3.526-8.108,7.869
		c0,4.342,3.622,7.869,8.108,7.869S44.063,203.233,44.063,198.891z"/>
	<path d="M55.795,183.609c-4.007,0-6.118,3.264-7.222,6.525c-1.104,3.262-1.199,6.525-1.199,6.525h-2.062
		c0,0-0.385-13.027-8.396-13.051H55.795z"/>
	<path d="M40.776,208.056c4.559-4.559,4.559-11.396,4.559-11.396l2.039-0.023c0,0,0,6.98,4.438,11.42"/>
	<path d="M41.688,193.421c4.558,4.559,11.396,4.559,11.396,4.559v2.039c0,0-6.98,0-11.42,4.438"/>
	<path d="M50.829,193.397c-4.559,4.56-11.396,4.56-11.396,4.56v2.039c0,0,6.98,0,11.42,4.438"/>
	<path d="M118.133,28.066c0,4.342,3.623,7.869,8.109,7.869s8.109-3.526,8.109-7.869c0-4.343-3.623-7.869-8.109-7.869
		S118.133,23.724,118.133,28.066z"/>
	<path d="M107.673,42.965c0,4.342,3.623,7.869,8.109,7.869s8.108-3.527,8.108-7.869c0-4.343-3.622-7.869-8.108-7.869
		S107.673,38.622,107.673,42.965z"/>
	<path d="M128.449,43.013c0,1.583,0.479,3.071,1.319,4.318c1.438,2.135,3.959,3.551,6.79,3.551c4.485,0,8.107-3.527,8.107-7.869
		c0-4.342-3.622-7.869-8.107-7.869C132.072,35.144,128.449,38.67,128.449,43.013z"/>
	<path d="M116.718,58.295c4.008,0,6.117-3.263,7.222-6.525c1.104-3.263,1.2-6.526,1.2-6.526h2.062c0,0,0.384,13.027,8.396,13.051
		H116.718z"/>
	<path d="M131.736,33.848c-4.56,4.558-4.56,11.396-4.56,11.396l-2.038,0.024c0,0,0-6.981-4.438-11.419"/>
	<path d="M130.824,48.482c-4.558-4.558-11.396-4.558-11.396-4.558v-2.039c0,0,6.98,0,11.42-4.438"/>
	<path d="M121.684,48.507c4.559-4.559,11.396-4.559,11.396-4.559v-2.039c0,0-6.979,0-11.419-4.438"/>
	<path d="M118.133,104.979c0,4.342,3.623,7.869,8.109,7.869s8.109-3.527,8.109-7.869s-3.623-7.869-8.109-7.869
		S118.133,100.637,118.133,104.979z"/>
	<path d="M107.673,119.877c0,4.341,3.623,7.869,8.109,7.869s8.108-3.527,8.108-7.869c0-4.342-3.622-7.869-8.108-7.869
		S107.673,115.535,107.673,119.877z"/>
	<path d="M128.449,119.925c0,1.583,0.479,3.071,1.319,4.319c1.438,2.135,3.959,3.551,6.79,3.551c4.485,0,8.107-3.527,8.107-7.87
		c0-4.342-3.622-7.869-8.107-7.869C132.072,112.056,128.449,115.583,128.449,119.925z"/>
	<path d="M116.718,135.208c4.008,0,6.117-3.264,7.222-6.525c1.104-3.264,1.2-6.525,1.2-6.525h2.062c0,0,0.384,13.027,8.396,13.05
		H116.718L116.718,135.208z"/>
	<path d="M131.736,110.761c-4.56,4.559-4.56,11.396-4.56,11.396l-2.038,0.024c0,0,0-6.981-4.438-11.42"/>
	<path d="M130.824,125.396c-4.558-4.559-11.396-4.559-11.396-4.559v-2.039c0,0,6.98,0,11.42-4.438"/>
	<path d="M121.684,125.419c4.559-4.559,11.396-4.559,11.396-4.559v-2.04c0,0-6.979,0-11.419-4.438"/>
	<path d="M134.207,213.837c0-4.342-3.622-7.869-8.107-7.869c-4.486,0-8.109,3.527-8.109,7.869s3.623,7.869,8.109,7.869
		C130.585,221.707,134.207,218.18,134.207,213.837z"/>
	<path d="M144.667,198.939c0-4.342-3.622-7.869-8.107-7.869c-4.486,0-8.109,3.527-8.109,7.869s3.623,7.869,8.109,7.869
		C141.045,206.808,144.667,203.281,144.667,198.939z"/>
	<path d="M123.891,198.891c0-1.583-0.479-3.071-1.319-4.317c-1.439-2.136-3.958-3.552-6.789-3.552c-4.486,0-8.109,3.526-8.109,7.869
		c0,4.342,3.623,7.869,8.109,7.869S123.891,203.233,123.891,198.891z"/>
	<path d="M135.623,183.609c-4.007,0-6.118,3.264-7.222,6.525c-1.104,3.262-1.199,6.525-1.199,6.525h-2.062
		c0,0-0.385-13.027-8.396-13.051H135.623z"/>
	<path d="M120.604,208.056c4.559-4.559,4.559-11.396,4.559-11.396l2.039-0.023c0,0,0,6.98,4.438,11.42"/>
	<path d="M121.516,193.421c4.559,4.559,11.396,4.559,11.396,4.559v2.039c0,0-6.98,0-11.42,4.438"/>
	<path d="M130.656,193.397c-4.558,4.56-11.396,4.56-11.396,4.56v2.039c0,0,6.981,0,11.421,4.438"/>
	<path d="M151.801,232.707c0.12,0.473,0.408,0.873,0.864,1.203c0.672,0.493,1.553,0.739,2.642,0.739c1.118,0,2.05-0.46,2.793-1.381
		c0.741-0.922,1.198-2.231,1.368-3.931c0.05-0.406,0.073-0.86,0.073-1.362v-4.63c-0.409,1.056-0.879,1.8-1.409,2.232
		c-0.697,0.575-1.686,0.862-2.962,0.862c-1.662,0-3.07-0.66-4.227-1.979s-1.734-3.071-1.734-5.256c0-2.496,0.661-4.463,1.98-5.904
		c1.319-1.438,3.145-2.159,5.472-2.159c2.4,0,4.164,0.973,5.292,2.916c1.128,1.944,1.692,4.681,1.692,8.208
		c0,3.384-0.671,6.252-2.017,8.604c-1.56,2.735-3.72,4.104-6.479,4.104c-1.561,0-2.748-0.396-3.564-1.188
		c-0.695-0.673-1.044-1.5-1.044-2.484c0-1.031,0.346-1.68,1.035-1.943c0.356-0.12,0.654-0.18,0.892-0.18
		c0.523,0,0.976,0.156,1.355,0.468s0.57,0.722,0.57,1.226c0,0.6-0.149,1.092-0.45,1.476c-0.3,0.384-0.714,0.575-1.242,0.575
		c-0.144,0-0.288-0.018-0.432-0.053C152.125,232.832,151.969,232.777,151.801,232.707z M156.154,225.792
		c1.311,0,2.246-0.746,2.804-2.236c0.438-1.156,0.655-2.721,0.655-4.692c0-2.334-0.109-3.934-0.328-4.8
		c-0.437-1.732-1.383-2.6-2.84-2.6c-1.092,0-1.899,0.596-2.421,1.787c-0.522,1.19-0.783,2.953-0.783,5.287
		c0,1.756,0.11,3.139,0.328,4.15C154.03,224.757,154.892,225.792,156.154,225.792z"/>
	<path d="M19.927,12.464c-0.119-0.473-0.407-0.874-0.863-1.203c-0.672-0.494-1.554-0.74-2.642-0.74c-1.118,0-2.05,0.46-2.793,1.381
		c-0.741,0.922-1.198,2.231-1.369,3.93c-0.049,0.407-0.072,0.861-0.072,1.363v4.63c0.409-1.056,0.879-1.8,1.409-2.232
		c0.697-0.576,1.686-0.863,2.962-0.863c1.662,0,3.07,0.66,4.227,1.979c1.156,1.32,1.734,3.072,1.734,5.256
		c0,2.497-0.661,4.464-1.98,5.904c-1.319,1.439-3.145,2.16-5.472,2.16c-2.4,0-4.164-0.973-5.292-2.916
		c-1.128-1.944-1.692-4.681-1.692-8.208c0-3.384,0.671-6.252,2.017-8.604c1.56-2.735,3.72-4.104,6.479-4.104
		c1.561,0,2.748,0.396,3.564,1.188c0.695,0.673,1.044,1.501,1.044,2.484c0,1.032-0.346,1.68-1.035,1.944
		c-0.356,0.12-0.654,0.18-0.893,0.18c-0.522,0-0.975-0.156-1.354-0.468s-0.57-0.721-0.57-1.225c0-0.6,0.149-1.092,0.45-1.476
		c0.3-0.384,0.714-0.576,1.242-0.576c0.144,0,0.288,0.018,0.432,0.054C19.603,12.338,19.759,12.393,19.927,12.464z M15.574,19.376
		c-1.311,0-2.246,0.746-2.804,2.237c-0.438,1.156-0.655,2.72-0.655,4.692c0,2.334,0.109,3.934,0.328,4.8
		c0.437,1.732,1.383,2.599,2.84,2.599c1.092,0,1.899-0.595,2.421-1.786c0.522-1.191,0.783-2.953,0.783-5.288
		c0-1.756-0.11-3.139-0.328-4.15C17.698,20.412,16.836,19.376,15.574,19.376z"/>
</g>
</svg>
