<?xml version="1.0" encoding="utf-8"?>
<!-- Generator: Adobe Illustrator 16.0.0, SVG Export Plug-In . SVG Version: 6.00 Build 0)  -->
<!DOCTYPE svg PUBLIC "-//W3C//DTD SVG 1.1//EN" "http://www.w3.org/Graphics/SVG/1.1/DTD/svg11.dtd">
<svg version="1.1" id="Layer_1" xmlns="http://www.w3.org/2000/svg" xmlns:xlink="http://www.w3.org/1999/xlink" x="0px" y="0px"
	 width="171.512px" height="247.046px" viewBox="0 0 171.512 247.046" enable-background="new 0 0 171.512 247.046"
	 xml:space="preserve">
<g>
	<path fill="#FFFFFF" d="M9.367,245.8c-4.476,0-8.117-3.641-8.117-8.117V9.368c0-4.476,3.642-8.118,8.117-8.118h152.788
		c4.47,0,8.107,3.642,8.107,8.118v228.315c0,4.477-3.638,8.117-8.107,8.117H9.367z"/>
	<path fill="#D4D4D4" d="M162.155,2.5c3.769,0,6.857,3.089,6.857,6.868v228.315c0,3.777-3.09,6.867-6.857,6.867H9.367
		c-3.778,0-6.867-3.09-6.867-6.867V9.368C2.5,5.589,5.589,2.5,9.367,2.5H162.155 M162.155,0H9.367C4.202,0,0,4.202,0,9.368v228.315
		c0,5.165,4.202,9.367,9.367,9.367h152.788c5.16,0,9.357-4.202,9.357-9.367V9.368C171.513,4.202,167.315,0,162.155,0z"/>
	<path fill="#E6180A" d="M16.145,52.634c2.559,0,5.118,0,7.677,0c-0.874-0.039-1.618-0.604-2.321-1.072
		c-1.579-1.191-3.057-2.556-4.225-4.154c-0.545-0.804-1.117-1.708-1.131-2.711 M23.822,52.634c-1.109,0.035-2.057,0.741-2.903,1.393
		c-1.494,1.254-2.788,2.747-3.879,4.362c-0.4,0.669-0.873,1.377-0.895,2.182c0-2.646,0-5.291,0-7.937 M16.145,60.571
		c-0.038-1.182-0.758-2.205-1.438-3.119c-1.211-1.51-2.646-2.845-4.227-3.961c-0.614-0.383-1.267-0.838-2.014-0.857
		c2.56,0,5.118,0,7.678,0 M8.468,52.634c1.109-0.035,2.058-0.741,2.903-1.392c1.495-1.255,2.788-2.748,3.879-4.363
		c0.401-0.669,0.873-1.377,0.896-2.182c0,2.646,0,5.291,0,7.937"/>
	<path fill="#E6180A" d="M156.368,193.419c-2.56,0-5.118,0-7.678,0c0.875,0.039,1.618,0.604,2.321,1.072
		c1.577,1.19,3.057,2.555,4.225,4.153c0.545,0.804,1.117,1.708,1.132,2.711 M148.69,193.419c1.108-0.035,2.058-0.741,2.902-1.394
		c1.494-1.254,2.788-2.747,3.88-4.362c0.4-0.668,0.873-1.377,0.896-2.182c0,2.646,0,5.291,0,7.938 M156.368,185.482
		c0.037,1.182,0.757,2.205,1.438,3.119c1.211,1.51,2.646,2.845,4.226,3.962c0.614,0.383,1.266,0.838,2.014,0.856
		c-2.559,0-5.117,0-7.677,0 M164.045,193.419c-1.108,0.035-2.058,0.74-2.902,1.392c-1.494,1.255-2.788,2.748-3.879,4.362
		c-0.401,0.67-0.872,1.377-0.896,2.183c0-2.646,0-5.291,0-7.937"/>
	<path fill="#E6180A" d="M86.256,202.66c-6.142,0-12.282,0-18.426,0c2.1,0.092,3.885,1.45,5.571,2.573
		c3.788,2.856,7.336,6.136,10.139,9.97c1.309,1.928,2.682,4.098,2.716,6.506 M67.83,202.66c2.663-0.084,4.938-1.779,6.968-3.343
		c3.586-3.011,6.69-6.593,9.312-10.47c0.962-1.605,2.095-3.307,2.146-5.237c0,6.351,0,12.699,0,19.05 M86.256,183.609
		c0.092,2.836,1.818,5.292,3.449,7.484c2.908,3.623,6.354,6.828,10.145,9.509c1.474,0.919,3.038,2.012,4.832,2.056
		c-6.143,0-12.283,0-18.426,0 M104.681,202.66c-2.663,0.084-4.938,1.776-6.968,3.338c-3.587,3.014-6.69,6.596-9.312,10.473
		c-0.962,1.605-2.093,3.306-2.146,5.236c0-6.351,0-12.699,0-19.049"/>
	<path fill="#E6180A" d="M86.256,116.159c6.143,0,12.283,0,18.426,0c-2.1-0.093-3.885-1.451-5.57-2.574
		c-3.788-2.858-7.337-6.135-10.139-9.969c-1.309-1.929-2.683-4.098-2.717-6.506 M104.681,116.159
		c-2.663,0.084-4.938,1.779-6.968,3.342c-3.587,3.011-6.69,6.592-9.312,10.47c-0.962,1.604-2.094,3.306-2.146,5.237
		c0-6.352,0-12.7,0-19.049 M86.256,135.208c-0.092-2.836-1.817-5.293-3.449-7.485c-2.907-3.623-6.354-6.828-10.145-9.508
		c-1.473-0.919-3.037-2.012-4.832-2.056c6.144,0,12.284,0,18.426,0 M67.83,116.159c2.663-0.084,4.938-1.778,6.968-3.339
		c3.586-3.013,6.69-6.595,9.312-10.472c0.962-1.605,2.093-3.306,2.146-5.237c0,6.351,0,12.699,0,19.049"/>
	<path fill="#E6180A" d="M86.256,39.247c6.143,0,12.283,0,18.426,0c-2.1-0.093-3.885-1.451-5.57-2.574
		c-3.788-2.857-7.337-6.135-10.139-9.969c-1.309-1.929-2.683-4.098-2.717-6.506 M104.681,39.247
		c-2.663,0.084-4.938,1.779-6.968,3.342c-3.587,3.011-6.69,6.593-9.312,10.47c-0.962,1.605-2.094,3.306-2.146,5.237
		c0-6.351,0-12.699,0-19.049 M86.256,58.296c-0.092-2.836-1.817-5.292-3.449-7.485c-2.907-3.623-6.354-6.828-10.145-9.508
		c-1.473-0.919-3.037-2.012-4.832-2.056c6.144,0,12.284,0,18.426,0 M67.83,39.247c2.663-0.083,4.938-1.777,6.968-3.339
		c3.586-3.013,6.69-6.595,9.312-10.472c0.962-1.605,2.093-3.306,2.146-5.237c0,6.351,0,12.699,0,19.049"/>
	<path fill="#E6180A" d="M156.569,224.234c-0.119-0.023-0.298-0.035-0.537-0.035c-0.931,0-1.629,0.405-2.095,1.219
		c-0.465,0.813-0.698,1.842-0.698,3.086c0,2.225,0.311,3.777,0.933,4.664c0.527,0.74,1.293,1.11,2.299,1.11
		c1.005,0,1.885-0.258,2.639-0.772c0.754-0.518,1.239-1.278,1.454-2.287c-0.096,0.072-0.196,0.127-0.304,0.162
		c-0.106,0.037-0.219,0.055-0.338,0.055c-0.403,0-0.777-0.208-1.124-0.624c-0.345-0.416-0.47-0.886-0.374-1.408
		c0.097-0.522,0.333-0.938,0.714-1.248c0.38-0.31,0.819-0.464,1.318-0.464c0.833,0,1.368,0.408,1.605,1.225
		c0.07,0.289,0.106,0.588,0.106,0.899c0,1.2-0.54,2.28-1.62,3.24c-1.176,1.03-2.64,1.548-4.392,1.548
		c-2.16,0-3.947-0.646-5.364-1.943c-1.271-1.177-1.908-2.496-1.908-3.961c0-1.318,0.612-2.375,1.837-3.168
		c1.057-0.672,2.483-1.14,4.283-1.402c-2.159,0-3.815-0.469-4.968-1.404c-1.248-1.032-1.872-2.557-1.872-4.572
		c0-2.398,1.116-4.308,3.349-5.724c1.728-1.104,3.433-1.656,5.111-1.656c1.824,0,3.384,0.606,4.681,1.817
		c1.296,1.213,1.943,2.599,1.943,4.158c0,0.912-0.244,1.596-0.731,2.053c-0.488,0.455-1.077,0.684-1.769,0.684
		c-0.452,0-0.81-0.084-1.07-0.252c-0.596-0.312-0.894-0.863-0.894-1.654c0-0.602,0.191-1.117,0.572-1.55
		c0.381-0.432,0.893-0.647,1.536-0.647c0.143,0,0.292,0.013,0.446,0.037c0.154,0.022,0.304,0.06,0.446,0.106
		c0.121-0.896-0.251-1.825-1.113-2.794c-0.98-1.089-2.166-1.634-3.554-1.634c-1.005,0-1.951,0.434-2.837,1.3
		c-1.173,1.131-1.759,2.743-1.759,4.838c0,2.383,0.269,4.085,0.806,5.107c0.538,1.022,1.271,1.535,2.203,1.535
		c0.334,0,0.687-0.066,1.057-0.198s0.747-0.253,1.128-0.36c0.384-0.107,0.729-0.162,1.039-0.162c0.573,0,0.907,0.217,1.003,0.648
		c-0.022,0.264-0.137,0.449-0.34,0.558s-0.471,0.162-0.806,0.162c-0.286,0-0.614-0.036-0.984-0.106
		C157.255,224.341,156.903,224.283,156.569,224.234z"/>
	<path fill="#E6180A" d="M14.148,20.194c0.119,0.023,0.298,0.036,0.537,0.036c0.931,0,1.629-0.406,2.095-1.22
		c0.465-0.813,0.698-1.842,0.698-3.086c0-2.224-0.312-3.777-0.934-4.663c-0.526-0.741-1.293-1.111-2.298-1.111
		s-1.885,0.258-2.639,0.773c-0.754,0.517-1.239,1.278-1.454,2.286c0.095-0.072,0.196-0.126,0.303-0.162
		c0.107-0.036,0.219-0.054,0.338-0.054c0.404,0,0.778,0.208,1.124,0.624s0.471,0.886,0.374,1.408
		c-0.096,0.523-0.333,0.939-0.713,1.248c-0.38,0.31-0.82,0.464-1.318,0.464c-0.833,0-1.368-0.408-1.605-1.225
		c-0.071-0.288-0.107-0.588-0.107-0.899c0-1.2,0.54-2.28,1.62-3.24c1.177-1.031,2.641-1.548,4.393-1.548
		c2.16,0,3.946,0.647,5.363,1.943c1.272,1.177,1.908,2.497,1.908,3.961c0,1.319-0.611,2.376-1.836,3.168
		c-1.057,0.672-2.483,1.14-4.284,1.403c2.16,0,3.816,0.468,4.969,1.404c1.248,1.032,1.872,2.556,1.872,4.572
		c0,2.399-1.116,4.308-3.349,5.724c-1.728,1.104-3.433,1.656-5.112,1.656c-1.823,0-3.384-0.606-4.68-1.818S7.469,29.24,7.469,27.68
		c0-0.911,0.244-1.596,0.732-2.052c0.488-0.455,1.077-0.684,1.768-0.684c0.452,0,0.811,0.084,1.071,0.252
		c0.595,0.312,0.894,0.863,0.894,1.655c0,0.601-0.191,1.116-0.572,1.549c-0.381,0.432-0.894,0.647-1.536,0.647
		c-0.143,0-0.292-0.012-0.447-0.036c-0.153-0.023-0.303-0.06-0.445-0.107C8.813,29.8,9.185,30.732,10.047,31.7
		c0.981,1.089,2.166,1.634,3.555,1.634c1.005,0,1.95-0.434,2.837-1.3c1.173-1.131,1.759-2.743,1.759-4.838
		c0-2.383-0.269-4.085-0.806-5.107c-0.538-1.023-1.271-1.535-2.203-1.535c-0.334,0-0.688,0.066-1.058,0.198
		c-0.369,0.132-0.747,0.252-1.128,0.36c-0.383,0.107-0.729,0.162-1.039,0.162c-0.572,0-0.906-0.217-1.003-0.648
		c0.023-0.264,0.138-0.45,0.34-0.558c0.203-0.108,0.472-0.162,0.807-0.162c0.286,0,0.614,0.036,0.983,0.107
		C13.462,20.085,13.814,20.146,14.148,20.194z"/>
</g>
</svg>
