<?xml version="1.0" encoding="utf-8"?>
<!-- Generator: Adobe Illustrator 16.0.0, SVG Export Plug-In . SVG Version: 6.00 Build 0)  -->
<!DOCTYPE svg PUBLIC "-//W3C//DTD SVG 1.1//EN" "http://www.w3.org/Graphics/SVG/1.1/DTD/svg11.dtd">
<svg version="1.1" id="Layer_1" xmlns="http://www.w3.org/2000/svg" xmlns:xlink="http://www.w3.org/1999/xlink" x="0px" y="0px"
	 width="171.512px" height="247.046px" viewBox="0 0 171.512 247.046" enable-background="new 0 0 171.512 247.046"
	 xml:space="preserve">
<g>
	<path fill="#FFFFFF" d="M9.367,245.8c-4.476,0-8.117-3.641-8.117-8.117V9.368c0-4.476,3.642-8.118,8.117-8.118h152.789
		c4.47,0,8.107,3.642,8.107,8.118v228.315c0,4.477-3.638,8.117-8.107,8.117H9.367z"/>
	<path fill="#D4D4D4" d="M162.156,2.5c3.769,0,6.857,3.089,6.857,6.868v228.315c0,3.777-3.09,6.867-6.857,6.867H9.367
		c-3.778,0-6.867-3.09-6.867-6.867V9.368C2.5,5.589,5.589,2.5,9.367,2.5H162.156 M162.156,0H9.367C4.202,0,0,4.202,0,9.368v228.315
		c0,5.165,4.202,9.367,9.367,9.367h152.789c5.16,0,9.357-4.202,9.357-9.367V9.368C171.513,4.202,167.315,0,162.156,0z"/>
	<path fill="#E6180A" d="M16.145,52.634c2.559,0,5.118,0,7.677,0c-0.874-0.039-1.618-0.604-2.321-1.072
		c-1.579-1.191-3.057-2.556-4.225-4.154c-0.545-0.804-1.117-1.708-1.131-2.711 M23.822,52.634c-1.109,0.035-2.057,0.741-2.903,1.393
		c-1.494,1.254-2.788,2.747-3.879,4.362c-0.4,0.669-0.873,1.377-0.895,2.182c0-2.646,0-5.291,0-7.937 M16.145,60.571
		c-0.038-1.182-0.758-2.205-1.438-3.119c-1.211-1.51-2.646-2.845-4.227-3.961c-0.614-0.383-1.267-0.838-2.014-0.857
		c2.56,0,5.118,0,7.678,0 M8.468,52.634c1.109-0.035,2.058-0.741,2.903-1.392c1.495-1.255,2.788-2.748,3.879-4.363
		c0.401-0.669,0.873-1.377,0.896-2.182c0,2.646,0,5.291,0,7.937"/>
	<path fill="#E6180A" d="M156.368,193.419c-2.559,0-5.118,0-7.677,0c0.875,0.039,1.619,0.604,2.321,1.072
		c1.578,1.19,3.057,2.555,4.225,4.153c0.544,0.804,1.117,1.708,1.131,2.711 M148.69,193.419c1.109-0.035,2.058-0.741,2.902-1.394
		c1.495-1.254,2.788-2.747,3.881-4.362c0.4-0.668,0.873-1.377,0.895-2.182c0,2.646,0,5.291,0,7.938 M156.368,185.482
		c0.038,1.182,0.758,2.205,1.438,3.119c1.211,1.51,2.646,2.845,4.227,3.962c0.614,0.383,1.266,0.838,2.013,0.856
		c-2.559,0-5.117,0-7.677,0 M164.045,193.419c-1.109,0.035-2.057,0.74-2.902,1.392c-1.495,1.255-2.788,2.748-3.88,4.362
		c-0.401,0.67-0.872,1.377-0.896,2.183c0-2.646,0-5.291,0-7.937"/>
	<path fill="#E6180A" d="M86.255,202.66c-6.142,0-12.282,0-18.425,0c2.1,0.092,3.884,1.45,5.571,2.573
		c3.788,2.856,7.336,6.136,10.139,9.97c1.309,1.928,2.682,4.098,2.716,6.506 M67.83,202.66c2.663-0.084,4.938-1.779,6.967-3.343
		c3.586-3.011,6.691-6.593,9.312-10.47c0.962-1.605,2.094-3.307,2.146-5.237c0,6.351,0,12.699,0,19.05 M86.255,183.609
		c0.092,2.836,1.818,5.292,3.45,7.484c2.908,3.623,6.354,6.828,10.145,9.509c1.473,0.919,3.038,2.012,4.832,2.056
		c-6.143,0-12.284,0-18.426,0 M104.681,202.66c-2.663,0.084-4.938,1.776-6.968,3.338c-3.586,3.014-6.69,6.596-9.311,10.473
		c-0.962,1.605-2.093,3.306-2.147,5.236c0-6.351,0-12.699,0-19.049"/>
	<path fill="#E6180A" d="M86.255,39.247c6.143,0,12.284,0,18.426,0c-2.1-0.093-3.885-1.451-5.571-2.574
		c-3.788-2.857-7.336-6.135-10.139-9.969c-1.309-1.929-2.682-4.098-2.717-6.506 M104.681,39.247
		c-2.663,0.084-4.938,1.779-6.968,3.342c-3.586,3.011-6.69,6.593-9.311,10.47c-0.962,1.605-2.094,3.306-2.147,5.237
		c0-6.351,0-12.699,0-19.049 M86.255,58.296c-0.091-2.836-1.817-5.292-3.449-7.485c-2.908-3.623-6.354-6.828-10.145-9.508
		c-1.473-0.919-3.037-2.012-4.832-2.056c6.143,0,12.284,0,18.425,0 M67.83,39.247c2.663-0.083,4.938-1.777,6.967-3.339
		c3.586-3.013,6.691-6.595,9.312-10.472c0.962-1.605,2.093-3.306,2.146-5.237c0,6.351,0,12.699,0,19.049"/>
	<path fill="#E6180A" d="M149.568,218.798v-1.478c0-0.96,0.042-1.806,0.126-2.536c0.084-0.732,0.271-1.363,0.56-1.892
		c0.386-0.72,0.85-1.254,1.391-1.603c0.541-0.348,1.125-0.521,1.751-0.521c0.746,0,1.443,0.204,2.094,0.611
		c0.65,0.408,1.204,0.961,1.661,1.656c0.649,1.008,1.107,1.621,1.372,1.836c0.337,0.289,0.854,0.433,1.553,0.433
		c0.385,0,0.746-0.276,1.083-0.828c0.434-0.72,0.65-1.728,0.65-3.022h0.611c0,3.096-0.686,5.422-2.06,6.982
		c-0.747,0.863-1.999,1.668-3.758,2.412c-1.229,0.529-2.145,1.396-2.747,2.6c-0.603,1.202-0.903,2.586-0.903,4.15
		c0,1.371,0.253,2.742,0.759,4.115c0.411,1.106,0.881,1.828,1.412,2.166c0.386,0.24,0.952,0.361,1.7,0.361
		c1.447,0,2.653-0.773,3.617-2.318c0.84-1.353,1.26-2.752,1.26-4.198c0-0.288-0.012-0.492-0.036-0.612
		c-0.118,0.336-0.278,0.588-0.479,0.758c-0.201,0.166-0.443,0.252-0.729,0.252c-0.354,0-0.675-0.14-0.96-0.414
		c-0.284-0.276-0.485-0.69-0.604-1.242c-0.049-0.168-0.072-0.396-0.072-0.684c0-0.648,0.179-1.201,0.535-1.656
		c0.356-0.457,0.797-0.686,1.319-0.686c0.263,0,0.487,0.048,0.678,0.145c0.428,0.217,0.755,0.611,0.98,1.188
		c0.227,0.577,0.339,1.272,0.339,2.088c0,1.872-0.516,3.563-1.548,5.076c-1.224,1.776-2.844,2.664-4.859,2.664
		c-2.593,0-4.523-1.008-5.797-3.022c-0.936-1.488-1.403-3.218-1.403-5.186c0-1.584,0.336-2.796,1.008-3.637
		c0.744-0.937,1.992-1.596,3.744-1.979c2.688-0.6,4.5-1.271,5.436-2.016c0.937-0.745,1.598-1.776,1.98-3.097
		c-0.192,0.168-0.481,0.252-0.867,0.252c-0.168,0-1.456-0.309-3.864-0.924c-1.154-0.297-2.154-0.443-2.998-0.443
		c-0.169,0-0.354,0.006-0.56,0.018c-0.205,0.014-0.488,0.055-0.851,0.128c-0.817,0.169-1.384,0.558-1.696,1.162
		c-0.217,0.435-0.325,1.063-0.325,1.888c0.023,0.508,0.036,0.883,0.036,1.125L149.568,218.798z"/>
	<path fill="#E6180A" d="M21.474,25.629v1.477c0,0.96-0.042,1.806-0.126,2.537c-0.084,0.732-0.271,1.363-0.561,1.891
		c-0.385,0.72-0.849,1.254-1.39,1.602c-0.541,0.348-1.125,0.522-1.751,0.522c-0.746,0-1.444-0.204-2.094-0.612
		c-0.65-0.408-1.204-0.96-1.661-1.656c-0.65-1.008-1.108-1.62-1.372-1.836c-0.337-0.288-0.854-0.432-1.554-0.432
		c-0.385,0-0.745,0.276-1.083,0.828c-0.434,0.72-0.649,1.728-0.649,3.023H8.622c0-3.096,0.687-5.423,2.061-6.983
		c0.747-0.864,1.999-1.668,3.758-2.412c1.229-0.529,2.144-1.396,2.747-2.599c0.602-1.203,0.902-2.587,0.902-4.151
		c0-1.371-0.253-2.743-0.759-4.115c-0.411-1.107-0.881-1.829-1.412-2.166c-0.386-0.24-0.952-0.361-1.7-0.361
		c-1.446,0-2.652,0.773-3.616,2.318c-0.84,1.352-1.261,2.751-1.261,4.198c0,0.288,0.013,0.492,0.036,0.612
		c0.118-0.336,0.278-0.588,0.48-0.757c0.201-0.167,0.442-0.252,0.728-0.252c0.355,0,0.676,0.139,0.96,0.414
		c0.284,0.276,0.485,0.69,0.604,1.242c0.048,0.168,0.072,0.396,0.072,0.684c0,0.648-0.18,1.201-0.535,1.656
		c-0.357,0.456-0.797,0.685-1.32,0.685c-0.262,0-0.487-0.048-0.677-0.145c-0.428-0.216-0.755-0.611-0.981-1.188
		c-0.226-0.577-0.339-1.272-0.339-2.087c0-1.872,0.517-3.564,1.548-5.076c1.225-1.776,2.845-2.664,4.86-2.664
		c2.592,0,4.522,1.008,5.796,3.023c0.936,1.488,1.404,3.217,1.404,5.185c0,1.584-0.336,2.796-1.008,3.636
		c-0.744,0.937-1.992,1.597-3.744,1.98c-2.688,0.6-4.5,1.271-5.437,2.016c-0.936,0.745-1.597,1.776-1.979,3.096
		c0.191-0.167,0.48-0.252,0.866-0.252c0.169,0,1.456,0.309,3.864,0.925c1.155,0.296,2.155,0.443,2.998,0.443
		c0.169,0,0.355-0.006,0.561-0.018c0.205-0.013,0.487-0.055,0.85-0.128c0.818-0.169,1.384-0.557,1.697-1.162
		c0.217-0.435,0.325-1.064,0.325-1.888c-0.024-0.508-0.036-0.883-0.036-1.125L21.474,25.629z"/>
</g>
</svg>
