<?xml version="1.0" encoding="utf-8"?>
<!-- Generator: Adobe Illustrator 16.0.0, SVG Export Plug-In . SVG Version: 6.00 Build 0)  -->
<!DOCTYPE svg PUBLIC "-//W3C//DTD SVG 1.1//EN" "http://www.w3.org/Graphics/SVG/1.1/DTD/svg11.dtd">
<svg version="1.1" id="Layer_1" xmlns="http://www.w3.org/2000/svg" xmlns:xlink="http://www.w3.org/1999/xlink" x="0px" y="0px"
	 width="171.512px" height="247.046px" viewBox="0 0 171.512 247.046" enable-background="new 0 0 171.512 247.046"
	 xml:space="preserve">
<g>
	<path fill="#FFFFFF" d="M9.367,245.8c-4.476,0-8.117-3.641-8.117-8.117V9.368c0-4.476,3.643-8.118,8.117-8.118h152.788
		c4.471,0,8.107,3.642,8.107,8.118v228.315c0,4.477-3.638,8.117-8.107,8.117H9.367z"/>
	<path fill="#D4D4D4" d="M162.155,2.5c3.769,0,6.857,3.089,6.857,6.868v228.315c0,3.777-3.09,6.867-6.857,6.867H9.367
		c-3.778,0-6.867-3.09-6.867-6.867V9.368C2.5,5.589,5.589,2.5,9.367,2.5H162.155 M162.155,0H9.367C4.202,0,0,4.202,0,9.368v228.315
		c0,5.165,4.202,9.367,9.367,9.367h152.788c5.16,0,9.357-4.202,9.357-9.367V9.368C171.513,4.202,167.315,0,162.155,0z"/>
	<path fill="#E6180A" d="M16.145,52.634c2.56,0,5.118,0,7.678,0c-0.875-0.039-1.618-0.604-2.321-1.072
		c-1.578-1.191-3.057-2.556-4.225-4.154c-0.545-0.804-1.117-1.708-1.132-2.711 M23.822,52.634c-1.109,0.035-2.058,0.741-2.903,1.393
		c-1.494,1.254-2.788,2.747-3.879,4.362c-0.4,0.669-0.873,1.377-0.896,2.182c0-2.646,0-5.291,0-7.937 M16.145,60.571
		c-0.037-1.182-0.757-2.205-1.438-3.119c-1.211-1.51-2.646-2.845-4.226-3.961c-0.614-0.383-1.267-0.838-2.015-0.857
		c2.561,0,5.118,0,7.678,0 M8.468,52.634c1.109-0.035,2.059-0.741,2.903-1.392c1.494-1.255,2.788-2.748,3.879-4.363
		c0.401-0.669,0.873-1.377,0.896-2.182c0,2.646,0,5.291,0,7.937"/>
	<path fill="#E6180A" d="M156.363,193.419c-2.56,0-5.118,0-7.678,0c0.875,0.039,1.618,0.604,2.32,1.072
		c1.578,1.19,3.058,2.555,4.226,4.153c0.545,0.804,1.117,1.708,1.132,2.711 M148.686,193.419c1.108-0.035,2.058-0.741,2.902-1.394
		c1.494-1.254,2.788-2.747,3.879-4.362c0.401-0.668,0.873-1.377,0.896-2.182c0,2.646,0,5.291,0,7.938 M156.363,185.482
		c0.037,1.182,0.757,2.205,1.438,3.119c1.212,1.51,2.646,2.845,4.227,3.962c0.614,0.383,1.266,0.838,2.014,0.856
		c-2.56,0-5.118,0-7.677,0 M164.04,193.419c-1.108,0.035-2.058,0.74-2.902,1.392c-1.494,1.255-2.788,2.748-3.88,4.362
		c-0.4,0.67-0.873,1.377-0.895,2.183c0-2.646,0-5.291,0-7.937"/>
	<path fill="#E6180A" d="M46.343,39.247c6.143,0,12.284,0,18.427,0c-2.1-0.093-3.886-1.451-5.571-2.574
		c-3.788-2.857-7.336-6.135-10.139-9.969c-1.309-1.929-2.682-4.098-2.717-6.506 M64.769,39.247
		c-2.663,0.084-4.938,1.779-6.969,3.342c-3.586,3.011-6.689,6.593-9.311,10.47c-0.962,1.605-2.095,3.306-2.147,5.237
		c0-6.351,0-12.699,0-19.049 M46.343,58.296c-0.091-2.836-1.817-5.292-3.449-7.485c-2.907-3.623-6.354-6.828-10.144-9.508
		c-1.474-0.919-3.037-2.012-4.832-2.056c6.143,0,12.283,0,18.425,0 M27.918,39.247c2.663-0.083,4.938-1.777,6.967-3.339
		c3.588-3.013,6.691-6.595,9.312-10.472c0.963-1.605,2.094-3.306,2.146-5.237c0,6.351,0,12.699,0,19.049"/>
	<path fill="#E6180A" d="M46.343,93.383c6.143,0,12.284,0,18.427,0c-2.1-0.093-3.886-1.451-5.571-2.574
		c-3.788-2.858-7.336-6.135-10.139-9.969c-1.309-1.929-2.682-4.098-2.717-6.506 M64.769,93.383
		c-2.663,0.084-4.938,1.779-6.969,3.342c-3.586,3.011-6.689,6.593-9.311,10.47c-0.962,1.605-2.095,3.306-2.147,5.237
		c0-6.35,0-12.698,0-19.049 M46.343,112.432c-0.091-2.835-1.817-5.292-3.449-7.485c-2.907-3.623-6.354-6.828-10.144-9.508
		c-1.474-0.919-3.037-2.012-4.832-2.056c6.143,0,12.283,0,18.425,0 M27.918,93.383c2.663-0.084,4.938-1.778,6.967-3.339
		c3.588-3.013,6.691-6.595,9.312-10.472c0.963-1.605,2.094-3.306,2.146-5.237c0,6.351,0,12.699,0,19.049"/>
	<path fill="#E6180A" d="M46.343,148.522c-6.142,0-12.282,0-18.425,0c2.1,0.093,3.884,1.451,5.57,2.574
		c3.788,2.858,7.337,6.135,10.139,9.969c1.309,1.929,2.683,4.099,2.716,6.506 M27.918,148.522c2.663-0.084,4.938-1.778,6.967-3.342
		c3.588-3.011,6.691-6.593,9.312-10.47c0.963-1.604,2.095-3.307,2.146-5.237c0,6.351,0,12.698,0,19.049 M46.343,129.474
		c0.092,2.835,1.818,5.292,3.45,7.484c2.907,3.623,6.354,6.828,10.145,9.508c1.473,0.92,3.037,2.013,4.831,2.057
		c-6.143,0-12.283,0-18.426,0 M64.768,148.522c-2.662,0.084-4.938,1.778-6.968,3.339c-3.586,3.014-6.69,6.596-9.311,10.473
		c-0.962,1.604-2.094,3.306-2.147,5.236c0-6.351,0-12.699,0-19.049"/>
	<path fill="#E6180A" d="M46.343,202.66c-6.142,0-12.282,0-18.425,0c2.1,0.092,3.884,1.45,5.57,2.573
		c3.788,2.856,7.337,6.136,10.139,9.97c1.309,1.928,2.683,4.098,2.716,6.506 M27.918,202.66c2.663-0.084,4.938-1.779,6.967-3.343
		c3.588-3.011,6.691-6.593,9.312-10.47c0.963-1.605,2.095-3.307,2.146-5.237c0,6.351,0,12.699,0,19.05 M46.343,183.609
		c0.092,2.836,1.818,5.292,3.45,7.484c2.907,3.623,6.354,6.828,10.145,9.509c1.473,0.919,3.037,2.012,4.831,2.056
		c-6.143,0-12.283,0-18.426,0 M64.768,202.66c-2.662,0.084-4.938,1.776-6.968,3.338c-3.586,3.014-6.69,6.596-9.311,10.473
		c-0.962,1.605-2.094,3.306-2.147,5.236c0-6.351,0-12.699,0-19.049"/>
	<path fill="#E6180A" d="M126.171,39.247c6.143,0,12.283,0,18.426,0c-2.099-0.093-3.885-1.451-5.57-2.574
		c-3.788-2.857-7.336-6.135-10.139-9.969c-1.309-1.929-2.683-4.098-2.717-6.506 M144.596,39.247
		c-2.662,0.084-4.938,1.779-6.968,3.342c-3.586,3.011-6.69,6.593-9.311,10.47c-0.962,1.605-2.095,3.306-2.147,5.237
		c0-6.351,0-12.699,0-19.049 M126.171,58.296c-0.091-2.836-1.817-5.292-3.449-7.485c-2.907-3.623-6.354-6.828-10.144-9.508
		c-1.474-0.919-3.038-2.012-4.832-2.056c6.143,0,12.283,0,18.425,0 M107.746,39.247c2.663-0.083,4.938-1.777,6.967-3.339
		c3.587-3.013,6.691-6.595,9.312-10.472c0.963-1.605,2.094-3.306,2.146-5.237c0,6.351,0,12.699,0,19.049"/>
	<path fill="#E6180A" d="M126.171,93.383c6.143,0,12.283,0,18.426,0c-2.099-0.093-3.885-1.451-5.57-2.574
		c-3.788-2.858-7.336-6.135-10.139-9.969c-1.309-1.929-2.683-4.098-2.717-6.506 M144.596,93.383
		c-2.662,0.084-4.938,1.779-6.968,3.342c-3.586,3.011-6.69,6.593-9.311,10.47c-0.962,1.605-2.095,3.306-2.147,5.237
		c0-6.35,0-12.698,0-19.049 M126.171,112.432c-0.091-2.835-1.817-5.292-3.449-7.485c-2.907-3.623-6.354-6.828-10.144-9.508
		c-1.474-0.919-3.038-2.012-4.832-2.056c6.143,0,12.283,0,18.425,0 M107.746,93.383c2.663-0.084,4.938-1.778,6.967-3.339
		c3.587-3.013,6.691-6.595,9.312-10.472c0.963-1.605,2.094-3.306,2.146-5.237c0,6.351,0,12.699,0,19.049"/>
	<path fill="#E6180A" d="M126.171,148.522c-6.142,0-12.282,0-18.425,0c2.099,0.093,3.884,1.451,5.57,2.574
		c3.788,2.858,7.337,6.135,10.139,9.969c1.309,1.929,2.683,4.099,2.716,6.506 M107.746,148.522c2.663-0.084,4.938-1.778,6.967-3.342
		c3.587-3.011,6.691-6.593,9.312-10.47c0.962-1.604,2.095-3.307,2.146-5.237c0,6.351,0,12.698,0,19.049 M126.171,129.474
		c0.092,2.835,1.818,5.292,3.45,7.484c2.907,3.623,6.354,6.828,10.145,9.508c1.473,0.92,3.036,2.013,4.831,2.057
		c-6.143,0-12.283,0-18.426,0 M144.596,148.522c-2.663,0.084-4.938,1.778-6.968,3.339c-3.587,3.014-6.69,6.596-9.311,10.473
		c-0.962,1.604-2.094,3.306-2.147,5.236c0-6.351,0-12.699,0-19.049"/>
	<path fill="#E6180A" d="M126.171,202.66c-6.142,0-12.282,0-18.425,0c2.099,0.092,3.884,1.45,5.57,2.573
		c3.788,2.856,7.337,6.136,10.139,9.97c1.309,1.928,2.683,4.098,2.716,6.506 M107.746,202.66c2.663-0.084,4.938-1.779,6.967-3.343
		c3.587-3.011,6.691-6.593,9.312-10.47c0.962-1.605,2.095-3.307,2.146-5.237c0,6.351,0,12.699,0,19.05 M126.171,183.609
		c0.092,2.836,1.818,5.292,3.45,7.484c2.907,3.623,6.354,6.828,10.145,9.509c1.473,0.919,3.036,2.012,4.831,2.056
		c-6.143,0-12.283,0-18.426,0 M144.596,202.66c-2.663,0.084-4.938,1.776-6.968,3.338c-3.587,3.014-6.69,6.596-9.311,10.473
		c-0.962,1.605-2.094,3.306-2.147,5.236c0-6.351,0-12.699,0-19.049"/>
	<path fill="#E6180A" d="M86.257,66.315c6.143,0,12.283,0,18.426,0c-2.099-0.094-3.885-1.452-5.57-2.574
		c-3.788-2.858-7.336-6.135-10.139-9.969c-1.309-1.929-2.683-4.098-2.717-6.506 M104.682,66.315
		c-2.662,0.084-4.938,1.778-6.968,3.342c-3.586,3.011-6.69,6.593-9.311,10.47c-0.962,1.605-2.095,3.306-2.147,5.237
		c0-6.351,0-12.699,0-19.049 M86.257,85.364c-0.091-2.836-1.817-5.292-3.449-7.485c-2.907-3.623-6.354-6.828-10.144-9.508
		c-1.474-0.918-3.038-2.012-4.832-2.056c6.143,0,12.283,0,18.425,0 M67.832,66.315c2.663-0.084,4.938-1.778,6.967-3.34
		c3.588-3.013,6.691-6.595,9.312-10.472c0.963-1.605,2.094-3.306,2.146-5.237c0,6.351,0,12.699,0,19.049"/>
	<path fill="#E6180A" d="M160.626,213.074c-0.289-0.574-0.6-0.996-0.936-1.271c-0.625-0.474-1.478-0.71-2.558-0.71
		c-1.104,0-2.021,0.451-2.754,1.352c-0.732,0.901-1.17,2.107-1.313,3.62c-0.145,1.513-0.215,3.613-0.215,6.304
		c0.381-1.021,0.873-1.759,1.471-2.211c0.717-0.57,1.709-0.854,2.977-0.854c1.65,0,3.052,0.659,4.197,1.979
		c1.148,1.319,1.723,3.071,1.723,5.256c0,2.496-0.672,4.465-2.016,5.903c-1.344,1.44-3.119,2.16-5.328,2.16
		c-2.256,0-4.024-1.002-5.311-3.006c-1.283-2.005-1.926-4.722-1.926-8.154c0-3.384,0.696-6.252,2.088-8.604
		c1.606-2.713,3.793-4.067,6.553-4.067c1.561,0,2.771,0.408,3.635,1.226c0.744,0.694,1.117,1.522,1.117,2.482
		c0,1.057-0.393,1.691-1.178,1.908c-0.261,0.072-0.511,0.107-0.748,0.107c-0.523,0-0.963-0.166-1.32-0.498
		c-0.354-0.334-0.535-0.762-0.535-1.283c0-0.547,0.15-0.98,0.451-1.301c0.301-0.322,0.689-0.481,1.17-0.481
		c0.146,0,0.275,0.012,0.396,0.034C160.386,212.99,160.507,213.025,160.626,213.074z M156.267,219.951
		c-1.328,0-2.254,0.649-2.775,1.948c-0.404,1.011-0.604,2.671-0.604,4.979c0,2.117,0.153,3.718,0.463,4.801
		c0.498,1.732,1.375,2.599,2.633,2.599c1.067,0,1.852-0.589,2.35-1.769s0.746-2.947,0.746-5.305c0-2.384-0.225-4.188-0.676-5.414
		C157.95,220.563,157.239,219.951,156.267,219.951z"/>
	<path fill="#E6180A" d="M10.545,31.355c0.289,0.573,0.601,0.996,0.937,1.27c0.625,0.473,1.477,0.709,2.557,0.709
		c1.104,0,2.021-0.45,2.754-1.351c0.733-0.901,1.17-2.107,1.314-3.62c0.144-1.513,0.215-3.613,0.215-6.304
		c-0.381,1.022-0.873,1.759-1.471,2.211c-0.718,0.57-1.709,0.855-2.978,0.855c-1.649,0-3.051-0.66-4.197-1.98
		c-1.147-1.319-1.723-3.071-1.723-5.256c0-2.495,0.672-4.464,2.016-5.903c1.345-1.44,3.119-2.16,5.328-2.16
		c2.257,0,4.025,1.002,5.312,3.006c1.283,2.004,1.926,4.722,1.926,8.154c0,3.384-0.697,6.252-2.088,8.604
		c-1.607,2.713-3.793,4.068-6.553,4.068c-1.562,0-2.771-0.408-3.636-1.225c-0.743-0.695-1.116-1.523-1.116-2.483
		c0-1.056,0.393-1.692,1.178-1.908c0.26-0.072,0.51-0.108,0.748-0.108c0.522,0,0.963,0.167,1.32,0.499
		c0.354,0.333,0.534,0.761,0.534,1.283c0,0.547-0.149,0.98-0.45,1.301c-0.302,0.321-0.689,0.481-1.171,0.481
		c-0.145,0-0.274-0.012-0.396-0.035C10.785,31.438,10.664,31.403,10.545,31.355z M14.904,24.477c1.328,0,2.254-0.649,2.775-1.948
		c0.403-1.011,0.604-2.671,0.604-4.98c0-2.117-0.154-3.717-0.463-4.8c-0.498-1.732-1.375-2.599-2.633-2.599
		c-1.068,0-1.853,0.589-2.351,1.769c-0.498,1.179-0.746,2.947-0.746,5.305c0,2.383,0.226,4.188,0.677,5.414
		C13.221,23.865,13.932,24.477,14.904,24.477z"/>
</g>
</svg>
