<?xml version="1.0" encoding="utf-8"?>
<!-- Generator: Adobe Illustrator 16.0.0, SVG Export Plug-In . SVG Version: 6.00 Build 0)  -->
<!DOCTYPE svg PUBLIC "-//W3C//DTD SVG 1.1//EN" "http://www.w3.org/Graphics/SVG/1.1/DTD/svg11.dtd">
<svg version="1.1" id="Layer_1" xmlns="http://www.w3.org/2000/svg" xmlns:xlink="http://www.w3.org/1999/xlink" x="0px" y="0px"
	 width="171.512px" height="247.046px" viewBox="0 0 171.512 247.046" enable-background="new 0 0 171.512 247.046"
	 xml:space="preserve">
<g>
	<path fill="#FFFFFF" d="M9.367,245.8c-4.476,0-8.117-3.641-8.117-8.117V9.368c0-4.476,3.642-8.118,8.117-8.118h152.788
		c4.47,0,8.107,3.642,8.107,8.118v228.315c0,4.477-3.638,8.117-8.107,8.117H9.367z"/>
	<path fill="#D4D4D4" d="M162.155,2.5c3.769,0,6.857,3.089,6.857,6.868v228.315c0,3.777-3.09,6.867-6.857,6.867H9.367
		c-3.778,0-6.867-3.09-6.867-6.867V9.368C2.5,5.589,5.589,2.5,9.367,2.5H162.155 M162.155,0H9.367C4.202,0,0,4.202,0,9.368v228.315
		c0,5.165,4.202,9.367,9.367,9.367h152.788c5.16,0,9.357-4.202,9.357-9.367V9.368C171.513,4.202,167.315,0,162.155,0z"/>
	<path fill="#E6180A" d="M16.145,52.634c2.56,0,5.118,0,7.678,0c-0.875-0.039-1.618-0.604-2.321-1.072
		c-1.578-1.191-3.057-2.556-4.225-4.154c-0.545-0.804-1.117-1.708-1.132-2.711 M23.822,52.634c-1.109,0.035-2.058,0.741-2.903,1.393
		c-1.494,1.254-2.788,2.747-3.879,4.362c-0.4,0.669-0.873,1.377-0.896,2.182c0-2.646,0-5.291,0-7.937 M16.145,60.571
		c-0.038-1.182-0.757-2.205-1.438-3.119c-1.211-1.51-2.646-2.845-4.226-3.961c-0.614-0.383-1.267-0.838-2.015-0.857
		c2.56,0,5.118,0,7.678,0 M8.468,52.634c1.109-0.035,2.059-0.741,2.903-1.392c1.494-1.255,2.787-2.748,3.879-4.363
		c0.401-0.669,0.872-1.377,0.896-2.182c0,2.646,0,5.291,0,7.937"/>
	<path fill="#E6180A" d="M156.368,193.419c-2.56,0-5.118,0-7.678,0c0.875,0.039,1.618,0.604,2.321,1.072
		c1.577,1.19,3.057,2.555,4.225,4.153c0.545,0.804,1.117,1.708,1.132,2.711 M148.69,193.419c1.108-0.035,2.058-0.741,2.902-1.394
		c1.494-1.254,2.788-2.747,3.88-4.362c0.4-0.668,0.873-1.377,0.896-2.182c0,2.646,0,5.291,0,7.938 M156.368,185.482
		c0.037,1.182,0.757,2.205,1.438,3.119c1.211,1.51,2.646,2.845,4.226,3.962c0.614,0.383,1.266,0.838,2.014,0.856
		c-2.56,0-5.117,0-7.677,0 M164.045,193.419c-1.108,0.035-2.058,0.74-2.902,1.392c-1.494,1.255-2.787,2.748-3.879,4.362
		c-0.401,0.67-0.872,1.377-0.896,2.183c0-2.646,0-5.291,0-7.937"/>
	<path fill="#E6180A" d="M46.343,39.247c6.143,0,12.283,0,18.426,0c-2.1-0.093-3.885-1.451-5.571-2.574
		c-3.788-2.857-7.336-6.135-10.139-9.969c-1.308-1.929-2.682-4.098-2.716-6.506 M64.768,39.247
		c-2.663,0.084-4.938,1.779-6.968,3.342c-3.587,3.011-6.69,6.593-9.312,10.47c-0.962,1.605-2.094,3.306-2.146,5.237
		c0-6.351,0-12.699,0-19.049 M46.343,58.296c-0.092-2.836-1.818-5.292-3.449-7.485c-2.908-3.623-6.354-6.828-10.145-9.508
		c-1.473-0.919-3.037-2.012-4.832-2.056c6.143,0,12.283,0,18.426,0 M27.917,39.247c2.663-0.083,4.938-1.777,6.967-3.339
		c3.588-3.013,6.691-6.595,9.312-10.472c0.962-1.605,2.093-3.306,2.146-5.237c0,6.351,0,12.699,0,19.049"/>
	<path fill="#E6180A" d="M46.343,116.159c6.143,0,12.283,0,18.426,0c-2.1-0.093-3.885-1.451-5.571-2.574
		c-3.788-2.858-7.336-6.135-10.139-9.969c-1.308-1.929-2.682-4.098-2.716-6.506 M64.768,116.159
		c-2.663,0.084-4.938,1.779-6.968,3.342c-3.587,3.011-6.69,6.592-9.312,10.47c-0.962,1.604-2.094,3.306-2.146,5.237
		c0-6.352,0-12.7,0-19.049 M46.343,135.208c-0.092-2.836-1.818-5.293-3.449-7.485c-2.908-3.623-6.354-6.828-10.145-9.508
		c-1.473-0.919-3.037-2.012-4.832-2.056c6.143,0,12.283,0,18.426,0 M27.917,116.159c2.663-0.084,4.938-1.778,6.967-3.339
		c3.588-3.013,6.691-6.595,9.312-10.472c0.962-1.605,2.093-3.306,2.146-5.237c0,6.351,0,12.699,0,19.049"/>
	<path fill="#E6180A" d="M46.343,202.66c-6.143,0-12.283,0-18.426,0c2.1,0.092,3.885,1.45,5.571,2.573
		c3.788,2.856,7.336,6.136,10.139,9.97c1.309,1.928,2.682,4.098,2.716,6.506 M27.917,202.66c2.663-0.084,4.938-1.779,6.967-3.343
		c3.588-3.011,6.691-6.593,9.312-10.47c0.962-1.605,2.095-3.307,2.146-5.237c0,6.351,0,12.699,0,19.05 M46.343,183.609
		c0.092,2.836,1.818,5.292,3.449,7.484c2.908,3.623,6.354,6.828,10.145,9.509c1.474,0.919,3.037,2.012,4.832,2.056
		c-6.143,0-12.283,0-18.426,0 M64.768,202.66c-2.663,0.084-4.938,1.776-6.968,3.338c-3.587,3.014-6.69,6.596-9.312,10.473
		c-0.962,1.605-2.093,3.306-2.146,5.236c0-6.351,0-12.699,0-19.049"/>
	<path fill="#E6180A" d="M126.17,39.247c6.143,0,12.284,0,18.427,0c-2.1-0.093-3.886-1.451-5.571-2.574
		c-3.788-2.857-7.336-6.135-10.14-9.969c-1.308-1.929-2.681-4.098-2.716-6.506 M144.596,39.247
		c-2.663,0.084-4.938,1.779-6.969,3.342c-3.586,3.011-6.689,6.593-9.311,10.47c-0.962,1.605-2.095,3.306-2.147,5.237
		c0-6.351,0-12.699,0-19.049 M126.17,58.296c-0.091-2.836-1.817-5.292-3.448-7.485c-2.908-3.623-6.354-6.828-10.145-9.508
		c-1.474-0.919-3.037-2.012-4.832-2.056c6.143,0,12.283,0,18.425,0 M107.745,39.247c2.663-0.083,4.938-1.777,6.967-3.339
		c3.587-3.013,6.691-6.595,9.312-10.472c0.963-1.605,2.094-3.306,2.146-5.237c0,6.351,0,12.699,0,19.049"/>
	<path fill="#E6180A" d="M126.17,116.159c6.143,0,12.284,0,18.427,0c-2.1-0.093-3.886-1.451-5.571-2.574
		c-3.788-2.858-7.336-6.135-10.14-9.969c-1.308-1.929-2.681-4.098-2.716-6.506 M144.596,116.159
		c-2.663,0.084-4.938,1.779-6.969,3.342c-3.586,3.011-6.689,6.592-9.311,10.47c-0.962,1.604-2.095,3.306-2.147,5.237
		c0-6.352,0-12.7,0-19.049 M126.17,135.208c-0.091-2.836-1.817-5.293-3.448-7.485c-2.908-3.623-6.354-6.828-10.145-9.508
		c-1.474-0.919-3.037-2.012-4.832-2.056c6.143,0,12.283,0,18.425,0 M107.745,116.159c2.663-0.084,4.938-1.778,6.967-3.339
		c3.587-3.013,6.691-6.595,9.312-10.472c0.963-1.605,2.094-3.306,2.146-5.237c0,6.351,0,12.699,0,19.049"/>
	<path fill="#E6180A" d="M126.17,202.66c-6.142,0-12.282,0-18.425,0c2.099,0.092,3.884,1.45,5.57,2.573
		c3.789,2.856,7.337,6.136,10.139,9.97c1.309,1.928,2.683,4.098,2.716,6.506 M107.745,202.66c2.663-0.084,4.938-1.779,6.967-3.343
		c3.587-3.011,6.691-6.593,9.312-10.47c0.962-1.605,2.094-3.307,2.146-5.237c0,6.351,0,12.699,0,19.05 M126.17,183.609
		c0.093,2.836,1.819,5.292,3.45,7.484c2.908,3.623,6.354,6.828,10.145,9.509c1.473,0.919,3.036,2.012,4.832,2.056
		c-6.143,0-12.284,0-18.427,0 M144.596,202.66c-2.663,0.084-4.938,1.776-6.969,3.338c-3.586,3.014-6.689,6.596-9.311,10.473
		c-0.962,1.605-2.093,3.306-2.147,5.236c0-6.351,0-12.699,0-19.049"/>
	<path fill="#E6180A" d="M151.801,232.333c0.12,0.474,0.408,0.875,0.864,1.203c0.672,0.494,1.553,0.74,2.642,0.74
		c1.118,0,2.05-0.46,2.793-1.381c0.741-0.922,1.198-2.23,1.368-3.93c0.05-0.407,0.073-0.861,0.073-1.363v-4.63
		c-0.409,1.056-0.879,1.8-1.409,2.231c-0.697,0.576-1.686,0.863-2.962,0.863c-1.662,0-3.07-0.66-4.227-1.979
		c-1.156-1.32-1.734-3.072-1.734-5.256c0-2.498,0.661-4.465,1.98-5.904s3.145-2.16,5.472-2.16c2.4,0,4.164,0.973,5.292,2.916
		s1.692,4.682,1.692,8.208c0,3.384-0.671,6.252-2.017,8.604c-1.56,2.734-3.72,4.104-6.479,4.104c-1.561,0-2.748-0.396-3.564-1.188
		c-0.695-0.674-1.044-1.502-1.044-2.484c0-1.032,0.346-1.68,1.035-1.944c0.356-0.12,0.654-0.18,0.892-0.18
		c0.523,0,0.976,0.155,1.355,0.468s0.57,0.721,0.57,1.225c0,0.601-0.149,1.092-0.45,1.477c-0.3,0.384-0.714,0.576-1.242,0.576
		c-0.144,0-0.288-0.018-0.432-0.055C152.125,232.46,151.969,232.406,151.801,232.333z M156.154,225.421
		c1.311,0,2.246-0.746,2.804-2.236c0.438-1.156,0.655-2.721,0.655-4.691c0-2.334-0.109-3.935-0.328-4.801
		c-0.437-1.732-1.383-2.6-2.84-2.6c-1.092,0-1.899,0.596-2.421,1.787c-0.522,1.19-0.783,2.953-0.783,5.287
		c0,1.756,0.11,3.14,0.328,4.15C154.03,224.387,154.892,225.421,156.154,225.421z"/>
	<path fill="#E6180A" d="M19.927,12.093c-0.119-0.473-0.407-0.874-0.863-1.203c-0.672-0.494-1.554-0.74-2.642-0.74
		c-1.118,0-2.05,0.46-2.793,1.381c-0.741,0.922-1.198,2.231-1.369,3.93c-0.049,0.407-0.072,0.861-0.072,1.363v4.63
		c0.409-1.056,0.879-1.8,1.409-2.232c0.697-0.576,1.686-0.863,2.962-0.863c1.662,0,3.07,0.66,4.227,1.979
		c1.156,1.32,1.734,3.072,1.734,5.256c0,2.497-0.661,4.464-1.98,5.904c-1.319,1.439-3.145,2.16-5.472,2.16
		c-2.4,0-4.164-0.973-5.292-2.916c-1.128-1.944-1.692-4.681-1.692-8.208c0-3.384,0.671-6.252,2.017-8.604
		c1.56-2.735,3.72-4.104,6.479-4.104c1.561,0,2.748,0.396,3.564,1.188c0.695,0.673,1.044,1.501,1.044,2.484
		c0,1.032-0.346,1.68-1.035,1.944c-0.356,0.12-0.654,0.18-0.893,0.18c-0.522,0-0.975-0.156-1.354-0.468s-0.57-0.721-0.57-1.225
		c0-0.6,0.149-1.092,0.45-1.476c0.3-0.384,0.714-0.576,1.242-0.576c0.144,0,0.288,0.018,0.432,0.054
		C19.603,11.967,19.759,12.022,19.927,12.093z M15.574,19.005c-1.311,0-2.246,0.746-2.804,2.237
		c-0.438,1.156-0.655,2.72-0.655,4.692c0,2.334,0.109,3.934,0.328,4.8c0.437,1.732,1.383,2.599,2.84,2.599
		c1.092,0,1.899-0.595,2.421-1.786c0.522-1.191,0.783-2.953,0.783-5.288c0-1.756-0.11-3.139-0.328-4.15
		C17.698,20.041,16.836,19.005,15.574,19.005z"/>
</g>
</svg>
