<?xml version="1.0" encoding="utf-8"?>
<!-- Generator: Adobe Illustrator 16.0.0, SVG Export Plug-In . SVG Version: 6.00 Build 0)  -->
<!DOCTYPE svg PUBLIC "-//W3C//DTD SVG 1.1//EN" "http://www.w3.org/Graphics/SVG/1.1/DTD/svg11.dtd">
<svg version="1.1" id="Layer_1" xmlns="http://www.w3.org/2000/svg" xmlns:xlink="http://www.w3.org/1999/xlink" x="0px" y="0px"
	 width="171.512px" height="247.046px" viewBox="0 0 171.512 247.046" enable-background="new 0 0 171.512 247.046"
	 xml:space="preserve">
<g>
	<path fill="#FFFFFF" d="M9.367,245.8c-4.476,0-8.117-3.641-8.117-8.117V9.368c0-4.476,3.643-8.118,8.117-8.118h152.788
		c4.471,0,8.107,3.642,8.107,8.118v228.315c0,4.477-3.638,8.117-8.107,8.117H9.367z"/>
	<path fill="#D4D4D4" d="M162.155,2.5c3.769,0,6.857,3.089,6.857,6.868v228.315c0,3.777-3.09,6.867-6.857,6.867H9.367
		c-3.778,0-6.867-3.09-6.867-6.867V9.368C2.5,5.589,5.589,2.5,9.367,2.5H162.155 M162.155,0H9.367C4.202,0,0,4.202,0,9.368v228.315
		c0,5.165,4.202,9.367,9.367,9.367h152.788c5.16,0,9.357-4.202,9.357-9.367V9.368C171.513,4.202,167.315,0,162.155,0z"/>
	<path fill="#E6180A" d="M16.145,52.634c2.56,0,5.118,0,7.678,0c-0.875-0.039-1.619-0.604-2.321-1.072
		c-1.578-1.191-3.057-2.556-4.225-4.154c-0.545-0.804-1.117-1.708-1.132-2.711 M23.822,52.634c-1.109,0.035-2.058,0.741-2.903,1.393
		c-1.494,1.254-2.788,2.747-3.88,4.362c-0.399,0.669-0.872,1.377-0.895,2.182c0-2.646,0-5.291,0-7.937 M16.145,60.571
		c-0.037-1.182-0.758-2.205-1.438-3.119c-1.211-1.51-2.646-2.845-4.227-3.961c-0.613-0.383-1.266-0.838-2.014-0.857
		c2.561,0,5.118,0,7.678,0 M8.468,52.634c1.109-0.035,2.059-0.741,2.903-1.392c1.494-1.255,2.787-2.748,3.879-4.363
		c0.401-0.669,0.872-1.377,0.896-2.182c0,2.646,0,5.291,0,7.937"/>
	<path fill="#E6180A" d="M156.373,193.419c-2.56,0-5.118,0-7.678,0c0.875,0.039,1.618,0.604,2.321,1.072
		c1.578,1.19,3.057,2.555,4.225,4.153c0.545,0.804,1.117,1.708,1.132,2.711 M148.695,193.419c1.109-0.035,2.058-0.741,2.903-1.394
		c1.493-1.254,2.788-2.747,3.879-4.362c0.4-0.668,0.873-1.377,0.896-2.182c0,2.646,0,5.291,0,7.938 M156.373,185.482
		c0.037,1.182,0.757,2.205,1.438,3.119c1.211,1.51,2.646,2.845,4.226,3.962c0.614,0.383,1.267,0.838,2.014,0.856
		c-2.56,0-5.117,0-7.677,0 M164.05,193.419c-1.108,0.035-2.058,0.74-2.902,1.392c-1.494,1.255-2.788,2.748-3.879,4.362
		c-0.401,0.67-0.873,1.377-0.896,2.183c0-2.646,0-5.291,0-7.937"/>
	<path fill="#E6180A" d="M46.348,39.247c6.142,0,12.282,0,18.425,0c-2.1-0.093-3.884-1.451-5.57-2.574
		c-3.788-2.857-7.337-6.135-10.139-9.969c-1.309-1.929-2.683-4.098-2.716-6.506 M64.772,39.247
		c-2.663,0.084-4.938,1.779-6.967,3.342c-3.588,3.011-6.691,6.593-9.312,10.47c-0.962,1.605-2.095,3.306-2.146,5.237
		c0-6.351,0-12.699,0-19.049 M46.348,58.296c-0.092-2.836-1.818-5.292-3.45-7.485c-2.907-3.623-6.354-6.828-10.145-9.508
		c-1.473-0.919-3.037-2.012-4.831-2.056c6.143,0,12.283,0,18.426,0 M27.923,39.247c2.663-0.083,4.938-1.777,6.968-3.339
		c3.587-3.013,6.69-6.595,9.311-10.472c0.962-1.605,2.094-3.306,2.147-5.237c0,6.351,0,12.699,0,19.049"/>
	<path fill="#E6180A" d="M46.348,93.383c6.142,0,12.282,0,18.425,0c-2.1-0.093-3.884-1.451-5.57-2.574
		c-3.788-2.858-7.337-6.135-10.139-9.969c-1.309-1.929-2.683-4.098-2.716-6.506 M64.772,93.383
		c-2.663,0.084-4.938,1.779-6.967,3.342c-3.588,3.011-6.691,6.593-9.312,10.47c-0.962,1.605-2.095,3.306-2.146,5.237
		c0-6.35,0-12.698,0-19.049 M46.348,112.432c-0.092-2.835-1.818-5.292-3.45-7.485c-2.907-3.623-6.354-6.828-10.145-9.508
		c-1.473-0.919-3.037-2.012-4.831-2.056c6.143,0,12.283,0,18.426,0 M27.923,93.383c2.663-0.084,4.938-1.778,6.968-3.339
		c3.587-3.013,6.69-6.595,9.311-10.472c0.962-1.605,2.094-3.306,2.147-5.237c0,6.351,0,12.699,0,19.049"/>
	<path fill="#E6180A" d="M46.348,148.522c-6.143,0-12.283,0-18.427,0c2.1,0.093,3.886,1.451,5.571,2.574
		c3.788,2.858,7.337,6.135,10.139,9.969c1.309,1.929,2.682,4.099,2.717,6.506 M27.922,148.522c2.664-0.084,4.938-1.778,6.969-3.342
		c3.587-3.011,6.689-6.593,9.311-10.47c0.962-1.604,2.095-3.307,2.147-5.237c0,6.351,0,12.698,0,19.049 M46.348,129.474
		c0.091,2.835,1.817,5.292,3.449,7.484c2.907,3.623,6.354,6.828,10.145,9.508c1.473,0.92,3.037,2.013,4.831,2.057
		c-6.143,0-12.283,0-18.425,0 M64.772,148.522c-2.663,0.084-4.938,1.778-6.967,3.339c-3.588,3.014-6.691,6.596-9.312,10.473
		c-0.962,1.604-2.094,3.306-2.146,5.236c0-6.351,0-12.699,0-19.049"/>
	<path fill="#E6180A" d="M46.348,202.66c-6.143,0-12.283,0-18.427,0c2.1,0.092,3.886,1.45,5.571,2.573
		c3.788,2.856,7.337,6.136,10.139,9.97c1.309,1.928,2.682,4.098,2.717,6.506 M27.922,202.66c2.664-0.084,4.938-1.779,6.969-3.343
		c3.587-3.011,6.689-6.593,9.311-10.47c0.962-1.605,2.095-3.307,2.147-5.237c0,6.351,0,12.699,0,19.05 M46.348,183.609
		c0.091,2.836,1.817,5.292,3.449,7.484c2.907,3.623,6.354,6.828,10.145,9.509c1.473,0.919,3.037,2.012,4.831,2.056
		c-6.143,0-12.283,0-18.425,0 M64.772,202.66c-2.663,0.084-4.938,1.776-6.967,3.338c-3.588,3.014-6.691,6.596-9.312,10.473
		c-0.962,1.605-2.094,3.306-2.146,5.236c0-6.351,0-12.699,0-19.049"/>
	<path fill="#E6180A" d="M126.176,39.247c6.143,0,12.283,0,18.426,0c-2.1-0.093-3.885-1.451-5.57-2.574
		c-3.788-2.857-7.337-6.135-10.139-9.969c-1.309-1.929-2.683-4.098-2.717-6.506 M144.601,39.247
		c-2.663,0.084-4.938,1.779-6.968,3.342c-3.587,3.011-6.69,6.593-9.311,10.47c-0.962,1.605-2.095,3.306-2.147,5.237
		c0-6.351,0-12.699,0-19.049 M126.176,58.296c-0.092-2.836-1.817-5.292-3.449-7.485c-2.907-3.623-6.354-6.828-10.145-9.508
		c-1.473-0.919-3.037-2.012-4.832-2.056c6.144,0,12.284,0,18.426,0 M107.75,39.247c2.664-0.083,4.938-1.777,6.968-3.339
		c3.588-3.013,6.69-6.595,9.312-10.472c0.962-1.605,2.094-3.306,2.146-5.237c0,6.351,0,12.699,0,19.049"/>
	<path fill="#E6180A" d="M126.176,93.383c6.143,0,12.283,0,18.426,0c-2.1-0.093-3.885-1.451-5.57-2.574
		c-3.788-2.858-7.337-6.135-10.139-9.969c-1.309-1.929-2.683-4.098-2.717-6.506 M144.601,93.383
		c-2.663,0.084-4.938,1.779-6.968,3.342c-3.587,3.011-6.69,6.593-9.311,10.47c-0.962,1.605-2.095,3.306-2.147,5.237
		c0-6.35,0-12.698,0-19.049 M126.176,112.432c-0.092-2.835-1.817-5.292-3.449-7.485c-2.907-3.623-6.354-6.828-10.145-9.508
		c-1.473-0.919-3.037-2.012-4.832-2.056c6.144,0,12.284,0,18.426,0 M107.75,93.383c2.664-0.084,4.938-1.778,6.968-3.339
		c3.588-3.013,6.69-6.595,9.312-10.472c0.962-1.605,2.094-3.306,2.146-5.237c0,6.351,0,12.699,0,19.049"/>
	<path fill="#E6180A" d="M126.176,148.522c-6.142,0-12.282,0-18.426,0c2.1,0.093,3.885,1.451,5.571,2.574
		c3.788,2.858,7.336,6.135,10.139,9.969c1.309,1.929,2.682,4.099,2.716,6.506 M107.75,148.522c2.663-0.084,4.938-1.778,6.968-3.342
		c3.587-3.011,6.69-6.593,9.312-10.47c0.962-1.604,2.095-3.307,2.146-5.237c0,6.351,0,12.698,0,19.049 M126.176,129.474
		c0.092,2.835,1.818,5.292,3.449,7.484c2.908,3.623,6.354,6.828,10.145,9.508c1.474,0.92,3.038,2.013,4.832,2.057
		c-6.143,0-12.283,0-18.426,0 M144.601,148.522c-2.663,0.084-4.938,1.778-6.968,3.339c-3.587,3.014-6.69,6.596-9.312,10.473
		c-0.962,1.604-2.093,3.306-2.146,5.236c0-6.351,0-12.699,0-19.049"/>
	<path fill="#E6180A" d="M126.176,202.66c-6.142,0-12.282,0-18.426,0c2.1,0.092,3.885,1.45,5.571,2.573
		c3.788,2.856,7.336,6.136,10.139,9.97c1.309,1.928,2.682,4.098,2.716,6.506 M107.75,202.66c2.663-0.084,4.938-1.779,6.968-3.343
		c3.587-3.011,6.69-6.593,9.312-10.47c0.962-1.605,2.095-3.307,2.146-5.237c0,6.351,0,12.699,0,19.05 M126.176,183.609
		c0.092,2.836,1.818,5.292,3.449,7.484c2.908,3.623,6.354,6.828,10.145,9.509c1.474,0.919,3.038,2.012,4.832,2.056
		c-6.143,0-12.283,0-18.426,0 M144.601,202.66c-2.663,0.084-4.938,1.776-6.968,3.338c-3.587,3.014-6.69,6.596-9.312,10.473
		c-0.962,1.605-2.093,3.306-2.146,5.236c0-6.351,0-12.699,0-19.049"/>
	<path fill="#E6180A" d="M152.525,224.27c-1.08-0.265-1.967-0.966-2.664-2.104c-0.695-1.142-1.045-2.502-1.045-4.086
		c0-1.873,0.647-3.518,1.945-4.934c1.463-1.584,3.396-2.376,5.795-2.376c2.137,0,3.938,0.708,5.399,2.124
		c1.465,1.416,2.195,3.072,2.195,4.968c0,1.058-0.443,2.089-1.33,3.097c-0.049,0.049-0.721,0.672-2.018,1.873
		c0.815,0.479,1.44,1.133,1.872,1.961c0.433,0.828,0.648,1.783,0.648,2.861c0,1.85-0.613,3.434-1.836,4.752
		c-1.369,1.465-3.133,2.196-5.293,2.196c-2.039,0-3.707-0.769-5.004-2.304c-1.058-1.248-1.584-2.484-1.584-3.709
		C149.609,226.958,150.582,225.518,152.525,224.27z M160.301,222.58c0.562-0.48,0.955-1.22,1.179-2.216
		c0.223-0.995,0.334-2.058,0.334-3.186c0-1.992-0.463-3.505-1.396-4.536c-0.928-1.032-2.18-1.549-3.754-1.549
		c-1.619,0-2.906,0.457-3.858,1.369c-0.955,0.912-1.433,2.1-1.433,3.562c0,2.473,1.076,4.116,3.228,4.934
		C156.514,221.486,158.412,222.026,160.301,222.58z M152.922,224.451c-0.418,0.527-0.77,1.157-1.053,1.891
		c-0.281,0.73-0.424,1.506-0.424,2.322c0,1.92,0.504,3.371,1.512,4.354c0.865,0.84,1.992,1.26,3.385,1.26
		c1.32,0,2.447-0.378,3.384-1.134c0.938-0.756,1.403-1.83,1.403-3.223c0-1.991-1.146-3.383-3.438-4.176
		C157.211,225.578,155.621,225.146,152.922,224.451z"/>
	<path fill="#E6180A" d="M19.041,20.158c1.08,0.264,1.967,0.966,2.664,2.105c0.695,1.141,1.045,2.502,1.045,4.086
		c0,1.872-0.647,3.517-1.944,4.933c-1.464,1.584-3.396,2.376-5.796,2.376c-2.137,0-3.938-0.708-5.399-2.124
		c-1.465-1.416-2.195-3.072-2.195-4.968c0-1.057,0.443-2.089,1.33-3.097c0.049-0.048,0.721-0.671,2.019-1.872
		c-0.816-0.479-1.441-1.134-1.873-1.962c-0.433-0.828-0.65-1.782-0.65-2.861c0-1.849,0.613-3.433,1.836-4.752
		c1.369-1.464,3.133-2.196,5.293-2.196c2.039,0,3.707,0.769,5.004,2.304c1.058,1.248,1.584,2.484,1.584,3.708
		C21.957,17.47,20.984,18.91,19.041,20.158z M11.266,21.849c-0.562,0.48-0.955,1.219-1.179,2.215
		c-0.223,0.996-0.334,2.058-0.334,3.186c0,1.992,0.463,3.504,1.396,4.536c0.928,1.032,2.18,1.548,3.754,1.548
		c1.619,0,2.906-0.456,3.859-1.368c0.954-0.912,1.432-2.1,1.432-3.563c0-2.472-1.076-4.116-3.228-4.933
		C15.053,22.942,13.154,22.402,11.266,21.849z M18.645,19.977c0.418-0.527,0.77-1.157,1.053-1.89
		c0.281-0.731,0.424-1.506,0.424-2.322c0-1.92-0.504-3.371-1.512-4.355c-0.865-0.84-1.992-1.26-3.385-1.26
		c-1.32,0-2.447,0.378-3.384,1.134c-0.938,0.756-1.403,1.83-1.403,3.222c0,1.992,1.146,3.384,3.438,4.176
		C14.355,18.85,15.945,19.282,18.645,19.977z"/>
</g>
</svg>
