<?xml version="1.0" encoding="utf-8"?>
<!-- Generator: Adobe Illustrator 16.0.0, SVG Export Plug-In . SVG Version: 6.00 Build 0)  -->
<!DOCTYPE svg PUBLIC "-//W3C//DTD SVG 1.1//EN" "http://www.w3.org/Graphics/SVG/1.1/DTD/svg11.dtd">
<svg version="1.1" id="Layer_1" xmlns="http://www.w3.org/2000/svg" xmlns:xlink="http://www.w3.org/1999/xlink" x="0px" y="0px"
	 width="171.512px" height="247.046px" viewBox="0 0 171.512 247.046" enable-background="new 0 0 171.512 247.046"
	 xml:space="preserve">
<g>
	<path fill="#FFFFFF" d="M9.367,245.8c-4.476,0-8.117-3.641-8.117-8.117V9.368c0-4.476,3.642-8.118,8.117-8.118h152.788
		c4.471,0,8.107,3.642,8.107,8.118v228.315c0,4.477-3.638,8.117-8.107,8.117H9.367z"/>
	<path fill="#D4D4D4" d="M162.155,2.5c3.769,0,6.857,3.089,6.857,6.868v228.315c0,3.777-3.09,6.867-6.857,6.867H9.367
		c-3.778,0-6.867-3.09-6.867-6.867V9.368C2.5,5.589,5.589,2.5,9.367,2.5H162.155 M162.155,0H9.367C4.202,0,0,4.202,0,9.368v228.315
		c0,5.165,4.202,9.367,9.367,9.367h152.788c5.16,0,9.357-4.202,9.357-9.367V9.368C171.513,4.202,167.315,0,162.155,0z"/>
	<path fill="#E6180A" d="M16.145,52.634c2.56,0,5.118,0,7.678,0c-0.875-0.039-1.619-0.604-2.321-1.072
		c-1.578-1.191-3.057-2.556-4.225-4.154c-0.545-0.804-1.117-1.708-1.132-2.711 M23.822,52.634c-1.109,0.035-2.058,0.741-2.903,1.393
		c-1.494,1.254-2.788,2.747-3.88,4.362c-0.399,0.669-0.872,1.377-0.895,2.182c0-2.646,0-5.291,0-7.937 M16.145,60.571
		c-0.038-1.182-0.758-2.205-1.438-3.119c-1.211-1.51-2.646-2.845-4.227-3.961c-0.613-0.383-1.266-0.838-2.014-0.857
		c2.56,0,5.118,0,7.678,0 M8.468,52.634c1.109-0.035,2.059-0.741,2.903-1.392c1.494-1.255,2.787-2.748,3.879-4.363
		c0.401-0.669,0.872-1.377,0.896-2.182c0,2.646,0,5.291,0,7.937"/>
	<path fill="#E6180A" d="M156.362,193.419c-2.559,0-5.118,0-7.677,0c0.874,0.039,1.618,0.604,2.32,1.072
		c1.578,1.19,3.058,2.555,4.226,4.153c0.545,0.804,1.117,1.708,1.131,2.711 M148.686,193.419c1.108-0.035,2.058-0.741,2.902-1.394
		c1.494-1.254,2.788-2.747,3.879-4.362c0.401-0.668,0.873-1.377,0.896-2.182c0,2.646,0,5.291,0,7.938 M156.362,185.482
		c0.038,1.182,0.758,2.205,1.438,3.119c1.213,1.51,2.647,2.845,4.228,3.962c0.614,0.383,1.266,0.838,2.014,0.856
		c-2.56,0-5.118,0-7.678,0 M164.04,193.419c-1.108,0.035-2.058,0.74-2.902,1.392c-1.494,1.255-2.788,2.748-3.88,4.362
		c-0.4,0.67-0.873,1.377-0.896,2.183c0-2.646,0-5.291,0-7.937"/>
	<path fill="#E6180A" d="M46.342,39.247c6.144,0,12.284,0,18.427,0c-2.1-0.093-3.886-1.451-5.571-2.574
		c-3.788-2.857-7.336-6.135-10.138-9.969c-1.309-1.929-2.683-4.098-2.718-6.506 M64.768,39.247
		c-2.663,0.084-4.938,1.779-6.968,3.342c-3.587,3.011-6.69,6.593-9.312,10.47c-0.962,1.605-2.094,3.306-2.147,5.237
		c0-6.351,0-12.699,0-19.049 M46.342,58.296c-0.091-2.836-1.817-5.292-3.448-7.485c-2.908-3.623-6.354-6.828-10.145-9.508
		c-1.474-0.919-3.037-2.012-4.832-2.056c6.143,0,12.283,0,18.425,0 M27.917,39.247c2.663-0.083,4.938-1.777,6.967-3.339
		c3.588-3.013,6.691-6.595,9.312-10.472c0.962-1.605,2.093-3.306,2.146-5.237c0,6.351,0,12.699,0,19.049"/>
	<path fill="#E6180A" d="M46.342,116.159c6.144,0,12.284,0,18.427,0c-2.1-0.093-3.886-1.451-5.571-2.574
		c-3.788-2.858-7.336-6.135-10.138-9.969c-1.309-1.929-2.683-4.098-2.718-6.506 M64.768,116.159
		c-2.663,0.084-4.938,1.779-6.968,3.342c-3.587,3.011-6.69,6.592-9.312,10.47c-0.962,1.604-2.094,3.306-2.147,5.237
		c0-6.352,0-12.7,0-19.049 M46.342,135.208c-0.091-2.836-1.817-5.293-3.448-7.485c-2.908-3.623-6.354-6.828-10.145-9.508
		c-1.474-0.919-3.037-2.012-4.832-2.056c6.143,0,12.283,0,18.425,0 M27.917,116.159c2.663-0.084,4.938-1.778,6.967-3.339
		c3.588-3.013,6.691-6.595,9.312-10.472c0.962-1.605,2.093-3.306,2.146-5.237c0,6.351,0,12.699,0,19.049"/>
	<path fill="#E6180A" d="M46.343,202.66c-6.142,0-12.282,0-18.426,0c2.1,0.092,3.885,1.45,5.571,2.573
		c3.788,2.856,7.336,6.136,10.139,9.97c1.309,1.928,2.682,4.098,2.716,6.506 M27.917,202.66c2.663-0.084,4.938-1.779,6.968-3.343
		c3.587-3.011,6.69-6.593,9.312-10.47c0.962-1.605,2.095-3.307,2.146-5.237c0,6.351,0,12.699,0,19.05 M46.343,183.609
		c0.092,2.836,1.818,5.292,3.45,7.484c2.907,3.623,6.354,6.828,10.144,9.509c1.474,0.919,3.038,2.012,4.832,2.056
		c-6.143,0-12.283,0-18.426,0 M64.768,202.66c-2.663,0.084-4.938,1.776-6.968,3.338c-3.587,3.014-6.69,6.596-9.311,10.473
		c-0.963,1.605-2.094,3.306-2.147,5.236c0-6.351,0-12.699,0-19.049"/>
	<path fill="#E6180A" d="M126.17,39.247c6.144,0,12.284,0,18.427,0c-2.1-0.093-3.886-1.451-5.571-2.574
		c-3.788-2.857-7.336-6.135-10.14-9.969c-1.308-1.929-2.681-4.098-2.716-6.506 M144.596,39.247
		c-2.663,0.084-4.938,1.779-6.968,3.342c-3.587,3.011-6.69,6.593-9.312,10.47c-0.962,1.605-2.095,3.306-2.147,5.237
		c0-6.351,0-12.699,0-19.049 M126.17,58.296c-0.091-2.836-1.817-5.292-3.448-7.485c-2.908-3.623-6.354-6.828-10.145-9.508
		c-1.474-0.919-3.037-2.012-4.832-2.056c6.143,0,12.283,0,18.425,0 M107.745,39.247c2.663-0.083,4.938-1.777,6.967-3.339
		c3.587-3.013,6.691-6.595,9.312-10.472c0.962-1.605,2.093-3.306,2.146-5.237c0,6.351,0,12.699,0,19.049"/>
	<path fill="#E6180A" d="M126.17,116.159c6.144,0,12.284,0,18.427,0c-2.1-0.093-3.886-1.451-5.571-2.574
		c-3.788-2.858-7.336-6.135-10.14-9.969c-1.308-1.929-2.681-4.098-2.716-6.506 M144.596,116.159
		c-2.663,0.084-4.938,1.779-6.968,3.342c-3.587,3.011-6.69,6.592-9.312,10.47c-0.962,1.604-2.095,3.306-2.147,5.237
		c0-6.352,0-12.7,0-19.049 M126.17,135.208c-0.091-2.836-1.817-5.293-3.448-7.485c-2.908-3.623-6.354-6.828-10.145-9.508
		c-1.474-0.919-3.037-2.012-4.832-2.056c6.143,0,12.283,0,18.425,0 M107.745,116.159c2.663-0.084,4.938-1.778,6.967-3.339
		c3.587-3.013,6.691-6.595,9.312-10.472c0.962-1.605,2.093-3.306,2.146-5.237c0,6.351,0,12.699,0,19.049"/>
	<path fill="#E6180A" d="M126.171,202.66c-6.143,0-12.283,0-18.426,0c2.099,0.092,3.885,1.45,5.571,2.573
		c3.788,2.856,7.336,6.136,10.139,9.97c1.308,1.928,2.682,4.098,2.716,6.506 M107.745,202.66c2.663-0.084,4.938-1.779,6.967-3.343
		c3.587-3.011,6.691-6.593,9.312-10.47c0.962-1.605,2.094-3.307,2.146-5.237c0,6.351,0,12.699,0,19.05 M126.171,183.609
		c0.092,2.836,1.818,5.292,3.449,7.484c2.908,3.623,6.354,6.828,10.145,9.509c1.474,0.919,3.036,2.012,4.832,2.056
		c-6.143,0-12.283,0-18.426,0 M144.596,202.66c-2.663,0.084-4.938,1.776-6.968,3.338c-3.587,3.014-6.69,6.596-9.312,10.473
		c-0.962,1.605-2.093,3.306-2.146,5.236c0-6.351,0-12.699,0-19.049"/>
	<path fill="#E6180A" d="M86.257,93.383c6.143,0,12.283,0,18.426,0c-2.1-0.093-3.885-1.451-5.57-2.574
		c-3.789-2.858-7.337-6.135-10.139-9.969c-1.309-1.929-2.683-4.098-2.717-6.506 M104.682,93.383
		c-2.663,0.084-4.938,1.779-6.968,3.342c-3.587,3.011-6.69,6.593-9.312,10.47c-0.962,1.605-2.094,3.306-2.146,5.237
		c0-6.35,0-12.698,0-19.049 M86.257,112.432c-0.092-2.835-1.818-5.292-3.449-7.485c-2.908-3.623-6.354-6.828-10.145-9.508
		c-1.473-0.919-3.037-2.012-4.832-2.056c6.143,0,12.284,0,18.426,0 M67.831,93.383c2.663-0.084,4.938-1.778,6.968-3.339
		c3.586-3.013,6.69-6.595,9.312-10.472c0.962-1.605,2.093-3.306,2.146-5.237c0,6.351,0,12.699,0,19.049"/>
	<path fill="#E6180A" d="M161.729,232.462c-0.405,0.951-0.812,1.545-1.217,1.783c-0.405,0.236-1.038,0.355-1.897,0.355
		c-1.001,0-2.117-0.75-3.346-2.25c-1.229-1.5-2.152-2.25-2.773-2.25c-0.835,0-1.461,0.4-1.879,1.206
		c-0.417,0.804-0.626,1.901-0.626,3.294h-0.433c-0.023-0.168-0.035-0.42-0.035-0.756c0-0.984,0.197-2.016,0.594-3.096
		c0.397-1.08,0.834-1.992,1.314-2.736c1.104-1.68,1.799-2.82,2.088-3.42c0.72-1.512,1.08-4.188,1.08-8.028
		c0-2.136,0.19-3.636,0.575-4.5c0.384-0.862,0.984-1.296,1.8-1.296c0.647,0,1.151,0.229,1.513,0.686
		c0.432,0.551,0.646,1.463,0.646,2.735c0,0.96-0.264,2.089-0.791,3.386c-0.646,1.561-1.778,3.575-3.403,6.049
		c-0.859,1.271-1.713,2.545-2.562,3.816c-0.849,1.271-1.38,2.186-1.595,2.737c0.43-0.183,0.805-0.312,1.127-0.392
		c0.322-0.078,0.662-0.117,1.021-0.117c0.452,0,0.918,0.047,1.395,0.144c0.812,0.24,1.467,0.42,1.967,0.54
		c0.955,0.264,1.754,0.396,2.397,0.396c0.523,0,0.988-0.086,1.396-0.254c0.787-0.34,1.336-1.16,1.646-2.466
		c0.19-0.772,0.287-1.618,0.287-2.536h0.432c0,0.719-0.023,1.728-0.072,3.022c-0.048,1.296-0.071,2.231-0.071,2.81v0.396
		c0,0.937,0.071,1.896,0.217,2.88h-0.434L161.729,232.462z"/>
	<path fill="#E6180A" d="M9.628,11.965c0.406-0.951,0.812-1.545,1.218-1.783c0.405-0.237,1.037-0.356,1.896-0.356
		c1.001,0,2.117,0.75,3.346,2.25c1.229,1.5,2.153,2.25,2.774,2.25c0.835,0,1.461-0.401,1.878-1.206
		c0.417-0.804,0.626-1.902,0.626-3.294h0.432c0.023,0.168,0.036,0.42,0.036,0.756c0,0.984-0.197,2.016-0.594,3.096
		c-0.396,1.08-0.834,1.992-1.314,2.736c-1.104,1.68-1.8,2.82-2.088,3.42c-0.72,1.512-1.08,4.188-1.08,8.028
		c0,2.136-0.191,3.636-0.575,4.5c-0.385,0.863-0.984,1.296-1.801,1.296c-0.647,0-1.151-0.229-1.512-0.685
		c-0.432-0.552-0.647-1.464-0.647-2.736c0-0.96,0.264-2.089,0.792-3.385c0.645-1.561,1.778-3.576,3.403-6.05
		c0.859-1.271,1.713-2.544,2.562-3.816c0.849-1.272,1.38-2.185,1.595-2.737c-0.43,0.182-0.805,0.312-1.127,0.391
		c-0.322,0.079-0.662,0.118-1.02,0.118c-0.453,0-0.919-0.048-1.396-0.144c-0.811-0.24-1.466-0.42-1.967-0.54
		c-0.954-0.264-1.753-0.396-2.397-0.396c-0.524,0-0.989,0.085-1.395,0.254c-0.788,0.339-1.336,1.16-1.646,2.465
		c-0.19,0.773-0.287,1.619-0.287,2.537H8.91c0-0.72,0.024-1.728,0.072-3.023c0.048-1.296,0.072-2.232,0.072-2.809v-0.396
		c0-0.937-0.072-1.896-0.217-2.88H9.27L9.628,11.965z"/>
</g>
</svg>
