<?xml version="1.0" encoding="utf-8"?>
<!-- Generator: Adobe Illustrator 16.0.0, SVG Export Plug-In . SVG Version: 6.00 Build 0)  -->
<!DOCTYPE svg PUBLIC "-//W3C//DTD SVG 1.1//EN" "http://www.w3.org/Graphics/SVG/1.1/DTD/svg11.dtd">
<svg version="1.1" id="Layer_1" xmlns="http://www.w3.org/2000/svg" xmlns:xlink="http://www.w3.org/1999/xlink" x="0px" y="0px"
	 width="171.512px" height="247.046px" viewBox="0 0 171.512 247.046" enable-background="new 0 0 171.512 247.046"
	 xml:space="preserve">
<g>
	<path fill="#FFFFFF" d="M9.367,245.8c-4.476,0-8.117-3.641-8.117-8.117V9.368c0-4.476,3.642-8.118,8.117-8.118h152.788
		c4.47,0,8.107,3.642,8.107,8.118v228.315c0,4.477-3.638,8.117-8.107,8.117H9.367z"/>
	<path fill="#D4D4D4" d="M162.155,2.5c3.769,0,6.857,3.089,6.857,6.868v228.315c0,3.777-3.09,6.867-6.857,6.867H9.367
		c-3.778,0-6.867-3.09-6.867-6.867V9.368C2.5,5.589,5.589,2.5,9.367,2.5H162.155 M162.155,0H9.367C4.202,0,0,4.202,0,9.368v228.315
		c0,5.165,4.202,9.367,9.367,9.367h152.788c5.16,0,9.357-4.202,9.357-9.367V9.368C171.513,4.202,167.315,0,162.155,0z"/>
	<path fill="#E6180A" d="M16.145,52.634c2.56,0,5.118,0,7.678,0c-0.875-0.039-1.619-0.604-2.321-1.072
		c-1.578-1.191-3.057-2.556-4.225-4.154c-0.545-0.804-1.117-1.708-1.132-2.711 M23.822,52.634c-1.109,0.035-2.058,0.741-2.903,1.393
		c-1.494,1.254-2.788,2.747-3.88,4.362c-0.399,0.669-0.872,1.377-0.895,2.182c0-2.646,0-5.291,0-7.937 M16.145,60.571
		c-0.038-1.182-0.758-2.205-1.438-3.119c-1.211-1.51-2.646-2.845-4.227-3.961c-0.613-0.383-1.266-0.838-2.014-0.857
		c2.56,0,5.118,0,7.678,0 M8.468,52.634c1.109-0.035,2.059-0.741,2.903-1.392c1.494-1.255,2.787-2.748,3.879-4.363
		c0.401-0.669,0.872-1.377,0.896-2.182c0,2.646,0,5.291,0,7.937"/>
	<path fill="#E6180A" d="M156.368,193.419c-2.56,0-5.118,0-7.678,0c0.874,0.039,1.618,0.604,2.321,1.072
		c1.577,1.19,3.057,2.555,4.225,4.153c0.545,0.804,1.117,1.708,1.132,2.711 M148.69,193.419c1.108-0.035,2.058-0.741,2.902-1.394
		c1.494-1.254,2.788-2.747,3.88-4.362c0.4-0.668,0.873-1.377,0.896-2.182c0,2.646,0,5.291,0,7.938 M156.368,185.482
		c0.037,1.182,0.757,2.205,1.438,3.119c1.212,1.51,2.646,2.845,4.227,3.962c0.614,0.383,1.266,0.838,2.014,0.856
		c-2.559,0-5.117,0-7.677,0 M164.045,193.419c-1.108,0.035-2.058,0.74-2.902,1.392c-1.494,1.255-2.788,2.748-3.879,4.362
		c-0.401,0.67-0.872,1.377-0.896,2.183c0-2.646,0-5.291,0-7.937"/>
	<path fill="#E6180A" d="M46.342,39.247c6.143,0,12.283,0,18.427,0c-2.1-0.093-3.886-1.451-5.571-2.574
		c-3.788-2.857-7.336-6.135-10.139-9.969c-1.309-1.929-2.682-4.098-2.717-6.506 M64.768,39.247
		c-2.663,0.084-4.938,1.779-6.969,3.342c-3.586,3.011-6.689,6.593-9.311,10.47c-0.962,1.605-2.095,3.306-2.147,5.237
		c0-6.351,0-12.699,0-19.049 M46.342,58.296c-0.091-2.836-1.817-5.292-3.448-7.485c-2.908-3.623-6.354-6.828-10.145-9.508
		c-1.474-0.919-3.038-2.012-4.832-2.056c6.143,0,12.283,0,18.425,0 M27.917,39.247c2.663-0.083,4.938-1.777,6.967-3.339
		c3.588-3.013,6.691-6.595,9.312-10.472c0.962-1.605,2.093-3.306,2.146-5.237c0,6.351,0,12.699,0,19.049"/>
	<path fill="#E6180A" d="M46.342,202.66c-6.142,0-12.282,0-18.425,0c2.1,0.092,3.884,1.45,5.57,2.573
		c3.788,2.856,7.337,6.136,10.139,9.97c1.309,1.928,2.683,4.098,2.716,6.506 M27.917,202.66c2.663-0.084,4.938-1.779,6.967-3.343
		c3.588-3.011,6.691-6.593,9.312-10.47c0.962-1.605,2.094-3.307,2.146-5.237c0,6.351,0,12.699,0,19.05 M46.342,183.609
		c0.093,2.836,1.818,5.292,3.45,7.484c2.908,3.623,6.354,6.828,10.145,9.509c1.473,0.919,3.037,2.012,4.832,2.056
		c-6.143,0-12.284,0-18.427,0 M64.768,202.66c-2.663,0.084-4.938,1.776-6.969,3.338c-3.586,3.014-6.689,6.596-9.311,10.473
		c-0.962,1.605-2.093,3.306-2.147,5.236c0-6.351,0-12.699,0-19.049"/>
	<path fill="#E6180A" d="M126.17,39.247c6.143,0,12.283,0,18.426,0c-2.099-0.093-3.885-1.451-5.57-2.574
		c-3.788-2.857-7.337-6.135-10.14-9.969c-1.308-1.929-2.682-4.098-2.716-6.506 M144.595,39.247
		c-2.663,0.084-4.938,1.779-6.968,3.342c-3.587,3.011-6.689,6.593-9.311,10.47c-0.962,1.605-2.095,3.306-2.147,5.237
		c0-6.351,0-12.699,0-19.049 M126.17,58.296c-0.091-2.836-1.817-5.292-3.449-7.485c-2.907-3.623-6.354-6.828-10.145-9.508
		c-1.473-0.919-3.037-2.012-4.831-2.056c6.143,0,12.283,0,18.425,0 M107.745,39.247c2.663-0.083,4.938-1.777,6.967-3.339
		c3.587-3.013,6.691-6.595,9.312-10.472c0.962-1.605,2.094-3.306,2.146-5.237c0,6.351,0,12.699,0,19.049"/>
	<path fill="#E6180A" d="M126.17,202.66c-6.142,0-12.282,0-18.425,0c2.099,0.092,3.884,1.45,5.57,2.573
		c3.788,2.856,7.337,6.136,10.139,9.97c1.309,1.928,2.683,4.098,2.716,6.506 M107.745,202.66c2.663-0.084,4.938-1.779,6.967-3.343
		c3.587-3.011,6.691-6.593,9.312-10.47c0.962-1.605,2.095-3.307,2.146-5.237c0,6.351,0,12.699,0,19.05 M126.17,183.609
		c0.093,2.836,1.818,5.292,3.45,7.484c2.907,3.623,6.354,6.828,10.145,9.509c1.473,0.919,3.036,2.012,4.832,2.056
		c-6.144,0-12.284,0-18.427,0 M144.596,202.66c-2.663,0.084-4.938,1.776-6.969,3.338c-3.587,3.014-6.689,6.596-9.311,10.473
		c-0.962,1.605-2.094,3.306-2.147,5.236c0-6.351,0-12.699,0-19.049"/>
	<path fill="#E6180A" d="M86.256,116.159c6.143,0,12.283,0,18.426,0c-2.099-0.093-3.885-1.451-5.57-2.574
		c-3.788-2.858-7.337-6.135-10.139-9.969c-1.309-1.929-2.683-4.098-2.717-6.506 M104.681,116.159
		c-2.663,0.084-4.938,1.779-6.968,3.342c-3.587,3.011-6.689,6.592-9.311,10.47c-0.962,1.604-2.095,3.306-2.147,5.237
		c0-6.352,0-12.7,0-19.049 M86.256,135.208c-0.091-2.836-1.817-5.293-3.449-7.485c-2.907-3.623-6.354-6.828-10.145-9.508
		c-1.473-0.919-3.037-2.012-4.831-2.056c6.143,0,12.283,0,18.425,0 M67.831,116.159c2.663-0.084,4.938-1.778,6.967-3.339
		c3.587-3.013,6.691-6.595,9.312-10.472c0.962-1.605,2.094-3.306,2.146-5.237c0,6.351,0,12.699,0,19.049"/>
	<path fill="#E6180A" d="M149.136,234.602c0.72-1.562,1.481-2.694,2.285-3.401c0.806-0.709,1.819-1.062,3.043-1.062
		c1.2,0,2.845,0.383,4.933,1.15l1.008-8.152c-0.909,1.145-1.765,1.9-2.566,2.271c-0.801,0.369-1.859,0.555-3.176,0.555
		c-1.649,0-3.067-0.762-4.252-2.285c-1.185-1.524-1.777-3.366-1.777-5.526c0-1.729,0.769-3.36,2.305-4.896
		c1.728-1.729,3.864-2.592,6.408-2.592c1.487,0,2.771,0.443,3.852,1.332c1.176,0.959,1.764,2.195,1.764,3.707
		c0,0.912-0.218,1.596-0.652,2.053c-0.436,0.455-0.969,0.685-1.599,0.685c-0.896,0-1.487-0.36-1.778-1.08
		c-0.146-0.36-0.219-0.756-0.219-1.188c0-0.479,0.097-0.814,0.288-1.008c0.48-0.552,1.008-0.828,1.584-0.828
		c0.145,0,0.276,0.024,0.396,0.072c0.121,0.049,0.229,0.108,0.324,0.18c0.048-0.191,0.071-0.322,0.071-0.396
		c0-0.743-0.359-1.44-1.08-2.088c-0.84-0.744-1.877-1.116-3.112-1.116c-1.47,0-2.561,0.795-3.271,2.383
		c-0.64,1.42-0.96,3.403-0.96,5.955c0,2.452,0.232,4.102,0.696,4.942c0.464,0.843,1.1,1.265,1.909,1.265
		c1.546,0,2.854-0.654,3.924-1.959c0.809-0.99,1.296-2.007,1.463-3.046l0.468,0.072l-1.794,13.896
		c-1.315-0.527-2.393-0.912-3.229-1.15c-1.269-0.36-2.393-0.54-3.373-0.54c-0.813,0-1.501,0.126-2.064,0.378
		c-0.562,0.252-1.011,0.689-1.346,1.312L149.136,234.602z"/>
	<path fill="#E6180A" d="M21.762,9.717c-0.721,1.561-1.482,2.694-2.286,3.402c-0.806,0.708-1.819,1.062-3.043,1.062
		c-1.2,0-2.845-0.383-4.933-1.151l-1.008,8.153c0.909-1.145,1.765-1.901,2.566-2.271c0.801-0.37,1.859-0.555,3.176-0.555
		c1.649,0,3.068,0.762,4.252,2.285c1.185,1.524,1.777,3.366,1.777,5.526c0,1.729-0.769,3.36-2.305,4.896
		c-1.728,1.728-3.863,2.592-6.408,2.592c-1.487,0-2.771-0.444-3.852-1.332c-1.176-0.96-1.764-2.196-1.764-3.708
		c0-0.912,0.218-1.596,0.652-2.052c0.436-0.456,0.969-0.685,1.599-0.685c0.896,0,1.487,0.36,1.778,1.08
		c0.146,0.36,0.219,0.756,0.219,1.188c0,0.479-0.097,0.815-0.288,1.008c-0.48,0.552-1.008,0.828-1.584,0.828
		c-0.145,0-0.276-0.024-0.396-0.072c-0.121-0.048-0.229-0.108-0.324-0.18c-0.048,0.192-0.071,0.323-0.071,0.396
		c0,0.744,0.359,1.44,1.08,2.088c0.84,0.744,1.877,1.116,3.112,1.116c1.47,0,2.561-0.794,3.271-2.382
		c0.64-1.42,0.96-3.404,0.96-5.955c0-2.453-0.232-4.102-0.696-4.943c-0.464-0.843-1.1-1.264-1.909-1.264
		c-1.546,0-2.854,0.653-3.924,1.958c-0.809,0.991-1.296,2.007-1.463,3.046l-0.468-0.072L11.28,9.826
		c1.316,0.528,2.393,0.912,3.229,1.151c1.269,0.36,2.393,0.54,3.373,0.54c0.813,0,1.501-0.126,2.064-0.378
		c0.562-0.252,1.011-0.689,1.346-1.313L21.762,9.717z"/>
</g>
</svg>
