<?xml version="1.0" encoding="utf-8"?>
<!-- Generator: Adobe Illustrator 16.0.0, SVG Export Plug-In . SVG Version: 6.00 Build 0)  -->
<!DOCTYPE svg PUBLIC "-//W3C//DTD SVG 1.1//EN" "http://www.w3.org/Graphics/SVG/1.1/DTD/svg11.dtd">
<svg version="1.1" id="Layer_1" xmlns="http://www.w3.org/2000/svg" xmlns:xlink="http://www.w3.org/1999/xlink" x="0px" y="0px"
	 width="171.512px" height="247.046px" viewBox="0 0 171.512 247.046" enable-background="new 0 0 171.512 247.046"
	 xml:space="preserve">
<g>
	<path fill="#FFFFFF" d="M9.367,245.8c-4.476,0-8.117-3.641-8.117-8.117V9.368c0-4.476,3.643-8.118,8.117-8.118h152.788
		c4.471,0,8.107,3.642,8.107,8.118v228.315c0,4.477-3.638,8.117-8.107,8.117H9.367z"/>
	<path fill="#D4D4D4" d="M162.155,2.5c3.769,0,6.857,3.089,6.857,6.868v228.315c0,3.777-3.09,6.867-6.857,6.867H9.367
		c-3.778,0-6.867-3.09-6.867-6.867V9.368C2.5,5.589,5.589,2.5,9.367,2.5H162.155 M162.155,0H9.367C4.202,0,0,4.202,0,9.368v228.315
		c0,5.165,4.202,9.367,9.367,9.367h152.788c5.16,0,9.357-4.202,9.357-9.367V9.368C171.513,4.202,167.315,0,162.155,0z"/>
	<path fill="#E6180A" d="M16.154,52.634c2.56,0,5.118,0,7.678,0c-0.875-0.039-1.618-0.604-2.32-1.072
		c-1.578-1.191-3.058-2.556-4.226-4.154c-0.545-0.804-1.117-1.708-1.132-2.711 M23.832,52.634c-1.108,0.035-2.058,0.741-2.902,1.393
		c-1.494,1.254-2.788,2.747-3.88,4.362c-0.4,0.669-0.873,1.377-0.896,2.182c0-2.646,0-5.291,0-7.937 M16.154,60.571
		c-0.037-1.182-0.757-2.205-1.438-3.119c-1.211-1.51-2.646-2.845-4.226-3.961c-0.614-0.383-1.266-0.838-2.014-0.857
		c2.56,0,5.117,0,7.677,0 M8.478,52.634c1.108-0.035,2.058-0.741,2.902-1.392c1.494-1.255,2.788-2.748,3.879-4.363
		c0.401-0.669,0.873-1.377,0.896-2.182c0,2.646,0,5.291,0,7.937"/>
	<path fill="#E6180A" d="M156.373,193.419c-2.56,0-5.118,0-7.678,0c0.875,0.039,1.618,0.604,2.321,1.072
		c1.578,1.19,3.057,2.555,4.225,4.153c0.545,0.804,1.117,1.708,1.132,2.711 M148.695,193.419c1.109-0.035,2.058-0.741,2.903-1.394
		c1.493-1.254,2.788-2.747,3.879-4.362c0.4-0.668,0.873-1.377,0.896-2.182c0,2.646,0,5.291,0,7.938 M156.373,185.482
		c0.037,1.182,0.757,2.205,1.438,3.119c1.211,1.51,2.646,2.845,4.226,3.962c0.614,0.383,1.267,0.838,2.014,0.856
		c-2.56,0-5.117,0-7.677,0 M164.05,193.419c-1.108,0.035-2.058,0.74-2.902,1.392c-1.494,1.255-2.788,2.748-3.879,4.362
		c-0.401,0.67-0.873,1.377-0.896,2.183c0-2.646,0-5.291,0-7.937"/>
	<path fill="#E6180A" d="M46.348,39.247c6.143,0,12.283,0,18.426,0c-2.1-0.093-3.885-1.451-5.571-2.574
		c-3.788-2.857-7.336-6.135-10.139-9.969c-1.309-1.929-2.682-4.098-2.716-6.506 M64.773,39.247
		c-2.663,0.084-4.938,1.779-6.967,3.342c-3.587,3.011-6.691,6.593-9.312,10.47c-0.962,1.605-2.095,3.306-2.146,5.237
		c0-6.351,0-12.699,0-19.049 M46.348,58.296c-0.092-2.836-1.818-5.292-3.449-7.485c-2.908-3.623-6.354-6.828-10.145-9.508
		c-1.474-0.919-3.037-2.012-4.832-2.056c6.143,0,12.283,0,18.426,0 M27.923,39.247c2.663-0.083,4.938-1.777,6.968-3.339
		c3.587-3.013,6.69-6.595,9.312-10.472c0.962-1.605,2.093-3.306,2.146-5.237c0,6.351,0,12.699,0,19.049"/>
	<path fill="#E6180A" d="M46.348,93.383c6.143,0,12.283,0,18.426,0c-2.1-0.093-3.885-1.451-5.571-2.574
		c-3.788-2.858-7.336-6.135-10.139-9.969c-1.309-1.929-2.682-4.098-2.716-6.506 M64.773,93.383
		c-2.663,0.084-4.938,1.779-6.967,3.342c-3.587,3.011-6.691,6.593-9.312,10.47c-0.962,1.605-2.095,3.306-2.146,5.237
		c0-6.35,0-12.698,0-19.049 M46.348,112.432c-0.092-2.835-1.818-5.292-3.449-7.485c-2.908-3.623-6.354-6.828-10.145-9.508
		c-1.474-0.919-3.037-2.012-4.832-2.056c6.143,0,12.283,0,18.426,0 M27.923,93.383c2.663-0.084,4.938-1.778,6.968-3.339
		c3.587-3.013,6.69-6.595,9.312-10.472c0.962-1.605,2.093-3.306,2.146-5.237c0,6.351,0,12.699,0,19.049"/>
	<path fill="#E6180A" d="M46.348,148.522c-6.143,0-12.283,0-18.426,0c2.1,0.093,3.885,1.451,5.571,2.574
		c3.788,2.858,7.336,6.135,10.139,9.969c1.308,1.929,2.682,4.099,2.716,6.506 M27.923,148.522c2.663-0.084,4.938-1.778,6.968-3.342
		c3.587-3.011,6.69-6.593,9.312-10.47c0.962-1.604,2.094-3.307,2.146-5.237c0,6.351,0,12.698,0,19.049 M46.348,129.474
		c0.092,2.835,1.818,5.292,3.449,7.484c2.908,3.623,6.354,6.828,10.145,9.508c1.473,0.92,3.037,2.013,4.832,2.057
		c-6.143,0-12.283,0-18.426,0 M64.773,148.522c-2.663,0.084-4.938,1.778-6.967,3.339c-3.587,3.014-6.691,6.596-9.312,10.473
		c-0.962,1.604-2.093,3.306-2.146,5.236c0-6.351,0-12.699,0-19.049"/>
	<path fill="#E6180A" d="M46.348,202.66c-6.143,0-12.283,0-18.426,0c2.1,0.092,3.885,1.45,5.571,2.573
		c3.788,2.856,7.336,6.136,10.139,9.97c1.308,1.928,2.682,4.098,2.716,6.506 M27.923,202.66c2.663-0.084,4.938-1.779,6.968-3.343
		c3.587-3.011,6.69-6.593,9.312-10.47c0.962-1.605,2.094-3.307,2.146-5.237c0,6.351,0,12.699,0,19.05 M46.348,183.609
		c0.092,2.836,1.818,5.292,3.449,7.484c2.908,3.623,6.354,6.828,10.145,9.509c1.473,0.919,3.037,2.012,4.832,2.056
		c-6.143,0-12.283,0-18.426,0 M64.773,202.66c-2.663,0.084-4.938,1.776-6.967,3.338c-3.587,3.014-6.691,6.596-9.312,10.473
		c-0.962,1.605-2.093,3.306-2.146,5.236c0-6.351,0-12.699,0-19.049"/>
	<path fill="#E6180A" d="M126.176,39.247c6.143,0,12.283,0,18.427,0c-2.1-0.093-3.886-1.451-5.571-2.574
		c-3.788-2.857-7.337-6.135-10.139-9.969c-1.309-1.929-2.682-4.098-2.717-6.506 M144.602,39.247
		c-2.664,0.084-4.938,1.779-6.969,3.342c-3.587,3.011-6.689,6.593-9.311,10.47c-0.962,1.605-2.095,3.306-2.147,5.237
		c0-6.351,0-12.699,0-19.049 M126.176,58.296c-0.091-2.836-1.817-5.292-3.449-7.485c-2.907-3.623-6.354-6.828-10.145-9.508
		c-1.473-0.919-3.037-2.012-4.831-2.056c6.143,0,12.283,0,18.425,0 M107.751,39.247c2.663-0.083,4.938-1.777,6.967-3.339
		c3.588-3.013,6.691-6.595,9.312-10.472c0.962-1.605,2.094-3.306,2.146-5.237c0,6.351,0,12.699,0,19.049"/>
	<path fill="#E6180A" d="M126.176,93.383c6.143,0,12.283,0,18.427,0c-2.1-0.093-3.886-1.451-5.571-2.574
		c-3.788-2.858-7.337-6.135-10.139-9.969c-1.309-1.929-2.682-4.098-2.717-6.506 M144.602,93.383
		c-2.664,0.084-4.938,1.779-6.969,3.342c-3.587,3.011-6.689,6.593-9.311,10.47c-0.962,1.605-2.095,3.306-2.147,5.237
		c0-6.35,0-12.698,0-19.049 M126.176,112.432c-0.091-2.835-1.817-5.292-3.449-7.485c-2.907-3.623-6.354-6.828-10.145-9.508
		c-1.473-0.919-3.037-2.012-4.831-2.056c6.143,0,12.283,0,18.425,0 M107.751,93.383c2.663-0.084,4.938-1.778,6.967-3.339
		c3.588-3.013,6.691-6.595,9.312-10.472c0.962-1.605,2.094-3.306,2.146-5.237c0,6.351,0,12.699,0,19.049"/>
	<path fill="#E6180A" d="M126.176,148.522c-6.142,0-12.282,0-18.425,0c2.1,0.093,3.884,1.451,5.57,2.574
		c3.788,2.858,7.337,6.135,10.139,9.969c1.309,1.929,2.683,4.099,2.716,6.506 M107.751,148.522c2.663-0.084,4.938-1.778,6.967-3.342
		c3.588-3.011,6.691-6.593,9.312-10.47c0.962-1.604,2.094-3.307,2.146-5.237c0,6.351,0,12.698,0,19.049 M126.176,129.474
		c0.093,2.835,1.818,5.292,3.45,7.484c2.907,3.623,6.354,6.828,10.145,9.508c1.473,0.92,3.037,2.013,4.832,2.057
		c-6.144,0-12.284,0-18.427,0 M144.602,148.522c-2.663,0.084-4.938,1.778-6.969,3.339c-3.586,3.014-6.689,6.596-9.311,10.473
		c-0.962,1.604-2.093,3.306-2.147,5.236c0-6.351,0-12.699,0-19.049"/>
	<path fill="#E6180A" d="M126.176,202.66c-6.142,0-12.282,0-18.425,0c2.1,0.092,3.884,1.45,5.57,2.573
		c3.788,2.856,7.337,6.136,10.139,9.97c1.309,1.928,2.683,4.098,2.716,6.506 M107.751,202.66c2.663-0.084,4.938-1.779,6.967-3.343
		c3.588-3.011,6.691-6.593,9.312-10.47c0.962-1.605,2.094-3.307,2.146-5.237c0,6.351,0,12.699,0,19.05 M126.176,183.609
		c0.093,2.836,1.818,5.292,3.45,7.484c2.907,3.623,6.354,6.828,10.145,9.509c1.473,0.919,3.037,2.012,4.832,2.056
		c-6.144,0-12.284,0-18.427,0 M144.602,202.66c-2.663,0.084-4.938,1.776-6.969,3.338c-3.586,3.014-6.689,6.596-9.311,10.473
		c-0.962,1.605-2.093,3.306-2.147,5.236c0-6.351,0-12.699,0-19.049"/>
	<path fill="#E6180A" d="M86.262,66.315c6.143,0,12.283,0,18.426,0c-2.1-0.094-3.885-1.452-5.571-2.574
		c-3.788-2.858-7.336-6.135-10.139-9.969c-1.309-1.929-2.682-4.098-2.716-6.506 M104.688,66.315
		c-2.663,0.084-4.938,1.778-6.967,3.342c-3.588,3.011-6.691,6.593-9.312,10.47c-0.962,1.605-2.095,3.306-2.146,5.237
		c0-6.351,0-12.699,0-19.049 M86.262,85.364c-0.092-2.836-1.818-5.292-3.449-7.485c-2.908-3.623-6.354-6.828-10.145-9.508
		c-1.474-0.918-3.037-2.012-4.832-2.056c6.143,0,12.283,0,18.426,0 M67.837,66.315c2.663-0.084,4.938-1.778,6.968-3.34
		c3.587-3.013,6.69-6.595,9.312-10.472c0.962-1.605,2.093-3.306,2.146-5.237c0,6.351,0,12.699,0,19.049"/>
	<path fill="#E6180A" d="M86.262,175.589c-6.143,0-12.283,0-18.426,0c2.1,0.095,3.885,1.453,5.57,2.574
		c3.788,2.858,7.337,6.135,10.139,9.969c1.309,1.93,2.683,4.099,2.717,6.507 M67.837,175.589c2.663-0.084,4.938-1.777,6.968-3.342
		c3.587-3.011,6.69-6.593,9.312-10.47c0.962-1.604,2.094-3.306,2.146-5.237c0,6.352,0,12.699,0,19.049 M86.262,156.542
		c0.092,2.836,1.817,5.291,3.449,7.484c2.907,3.623,6.354,6.828,10.145,9.508c1.473,0.918,3.037,2.012,4.832,2.057
		c-6.144,0-12.284,0-18.426,0 M104.688,175.589c-2.663,0.084-4.938,1.779-6.968,3.341c-3.587,3.013-6.69,6.595-9.312,10.472
		c-0.962,1.605-2.093,3.307-2.146,5.237c0-6.351,0-12.699,0-19.05"/>
	<path fill="#E6180A" d="M166.335,232.55c-2.082,0-3.502,0.138-4.26,0.414c-0.758,0.274-1.455,0.822-2.092,1.638h-0.361v-21.165
		c0-0.697-0.035-1.143-0.104-1.334c-0.035-0.098-0.152-0.199-0.353-0.307c-0.196-0.108-0.553-0.199-1.062-0.271
		c-0.51-0.072-1.076-0.107-1.697-0.107v-0.324h9.928v0.324c-0.742,0-1.387,0.035-1.932,0.107s-0.916,0.163-1.115,0.271
		c-0.197,0.107-0.328,0.24-0.389,0.396c-0.062,0.157-0.09,0.572-0.09,1.247v16.763c0,0.65,0.047,1.065,0.143,1.246
		c0.096,0.182,0.246,0.325,0.453,0.434c0.207,0.109,0.52,0.181,0.934,0.217s1.08,0.055,1.996,0.055V232.55z"/>
	<path fill="#E6180A" d="M150.03,210.77c1.436,0,2.688,1.067,3.76,3.204c1.158,2.304,1.736,5.208,1.736,8.712
		s-0.57,6.396-1.711,8.676c-1.072,2.16-2.332,3.24-3.785,3.24c-1.451,0-2.713-1.067-3.783-3.204
		c-1.158-2.304-1.736-5.208-1.736-8.712s0.558-6.366,1.673-8.586C147.296,211.88,148.579,210.77,150.03,210.77z M150.03,211.093
		c-0.689,0-1.209,0.971-1.555,2.912c-0.347,1.94-0.519,4.841-0.519,8.699c0,3.713,0.025,6.026,0.076,6.938
		c0.174,3.091,0.84,4.637,1.996,4.637c0.674,0,1.184-0.965,1.529-2.895c0.346-1.928,0.52-4.822,0.52-8.68
		c0-3.738-0.024-6.063-0.078-6.974C151.829,212.64,151.171,211.093,150.03,211.093z"/>
	<path fill="#E6180A" d="M6.012,11.877c2.081,0,3.502-0.138,4.26-0.414c0.758-0.275,1.455-0.822,2.092-1.638h0.361V30.99
		c0,0.697,0.034,1.142,0.104,1.334c0.035,0.097,0.152,0.199,0.353,0.307c0.196,0.108,0.553,0.199,1.062,0.271
		c0.51,0.072,1.076,0.108,1.697,0.108v0.324H6.012V33.01c0.741,0,1.387-0.036,1.932-0.108c0.545-0.072,0.916-0.163,1.115-0.271
		c0.196-0.108,0.328-0.241,0.389-0.397c0.061-0.157,0.09-0.572,0.09-1.247V14.224c0-0.65-0.047-1.065-0.143-1.246
		c-0.097-0.181-0.246-0.325-0.453-0.434c-0.207-0.108-0.521-0.18-0.935-0.216s-1.079-0.055-1.995-0.055V11.877z"/>
	<path fill="#E6180A" d="M22.316,33.658c-1.437,0-2.688-1.068-3.76-3.204c-1.158-2.304-1.736-5.208-1.736-8.712
		c0-3.504,0.57-6.396,1.711-8.676c1.072-2.16,2.332-3.24,3.785-3.24c1.451,0,2.713,1.068,3.783,3.204
		c1.157,2.304,1.735,5.208,1.735,8.712c0,3.504-0.557,6.366-1.672,8.586C25.051,32.548,23.768,33.658,22.316,33.658z M22.316,33.333
		c0.688,0,1.209-0.97,1.555-2.912c0.346-1.94,0.519-4.84,0.519-8.698c0-3.714-0.025-6.027-0.076-6.938
		c-0.174-3.091-0.84-4.637-1.996-4.637c-0.674,0-1.185,0.965-1.529,2.894c-0.346,1.929-0.52,4.823-0.52,8.681
		c0,3.738,0.024,6.063,0.078,6.973C20.518,31.788,21.176,33.333,22.316,33.333z"/>
</g>
</svg>
