<?xml version="1.0" encoding="utf-8"?>
<!-- Generator: Adobe Illustrator 16.0.0, SVG Export Plug-In . SVG Version: 6.00 Build 0)  -->
<!DOCTYPE svg PUBLIC "-//W3C//DTD SVG 1.1//EN" "http://www.w3.org/Graphics/SVG/1.1/DTD/svg11.dtd">
<svg version="1.1" id="Layer_1" xmlns="http://www.w3.org/2000/svg" xmlns:xlink="http://www.w3.org/1999/xlink" x="0px" y="0px"
	 width="171.512px" height="247.046px" viewBox="0 0 171.512 247.046" enable-background="new 0 0 171.512 247.046"
	 xml:space="preserve">
<g>
	<path fill="#FFFFFF" d="M9.367,245.8c-4.476,0-8.117-3.641-8.117-8.117V9.368c0-4.476,3.642-8.118,8.117-8.118h152.788
		c4.47,0,8.107,3.642,8.107,8.118v228.315c0,4.477-3.638,8.117-8.107,8.117H9.367z"/>
	<path fill="#D4D4D4" d="M162.155,2.5c3.769,0,6.857,3.089,6.857,6.868v228.315c0,3.777-3.09,6.867-6.857,6.867H9.367
		c-3.778,0-6.867-3.09-6.867-6.867V9.368C2.5,5.589,5.589,2.5,9.367,2.5H162.155 M162.155,0H9.367C4.202,0,0,4.202,0,9.368v228.315
		c0,5.165,4.202,9.367,9.367,9.367h152.788c5.16,0,9.357-4.202,9.357-9.367V9.368C171.513,4.202,167.315,0,162.155,0z"/>
	<path fill="#E6180A" d="M16.145,52.634c2.56,0,5.118,0,7.678,0c-0.875-0.039-1.618-0.604-2.321-1.072
		c-1.578-1.191-3.057-2.556-4.225-4.154c-0.545-0.804-1.117-1.708-1.132-2.711 M23.822,52.634c-1.109,0.035-2.058,0.741-2.903,1.393
		c-1.494,1.254-2.788,2.747-3.879,4.362c-0.4,0.669-0.873,1.377-0.896,2.182c0-2.646,0-5.291,0-7.937 M16.145,60.571
		c-0.038-1.182-0.758-2.205-1.438-3.119c-1.211-1.51-2.646-2.845-4.226-3.961c-0.614-0.383-1.267-0.838-2.015-0.857
		c2.56,0,5.118,0,7.678,0 M8.468,52.634c1.109-0.035,2.059-0.741,2.903-1.392c1.494-1.255,2.787-2.748,3.879-4.363
		c0.401-0.669,0.872-1.377,0.896-2.182c0,2.646,0,5.291,0,7.937"/>
	<path fill="#E6180A" d="M156.368,193.419c-2.56,0-5.118,0-7.678,0c0.875,0.039,1.618,0.604,2.321,1.072
		c1.577,1.19,3.057,2.555,4.225,4.153c0.545,0.804,1.117,1.708,1.132,2.711 M148.69,193.419c1.108-0.035,2.058-0.741,2.902-1.394
		c1.494-1.254,2.788-2.747,3.88-4.362c0.4-0.668,0.873-1.377,0.896-2.182c0,2.646,0,5.291,0,7.938 M156.368,185.482
		c0.037,1.182,0.757,2.205,1.438,3.119c1.211,1.51,2.646,2.845,4.226,3.962c0.614,0.383,1.266,0.838,2.014,0.856
		c-2.56,0-5.117,0-7.677,0 M164.045,193.419c-1.108,0.035-2.058,0.74-2.902,1.392c-1.494,1.255-2.787,2.748-3.879,4.362
		c-0.401,0.67-0.872,1.377-0.896,2.183c0-2.646,0-5.291,0-7.937"/>
	<path fill="#E6180A" d="M46.342,39.247c6.143,0,12.283,0,18.426,0c-2.099-0.093-3.885-1.451-5.57-2.574
		c-3.788-2.857-7.337-6.135-10.139-9.969c-1.309-1.929-2.683-4.098-2.717-6.506 M64.767,39.247
		c-2.662,0.084-4.938,1.779-6.968,3.342c-3.587,3.011-6.69,6.593-9.311,10.47c-0.962,1.605-2.095,3.306-2.147,5.237
		c0-6.351,0-12.699,0-19.049 M46.342,58.296c-0.091-2.836-1.817-5.292-3.449-7.485c-2.907-3.623-6.354-6.828-10.145-9.508
		c-1.473-0.919-3.037-2.012-4.831-2.056c6.143,0,12.283,0,18.425,0 M27.917,39.247c2.663-0.083,4.938-1.777,6.967-3.339
		c3.588-3.013,6.691-6.595,9.312-10.472c0.962-1.605,2.094-3.306,2.146-5.237c0,6.351,0,12.699,0,19.049"/>
	<path fill="#E6180A" d="M46.342,202.66c-6.142,0-12.282,0-18.425,0c2.1,0.092,3.884,1.45,5.57,2.573
		c3.788,2.856,7.337,6.136,10.139,9.97c1.309,1.928,2.683,4.098,2.716,6.506 M27.917,202.66c2.663-0.084,4.938-1.779,6.967-3.343
		c3.588-3.011,6.691-6.593,9.312-10.47c0.962-1.605,2.095-3.307,2.146-5.237c0,6.351,0,12.699,0,19.05 M46.342,183.609
		c0.092,2.836,1.818,5.292,3.45,7.484c2.907,3.623,6.354,6.828,10.145,9.509c1.473,0.919,3.037,2.012,4.831,2.056
		c-6.143,0-12.283,0-18.426,0 M64.767,202.66c-2.662,0.084-4.938,1.776-6.968,3.338c-3.587,3.014-6.69,6.596-9.311,10.473
		c-0.962,1.605-2.094,3.306-2.147,5.236c0-6.351,0-12.699,0-19.049"/>
	<path fill="#E6180A" d="M126.17,39.247c6.143,0,12.283,0,18.426,0c-2.1-0.093-3.885-1.451-5.57-2.574
		c-3.789-2.857-7.337-6.135-10.14-9.969c-1.308-1.929-2.682-4.098-2.716-6.506 M144.595,39.247
		c-2.663,0.084-4.938,1.779-6.968,3.342c-3.587,3.011-6.69,6.593-9.312,10.47c-0.962,1.605-2.094,3.306-2.146,5.237
		c0-6.351,0-12.699,0-19.049 M126.17,58.296c-0.092-2.836-1.817-5.292-3.449-7.485c-2.908-3.623-6.354-6.828-10.145-9.508
		c-1.473-0.919-3.037-2.012-4.832-2.056c6.143,0,12.284,0,18.426,0 M107.744,39.247c2.663-0.083,4.938-1.777,6.968-3.339
		c3.586-3.013,6.69-6.595,9.312-10.472c0.962-1.605,2.093-3.306,2.146-5.237c0,6.351,0,12.699,0,19.049"/>
	<path fill="#E6180A" d="M126.17,202.66c-6.142,0-12.282,0-18.425,0c2.098,0.092,3.884,1.45,5.57,2.573
		c3.788,2.856,7.336,6.136,10.139,9.97c1.309,1.928,2.683,4.098,2.716,6.506 M107.745,202.66c2.662-0.084,4.938-1.779,6.967-3.343
		c3.586-3.011,6.69-6.593,9.312-10.47c0.962-1.605,2.095-3.307,2.146-5.237c0,6.351,0,12.699,0,19.05 M126.17,183.609
		c0.092,2.836,1.818,5.292,3.45,7.484c2.907,3.623,6.354,6.828,10.144,9.509c1.474,0.919,3.037,2.012,4.832,2.056
		c-6.143,0-12.283,0-18.426,0 M144.595,202.66c-2.663,0.084-4.938,1.776-6.968,3.338c-3.587,3.014-6.69,6.596-9.311,10.473
		c-0.963,1.605-2.094,3.306-2.147,5.236c0-6.351,0-12.699,0-19.049"/>
	<path fill="#E6180A" d="M151.836,217.394v-3.947c0-0.701-0.048-1.146-0.144-1.341c-0.048-0.097-0.21-0.198-0.486-0.308
		c-0.275-0.109-0.726-0.199-1.35-0.271s-1.188-0.107-1.692-0.107v-0.36h12.204v0.36c-0.887,0-1.697,0.035-2.43,0.107
		s-1.236,0.162-1.513,0.271c-0.274,0.107-0.455,0.24-0.539,0.397c-0.083,0.157-0.127,0.573-0.127,1.25v3.947h7.345l-10.656,16.884
		h-0.612v-15.624h-3.672v-1.26L151.836,217.394L151.836,217.394z M155.76,218.654v9.686l6.049-9.686H155.76z"/>
	<path fill="#E6180A" d="M18.739,26.998v3.947c0,0.701,0.048,1.147,0.144,1.341c0.049,0.097,0.21,0.199,0.486,0.308
		c0.276,0.109,0.727,0.199,1.351,0.271c0.623,0.072,1.188,0.108,1.691,0.108v0.36H10.207v-0.36c0.887,0,1.697-0.036,2.431-0.108
		c0.731-0.072,1.235-0.162,1.512-0.271c0.274-0.108,0.456-0.241,0.54-0.398c0.083-0.157,0.126-0.573,0.126-1.25v-3.947H7.471
		l10.655-16.884h0.612v15.624h3.672v1.26L18.739,26.998L18.739,26.998z M14.815,25.738v-9.685l-6.048,9.685H14.815z"/>
</g>
</svg>
