<?xml version="1.0" encoding="utf-8"?>
<!-- Generator: Adobe Illustrator 16.0.0, SVG Export Plug-In . SVG Version: 6.00 Build 0)  -->
<!DOCTYPE svg PUBLIC "-//W3C//DTD SVG 1.1//EN" "http://www.w3.org/Graphics/SVG/1.1/DTD/svg11.dtd">
<svg version="1.1" id="Layer_1" xmlns="http://www.w3.org/2000/svg" xmlns:xlink="http://www.w3.org/1999/xlink" x="0px" y="0px"
	 width="171.512px" height="247.046px" viewBox="0 0 171.512 247.046" enable-background="new 0 0 171.512 247.046"
	 xml:space="preserve">
<g>
	<path fill="#FFFFFF" d="M9.367,245.8c-4.476,0-8.117-3.641-8.117-8.117V9.368c0-4.476,3.642-8.118,8.117-8.118h152.789
		c4.47,0,8.107,3.642,8.107,8.118v228.315c0,4.477-3.638,8.117-8.107,8.117H9.367z"/>
	<path fill="#D4D4D4" d="M162.156,2.5c3.769,0,6.857,3.089,6.857,6.868v228.315c0,3.777-3.09,6.867-6.857,6.867H9.367
		c-3.778,0-6.867-3.09-6.867-6.867V9.368C2.5,5.589,5.589,2.5,9.367,2.5H162.156 M162.156,0H9.367C4.202,0,0,4.202,0,9.368v228.315
		c0,5.165,4.202,9.367,9.367,9.367h152.789c5.16,0,9.357-4.202,9.357-9.367V9.368C171.513,4.202,167.315,0,162.156,0z"/>
	<path fill="#E6180A" d="M16.145,52.634c2.559,0,5.118,0,7.677,0c-0.874-0.039-1.618-0.604-2.321-1.072
		c-1.579-1.191-3.057-2.556-4.225-4.154c-0.545-0.804-1.117-1.708-1.131-2.711 M23.822,52.634c-1.109,0.035-2.057,0.741-2.903,1.393
		c-1.494,1.254-2.788,2.747-3.879,4.362c-0.4,0.669-0.873,1.377-0.895,2.182c0-2.646,0-5.291,0-7.937 M16.145,60.571
		c-0.038-1.182-0.758-2.205-1.438-3.119c-1.212-1.51-2.646-2.845-4.227-3.961c-0.614-0.383-1.267-0.838-2.014-0.857
		c2.56,0,5.118,0,7.678,0 M8.468,52.634c1.109-0.035,2.058-0.741,2.903-1.392c1.495-1.255,2.788-2.748,3.879-4.363
		c0.401-0.669,0.873-1.377,0.896-2.182c0,2.646,0,5.291,0,7.937"/>
	<path fill="#E6180A" d="M156.368,193.419c-2.559,0-5.118,0-7.677,0c0.875,0.039,1.619,0.604,2.321,1.072
		c1.578,1.19,3.057,2.555,4.225,4.153c0.544,0.804,1.117,1.708,1.131,2.711 M148.69,193.419c1.109-0.035,2.057-0.741,2.902-1.394
		c1.495-1.254,2.788-2.747,3.881-4.362c0.4-0.668,0.873-1.377,0.895-2.182c0,2.646,0,5.291,0,7.938 M156.368,185.482
		c0.038,1.182,0.758,2.205,1.438,3.119c1.211,1.51,2.646,2.845,4.227,3.962c0.614,0.383,1.266,0.838,2.013,0.856
		c-2.559,0-5.117,0-7.677,0 M164.045,193.419c-1.109,0.035-2.057,0.74-2.902,1.392c-1.495,1.255-2.788,2.748-3.88,4.362
		c-0.401,0.67-0.872,1.377-0.896,2.183c0-2.646,0-5.291,0-7.937"/>
	<path fill="#E6180A" d="M86.256,116.159c6.143,0,12.284,0,18.426,0c-2.1-0.093-3.885-1.451-5.571-2.574
		c-3.788-2.858-7.336-6.135-10.139-9.969c-1.309-1.929-2.682-4.098-2.717-6.506 M104.682,116.159
		c-2.663,0.084-4.938,1.779-6.968,3.342c-3.586,3.011-6.69,6.592-9.311,10.47c-0.962,1.604-2.094,3.306-2.147,5.237
		c0-6.352,0-12.7,0-19.049 M86.256,135.208c-0.091-2.836-1.817-5.293-3.449-7.485c-2.908-3.623-6.354-6.828-10.145-9.508
		c-1.473-0.919-3.037-2.012-4.832-2.056c6.143,0,12.284,0,18.425,0 M67.831,116.159c2.663-0.084,4.938-1.778,6.967-3.339
		c3.586-3.013,6.691-6.595,9.312-10.472c0.962-1.605,2.093-3.306,2.146-5.237c0,6.351,0,12.699,0,19.049"/>
	<path fill="#E6180A" d="M152.323,218.871h6.937l1.109-3.184c0.286-0.796,0.429-1.482,0.429-2.062c0-0.892-0.336-1.531-1.008-1.916
		c-0.671-0.387-1.62-0.578-2.844-0.578v-0.36h9.144v0.36c-1.655,0-2.939,0.625-3.852,1.873c-0.504,0.697-1.152,2.141-1.944,4.328
		l-6.084,16.945h-0.72l-7.776-21.129c-0.359-0.984-0.72-1.568-1.08-1.749c-0.359-0.181-1.439-0.271-3.239-0.271v-0.359h13.283v0.359
		c-1.8,0-3.035,0.065-3.707,0.199c-0.673,0.133-1.009,0.403-1.009,0.812l0.072,0.361L152.323,218.871z M152.501,219.266l3.29,9.166
		l3.29-9.166H152.501z"/>
	<path fill="#E6180A" d="M19.652,25.234h-6.938l-1.108,3.183c-0.286,0.796-0.43,1.483-0.43,2.062c0,0.892,0.337,1.531,1.009,1.917
		c0.671,0.386,1.62,0.578,2.844,0.578v0.36H5.885v-0.36c1.656,0,2.94-0.625,3.853-1.874c0.504-0.697,1.152-2.14,1.944-4.327
		l6.084-16.946h0.72l7.776,21.129c0.359,0.985,0.72,1.569,1.079,1.749c0.36,0.18,1.44,0.27,3.24,0.27v0.36H17.297v-0.36
		c1.801,0,3.036-0.065,3.708-0.198c0.672-0.133,1.009-0.404,1.009-0.813l-0.072-0.362L19.652,25.234z M19.474,24.837l-3.29-9.166
		l-3.29,9.166H19.474z"/>
</g>
</svg>
