<?xml version="1.0" encoding="utf-8"?>
<!-- Generator: Adobe Illustrator 16.0.0, SVG Export Plug-In . SVG Version: 6.00 Build 0)  -->
<!DOCTYPE svg PUBLIC "-//W3C//DTD SVG 1.1//EN" "http://www.w3.org/Graphics/SVG/1.1/DTD/svg11.dtd">
<svg version="1.1" id="Layer_1" xmlns="http://www.w3.org/2000/svg" xmlns:xlink="http://www.w3.org/1999/xlink" x="0px" y="0px"
	 width="171.512px" height="247.046px" viewBox="0 0 171.512 247.046" enable-background="new 0 0 171.512 247.046"
	 xml:space="preserve">
<g>
	<path fill="#FFFFFF" d="M9.367,245.8c-4.476,0-8.117-3.641-8.117-8.117V9.368c0-4.476,3.642-8.118,8.117-8.118h152.789
		c4.47,0,8.107,3.642,8.107,8.118v228.315c0,4.477-3.638,8.117-8.107,8.117H9.367z"/>
	<path fill="#D4D4D4" d="M162.156,2.5c3.769,0,6.857,3.089,6.857,6.868v228.315c0,3.777-3.09,6.867-6.857,6.867H9.367
		c-3.778,0-6.867-3.09-6.867-6.867V9.368C2.5,5.589,5.589,2.5,9.367,2.5H162.156 M162.156,0H9.367C4.202,0,0,4.202,0,9.368v228.315
		c0,5.165,4.202,9.367,9.367,9.367h152.789c5.16,0,9.357-4.202,9.357-9.367V9.368C171.513,4.202,167.315,0,162.156,0z"/>
	<path fill="#E6180A" d="M23.812,48.705c-0.011,4.708-5.908,8.137-7.638,11.865c-1.75-3.718-7.656-7.117-7.696-11.825
		c-0.011-2.219,1.709-4.029,3.818-4.029c2.119,0,3.85,1.79,3.85,4.009c0-2.229,1.709-4.029,3.817-4.029
		C22.083,44.687,23.802,46.486,23.812,48.705z"/>
	<path fill="#E6180A" d="M148.701,197.348c0.01-4.708,5.908-8.138,7.637-11.865c1.749,3.72,7.657,7.117,7.697,11.825
		c0.01,2.22-1.709,4.027-3.818,4.027c-2.118,0-3.849-1.789-3.849-4.008c0,2.229-1.709,4.028-3.818,4.028
		C150.43,201.367,148.71,199.567,148.701,197.348z"/>
	<path fill="#E6180A" d="M67.854,212.087c0.023-11.299,14.179-19.528,18.329-28.478c4.197,8.925,18.377,17.082,18.473,28.382
		c0.024,5.325-4.103,9.668-9.165,9.668c-5.086,0-9.237-4.293-9.237-9.619c0,5.35-4.103,9.668-9.165,9.668
		C72.005,221.732,67.878,217.414,67.854,212.087z"/>
	<path fill="#E6180A" d="M104.657,29.818c-0.024,11.3-14.179,19.529-18.33,28.477c-4.198-8.924-18.377-17.081-18.473-28.381
		c-0.024-5.326,4.103-9.668,9.165-9.668c5.086,0,9.235,4.294,9.235,9.62c0-5.35,4.104-9.668,9.165-9.668
		C100.506,20.173,104.632,24.492,104.657,29.818z"/>
	<path fill="#E6180A" d="M149.568,219.394v-1.477c0-0.961,0.042-1.807,0.126-2.537c0.084-0.732,0.271-1.363,0.56-1.892
		c0.386-0.72,0.85-1.254,1.391-1.602c0.541-0.349,1.125-0.522,1.751-0.522c0.746,0,1.443,0.204,2.094,0.612
		c0.65,0.407,1.204,0.96,1.661,1.655c0.649,1.009,1.107,1.621,1.372,1.836c0.337,0.289,0.854,0.433,1.553,0.433
		c0.385,0,0.746-0.276,1.083-0.828c0.434-0.72,0.65-1.728,0.65-3.022h0.611c0,3.096-0.686,5.423-2.06,6.982
		c-0.747,0.864-1.999,1.668-3.758,2.412c-1.229,0.529-2.145,1.396-2.747,2.6s-0.903,2.586-0.903,4.15
		c0,1.371,0.253,2.743,0.759,4.115c0.411,1.107,0.881,1.829,1.412,2.166c0.386,0.24,0.952,0.361,1.7,0.361
		c1.447,0,2.653-0.773,3.617-2.318c0.84-1.352,1.26-2.751,1.26-4.198c0-0.288-0.012-0.491-0.036-0.612
		c-0.118,0.336-0.278,0.588-0.479,0.758c-0.201,0.166-0.443,0.252-0.729,0.252c-0.354,0-0.675-0.139-0.96-0.414
		c-0.284-0.276-0.485-0.69-0.604-1.242c-0.049-0.168-0.072-0.396-0.072-0.684c0-0.648,0.179-1.201,0.535-1.656
		c0.356-0.456,0.797-0.686,1.319-0.686c0.263,0,0.487,0.049,0.678,0.146c0.428,0.216,0.755,0.61,0.98,1.188
		c0.227,0.576,0.339,1.271,0.339,2.088c0,1.871-0.516,3.563-1.548,5.076c-1.224,1.775-2.844,2.664-4.859,2.664
		c-2.593,0-4.523-1.009-5.797-3.023c-0.936-1.488-1.403-3.217-1.403-5.186c0-1.584,0.336-2.796,1.008-3.636
		c0.744-0.937,1.992-1.597,3.744-1.979c2.688-0.601,4.5-1.271,5.436-2.017c0.937-0.745,1.598-1.776,1.98-3.096
		c-0.192,0.167-0.481,0.252-0.867,0.252c-0.168,0-1.456-0.31-3.864-0.925c-1.154-0.297-2.154-0.443-2.998-0.443
		c-0.169,0-0.354,0.006-0.56,0.018c-0.205,0.014-0.488,0.056-0.851,0.129c-0.817,0.168-1.384,0.557-1.696,1.162
		c-0.217,0.435-0.325,1.063-0.325,1.887c0.023,0.509,0.036,0.884,0.036,1.125L149.568,219.394z"/>
	<path fill="#E6180A" d="M21.474,26.225v1.477c0,0.96-0.042,1.806-0.126,2.537c-0.084,0.732-0.271,1.363-0.561,1.891
		c-0.385,0.72-0.849,1.254-1.39,1.602s-1.125,0.522-1.751,0.522c-0.746,0-1.444-0.204-2.094-0.612
		c-0.65-0.408-1.204-0.96-1.661-1.656c-0.65-1.008-1.108-1.62-1.372-1.836c-0.337-0.288-0.854-0.432-1.554-0.432
		c-0.385,0-0.745,0.276-1.083,0.828c-0.434,0.72-0.649,1.728-0.649,3.023H8.622c0-3.096,0.687-5.423,2.061-6.983
		c0.747-0.864,1.999-1.668,3.758-2.412c1.229-0.529,2.144-1.396,2.747-2.599c0.602-1.203,0.902-2.587,0.902-4.151
		c0-1.371-0.253-2.743-0.759-4.115c-0.411-1.107-0.881-1.829-1.412-2.166c-0.386-0.24-0.952-0.361-1.7-0.361
		c-1.446,0-2.652,0.773-3.616,2.318c-0.84,1.352-1.261,2.751-1.261,4.198c0,0.288,0.013,0.492,0.036,0.612
		c0.118-0.336,0.278-0.588,0.48-0.757c0.201-0.167,0.442-0.252,0.728-0.252c0.355,0,0.676,0.139,0.96,0.414
		c0.284,0.276,0.485,0.69,0.604,1.242c0.048,0.168,0.072,0.396,0.072,0.684c0,0.648-0.18,1.201-0.535,1.656
		c-0.357,0.456-0.797,0.685-1.32,0.685c-0.262,0-0.487-0.048-0.677-0.145c-0.428-0.216-0.755-0.611-0.981-1.188
		c-0.226-0.577-0.339-1.272-0.339-2.087c0-1.872,0.517-3.564,1.548-5.076c1.225-1.776,2.845-2.664,4.86-2.664
		c2.592,0,4.522,1.008,5.796,3.023c0.936,1.488,1.404,3.217,1.404,5.185c0,1.584-0.336,2.796-1.008,3.636
		c-0.744,0.937-1.992,1.597-3.744,1.98c-2.688,0.6-4.5,1.271-5.437,2.016c-0.936,0.745-1.597,1.776-1.979,3.096
		c0.191-0.167,0.48-0.252,0.866-0.252c0.169,0,1.456,0.309,3.864,0.925c1.155,0.296,2.155,0.443,2.998,0.443
		c0.169,0,0.355-0.006,0.561-0.018c0.205-0.013,0.487-0.055,0.85-0.128c0.818-0.169,1.384-0.557,1.697-1.162
		c0.217-0.435,0.325-1.064,0.325-1.888c-0.024-0.508-0.036-0.883-0.036-1.125L21.474,26.225z"/>
</g>
</svg>
