<?xml version="1.0" encoding="utf-8"?>
<!-- Generator: Adobe Illustrator 16.0.0, SVG Export Plug-In . SVG Version: 6.00 Build 0)  -->
<!DOCTYPE svg PUBLIC "-//W3C//DTD SVG 1.1//EN" "http://www.w3.org/Graphics/SVG/1.1/DTD/svg11.dtd">
<svg version="1.1" id="Layer_1" xmlns="http://www.w3.org/2000/svg" xmlns:xlink="http://www.w3.org/1999/xlink" x="0px" y="0px"
	 width="171.512px" height="247.046px" viewBox="0 0 171.512 247.046" enable-background="new 0 0 171.512 247.046"
	 xml:space="preserve">
<g>
	<path fill="#FFFFFF" d="M9.367,245.8c-4.476,0-8.117-3.641-8.117-8.117V9.368c0-4.476,3.642-8.118,8.117-8.118h152.789
		c4.47,0,8.107,3.642,8.107,8.118v228.315c0,4.477-3.638,8.117-8.107,8.117H9.367z"/>
	<path fill="#D4D4D4" d="M162.156,2.5c3.769,0,6.857,3.089,6.857,6.868v228.315c0,3.777-3.09,6.867-6.857,6.867H9.367
		c-3.778,0-6.867-3.09-6.867-6.867V9.368C2.5,5.589,5.589,2.5,9.367,2.5H162.156 M162.156,0H9.367C4.202,0,0,4.202,0,9.368v228.315
		c0,5.165,4.202,9.367,9.367,9.367h152.789c5.16,0,9.357-4.202,9.357-9.367V9.368C171.513,4.202,167.315,0,162.156,0z"/>
	<path fill="#E6180A" d="M23.812,48.705c-0.011,4.708-5.908,8.137-7.638,11.865c-1.75-3.718-7.656-7.117-7.696-11.825
		c-0.011-2.219,1.709-4.029,3.818-4.029c2.119,0,3.85,1.79,3.85,4.009c0-2.229,1.709-4.029,3.817-4.029
		C22.083,44.687,23.802,46.486,23.812,48.705z"/>
	<path fill="#E6180A" d="M148.701,197.348c0.01-4.708,5.908-8.138,7.637-11.865c1.749,3.72,7.657,7.117,7.697,11.825
		c0.01,2.22-1.709,4.027-3.818,4.027c-2.118,0-3.849-1.789-3.849-4.008c0,2.229-1.709,4.028-3.818,4.028
		C150.43,201.367,148.71,199.567,148.701,197.348z"/>
	<path fill="#E6180A" d="M104.658,106.73c-0.024,11.3-14.179,19.529-18.33,28.479c-4.198-8.926-18.377-17.082-18.473-28.381
		c-0.024-5.326,4.103-9.669,9.165-9.669c5.086,0,9.235,4.295,9.235,9.621c0-5.351,4.104-9.669,9.165-9.669
		C100.507,97.087,104.633,101.405,104.658,106.73z"/>
	<path fill="#E6180A" d="M152.323,219.464h6.937l1.109-3.182c0.286-0.797,0.429-1.484,0.429-2.062c0-0.893-0.336-1.531-1.008-1.917
		c-0.671-0.386-1.62-0.578-2.844-0.578v-0.36h9.144v0.36c-1.655,0-2.939,0.625-3.852,1.874c-0.504,0.697-1.152,2.14-1.944,4.326
		l-6.084,16.947h-0.72l-7.776-21.129c-0.359-0.986-0.72-1.57-1.08-1.75c-0.359-0.18-1.439-0.27-3.239-0.27v-0.36h13.283v0.36
		c-1.8,0-3.035,0.064-3.707,0.197c-0.673,0.134-1.009,0.404-1.009,0.813l0.072,0.362L152.323,219.464z M152.501,219.862l3.29,9.166
		l3.29-9.166H152.501z"/>
	<path fill="#E6180A" d="M19.652,25.83h-6.938l-1.108,3.183c-0.286,0.796-0.43,1.483-0.43,2.062c0,0.892,0.337,1.531,1.009,1.917
		c0.671,0.386,1.62,0.578,2.844,0.578v0.36H5.885v-0.36c1.656,0,2.94-0.625,3.853-1.874c0.504-0.697,1.152-2.14,1.944-4.327
		l6.084-16.946h0.72l7.776,21.129c0.359,0.985,0.72,1.569,1.079,1.749c0.36,0.18,1.44,0.27,3.24,0.27v0.36H17.297v-0.36
		c1.801,0,3.036-0.065,3.708-0.198s1.009-0.404,1.009-0.813l-0.072-0.362L19.652,25.83z M19.474,25.433l-3.29-9.166l-3.29,9.166
		H19.474z"/>
</g>
</svg>
