<?xml version="1.0" encoding="utf-8"?>
<!-- Generator: Adobe Illustrator 16.0.0, SVG Export Plug-In . SVG Version: 6.00 Build 0)  -->
<!DOCTYPE svg PUBLIC "-//W3C//DTD SVG 1.1//EN" "http://www.w3.org/Graphics/SVG/1.1/DTD/svg11.dtd">
<svg version="1.1" id="Layer_1" xmlns="http://www.w3.org/2000/svg" xmlns:xlink="http://www.w3.org/1999/xlink" x="0px" y="0px"
	 width="171.512px" height="247.046px" viewBox="0 0 171.512 247.046" enable-background="new 0 0 171.512 247.046"
	 xml:space="preserve">
<g>
	<path fill="#FFFFFF" d="M9.367,245.8c-4.476,0-8.117-3.641-8.117-8.117V9.368c0-4.476,3.643-8.118,8.117-8.118h152.788
		c4.471,0,8.107,3.642,8.107,8.118v228.315c0,4.477-3.638,8.117-8.107,8.117H9.367z"/>
	<path fill="#D4D4D4" d="M162.155,2.5c3.769,0,6.857,3.089,6.857,6.868v228.315c0,3.777-3.09,6.867-6.857,6.867H9.367
		c-3.778,0-6.867-3.09-6.867-6.867V9.368C2.5,5.589,5.589,2.5,9.367,2.5H162.155 M162.155,0H9.367C4.202,0,0,4.202,0,9.368v228.315
		c0,5.165,4.202,9.367,9.367,9.367h152.788c5.16,0,9.357-4.202,9.357-9.367V9.368C171.513,4.202,167.315,0,162.155,0z"/>
	<path fill="#E6180A" d="M23.822,48.705c-0.011,4.708-5.908,8.137-7.638,11.865c-1.749-3.718-7.657-7.117-7.697-11.825
		c-0.01-2.219,1.71-4.029,3.819-4.029c2.118,0,3.848,1.79,3.848,4.009c0-2.229,1.71-4.029,3.819-4.029
		C22.093,44.687,23.812,46.486,23.822,48.705z"/>
	<path fill="#E6180A" d="M148.705,197.348c0.011-4.708,5.908-8.138,7.638-11.865c1.749,3.72,7.657,7.117,7.697,11.825
		c0.01,2.22-1.71,4.027-3.818,4.027c-2.119,0-3.849-1.789-3.849-4.008c0,2.229-1.71,4.028-3.818,4.028
		C150.435,201.367,148.716,199.567,148.705,197.348z"/>
	<path fill="#E6180A" d="M64.749,29.818c-0.022,11.3-14.179,19.529-18.329,28.477c-4.197-8.924-18.377-17.081-18.473-28.381
		c-0.024-5.326,4.102-9.668,9.164-9.668c5.086,0,9.236,4.294,9.236,9.62c0-5.35,4.103-9.668,9.165-9.668
		C60.599,20.173,64.726,24.492,64.749,29.818z"/>
	<path fill="#E6180A" d="M64.749,83.954c-0.022,11.3-14.179,19.528-18.329,28.477c-4.197-8.924-18.377-17.081-18.473-28.381
		c-0.024-5.326,4.102-9.669,9.164-9.669c5.086,0,9.236,4.295,9.236,9.621c0-5.351,4.103-9.669,9.165-9.669
		C60.599,74.31,64.726,78.628,64.749,83.954z"/>
	<path fill="#E6180A" d="M27.947,157.953c0.023-11.301,14.179-19.529,18.329-28.479c4.198,8.925,18.377,17.081,18.473,28.381
		c0.024,5.326-4.103,9.669-9.164,9.669c-5.086,0-9.236-4.295-9.236-9.62c0,5.35-4.103,9.668-9.164,9.668
		C32.098,167.597,27.971,163.278,27.947,157.953z"/>
	<path fill="#E6180A" d="M27.947,212.087c0.023-11.299,14.179-19.528,18.329-28.478c4.198,8.925,18.377,17.082,18.473,28.382
		c0.024,5.325-4.103,9.668-9.164,9.668c-5.086,0-9.236-4.293-9.236-9.619c0,5.35-4.103,9.668-9.164,9.668
		C32.098,221.732,27.971,217.414,27.947,212.087z"/>
	<path fill="#E6180A" d="M144.577,29.818c-0.023,11.3-14.179,19.529-18.329,28.477c-4.198-8.924-18.377-17.081-18.474-28.381
		c-0.023-5.326,4.103-9.668,9.165-9.668c5.086,0,9.235,4.294,9.235,9.62c0-5.35,4.104-9.668,9.165-9.668
		C140.427,20.173,144.553,24.492,144.577,29.818z"/>
	<path fill="#E6180A" d="M144.577,83.954c-0.023,11.3-14.179,19.528-18.329,28.477c-4.198-8.924-18.377-17.081-18.474-28.381
		c-0.023-5.326,4.103-9.669,9.165-9.669c5.086,0,9.235,4.295,9.235,9.621c0-5.351,4.104-9.669,9.165-9.669
		C140.427,74.31,144.553,78.628,144.577,83.954z"/>
	<path fill="#E6180A" d="M107.775,157.953c0.022-11.301,14.178-19.529,18.328-28.479c4.198,8.925,18.378,17.081,18.474,28.381
		c0.024,5.326-4.103,9.669-9.165,9.669c-5.086,0-9.236-4.295-9.236-9.62c0,5.35-4.103,9.668-9.163,9.668
		C111.926,167.597,107.799,163.278,107.775,157.953z"/>
	<path fill="#E6180A" d="M107.775,212.087c0.022-11.299,14.178-19.528,18.328-28.478c4.198,8.925,18.378,17.082,18.474,28.382
		c0.024,5.325-4.103,9.668-9.165,9.668c-5.086,0-9.236-4.293-9.236-9.619c0,5.35-4.103,9.668-9.163,9.668
		C111.926,221.732,107.799,217.414,107.775,212.087z"/>
	<path fill="#E6180A" d="M104.663,56.887c-0.022,11.299-14.179,19.529-18.329,28.477c-4.197-8.925-18.377-17.081-18.473-28.381
		c-0.024-5.326,4.102-9.668,9.164-9.668c5.086,0,9.236,4.294,9.236,9.621c0-5.35,4.103-9.668,9.164-9.668
		C100.513,47.243,104.64,51.561,104.663,56.887z"/>
	<path fill="#E6180A" d="M67.861,185.019c0.022-11.301,14.178-19.527,18.328-28.479c4.199,8.926,18.378,17.082,18.474,28.383
		c0.024,5.326-4.103,9.668-9.165,9.668c-5.086,0-9.235-4.295-9.235-9.62c0,5.35-4.104,9.668-9.164,9.668
		C72.012,194.664,67.885,190.345,67.861,185.019z"/>
	<path fill="#E6180A" d="M167.343,233.146c-2.081,0-3.502,0.139-4.26,0.414s-1.455,0.822-2.092,1.639h-0.361v-21.166
		c0-0.697-0.034-1.142-0.104-1.334c-0.035-0.097-0.152-0.199-0.353-0.307c-0.196-0.107-0.553-0.199-1.062-0.271
		c-0.51-0.072-1.076-0.107-1.697-0.107v-0.324h9.928v0.324c-0.741,0-1.387,0.035-1.932,0.107s-0.916,0.164-1.115,0.271
		c-0.196,0.107-0.328,0.24-0.389,0.396c-0.061,0.157-0.09,0.572-0.09,1.248v16.762c0,0.65,0.047,1.065,0.143,1.246
		c0.097,0.182,0.246,0.326,0.453,0.435s0.521,0.181,0.935,0.216c0.414,0.036,1.079,0.055,1.995,0.055V233.146z"/>
	<path fill="#E6180A" d="M151.039,211.367c1.437,0,2.688,1.067,3.76,3.203c1.158,2.305,1.736,5.208,1.736,8.713
		c0,3.504-0.57,6.396-1.711,8.676c-1.072,2.16-2.332,3.24-3.785,3.24c-1.451,0-2.713-1.068-3.783-3.205
		c-1.157-2.304-1.735-5.207-1.735-8.711c0-3.505,0.557-6.367,1.672-8.587C148.304,212.476,149.587,211.367,151.039,211.367z
		 M151.039,211.69c-0.688,0-1.209,0.97-1.555,2.912c-0.346,1.94-0.519,4.84-0.519,8.698c0,3.714,0.025,6.027,0.076,6.938
		c0.174,3.092,0.84,4.637,1.996,4.637c0.674,0,1.185-0.965,1.529-2.894c0.346-1.929,0.52-4.823,0.52-8.681
		c0-3.738-0.024-6.063-0.078-6.973C152.837,213.235,152.179,211.69,151.039,211.69z"/>
	<path fill="#E6180A" d="M4.859,12.473c2.082,0,3.502-0.138,4.26-0.414c0.758-0.275,1.455-0.822,2.092-1.638h0.361v21.165
		c0,0.697,0.035,1.142,0.104,1.334c0.035,0.097,0.152,0.199,0.353,0.307c0.197,0.108,0.553,0.199,1.062,0.271
		c0.511,0.072,1.076,0.108,1.697,0.108v0.324H4.859v-0.324c0.742,0,1.387-0.036,1.932-0.108c0.545-0.072,0.916-0.163,1.115-0.271
		c0.197-0.108,0.328-0.241,0.389-0.397c0.062-0.157,0.09-0.572,0.09-1.247V14.82c0-0.65-0.047-1.065-0.143-1.246
		c-0.096-0.181-0.246-0.325-0.453-0.434c-0.207-0.108-0.52-0.18-0.934-0.216c-0.414-0.036-1.08-0.055-1.996-0.055V12.473z"/>
	<path fill="#E6180A" d="M21.164,34.253c-1.436,0-2.688-1.068-3.76-3.204c-1.158-2.304-1.736-5.208-1.736-8.712
		s0.57-6.396,1.711-8.676c1.072-2.16,2.332-3.24,3.785-3.24c1.451,0,2.713,1.068,3.783,3.204c1.158,2.304,1.736,5.208,1.736,8.712
		s-0.558,6.366-1.672,8.586C23.898,33.144,22.615,34.253,21.164,34.253z M21.164,33.929c0.689,0,1.209-0.97,1.556-2.912
		c0.346-1.94,0.518-4.84,0.518-8.698c0-3.714-0.025-6.027-0.076-6.938c-0.174-3.091-0.84-4.637-1.996-4.637
		c-0.674,0-1.184,0.965-1.528,2.894c-0.347,1.929-0.521,4.823-0.521,8.681c0,3.738,0.025,6.063,0.078,6.973
		C19.365,32.384,20.023,33.929,21.164,33.929z"/>
</g>
</svg>
