<?xml version="1.0" encoding="utf-8"?>
<!-- Generator: Adobe Illustrator 16.0.0, SVG Export Plug-In . SVG Version: 6.00 Build 0)  -->
<!DOCTYPE svg PUBLIC "-//W3C//DTD SVG 1.1//EN" "http://www.w3.org/Graphics/SVG/1.1/DTD/svg11.dtd">
<svg version="1.1" id="Layer_1" xmlns="http://www.w3.org/2000/svg" xmlns:xlink="http://www.w3.org/1999/xlink" x="0px" y="0px"
	 width="171.512px" height="247.046px" viewBox="0 0 171.512 247.046" enable-background="new 0 0 171.512 247.046"
	 xml:space="preserve">
<g>
	<path fill="#FFFFFF" d="M9.367,245.8c-4.476,0-8.117-3.641-8.117-8.117V9.368c0-4.476,3.642-8.118,8.117-8.118h152.788
		c4.47,0,8.107,3.642,8.107,8.118v228.315c0,4.477-3.638,8.117-8.107,8.117H9.367z"/>
	<path fill="#D4D4D4" d="M162.155,2.5c3.769,0,6.857,3.089,6.857,6.868v228.315c0,3.777-3.09,6.867-6.857,6.867H9.367
		c-3.778,0-6.867-3.09-6.867-6.867V9.368C2.5,5.589,5.589,2.5,9.367,2.5H162.155 M162.155,0H9.367C4.202,0,0,4.202,0,9.368v228.315
		c0,5.165,4.202,9.367,9.367,9.367h152.788c5.16,0,9.357-4.202,9.357-9.367V9.368C171.513,4.202,167.315,0,162.155,0z"/>
	<path fill="#E6180A" d="M23.812,48.705c-0.012,4.708-5.908,8.137-7.639,11.865c-1.749-3.718-7.656-7.117-7.696-11.825
		c-0.011-2.219,1.71-4.029,3.817-4.029c2.119,0,3.85,1.79,3.85,4.009c0-2.229,1.71-4.029,3.818-4.029
		C22.083,44.687,23.802,46.486,23.812,48.705z"/>
	<path fill="#E6180A" d="M148.7,197.348c0.011-4.708,5.908-8.138,7.638-11.865c1.749,3.72,7.657,7.117,7.697,11.825
		c0.01,2.22-1.71,4.027-3.818,4.027c-2.119,0-3.849-1.789-3.849-4.008c0,2.229-1.71,4.028-3.819,4.028
		C150.43,201.367,148.711,199.567,148.7,197.348z"/>
	<path fill="#E6180A" d="M64.743,29.818c-0.024,11.3-14.179,19.529-18.329,28.477c-4.198-8.924-18.377-17.081-18.474-28.381
		c-0.023-5.326,4.103-9.668,9.165-9.668c5.086,0,9.235,4.294,9.235,9.62c0-5.35,4.104-9.668,9.165-9.668
		C60.593,20.173,64.719,24.492,64.743,29.818z"/>
	<path fill="#E6180A" d="M27.941,212.087c0.022-11.299,14.179-19.528,18.329-28.478c4.197,8.925,18.377,17.082,18.473,28.382
		c0.024,5.325-4.103,9.668-9.164,9.668c-5.087,0-9.237-4.293-9.237-9.619c0,5.35-4.103,9.668-9.163,9.668
		C32.092,221.732,27.965,217.414,27.941,212.087z"/>
	<path fill="#E6180A" d="M144.571,29.818c-0.024,11.3-14.179,19.529-18.329,28.477c-4.198-8.924-18.377-17.081-18.474-28.381
		c-0.023-5.326,4.103-9.668,9.165-9.668c5.086,0,9.235,4.294,9.235,9.62c0-5.35,4.104-9.668,9.165-9.668
		C140.421,20.173,144.547,24.492,144.571,29.818z"/>
	<path fill="#E6180A" d="M107.769,212.087c0.023-11.299,14.179-19.528,18.329-28.478c4.198,8.925,18.378,17.082,18.474,28.382
		c0.024,5.325-4.103,9.668-9.165,9.668c-5.086,0-9.236-4.293-9.236-9.619c0,5.35-4.103,9.668-9.164,9.668
		C111.919,221.732,107.793,217.414,107.769,212.087z"/>
	<path fill="#E6180A" d="M104.657,106.73c-0.024,11.3-14.179,19.529-18.329,28.479c-4.198-8.926-18.377-17.082-18.474-28.381
		c-0.023-5.326,4.103-9.669,9.165-9.669c5.086,0,9.235,4.295,9.235,9.621c0-5.351,4.104-9.669,9.165-9.669
		C100.507,97.087,104.633,101.405,104.657,106.73z"/>
	<path fill="#E6180A" d="M149.136,235.199c0.72-1.562,1.481-2.695,2.285-3.402c0.806-0.709,1.819-1.062,3.043-1.062
		c1.2,0,2.845,0.383,4.933,1.15l1.008-8.152c-0.909,1.145-1.765,1.9-2.566,2.271c-0.801,0.369-1.859,0.555-3.176,0.555
		c-1.649,0-3.067-0.762-4.252-2.285s-1.777-3.365-1.777-5.525c0-1.729,0.769-3.36,2.305-4.896c1.728-1.729,3.864-2.592,6.408-2.592
		c1.487,0,2.771,0.443,3.852,1.332c1.176,0.959,1.764,2.195,1.764,3.707c0,0.912-0.218,1.597-0.652,2.053
		c-0.436,0.456-0.969,0.686-1.599,0.686c-0.896,0-1.487-0.361-1.778-1.08c-0.146-0.36-0.219-0.756-0.219-1.188
		c0-0.479,0.097-0.815,0.288-1.009c0.48-0.551,1.008-0.827,1.584-0.827c0.145,0,0.276,0.024,0.396,0.071
		c0.121,0.049,0.229,0.108,0.324,0.181c0.048-0.192,0.071-0.323,0.071-0.396c0-0.744-0.359-1.44-1.08-2.088
		c-0.84-0.744-1.877-1.117-3.112-1.117c-1.47,0-2.561,0.795-3.271,2.383c-0.64,1.42-0.96,3.404-0.96,5.955
		c0,2.453,0.232,4.102,0.696,4.942c0.464,0.843,1.1,1.265,1.909,1.265c1.546,0,2.854-0.653,3.924-1.959
		c0.809-0.99,1.296-2.006,1.463-3.045l0.468,0.071l-1.794,13.896c-1.315-0.527-2.393-0.911-3.229-1.15
		c-1.269-0.359-2.393-0.54-3.373-0.54c-0.813,0-1.501,0.126-2.064,0.378c-0.562,0.252-1.011,0.689-1.346,1.312L149.136,235.199z"/>
	<path fill="#E6180A" d="M21.762,10.313c-0.721,1.561-1.482,2.694-2.286,3.402c-0.806,0.708-1.819,1.062-3.043,1.062
		c-1.2,0-2.845-0.383-4.933-1.151l-1.008,8.153c0.909-1.145,1.765-1.901,2.566-2.271c0.801-0.37,1.859-0.555,3.176-0.555
		c1.649,0,3.068,0.762,4.252,2.285c1.185,1.524,1.777,3.366,1.777,5.526c0,1.729-0.769,3.36-2.305,4.896
		c-1.728,1.728-3.863,2.592-6.408,2.592c-1.487,0-2.771-0.444-3.852-1.332c-1.176-0.96-1.764-2.196-1.764-3.708
		c0-0.912,0.218-1.596,0.652-2.052c0.436-0.456,0.969-0.685,1.599-0.685c0.896,0,1.487,0.36,1.778,1.08
		c0.146,0.36,0.219,0.756,0.219,1.188c0,0.479-0.097,0.815-0.288,1.008c-0.48,0.552-1.008,0.828-1.584,0.828
		c-0.145,0-0.276-0.024-0.396-0.072c-0.121-0.048-0.229-0.108-0.324-0.18C9.544,30.519,9.52,30.65,9.52,30.723
		c0,0.744,0.359,1.44,1.08,2.088c0.84,0.744,1.877,1.116,3.112,1.116c1.47,0,2.561-0.794,3.271-2.382
		c0.64-1.42,0.96-3.404,0.96-5.955c0-2.453-0.232-4.102-0.696-4.943c-0.464-0.843-1.1-1.264-1.909-1.264
		c-1.546,0-2.854,0.653-3.924,1.958c-0.809,0.991-1.296,2.007-1.463,3.046l-0.468-0.072l1.794-13.896
		c1.315,0.528,2.393,0.912,3.229,1.151c1.269,0.36,2.393,0.54,3.373,0.54c0.813,0,1.501-0.126,2.064-0.378
		c0.562-0.252,1.011-0.689,1.346-1.313L21.762,10.313z"/>
</g>
</svg>
