<?xml version="1.0" encoding="utf-8"?>
<!-- Generator: Adobe Illustrator 16.0.0, SVG Export Plug-In . SVG Version: 6.00 Build 0)  -->
<!DOCTYPE svg PUBLIC "-//W3C//DTD SVG 1.1//EN" "http://www.w3.org/Graphics/SVG/1.1/DTD/svg11.dtd">
<svg version="1.1" id="Layer_1" xmlns="http://www.w3.org/2000/svg" xmlns:xlink="http://www.w3.org/1999/xlink" x="0px" y="0px"
	 width="171.512px" height="247.046px" viewBox="0 0 171.512 247.046" enable-background="new 0 0 171.512 247.046"
	 xml:space="preserve">
<g>
	<path fill="#FFFFFF" d="M9.367,245.8c-4.476,0-8.117-3.641-8.117-8.117V9.368c0-4.476,3.642-8.118,8.117-8.118h152.788
		c4.47,0,8.107,3.642,8.107,8.118v228.315c0,4.477-3.638,8.117-8.107,8.117H9.367z"/>
	<path fill="#D4D4D4" d="M162.155,2.5c3.769,0,6.857,3.089,6.857,6.868v228.315c0,3.777-3.09,6.867-6.857,6.867H9.367
		c-3.778,0-6.867-3.09-6.867-6.867V9.368C2.5,5.589,5.589,2.5,9.367,2.5H162.155 M162.155,0H9.367C4.202,0,0,4.202,0,9.368v228.315
		c0,5.165,4.202,9.367,9.367,9.367h152.788c5.16,0,9.357-4.202,9.357-9.367V9.368C171.513,4.202,167.315,0,162.155,0z"/>
	<path fill="#E6180A" d="M23.812,48.705c-0.011,4.708-5.908,8.137-7.638,11.865c-1.75-3.718-7.656-7.117-7.696-11.825
		c-0.011-2.219,1.709-4.029,3.818-4.029c2.119,0,3.85,1.79,3.85,4.009c0-2.229,1.709-4.029,3.817-4.029
		C22.083,44.687,23.802,46.486,23.812,48.705z"/>
	<path fill="#E6180A" d="M148.7,197.348c0.011-4.708,5.908-8.138,7.638-11.865c1.749,3.72,7.657,7.117,7.697,11.825
		c0.01,2.22-1.71,4.027-3.818,4.027c-2.119,0-3.849-1.789-3.849-4.008c0,2.229-1.71,4.028-3.819,4.028
		C150.43,201.367,148.711,199.567,148.7,197.348z"/>
	<path fill="#E6180A" d="M67.854,212.087c0.023-11.299,14.179-19.528,18.329-28.478c4.197,8.925,18.377,17.082,18.474,28.382
		c0.023,5.325-4.103,9.668-9.165,9.668c-5.086,0-9.236-4.293-9.236-9.619c0,5.35-4.103,9.668-9.165,9.668
		C72.005,221.732,67.879,217.414,67.854,212.087z"/>
	<path fill="#E6180A" d="M104.657,106.73c-0.024,11.3-14.179,19.529-18.33,28.479c-4.198-8.926-18.377-17.082-18.473-28.381
		c-0.024-5.326,4.103-9.669,9.165-9.669c5.086,0,9.235,4.295,9.235,9.621c0-5.351,4.104-9.669,9.164-9.669
		C100.506,97.087,104.633,101.405,104.657,106.73z"/>
	<path fill="#E6180A" d="M104.657,29.818c-0.024,11.3-14.179,19.529-18.33,28.477c-4.198-8.924-18.377-17.081-18.473-28.381
		c-0.024-5.326,4.103-9.668,9.165-9.668c5.086,0,9.235,4.294,9.235,9.62c0-5.35,4.104-9.668,9.164-9.668
		C100.506,20.173,104.633,24.492,104.657,29.818z"/>
	<path fill="#E6180A" d="M156.569,224.83c-0.119-0.022-0.298-0.035-0.537-0.035c-0.931,0-1.629,0.406-2.095,1.22
		c-0.465,0.813-0.698,1.842-0.698,3.086c0,2.224,0.311,3.776,0.933,4.663c0.527,0.74,1.293,1.111,2.299,1.111
		c1.005,0,1.885-0.258,2.639-0.773c0.754-0.518,1.239-1.277,1.454-2.286c-0.096,0.072-0.196,0.126-0.304,0.162
		c-0.106,0.036-0.219,0.054-0.338,0.054c-0.403,0-0.777-0.207-1.124-0.623c-0.345-0.416-0.47-0.887-0.374-1.408
		c0.097-0.523,0.333-0.939,0.714-1.248c0.38-0.311,0.819-0.465,1.318-0.465c0.833,0,1.368,0.408,1.605,1.226
		c0.07,0.288,0.106,0.588,0.106,0.899c0,1.199-0.54,2.279-1.62,3.239c-1.176,1.031-2.64,1.548-4.392,1.548
		c-2.16,0-3.947-0.646-5.364-1.943c-1.271-1.176-1.908-2.496-1.908-3.961c0-1.318,0.612-2.375,1.837-3.168
		c1.057-0.672,2.483-1.14,4.283-1.402c-2.159,0-3.815-0.469-4.968-1.404c-1.248-1.031-1.872-2.556-1.872-4.572
		c0-2.398,1.116-4.308,3.349-5.724c1.728-1.104,3.433-1.655,5.111-1.655c1.824,0,3.384,0.605,4.681,1.817
		c1.296,1.212,1.943,2.599,1.943,4.158c0,0.911-0.244,1.596-0.731,2.052c-0.488,0.455-1.077,0.684-1.769,0.684
		c-0.452,0-0.81-0.084-1.07-0.252c-0.596-0.312-0.894-0.863-0.894-1.654c0-0.602,0.191-1.116,0.572-1.549s0.893-0.647,1.536-0.647
		c0.143,0,0.292,0.013,0.446,0.036s0.304,0.061,0.446,0.107c0.121-0.896-0.251-1.826-1.113-2.795
		c-0.98-1.089-2.166-1.634-3.554-1.634c-1.005,0-1.951,0.435-2.837,1.3c-1.173,1.131-1.759,2.743-1.759,4.838
		c0,2.383,0.269,4.086,0.806,5.107c0.538,1.023,1.271,1.535,2.203,1.535c0.334,0,0.687-0.066,1.057-0.198s0.747-0.252,1.128-0.36
		c0.384-0.106,0.729-0.162,1.039-0.162c0.573,0,0.907,0.217,1.003,0.648c-0.022,0.264-0.137,0.45-0.34,0.559
		c-0.203,0.107-0.471,0.162-0.806,0.162c-0.286,0-0.614-0.037-0.984-0.107C157.255,224.938,156.903,224.876,156.569,224.83z"/>
	<path fill="#E6180A" d="M14.148,20.79c0.119,0.023,0.298,0.036,0.537,0.036c0.931,0,1.629-0.406,2.095-1.22
		c0.465-0.813,0.698-1.842,0.698-3.086c0-2.224-0.312-3.777-0.934-4.663c-0.526-0.741-1.293-1.111-2.298-1.111
		s-1.885,0.258-2.639,0.773c-0.754,0.517-1.239,1.278-1.454,2.286c0.095-0.072,0.196-0.126,0.303-0.162
		c0.107-0.036,0.219-0.054,0.338-0.054c0.404,0,0.778,0.208,1.124,0.624s0.471,0.886,0.374,1.408
		c-0.096,0.523-0.333,0.939-0.713,1.248c-0.38,0.31-0.82,0.464-1.318,0.464c-0.833,0-1.368-0.408-1.605-1.225
		c-0.071-0.288-0.107-0.588-0.107-0.899c0-1.2,0.54-2.28,1.62-3.24c1.177-1.031,2.641-1.548,4.393-1.548
		c2.16,0,3.946,0.647,5.363,1.943c1.272,1.177,1.908,2.497,1.908,3.961c0,1.319-0.611,2.376-1.836,3.168
		c-1.057,0.672-2.483,1.14-4.284,1.403c2.16,0,3.816,0.468,4.969,1.404c1.248,1.032,1.872,2.556,1.872,4.572
		c0,2.399-1.116,4.308-3.349,5.724c-1.728,1.104-3.433,1.656-5.112,1.656c-1.823,0-3.384-0.606-4.68-1.818s-1.944-2.598-1.944-4.158
		c0-0.911,0.244-1.596,0.732-2.052c0.488-0.455,1.077-0.684,1.768-0.684c0.452,0,0.811,0.084,1.071,0.252
		c0.595,0.312,0.894,0.863,0.894,1.655c0,0.601-0.191,1.116-0.572,1.549c-0.381,0.432-0.894,0.647-1.536,0.647
		c-0.143,0-0.292-0.012-0.447-0.036c-0.153-0.023-0.303-0.06-0.445-0.107c-0.121,0.895,0.251,1.826,1.112,2.794
		c0.981,1.089,2.166,1.634,3.555,1.634c1.005,0,1.95-0.434,2.837-1.3c1.173-1.131,1.759-2.743,1.759-4.838
		c0-2.383-0.27-4.085-0.806-5.107c-0.538-1.023-1.271-1.535-2.203-1.535c-0.334,0-0.688,0.066-1.058,0.198
		c-0.37,0.132-0.747,0.252-1.128,0.36c-0.383,0.107-0.729,0.162-1.039,0.162c-0.572,0-0.906-0.217-1.003-0.648
		c0.023-0.264,0.138-0.45,0.34-0.558c0.203-0.108,0.472-0.162,0.807-0.162c0.286,0,0.613,0.036,0.983,0.107
		C13.462,20.681,13.814,20.742,14.148,20.79z"/>
</g>
</svg>
