<?xml version="1.0" encoding="utf-8"?>
<!-- Generator: Adobe Illustrator 16.0.0, SVG Export Plug-In . SVG Version: 6.00 Build 0)  -->
<!DOCTYPE svg PUBLIC "-//W3C//DTD SVG 1.1//EN" "http://www.w3.org/Graphics/SVG/1.1/DTD/svg11.dtd">
<svg version="1.1" id="Layer_1" xmlns="http://www.w3.org/2000/svg" xmlns:xlink="http://www.w3.org/1999/xlink" x="0px" y="0px"
	 width="171.512px" height="247.046px" viewBox="0 0 171.512 247.046" enable-background="new 0 0 171.512 247.046"
	 xml:space="preserve">
<g>
	<path fill="#FFFFFF" d="M9.367,245.8c-4.476,0-8.117-3.641-8.117-8.117V9.368c0-4.476,3.643-8.118,8.117-8.118h152.788
		c4.471,0,8.107,3.642,8.107,8.118v228.315c0,4.477-3.638,8.117-8.107,8.117H9.367z"/>
	<path fill="#D4D4D4" d="M162.155,2.5c3.769,0,6.857,3.089,6.857,6.868v228.315c0,3.777-3.09,6.867-6.857,6.867H9.367
		c-3.778,0-6.867-3.09-6.867-6.867V9.368C2.5,5.589,5.589,2.5,9.367,2.5H162.155 M162.155,0H9.367C4.202,0,0,4.202,0,9.368v228.315
		c0,5.165,4.202,9.367,9.367,9.367h152.788c5.16,0,9.357-4.202,9.357-9.367V9.368C171.513,4.202,167.315,0,162.155,0z"/>
	<path fill="#E6180A" d="M23.812,48.705c-0.012,4.708-5.908,8.137-7.639,11.865c-1.749-3.718-7.656-7.117-7.696-11.825
		c-0.011-2.219,1.71-4.029,3.818-4.029c2.119,0,3.849,1.79,3.849,4.009c0-2.229,1.71-4.029,3.818-4.029
		C22.083,44.687,23.802,46.486,23.812,48.705z"/>
	<path fill="#E6180A" d="M148.705,197.348c0.011-4.708,5.908-8.138,7.638-11.865c1.749,3.72,7.657,7.117,7.697,11.825
		c0.01,2.22-1.71,4.027-3.818,4.027c-2.119,0-3.849-1.789-3.849-4.008c0,2.229-1.71,4.028-3.818,4.028
		C150.435,201.367,148.716,199.567,148.705,197.348z"/>
	<path fill="#E6180A" d="M64.749,29.818c-0.023,11.3-14.179,19.529-18.329,28.477c-4.198-8.924-18.377-17.081-18.474-28.381
		c-0.023-5.326,4.103-9.668,9.165-9.668c5.086,0,9.236,4.294,9.236,9.62c0-5.35,4.103-9.668,9.164-9.668
		C60.599,20.173,64.725,24.492,64.749,29.818z"/>
	<path fill="#E6180A" d="M64.749,83.954c-0.023,11.3-14.179,19.528-18.329,28.477c-4.198-8.924-18.377-17.081-18.474-28.381
		c-0.023-5.326,4.103-9.669,9.165-9.669c5.086,0,9.236,4.295,9.236,9.621c0-5.351,4.103-9.669,9.164-9.669
		C60.599,74.31,64.725,78.628,64.749,83.954z"/>
	<path fill="#E6180A" d="M27.946,157.953c0.024-11.301,14.179-19.529,18.329-28.479c4.198,8.925,18.377,17.081,18.474,28.381
		c0.023,5.326-4.103,9.669-9.165,9.669c-5.086,0-9.235-4.295-9.235-9.62c0,5.35-4.104,9.668-9.165,9.668
		C32.097,167.597,27.971,163.278,27.946,157.953z"/>
	<path fill="#E6180A" d="M27.946,212.087c0.024-11.299,14.179-19.528,18.329-28.478c4.198,8.925,18.377,17.082,18.474,28.382
		c0.023,5.325-4.103,9.668-9.165,9.668c-5.086,0-9.235-4.293-9.235-9.619c0,5.35-4.104,9.668-9.165,9.668
		C32.097,221.732,27.971,217.414,27.946,212.087z"/>
	<path fill="#E6180A" d="M144.577,29.818c-0.023,11.3-14.179,19.529-18.329,28.477c-4.199-8.924-18.378-17.081-18.474-28.381
		c-0.024-5.326,4.103-9.668,9.165-9.668c5.086,0,9.235,4.294,9.235,9.62c0-5.35,4.104-9.668,9.164-9.668
		C140.427,20.173,144.553,24.492,144.577,29.818z"/>
	<path fill="#E6180A" d="M144.577,83.954c-0.023,11.3-14.179,19.528-18.329,28.477c-4.199-8.924-18.378-17.081-18.474-28.381
		c-0.024-5.326,4.103-9.669,9.165-9.669c5.086,0,9.235,4.295,9.235,9.621c0-5.351,4.104-9.669,9.164-9.669
		C140.427,74.31,144.553,78.628,144.577,83.954z"/>
	<path fill="#E6180A" d="M107.774,157.953c0.023-11.301,14.179-19.529,18.329-28.479c4.197,8.925,18.377,17.081,18.473,28.381
		c0.024,5.326-4.102,9.669-9.164,9.669c-5.086,0-9.236-4.295-9.236-9.62c0,5.35-4.103,9.668-9.164,9.668
		C111.925,167.597,107.799,163.278,107.774,157.953z"/>
	<path fill="#E6180A" d="M107.774,212.087c0.023-11.299,14.179-19.528,18.329-28.478c4.197,8.925,18.377,17.082,18.473,28.382
		c0.024,5.325-4.102,9.668-9.164,9.668c-5.086,0-9.236-4.293-9.236-9.619c0,5.35-4.103,9.668-9.164,9.668
		C111.925,221.732,107.799,217.414,107.774,212.087z"/>
	<path fill="#E6180A" d="M152.525,224.867c-1.08-0.265-1.967-0.967-2.664-2.105c-0.695-1.141-1.045-2.502-1.045-4.086
		c0-1.872,0.647-3.518,1.945-4.934c1.463-1.584,3.396-2.375,5.795-2.375c2.137,0,3.938,0.707,5.399,2.123
		c1.465,1.416,2.195,3.072,2.195,4.969c0,1.057-0.443,2.088-1.33,3.097c-0.049,0.048-0.721,0.671-2.018,1.872
		c0.815,0.479,1.44,1.134,1.872,1.962c0.433,0.827,0.648,1.782,0.648,2.86c0,1.85-0.613,3.434-1.836,4.752
		c-1.369,1.465-3.133,2.197-5.293,2.197c-2.039,0-3.707-0.77-5.004-2.305c-1.058-1.248-1.584-2.484-1.584-3.708
		C149.609,227.553,150.582,226.114,152.525,224.867z M160.301,223.173c0.562-0.479,0.955-1.219,1.179-2.215
		c0.223-0.996,0.334-2.058,0.334-3.186c0-1.992-0.463-3.504-1.396-4.536c-0.928-1.032-2.18-1.548-3.754-1.548
		c-1.619,0-2.906,0.456-3.858,1.368c-0.955,0.911-1.433,2.101-1.433,3.563c0,2.471,1.076,4.115,3.228,4.933
		C156.514,222.082,158.412,222.623,160.301,223.173z M152.922,225.046c-0.418,0.527-0.77,1.156-1.053,1.89
		c-0.281,0.731-0.424,1.506-0.424,2.321c0,1.921,0.504,3.371,1.512,4.355c0.865,0.84,1.992,1.26,3.385,1.26
		c1.32,0,2.447-0.377,3.384-1.134c0.938-0.756,1.403-1.829,1.403-3.222c0-1.992-1.146-3.385-3.438-4.176
		C157.211,226.173,155.621,225.742,152.922,225.046z"/>
	<path fill="#E6180A" d="M19.041,20.753c1.08,0.264,1.967,0.966,2.664,2.105C22.4,24,22.75,25.361,22.75,26.945
		c0,1.872-0.647,3.517-1.944,4.933c-1.464,1.584-3.396,2.376-5.796,2.376c-2.137,0-3.938-0.708-5.399-2.124
		c-1.465-1.416-2.195-3.072-2.195-4.968c0-1.057,0.443-2.089,1.33-3.097c0.049-0.048,0.721-0.671,2.019-1.872
		c-0.816-0.479-1.441-1.134-1.873-1.962c-0.433-0.828-0.65-1.782-0.65-2.861c0-1.849,0.613-3.433,1.836-4.752
		c1.369-1.464,3.133-2.196,5.293-2.196c2.039,0,3.707,0.769,5.004,2.304c1.058,1.248,1.584,2.484,1.584,3.708
		C21.957,18.066,20.984,19.505,19.041,20.753z M11.266,22.445c-0.562,0.48-0.955,1.219-1.179,2.215
		c-0.223,0.996-0.334,2.058-0.334,3.186c0,1.992,0.463,3.504,1.396,4.536c0.928,1.032,2.18,1.548,3.754,1.548
		c1.619,0,2.906-0.456,3.859-1.368c0.954-0.912,1.432-2.1,1.432-3.563c0-2.472-1.076-4.116-3.228-4.933
		C15.053,23.538,13.154,22.998,11.266,22.445z M18.645,20.573c0.418-0.527,0.77-1.157,1.053-1.89
		c0.281-0.731,0.424-1.506,0.424-2.322c0-1.92-0.504-3.371-1.512-4.355c-0.865-0.84-1.992-1.26-3.385-1.26
		c-1.32,0-2.447,0.378-3.384,1.134c-0.938,0.756-1.403,1.83-1.403,3.222c0,1.992,1.146,3.384,3.438,4.176
		C14.355,19.446,15.945,19.877,18.645,20.573z"/>
</g>
</svg>
