<?xml version="1.0" encoding="utf-8"?>
<!-- Generator: Adobe Illustrator 16.0.0, SVG Export Plug-In . SVG Version: 6.00 Build 0)  -->
<!DOCTYPE svg PUBLIC "-//W3C//DTD SVG 1.1//EN" "http://www.w3.org/Graphics/SVG/1.1/DTD/svg11.dtd">
<svg version="1.1" id="Layer_1" xmlns="http://www.w3.org/2000/svg" xmlns:xlink="http://www.w3.org/1999/xlink" x="0px" y="0px"
	 width="171.512px" height="247.046px" viewBox="0 0 171.512 247.046" enable-background="new 0 0 171.512 247.046"
	 xml:space="preserve">
<g>
	<path fill="#FFFFFF" d="M9.367,245.8c-4.476,0-8.117-3.641-8.117-8.117V9.368c0-4.476,3.642-8.118,8.117-8.118h152.788
		c4.47,0,8.107,3.642,8.107,8.118v228.315c0,4.477-3.638,8.117-8.107,8.117H9.367z"/>
	<path fill="#D4D4D4" d="M162.155,2.5c3.769,0,6.857,3.089,6.857,6.868v228.315c0,3.777-3.09,6.867-6.857,6.867H9.367
		c-3.778,0-6.867-3.09-6.867-6.867V9.368C2.5,5.589,5.589,2.5,9.367,2.5H162.155 M162.155,0H9.367C4.202,0,0,4.202,0,9.368v228.315
		c0,5.165,4.202,9.367,9.367,9.367h152.788c5.16,0,9.357-4.202,9.357-9.367V9.368C171.513,4.202,167.315,0,162.155,0z"/>
	<path fill="#E6180A" d="M23.812,48.705c-0.012,4.708-5.908,8.137-7.639,11.865c-1.749-3.718-7.656-7.117-7.696-11.825
		c-0.011-2.219,1.71-4.029,3.817-4.029c2.119,0,3.85,1.79,3.85,4.009c0-2.229,1.71-4.029,3.818-4.029
		C22.083,44.687,23.802,46.486,23.812,48.705z"/>
	<path fill="#E6180A" d="M148.7,197.348c0.011-4.708,5.908-8.138,7.638-11.865c1.749,3.72,7.657,7.117,7.697,11.825
		c0.01,2.22-1.71,4.027-3.819,4.027c-2.118,0-3.848-1.789-3.848-4.008c0,2.229-1.71,4.028-3.819,4.028
		C150.43,201.367,148.711,199.567,148.7,197.348z"/>
	<path fill="#E6180A" d="M64.743,29.818c-0.024,11.3-14.179,19.529-18.329,28.477c-4.198-8.924-18.377-17.081-18.474-28.381
		c-0.023-5.326,4.103-9.668,9.165-9.668c5.086,0,9.235,4.294,9.235,9.62c0-5.35,4.104-9.668,9.165-9.668
		C60.593,20.173,64.719,24.492,64.743,29.818z"/>
	<path fill="#E6180A" d="M27.94,212.087c0.023-11.299,14.179-19.528,18.329-28.478c4.198,8.925,18.378,17.082,18.474,28.382
		c0.023,5.325-4.103,9.668-9.165,9.668c-5.086,0-9.236-4.293-9.236-9.619c0,5.35-4.103,9.668-9.163,9.668
		C32.091,221.732,27.965,217.414,27.94,212.087z"/>
	<path fill="#E6180A" d="M144.57,29.818c-0.023,11.3-14.179,19.529-18.329,28.477c-4.198-8.924-18.377-17.081-18.473-28.381
		c-0.024-5.326,4.103-9.668,9.164-9.668c5.087,0,9.236,4.294,9.236,9.62c0-5.35,4.104-9.668,9.164-9.668
		C140.42,20.173,144.547,24.492,144.57,29.818z"/>
	<path fill="#E6180A" d="M107.769,212.087c0.023-11.299,14.179-19.528,18.329-28.478c4.197,8.925,18.377,17.082,18.474,28.382
		c0.023,5.325-4.103,9.668-9.165,9.668c-5.086,0-9.236-4.293-9.236-9.619c0,5.35-4.103,9.668-9.165,9.668
		C111.919,221.732,107.793,217.414,107.769,212.087z"/>
	<path fill="#E6180A" d="M151.836,217.99v-3.947c0-0.701-0.048-1.146-0.144-1.34c-0.048-0.098-0.21-0.199-0.486-0.309
		c-0.275-0.109-0.726-0.199-1.35-0.271s-1.188-0.107-1.692-0.107v-0.36h12.204v0.36c-0.887,0-1.697,0.035-2.43,0.107
		s-1.236,0.162-1.513,0.271c-0.274,0.107-0.455,0.24-0.539,0.398c-0.083,0.156-0.127,0.572-0.127,1.25v3.946h7.345l-10.656,16.884
		h-0.612V219.25h-3.672v-1.26H151.836z M155.76,219.25v9.686l6.049-9.686H155.76z"/>
	<path fill="#E6180A" d="M18.739,27.593v3.947c0,0.701,0.048,1.147,0.144,1.341c0.049,0.097,0.21,0.199,0.486,0.308
		s0.727,0.199,1.351,0.271c0.623,0.072,1.188,0.108,1.691,0.108v0.36H10.207v-0.36c0.887,0,1.697-0.036,2.431-0.108
		c0.731-0.072,1.235-0.162,1.512-0.271c0.274-0.108,0.456-0.241,0.54-0.398c0.083-0.157,0.126-0.573,0.126-1.25v-3.947H7.471
		L18.127,10.71h0.612v15.624h3.672v1.26L18.739,27.593L18.739,27.593z M14.815,26.333v-9.685l-6.048,9.685H14.815z"/>
</g>
</svg>
