<?xml version="1.0" encoding="utf-8"?>
<!-- Generator: Adobe Illustrator 16.0.0, SVG Export Plug-In . SVG Version: 6.00 Build 0)  -->
<!DOCTYPE svg PUBLIC "-//W3C//DTD SVG 1.1//EN" "http://www.w3.org/Graphics/SVG/1.1/DTD/svg11.dtd">
<svg version="1.1" id="Layer_1" xmlns="http://www.w3.org/2000/svg" xmlns:xlink="http://www.w3.org/1999/xlink" x="0px" y="0px"
	 width="171.512px" height="247.046px" viewBox="0 0 171.512 247.046" enable-background="new 0 0 171.512 247.046"
	 xml:space="preserve">
<g>
	<path fill="#FFFFFF" d="M9.367,245.8c-4.476,0-8.117-3.641-8.117-8.117V9.368c0-4.476,3.643-8.118,8.117-8.118h152.788
		c4.471,0,8.107,3.642,8.107,8.118v228.315c0,4.477-3.638,8.117-8.107,8.117H9.367z"/>
	<path fill="#D4D4D4" d="M162.155,2.5c3.769,0,6.857,3.089,6.857,6.868v228.315c0,3.777-3.09,6.867-6.857,6.867H9.367
		c-3.778,0-6.867-3.09-6.867-6.867V9.368C2.5,5.589,5.589,2.5,9.367,2.5H162.155 M162.155,0H9.367C4.202,0,0,4.202,0,9.368v228.315
		c0,5.165,4.202,9.367,9.367,9.367h152.788c5.16,0,9.357-4.202,9.357-9.367V9.368C171.513,4.202,167.315,0,162.155,0z"/>
	<path fill="#E6180A" d="M23.812,48.705c-0.012,4.708-5.908,8.137-7.639,11.865c-1.749-3.718-7.656-7.117-7.696-11.825
		c-0.011-2.219,1.71-4.029,3.818-4.029c2.119,0,3.849,1.79,3.849,4.009c0-2.229,1.71-4.029,3.818-4.029
		C22.083,44.687,23.802,46.486,23.812,48.705z"/>
	<path fill="#E6180A" d="M148.695,197.348c0.011-4.708,5.908-8.138,7.638-11.865c1.749,3.72,7.657,7.117,7.697,11.825
		c0.01,2.22-1.71,4.027-3.819,4.027c-2.119,0-3.848-1.789-3.848-4.008c0,2.229-1.71,4.028-3.819,4.028
		C150.425,201.367,148.706,199.567,148.695,197.348z"/>
	<path fill="#E6180A" d="M64.744,29.818c-0.022,11.3-14.179,19.529-18.329,28.477c-4.198-8.924-18.377-17.081-18.474-28.381
		c-0.023-5.326,4.103-9.668,9.165-9.668c5.086,0,9.235,4.294,9.235,9.62c0-5.35,4.104-9.668,9.165-9.668
		C60.594,20.173,64.721,24.492,64.744,29.818z"/>
	<path fill="#E6180A" d="M64.744,83.954c-0.022,11.3-14.179,19.528-18.329,28.477c-4.198-8.924-18.377-17.081-18.474-28.381
		c-0.023-5.326,4.103-9.669,9.165-9.669c5.086,0,9.235,4.295,9.235,9.621c0-5.351,4.104-9.669,9.165-9.669
		C60.594,74.31,64.721,78.628,64.744,83.954z"/>
	<path fill="#E6180A" d="M27.941,157.953c0.023-11.301,14.179-19.529,18.329-28.479c4.199,8.925,18.378,17.081,18.474,28.381
		c0.023,5.326-4.103,9.669-9.165,9.669c-5.086,0-9.236-4.295-9.236-9.62c0,5.35-4.103,9.668-9.163,9.668
		C32.092,167.597,27.966,163.278,27.941,157.953z"/>
	<path fill="#E6180A" d="M27.941,212.087c0.023-11.299,14.179-19.528,18.329-28.478c4.199,8.925,18.378,17.082,18.474,28.382
		c0.023,5.325-4.103,9.668-9.165,9.668c-5.086,0-9.236-4.293-9.236-9.619c0,5.35-4.103,9.668-9.163,9.668
		C32.092,221.732,27.966,217.414,27.941,212.087z"/>
	<path fill="#E6180A" d="M144.572,29.818c-0.024,11.3-14.179,19.529-18.329,28.477c-4.198-8.924-18.377-17.081-18.474-28.381
		c-0.023-5.326,4.103-9.668,9.165-9.668c5.086,0,9.235,4.294,9.235,9.62c0-5.35,4.104-9.668,9.165-9.668
		C140.422,20.173,144.548,24.492,144.572,29.818z"/>
	<path fill="#E6180A" d="M144.572,83.954c-0.024,11.3-14.179,19.528-18.329,28.477c-4.198-8.924-18.377-17.081-18.474-28.381
		c-0.023-5.326,4.103-9.669,9.165-9.669c5.086,0,9.235,4.295,9.235,9.621c0-5.351,4.104-9.669,9.165-9.669
		C140.422,74.31,144.548,78.628,144.572,83.954z"/>
	<path fill="#E6180A" d="M107.77,157.953c0.023-11.301,14.179-19.529,18.329-28.479c4.197,8.925,18.378,17.081,18.474,28.381
		c0.023,5.326-4.103,9.669-9.165,9.669c-5.086,0-9.236-4.295-9.236-9.62c0,5.35-4.103,9.668-9.165,9.668
		C111.92,167.597,107.794,163.278,107.77,157.953z"/>
	<path fill="#E6180A" d="M107.77,212.087c0.023-11.299,14.179-19.528,18.329-28.478c4.197,8.925,18.378,17.082,18.474,28.382
		c0.023,5.325-4.103,9.668-9.165,9.668c-5.086,0-9.236-4.293-9.236-9.619c0,5.35-4.103,9.668-9.165,9.668
		C111.92,221.732,107.794,217.414,107.77,212.087z"/>
	<path fill="#E6180A" d="M104.658,56.887c-0.024,11.299-14.179,19.529-18.329,28.477c-4.198-8.925-18.377-17.081-18.474-28.381
		c-0.023-5.326,4.103-9.668,9.165-9.668c5.086,0,9.235,4.294,9.235,9.621c0-5.35,4.104-9.668,9.165-9.668
		C100.508,47.243,104.634,51.561,104.658,56.887z"/>
	<path fill="#E6180A" d="M160.626,213.667c-0.289-0.572-0.6-0.996-0.936-1.27c-0.625-0.473-1.478-0.709-2.558-0.709
		c-1.104,0-2.021,0.45-2.754,1.352c-0.732,0.9-1.17,2.106-1.313,3.619c-0.145,1.514-0.215,3.613-0.215,6.305
		c0.381-1.022,0.873-1.76,1.471-2.211c0.717-0.57,1.709-0.855,2.977-0.855c1.65,0,3.052,0.66,4.197,1.98
		c1.148,1.318,1.723,3.07,1.723,5.256c0,2.494-0.672,4.464-2.016,5.902c-1.344,1.44-3.119,2.16-5.328,2.16
		c-2.256,0-4.024-1.002-5.311-3.006c-1.283-2.004-1.926-4.723-1.926-8.154c0-3.384,0.696-6.252,2.088-8.604
		c1.606-2.713,3.793-4.068,6.553-4.068c1.561,0,2.771,0.408,3.635,1.225c0.744,0.695,1.117,1.523,1.117,2.484
		c0,1.055-0.393,1.691-1.178,1.907c-0.261,0.072-0.511,0.108-0.748,0.108c-0.523,0-0.963-0.168-1.32-0.5
		c-0.354-0.332-0.535-0.76-0.535-1.282c0-0.548,0.15-0.979,0.451-1.302c0.301-0.32,0.689-0.48,1.17-0.48
		c0.146,0,0.275,0.012,0.396,0.035C160.386,213.585,160.507,213.621,160.626,213.667z M156.267,220.546
		c-1.328,0-2.254,0.648-2.775,1.947c-0.404,1.012-0.604,2.672-0.604,4.98c0,2.117,0.153,3.717,0.463,4.8
		c0.498,1.731,1.375,2.599,2.633,2.599c1.067,0,1.852-0.588,2.35-1.769c0.498-1.179,0.746-2.946,0.746-5.306
		c0-2.383-0.225-4.188-0.676-5.414C157.95,221.16,157.239,220.546,156.267,220.546z"/>
	<path fill="#E6180A" d="M10.545,31.951c0.289,0.573,0.601,0.996,0.937,1.27c0.625,0.473,1.477,0.709,2.557,0.709
		c1.104,0,2.021-0.45,2.754-1.351c0.733-0.901,1.17-2.107,1.314-3.62c0.144-1.513,0.215-3.613,0.215-6.304
		c-0.381,1.022-0.873,1.759-1.471,2.211c-0.718,0.57-1.709,0.855-2.978,0.855c-1.649,0-3.051-0.66-4.197-1.98
		c-1.147-1.319-1.723-3.071-1.723-5.256c0-2.495,0.672-4.464,2.016-5.903c1.345-1.44,3.119-2.16,5.328-2.16
		c2.257,0,4.025,1.002,5.312,3.006c1.283,2.004,1.926,4.722,1.926,8.154c0,3.384-0.697,6.252-2.088,8.604
		c-1.607,2.713-3.793,4.068-6.553,4.068c-1.562,0-2.771-0.408-3.636-1.225c-0.743-0.695-1.116-1.523-1.116-2.483
		c0-1.056,0.393-1.692,1.178-1.908c0.26-0.072,0.51-0.108,0.748-0.108c0.522,0,0.963,0.167,1.32,0.499
		c0.354,0.333,0.534,0.761,0.534,1.283c0,0.547-0.149,0.98-0.45,1.301c-0.302,0.321-0.689,0.481-1.171,0.481
		c-0.145,0-0.274-0.012-0.396-0.035C10.785,32.034,10.664,31.999,10.545,31.951z M14.904,25.073c1.328,0,2.254-0.649,2.775-1.948
		c0.403-1.011,0.604-2.671,0.604-4.98c0-2.117-0.154-3.717-0.463-4.8c-0.498-1.732-1.375-2.599-2.633-2.599
		c-1.068,0-1.853,0.589-2.351,1.769c-0.498,1.179-0.746,2.947-0.746,5.305c0,2.383,0.226,4.188,0.677,5.414
		C13.221,24.46,13.932,25.073,14.904,25.073z"/>
</g>
</svg>
