<?xml version="1.0" encoding="utf-8"?>
<!-- Generator: Adobe Illustrator 16.0.0, SVG Export Plug-In . SVG Version: 6.00 Build 0)  -->
<!DOCTYPE svg PUBLIC "-//W3C//DTD SVG 1.1//EN" "http://www.w3.org/Graphics/SVG/1.1/DTD/svg11.dtd">
<svg version="1.1" id="Layer_1" xmlns="http://www.w3.org/2000/svg" xmlns:xlink="http://www.w3.org/1999/xlink" x="0px" y="0px"
	 width="171.512px" height="247.046px" viewBox="0 0 171.512 247.046" enable-background="new 0 0 171.512 247.046"
	 xml:space="preserve">
<g>
	<path fill="#FFFFFF" d="M9.367,245.8c-4.476,0-8.117-3.641-8.117-8.117V9.368c0-4.476,3.642-8.118,8.117-8.118h152.788
		c4.471,0,8.107,3.642,8.107,8.118v228.315c0,4.477-3.638,8.117-8.107,8.117H9.367z"/>
	<path fill="#D4D4D4" d="M162.155,2.5c3.769,0,6.857,3.089,6.857,6.868v228.315c0,3.777-3.09,6.867-6.857,6.867H9.367
		c-3.778,0-6.867-3.09-6.867-6.867V9.368C2.5,5.589,5.589,2.5,9.367,2.5H162.155 M162.155,0H9.367C4.202,0,0,4.202,0,9.368v228.315
		c0,5.165,4.202,9.367,9.367,9.367h152.788c5.16,0,9.357-4.202,9.357-9.367V9.368C171.513,4.202,167.315,0,162.155,0z"/>
	<path fill="#E6180A" d="M23.812,48.705c-0.012,4.708-5.908,8.137-7.639,11.865c-1.749-3.718-7.656-7.117-7.696-11.825
		c-0.011-2.219,1.71-4.029,3.817-4.029c2.119,0,3.85,1.79,3.85,4.009c0-2.229,1.71-4.029,3.818-4.029
		C22.083,44.687,23.802,46.486,23.812,48.705z"/>
	<path fill="#E6180A" d="M148.695,197.348c0.01-4.708,5.908-8.138,7.638-11.865c1.749,3.72,7.657,7.117,7.697,11.825
		c0.01,2.22-1.71,4.027-3.819,4.027c-2.119,0-3.849-1.789-3.849-4.008c0,2.229-1.709,4.028-3.818,4.028
		C150.425,201.367,148.705,199.567,148.695,197.348z"/>
	<path fill="#E6180A" d="M64.743,29.818c-0.022,11.3-14.179,19.529-18.329,28.477c-4.198-8.924-18.377-17.081-18.473-28.381
		c-0.024-5.326,4.103-9.668,9.164-9.668c5.086,0,9.235,4.294,9.235,9.62c0-5.35,4.104-9.668,9.165-9.668
		C60.593,20.173,64.72,24.492,64.743,29.818z"/>
	<path fill="#E6180A" d="M64.743,106.73c-0.022,11.3-14.179,19.529-18.329,28.479c-4.198-8.926-18.377-17.082-18.473-28.381
		c-0.024-5.326,4.103-9.669,9.164-9.669c5.086,0,9.235,4.295,9.235,9.621c0-5.351,4.104-9.669,9.165-9.669
		C60.593,97.087,64.72,101.405,64.743,106.73z"/>
	<path fill="#E6180A" d="M27.941,212.087c0.023-11.299,14.179-19.528,18.329-28.478c4.197,8.925,18.377,17.082,18.474,28.382
		c0.023,5.325-4.103,9.668-9.165,9.668c-5.086,0-9.236-4.293-9.236-9.619c0,5.35-4.103,9.668-9.164,9.668
		C32.092,221.732,27.966,217.414,27.941,212.087z"/>
	<path fill="#E6180A" d="M144.571,29.818c-0.023,11.3-14.179,19.529-18.329,28.477c-4.198-8.924-18.377-17.081-18.473-28.381
		c-0.024-5.326,4.102-9.668,9.164-9.668c5.086,0,9.235,4.294,9.235,9.62c0-5.35,4.104-9.668,9.165-9.668
		C140.421,20.173,144.548,24.492,144.571,29.818z"/>
	<path fill="#E6180A" d="M144.571,106.73c-0.023,11.3-14.179,19.529-18.329,28.479c-4.198-8.926-18.377-17.082-18.473-28.381
		c-0.024-5.326,4.102-9.669,9.164-9.669c5.086,0,9.235,4.295,9.235,9.621c0-5.351,4.104-9.669,9.165-9.669
		C140.421,97.087,144.548,101.405,144.571,106.73z"/>
	<path fill="#E6180A" d="M107.77,212.087c0.022-11.299,14.179-19.528,18.329-28.478c4.197,8.925,18.377,17.082,18.473,28.382
		c0.024,5.325-4.104,9.668-9.164,9.668c-5.086,0-9.236-4.293-9.236-9.619c0,5.35-4.103,9.668-9.165,9.668
		C111.92,221.732,107.793,217.414,107.77,212.087z"/>
	<path fill="#E6180A" d="M104.657,83.954c-0.023,11.3-14.179,19.528-18.329,28.477C82.13,103.507,67.951,95.35,67.855,84.05
		c-0.024-5.326,4.103-9.669,9.164-9.669c5.087,0,9.236,4.295,9.236,9.621c0-5.351,4.104-9.669,9.164-9.669
		C100.507,74.31,104.634,78.628,104.657,83.954z"/>
	<path fill="#E6180A" d="M161.729,233.058c-0.405,0.951-0.812,1.545-1.217,1.783c-0.405,0.236-1.038,0.355-1.897,0.355
		c-1.001,0-2.117-0.75-3.346-2.25c-1.229-1.5-2.152-2.25-2.773-2.25c-0.835,0-1.461,0.401-1.879,1.206
		c-0.417,0.804-0.626,1.902-0.626,3.294h-0.433c-0.023-0.168-0.035-0.42-0.035-0.756c0-0.984,0.197-2.016,0.594-3.096
		c0.397-1.08,0.834-1.992,1.314-2.736c1.104-1.68,1.799-2.82,2.088-3.42c0.72-1.512,1.08-4.188,1.08-8.027
		c0-2.137,0.19-3.637,0.575-4.5c0.384-0.863,0.984-1.297,1.8-1.297c0.647,0,1.151,0.229,1.513,0.686
		c0.432,0.552,0.646,1.464,0.646,2.736c0,0.959-0.264,2.088-0.791,3.385c-0.646,1.561-1.778,3.576-3.403,6.05
		c-0.859,1.271-1.713,2.544-2.562,3.815c-0.849,1.272-1.38,2.186-1.595,2.737c0.43-0.183,0.805-0.312,1.127-0.392
		c0.322-0.078,0.662-0.117,1.021-0.117c0.452,0,0.918,0.048,1.395,0.145c0.812,0.239,1.467,0.42,1.967,0.539
		c0.955,0.264,1.754,0.396,2.397,0.396c0.523,0,0.988-0.086,1.396-0.254c0.787-0.34,1.336-1.16,1.646-2.465
		c0.19-0.773,0.287-1.619,0.287-2.537h0.432c0,0.72-0.023,1.728-0.072,3.022c-0.048,1.296-0.071,2.231-0.071,2.81v0.396
		c0,0.937,0.071,1.896,0.217,2.88h-0.434L161.729,233.058z"/>
	<path fill="#E6180A" d="M9.628,12.561c0.406-0.951,0.812-1.545,1.218-1.783c0.405-0.237,1.037-0.356,1.896-0.356
		c1.001,0,2.117,0.75,3.346,2.25c1.229,1.5,2.153,2.25,2.774,2.25c0.835,0,1.461-0.401,1.878-1.206
		c0.417-0.804,0.626-1.902,0.626-3.294h0.432c0.023,0.168,0.036,0.42,0.036,0.756c0,0.984-0.197,2.016-0.594,3.096
		c-0.396,1.08-0.834,1.992-1.314,2.736c-1.104,1.68-1.8,2.82-2.088,3.42c-0.72,1.512-1.08,4.188-1.08,8.028
		c0,2.136-0.191,3.636-0.575,4.5c-0.385,0.863-0.984,1.296-1.801,1.296c-0.647,0-1.151-0.229-1.512-0.685
		c-0.432-0.552-0.647-1.464-0.647-2.736c0-0.96,0.264-2.089,0.792-3.385c0.645-1.561,1.778-3.576,3.403-6.05
		c0.859-1.271,1.713-2.544,2.562-3.816c0.849-1.272,1.38-2.185,1.595-2.737c-0.43,0.182-0.805,0.312-1.127,0.391
		c-0.322,0.079-0.662,0.118-1.02,0.118c-0.453,0-0.919-0.048-1.396-0.144c-0.811-0.24-1.466-0.42-1.967-0.54
		c-0.954-0.264-1.753-0.396-2.397-0.396c-0.524,0-0.989,0.085-1.395,0.254c-0.788,0.339-1.336,1.16-1.646,2.465
		c-0.19,0.773-0.287,1.619-0.287,2.537H8.91c0-0.72,0.024-1.728,0.072-3.023c0.048-1.296,0.072-2.232,0.072-2.809v-0.396
		c0-0.937-0.072-1.896-0.217-2.88H9.27L9.628,12.561z"/>
</g>
</svg>
