<?xml version="1.0" encoding="utf-8"?>
<!-- Generator: Adobe Illustrator 16.0.0, SVG Export Plug-In . SVG Version: 6.00 Build 0)  -->
<!DOCTYPE svg PUBLIC "-//W3C//DTD SVG 1.1//EN" "http://www.w3.org/Graphics/SVG/1.1/DTD/svg11.dtd">
<svg version="1.1" id="Layer_1" xmlns="http://www.w3.org/2000/svg" xmlns:xlink="http://www.w3.org/1999/xlink" x="0px" y="0px"
	 width="171.512px" height="247.046px" viewBox="0 0 171.512 247.046" enable-background="new 0 0 171.512 247.046"
	 xml:space="preserve">
<g>
	<path fill="#FFFFFF" d="M9.367,245.8c-4.476,0-8.117-3.641-8.117-8.117V9.368c0-4.476,3.642-8.118,8.117-8.118h152.788
		c4.47,0,8.107,3.642,8.107,8.118v228.315c0,4.477-3.638,8.117-8.107,8.117H9.367z"/>
	<path fill="#D4D4D4" d="M162.155,2.5c3.769,0,6.857,3.089,6.857,6.868v228.315c0,3.777-3.09,6.867-6.857,6.867H9.367
		c-3.778,0-6.867-3.09-6.867-6.867V9.368C2.5,5.589,5.589,2.5,9.367,2.5H162.155 M162.155,0H9.367C4.202,0,0,4.202,0,9.368v228.315
		c0,5.165,4.202,9.367,9.367,9.367h152.788c5.16,0,9.357-4.202,9.357-9.367V9.368C171.513,4.202,167.315,0,162.155,0z"/>
	<path fill="#E6180A" d="M23.812,48.705c-0.012,4.708-5.908,8.137-7.639,11.865c-1.749-3.718-7.656-7.117-7.696-11.825
		c-0.011-2.219,1.71-4.029,3.817-4.029c2.119,0,3.85,1.79,3.85,4.009c0-2.229,1.71-4.029,3.818-4.029
		C22.083,44.687,23.802,46.486,23.812,48.705z"/>
	<path fill="#E6180A" d="M148.7,197.348c0.011-4.708,5.908-8.138,7.638-11.865c1.749,3.72,7.657,7.117,7.697,11.825
		c0.01,2.22-1.71,4.027-3.819,4.027c-2.118,0-3.848-1.789-3.848-4.008c0,2.229-1.71,4.028-3.819,4.028
		C150.43,201.367,148.711,199.567,148.7,197.348z"/>
	<path fill="#E6180A" d="M64.743,29.818c-0.022,11.3-14.179,19.529-18.329,28.477c-4.198-8.924-18.377-17.081-18.473-28.381
		c-0.024-5.326,4.103-9.668,9.164-9.668c5.086,0,9.236,4.294,9.236,9.62c0-5.35,4.103-9.668,9.164-9.668
		C60.593,20.173,64.72,24.492,64.743,29.818z"/>
	<path fill="#E6180A" d="M64.743,106.73c-0.022,11.3-14.179,19.529-18.329,28.479c-4.198-8.926-18.377-17.082-18.473-28.381
		c-0.024-5.326,4.103-9.669,9.164-9.669c5.086,0,9.236,4.295,9.236,9.621c0-5.351,4.103-9.669,9.164-9.669
		C60.593,97.087,64.72,101.405,64.743,106.73z"/>
	<path fill="#E6180A" d="M27.941,212.087c0.022-11.299,14.179-19.528,18.329-28.478c4.197,8.925,18.377,17.082,18.473,28.382
		c0.024,5.325-4.103,9.668-9.164,9.668c-5.086,0-9.236-4.293-9.236-9.619c0,5.35-4.103,9.668-9.164,9.668
		C32.092,221.732,27.965,217.414,27.941,212.087z"/>
	<path fill="#E6180A" d="M144.571,29.818c-0.023,11.3-14.179,19.529-18.329,28.477c-4.198-8.924-18.377-17.081-18.474-28.381
		c-0.023-5.326,4.103-9.668,9.165-9.668c5.086,0,9.235,4.294,9.235,9.62c0-5.35,4.104-9.668,9.165-9.668
		C140.421,20.173,144.548,24.492,144.571,29.818z"/>
	<path fill="#E6180A" d="M144.571,106.73c-0.023,11.3-14.179,19.529-18.329,28.479c-4.198-8.926-18.377-17.082-18.474-28.381
		c-0.023-5.326,4.103-9.669,9.165-9.669c5.086,0,9.235,4.295,9.235,9.621c0-5.351,4.104-9.669,9.165-9.669
		C140.421,97.087,144.548,101.405,144.571,106.73z"/>
	<path fill="#E6180A" d="M107.769,212.087c0.023-11.299,14.18-19.528,18.33-28.478c4.197,8.925,18.377,17.082,18.473,28.382
		c0.024,5.325-4.104,9.668-9.164,9.668c-5.087,0-9.237-4.293-9.237-9.619c0,5.35-4.103,9.668-9.164,9.668
		C111.92,221.732,107.793,217.414,107.769,212.087z"/>
	<path fill="#E6180A" d="M151.801,232.93c0.12,0.473,0.408,0.874,0.864,1.202c0.672,0.494,1.553,0.74,2.642,0.74
		c1.118,0,2.05-0.459,2.793-1.381c0.741-0.922,1.198-2.23,1.368-3.93c0.05-0.407,0.073-0.861,0.073-1.363v-4.63
		c-0.409,1.056-0.879,1.8-1.409,2.231c-0.697,0.576-1.686,0.863-2.962,0.863c-1.662,0-3.07-0.66-4.227-1.979
		c-1.156-1.32-1.734-3.072-1.734-5.256c0-2.497,0.661-4.465,1.98-5.904s3.145-2.16,5.472-2.16c2.4,0,4.164,0.973,5.292,2.916
		c1.128,1.944,1.692,4.682,1.692,8.208c0,3.384-0.671,6.253-2.017,8.604c-1.56,2.734-3.72,4.104-6.479,4.104
		c-1.561,0-2.748-0.396-3.564-1.188c-0.695-0.674-1.044-1.502-1.044-2.484c0-1.031,0.346-1.68,1.035-1.943
		c0.356-0.121,0.654-0.181,0.892-0.181c0.523,0,0.976,0.156,1.355,0.468c0.38,0.312,0.57,0.721,0.57,1.226
		c0,0.6-0.149,1.092-0.45,1.476c-0.3,0.385-0.714,0.576-1.242,0.576c-0.144,0-0.288-0.018-0.432-0.055
		C152.125,233.056,151.969,233.001,151.801,232.93z M156.154,226.018c1.311,0,2.246-0.746,2.804-2.237
		c0.438-1.156,0.655-2.72,0.655-4.691c0-2.334-0.109-3.935-0.328-4.801c-0.437-1.731-1.383-2.599-2.84-2.599
		c-1.092,0-1.899,0.595-2.421,1.786c-0.522,1.191-0.783,2.953-0.783,5.288c0,1.756,0.11,3.139,0.328,4.149
		C154.03,224.983,154.892,226.018,156.154,226.018z"/>
	<path fill="#E6180A" d="M19.927,12.689c-0.119-0.473-0.407-0.874-0.863-1.203c-0.672-0.494-1.554-0.74-2.642-0.74
		c-1.118,0-2.05,0.46-2.793,1.381c-0.741,0.922-1.198,2.231-1.369,3.93c-0.049,0.407-0.072,0.861-0.072,1.363v4.63
		c0.409-1.056,0.879-1.8,1.409-2.232c0.697-0.576,1.686-0.863,2.962-0.863c1.662,0,3.07,0.66,4.227,1.979
		c1.156,1.32,1.734,3.072,1.734,5.256c0,2.497-0.661,4.464-1.98,5.904c-1.319,1.439-3.145,2.16-5.472,2.16
		c-2.4,0-4.164-0.973-5.292-2.916c-1.128-1.944-1.692-4.681-1.692-8.208c0-3.384,0.671-6.252,2.017-8.604
		c1.56-2.735,3.72-4.104,6.479-4.104c1.561,0,2.748,0.396,3.564,1.188c0.695,0.673,1.044,1.501,1.044,2.484
		c0,1.032-0.346,1.68-1.035,1.944c-0.356,0.12-0.654,0.18-0.893,0.18c-0.522,0-0.975-0.156-1.354-0.468s-0.57-0.721-0.57-1.225
		c0-0.6,0.149-1.092,0.45-1.476c0.3-0.384,0.714-0.576,1.242-0.576c0.144,0,0.288,0.018,0.432,0.054
		C19.603,12.563,19.759,12.618,19.927,12.689z M15.574,19.601c-1.311,0-2.246,0.746-2.804,2.237
		c-0.438,1.156-0.655,2.72-0.655,4.692c0,2.334,0.109,3.934,0.328,4.8c0.437,1.732,1.383,2.599,2.84,2.599
		c1.092,0,1.899-0.595,2.421-1.786c0.522-1.191,0.783-2.953,0.783-5.288c0-1.756-0.11-3.139-0.328-4.15
		C17.698,20.636,16.836,19.601,15.574,19.601z"/>
</g>
</svg>
