<?xml version="1.0" encoding="utf-8"?>
<!-- Generator: Adobe Illustrator 16.0.0, SVG Export Plug-In . SVG Version: 6.00 Build 0)  -->
<!DOCTYPE svg PUBLIC "-//W3C//DTD SVG 1.1//EN" "http://www.w3.org/Graphics/SVG/1.1/DTD/svg11.dtd">
<svg version="1.1" id="Layer_1" xmlns="http://www.w3.org/2000/svg" xmlns:xlink="http://www.w3.org/1999/xlink" x="0px" y="0px"
	 width="171.512px" height="247.046px" viewBox="0 0 171.512 247.046" enable-background="new 0 0 171.512 247.046"
	 xml:space="preserve">
<g>
	<path fill="#FFFFFF" d="M9.367,245.8c-4.476,0-8.117-3.643-8.117-8.117V9.367c0-4.476,3.642-8.117,8.117-8.117h152.789
		c4.47,0,8.107,3.642,8.107,8.117v228.315c0,4.476-3.638,8.116-8.107,8.116H9.367V245.8z"/>
	<path fill="#D4D4D4" d="M162.156,2.5c3.769,0,6.857,3.089,6.857,6.867v228.315c0,3.778-3.09,6.866-6.857,6.866H9.367
		c-3.778,0-6.867-3.088-6.867-6.866V9.367C2.5,5.589,5.589,2.5,9.367,2.5H162.156 M162.156,0H9.367C4.202,0,0,4.202,0,9.367v228.315
		c0,5.165,4.202,9.366,9.367,9.366h152.789c5.16,0,9.357-4.201,9.357-9.366V9.367C171.513,4.202,167.315,0,162.156,0z"/>
	<polyline fill="#E6180A" points="103.305,201.771 102.556,203.218 103.329,208.25 105.344,207.901 109.337,205.199 
		104.897,200.974 	"/>
	<path fill="#E6180A" d="M118.579,68.238c0.28,0.105-6.415,6.417-7.256,6.417l-5.68,3.155l-3.384,4.996l-2.542,5.627l-0.155,6.24
		l2.366,3.364l5.029,1.035l6.293-1.104l6.896-4.387l3.494-4.527l1.32-4.422l-0.466-2.948l-3.131-1.512l-2.674-0.25l-0.188-1.126
		l0.481-2.705l-2.291-1.826l-4.182,0.275l6.79-6.141l7.035,1.784l3.32-0.601l9.454,11.602l-5.059,6.97l-0.781,3.012l1.051,4.241
		l1.579,4.349l-0.773,4.697l-1.19,1.683l0.14,3.716l-0.737,1.893l-2.559,1.088l-2.384-1.017l-1.472-2.559l0.737-2.981l1.997-1.122
		l1.788-0.034l0.316-0.525l-1.402-3.612l-3.19-2.348l-2.595-0.141l-6.309,4.276l-0.702,3.683l-0.069,6.169l6.101,4.032l2.768,4.452
		l0.876,5.188l0.702,6.451l5.784,14.373l2.032,3.646l-0.771,0.631l-4.732-2.209l-4.277-4.418l-0.245-3.364l0.808-2.63l-1.123-1.963
		l-1.893,0.035l-1.191,1.894l0.176,1.543l1.542,2.523l-0.7,3.893l-2.806,5.188l-1.473,0.035l-2.91-4.139l-1.613-5.504l1.509-3.574
		l-0.034-1.438l-2.56-2.067l-1.964,0.631l-1.437,2.207l1.473,4.805l-1.579,2.841l-5.926,5.013l-1.085-0.632l-1.368-3.575
		l-0.351-5.328l3.227-2.524l0.246-2.804l-1.824-1.578l-1.997,0.314l-1.999,1.438l-0.14,2.63l0.034,3.155l-3.961,5.084l-4.383,3.33
		l-1.822-0.492L87.84,147.4l-0.14-9.676l3.856-2.033l1.122-2.208l-1.229-1.964l-2.524-0.771l-2.208,1.402l-0.981,2.312l0.736,3.156
		l-1.613,1.787l-2.382,2l-6.206,2.943l-2.735,0.42l0.035-3.996l2.173-6.904l1.824-2.631l4.136-1.228l1.333-2.56l-0.736-1.998
		l-2.664-1.191l-2.42,1.367l-0.842,1.611l-0.455,2.385l-3.295,2.278l-8.59,2.63l-1.226-1.156l2.559-7.398l3.364-3.33l3.961-0.56
		l1.613-2.771l-0.771-2.63l-2.384-1.051l-2.242,1.086l-1.788,3.926l-3.332,2.176l-8.027,1.472l0.91-3.505l1.929-3.577l1.367-1.191
		l2.244-2.49l3.682-0.314l1.471-1.542l0.491-1.368l-0.174-1.402l-1.999-1.296l-3.295,0.979l-1.718,0.105l-3.261-3.155l-1.228-2.033
		l0.771-0.386l4.243,0.105l4.873-1.297l9.572-4.417l4.172-0.806l4.241,0.876l3.225,1.929l-0.069-2.068l1.331-1.719l4.207-0.806
		l0.211-0.527l0.141-3.085l2.278-1.962l1.72-6.065l3.436-5.329l0.035-1.613l-2.208-4.663l0.069-4.943l0.981-2.768l1.928-2.664
		l4.523-1.965l1.822-2.733l1.893-0.876l2.313,0.631l1.473,2.348l-0.737,3.366l-2.804,1.191l-3.225-1.297l-0.632,0.246l-0.457,3.575
		l0.911,3.084l1.999,1.193l7.362-1.858"/>
	<polygon fill="#E6180A" points="118.797,68.179 119.202,68.655 112.366,74.763 111.96,74.286 	"/>
	<polyline fill="#E6180A" points="53.74,106.579 56.839,107.277 59.021,110.986 56.62,122.554 50.38,134.166 40.82,143.986 
		32.396,143.986 31.043,142.151 41.78,132.462 50.38,118.407 	"/>
	<polyline fill="#E6180A" points="108.635,151.02 109.983,150.009 113.854,149.056 115.09,150.178 117.167,158.035 117.897,162.298 
		117.335,170.267 114.137,183.231 111.779,188.955 107.964,193.894 103.305,197.091 103.642,194.848 104.989,192.66 107.57,188.395 
		109.871,181.604 111.947,172.457 112.678,165.946 111.667,158.651 108.749,153.433 	"/>
	<polyline points="87.217,163.537 88.109,162.658 90.875,162.38 93.051,161.596 93.394,161.207 94.54,161.496 95.068,160.755 
		95.87,161.121 96.48,160.985 97.884,160.602 101.239,154.096 102.795,150.292 103.95,150.849 105.315,150.438 114.526,147.612 
		115.127,148.871 113.352,148.992 110.076,149.861 108.142,151.147 108.528,153.246 107.294,153.812 104.776,157.442 
		105.086,158.611 107.385,158.085 108.625,155.571 108.213,154.191 108.891,154.022 111.405,158.615 110.831,163.932 
		112.438,166.732 111.507,173.712 110.51,178.175 109.321,182.854 107.333,188.518 104.143,193.876 103.763,191.494 
		105.683,186.625 104.764,177.923 104.934,169.814 103.043,169.201 101.939,171.083 102.174,189.178 103.197,191.871 
		103.572,194.486 102.836,197.687 104.12,200.983 103.221,202.065 102.355,204.173 103.786,208.037 104.571,208.007 
		109.504,205.016 110.464,207.576 108.096,210.507 104.216,211.33 101.837,207.83 101.434,202.946 101.45,201.194 100.096,200.349 
		99.952,196.75 97.302,189.488 96.574,181.916 96.472,174.492 96.565,169.78 91.042,170.07 90.563,170.942 89.165,170.119 
		86.667,170.839 84.751,170.783 82.586,172.012 78.694,172.928 75.062,173.41 76.504,171.776 84.136,170.273 86.766,168.671 
		87.604,164.685 	"/>
	<rect x="107.97" y="153.246" width="0.941" height="0.896"/>
	<rect x="103.184" y="191.849" width="0.916" height="2.514"/>
	<polygon points="110.255,159.182 111.656,159.015 112.447,166.291 111.046,166.458 	"/>
	<path d="M115.731,148.972c0,0.248,1.938,4.322,1.938,4.322l1.242,6.261l0.15,8.444l-1.938,12.123l-0.497,1.191l0.446,0.249
		l0.498-0.349l5.714-12.072l2.285-9.787l0.497-5.266l0.893,0.347l-0.646,7.649l-2.931,10.483l-4.919,10.185l-5.416,7.205
		l-2.482,1.938l-0.199-1.043l3.129-5.714l3.677-14.011l0.696-8.246l-1.591-9.19l-1.54-4.722"/>
	<polyline fill="#E6180A" points="79.25,45.277 83.17,45.62 85.328,50.518 83.676,54.082 78.253,53.417 77.381,48.362 	"/>
	<polyline fill="#E6180A" points="91.46,40.358 94.682,38.788 95.967,39.234 96.425,40.898 96.436,42.457 95.519,45.083 
		92.343,47.938 86.771,49.21 86.371,47.674 88.353,47.056 91.07,44.395 	"/>
	<ellipse fill="#FF009C" cx="50.981" cy="42.562" rx="2.107" ry="2.238"/>
	<path fill="#00FF0A" d="M58.017,53.912c0.001,1.147-0.981,2.078-2.193,2.078c-1.212,0.001-2.195-0.929-2.196-2.076v-0.002
		c0-1.148,0.982-2.079,2.194-2.079c1.212-0.001,2.195,0.929,2.195,2.077V53.912z"/>
	<path fill="#FF9E00" d="M69.028,70.879c0.001,1.196-1.064,2.167-2.379,2.167c-1.315,0.001-2.382-0.969-2.382-2.165v-0.002
		c-0.001-1.197,1.063-2.168,2.379-2.168c1.314-0.001,2.382,0.969,2.382,2.165V70.879z"/>
	<ellipse fill="#0072FF" cx="75.525" cy="76.707" rx="2.332" ry="2.386"/>
	<path fill="#FFFF00" d="M87.171,79.646c0.001,1.453-1.056,2.633-2.36,2.635c-1.307,0.002-2.365-1.175-2.367-2.629v-0.006
		c-0.001-1.453,1.056-2.633,2.361-2.635c1.306-0.001,2.364,1.176,2.366,2.629V79.646z"/>
	<path fill="#E6180A" d="M62.748,63.711c0.342,0.561,0.027,1.372-0.705,1.814c-0.73,0.441-1.601,0.346-1.942-0.214
		c-0.343-0.56-0.027-1.372,0.705-1.813C61.536,63.056,62.406,63.151,62.748,63.711z"/>
	<ellipse fill="#E6180A" cx="67.592" cy="59.946" rx="0.821" ry="0.946"/>
	<path fill="#E6180A" d="M56.763,69.009c0.146,0.168-0.104,0.576-0.559,0.912c-0.455,0.337-0.942,0.473-1.09,0.306l-0.021-0.032
		c-0.147-0.168,0.103-0.576,0.558-0.912c0.455-0.337,0.943-0.473,1.09-0.306L56.763,69.009z"/>
	<polygon fill="#E6180A" points="39.321,80.431 43.185,76.839 44.99,78.655 41.126,82.247 	"/>
	<polygon fill="#E6180A" points="31.381,86.345 37.014,81.8 38.621,83.653 32.988,88.198 	"/>
	<path fill="#E6180A" d="M29.605,89.402c0.281,0.317,0.159,0.883-0.272,1.264c-0.432,0.38-1.01,0.432-1.291,0.114l-0.045-0.058
		c-0.281-0.317-0.159-0.883,0.272-1.264c0.432-0.38,1.009-0.432,1.291-0.114L29.605,89.402z"/>
	<polyline fill="#E6180A" points="29.028,148.283 30.516,147.748 32.665,148.893 34.606,150.705 34.627,152.626 30.477,154.787 
		28.397,153.406 28.604,149.276 	"/>
	<polyline fill="#E6180A" points="45.593,86.323 50.347,84.819 51.445,86.445 50.063,104.688 52.866,107.938 49.86,119.477 
		46.447,121.021 38.036,117.854 37.63,114.44 40.84,98.756 44.741,87.705 	"/>
	<polyline fill="#E6180A" points="90.338,163.908 103.475,160.897 106.882,159.438 109.36,159.203 110.007,160.396 110.066,166.296 
		109.019,167.285 90.47,168.744 88.568,168.404 88.437,165.882 	"/>
	<path fill="#E6180A" d="M134.882,53.831c0.28,0,2.067,0.28,2.313,0.491c0.246,0.209,1.611,1.893,1.611,1.893l-0.42,3.225
		l0.211,1.368l2.593,4.521l0.981,5.329l-0.981,6.802l-1.822,4.138l-9.746-11.956l3.401-1.086l3.225-3.295l0.736-3.612l-0.314-0.386
		l-3.366-0.42l-1.963-2.91l1.365-3.084"/>
	<path d="M62.896,61.191c-2.417,1.881-5.065,5.243-7.922,6.354c-1.137,0.432-3.132-2.738-4.181-0.104
		c-1.687-0.483-2.963,0.273-3.044,2.029c-1.889,0.006-4.27,1.442-5.329,3.052c-1.059,1.615,0.747,3.398-0.558,4.876
		c-3.044,3.441-7.709,6.129-11.246,9.059c-1.2,0.984-3.582,2.238-3.257,4.115c0.447,2.565,4.487-0.812,5.323-1.521
		c2.419-1.98,4.904-4.273,7.559-5.901c0.528-0.322,1.784-1.709,2.409-1.583c0.691,0.156,2.092,3.646,2.236,4.341
		c0.225,1.218-1.199,3.112-1.602,4.262c-1.36,3.896-2.856,7.794-3.94,11.77c-1.142,4.187-1.184,8.933-2.716,12.987
		c-0.785,2.049-2.438,3.699-3.416,5.682c-1.631,3.312-2.958,7.381-3.854,10.958c-0.854,3.399-0.948,7.457-0.687,10.958
		c0.065,0.635,0.812,1.062,0.803,1.623c-0.015,0.607-1.144,0.764-1.319,1.434c-0.229,0.865,0.445,1.61,0.431,2.422
		c-0.057,3.119-1.386,6.773,0.493,9.74c1.411,2.098,7.104-0.66,7.914-2.334c0.471-0.884-0.203-1.765-0.542-2.535
		c-1.12-2.319-2.932-3.61-4.938-5.119c-0.566-0.44-0.975-2.459-0.46-3.078c0.46-0.526,1.326-0.12,1.881-0.012
		c1.42,0.31,3.186,0.127,4.667,0.094c5.064-0.125,9.605-0.764,14.407-2.572c1.396-0.527,3.902-1.152,4.667-2.5
		c-4.341,0.202-8.214,3.159-12.784,2.436l3.263-3.213c1.437-1.811,6.146-7.338,7.202-9.369c0.751-1.42,1.479-3.844,2.677-4.951
		c0.702-0.648,2.567-0.383,3.499-0.567c2.232-0.453,4.562-1.278,6.402-2.701c1.826-1.412,0.889-4.33,3.744-5.038
		c1.58-0.393,3.005,0.992,3.131,2.506c0.104,1.269-1.02,2.549-2.117,3.046c-1.124,0.509-2.283-0.079-3.45,0.621
		c-2.841,1.696-4.383,5.508-5.3,8.508c-0.26,0.851-0.828,2.732-0.179,3.527c0.769,0.938,4.519-0.281,5.479-0.619
		c2.479-0.815,5.759-1.869,7.596-3.832c0.629-0.674,0.521-1.695,0.813-2.525c0.761-2.153,2.616-3.379,4.745-2.197
		c1.662,0.93,1.352,2.809,0.219,4.023c-1.541,1.642-3.758,0.613-5.073,2.443c-1.922,2.678-2.653,6.555-3.293,9.731
		c-0.151,0.759-0.542,2.892,0.19,3.448c0.608,0.475,1.683,0,2.312-0.197c2.093-0.613,4.096-1.48,5.969-2.622
		c1.836-1.118,3.203-2.455,4.786-3.876c-2.435,4.604-4.468,9.465-6.633,14.205c-0.769,1.682-1.438,4.744-2.803,6.004
		c-1.319,1.218-4.866-1.984-6.189-2.479c-0.659-0.248-1.955-0.558-2.435,0.191c-1.218,1.907,3.038,4.543,4.059,5.616
		c-3.342-0.144-6.81-0.943-10.146-0.804c-1.015,0.043-2.707-0.008-3.45,0.764c-0.812,0.812-0.108,1.605,0.812,1.811
		c2.489,0.549,5.377,1.021,7.914,1.273v0.203c-2.123,0.505-4.354-0.059-6.494,0.322c-0.737,0.131-1.863,0.365-2.232,1.117
		c-0.485,1.076,1.015,1.666,1.827,1.769c2.701,0.341,5.604,0.239,8.32,0.239v0.406c-2.701,0.213-5.284,0.727-7.914,1.373
		c-0.812,0.196-2.678,0.793-1.703,1.963c0.688,0.848,2.107,0.758,3.123,0.723c2.782-0.135,5.546-1.161,8.319-1.219
		c-1.305,1.717-3.935,2.166-5.479,3.855c-2.6,2.912,2.068,1.749,3.45,1.016c-0.761,2.237-1.912,4.325-2.841,6.493
		c-0.319,0.74-1.035,1.765-0.913,2.638c0.101,0.687,0.71,0.406,1.008,0c0.651-1.049,1.069-2.334,1.528-3.449h0.202l-0.405,2.029
		c1.826-0.299,3.097-4.861,3.652-6.494h0.203c-0.203,0.762-1.948,3.68-1.104,4.226c0.495,0.339,0.9-0.661,1.045-0.978
		c0.667-1.543,1.479-3.082,2.088-4.668h0.203l-1.42,4.465c2.335-0.694,2.529-5.207,4.058-6.899l-2.029,5.479
		c1.624-0.133,2.376-3.045,2.842-4.465h0.202l-1.015,3.449c1.469-0.238,2.068-2.367,2.436-3.652h0.202l-0.608,2.639
		c1.318-0.202,1.658-1.71,2.029-2.842h0.202c-0.757,2.437,0.812,1.496,1.42-0.201h0.203v1.217c1.281-0.203,1.624-1.536,2.029-2.639
		h0.203l-0.203,1.826c1.12-0.191,1.386-1.217,1.624-2.231H85.9l-0.203,1.421c1.303-0.104,1.703-1.299,2.029-2.436h0.203
		l-0.203,1.826c0.987-0.177,1.271-1.17,1.624-2.028h0.203v1.217c1.218-0.2,1.563-1.329,1.826-2.435h0.203
		c-0.473,2.705,0.982,0.498,1.865,0.121c0.816-0.324,2.111-0.213,3.005-0.324c0,8.438-0.678,16.338,1.991,24.554
		c0.337,1.037,0.954,1.987,1.218,3.044c0.377,1.51-0.597,3.684,1.66,3.855c-0.144,3.379-0.258,6.638,1.946,9.537
		c1.572,2.028,5.964-0.346,6.912-2.029c1.742-3.098-1.59-5.885-3.988-7.576c-0.856-0.594-3.092-1.938-2.571-3.34
		c0.321-0.854,1.836-1.496,2.571-1.953c1.957-1.217,3.787-2.654,5.469-4.232c4.416-4.148,7.453-9.367,10.079-14.755
		c3.123-6.431,5.355-14.13,5.355-21.308c0-1.826-0.032-3.652-0.06-5.479c-0.006-0.402-0.021-1.568-0.714-1.422
		c-0.67,0.112-0.442,1.516-0.442,1.971c0.06,2.088-0.142,4.117-0.432,6.146c-0.702,4.998-1.648,10.146-3.626,14.812
		c-1.337,3.248-3.45,6.291-4.667,9.539h-0.203c2.638-8.309,3.115-17.652,1.38-26.179c-0.473-2.321-1.264-4.708-2.598-6.696
		c-0.304-0.502-0.644-1.42-1.26-1.623c-0.643-0.25-2.102,0.459-2.713,0.721c-2.044,0.902-4.145,1.672-6.174,2.525
		c1.818-1.562,6.325-4.576,6.271-7.303c-0.035-1.626-1.604-2.844-1.362-4.67c0.156-1.217,1.512-2.436,2.798-2.331
		c0.495,0.044,0.89,0.322,1.274,0.612c2.733,2.064-0.195,3.757-0.201,5.979c-0.006,2.037,1.161,4.881,2.163,6.637
		c0.621,1.119,2.084,4.281,3.774,3.598c0.904-0.369,1.392-1.702,1.781-2.516c1.077-2.234,2.524-4.937,2.104-7.516
		c-0.286-1.754-3.208-3.855-0.219-5.275c0.994-0.489,2.013,0.461,2.173,1.42c0.209,1.244-0.84,2.436-0.878,3.652
		c-0.05,3.078,2.768,5.559,4.956,7.252c0.726,0.572,5.081,3.407,5.633,1.428c0.248-0.885-0.647-2.238-1.014-2.998
		c-1.258-2.561-2.591-5.047-3.607-7.711c-1.303-3.416-2.796-6.695-3.441-10.35c-0.599-3.376-0.209-7.102-1.68-10.314
		c-1.006-2.177-2.709-3.967-4.708-5.273c-1.055-0.688-2.541-1.151-3.362-2.144c-0.606-0.732,0.042-1.736,0.1-2.561
		c0.149-2.184-0.651-4.258,0.345-6.438c0.357-0.779,1.845-1.38,2.516-1.882c1.366-1.096,2.473-2.303,4.263-2.536
		c2.971-0.388,5.852,3.313,6.087,5.986c-0.925,0.002-1.777,0.059-2.639,0.44c-5.183,2.299,0.041,10.979,4.828,6.692
		c1.869-1.69,0.357-3.377,0.6-5.307c0.097-0.785,0.816-1.346,1.158-2.029c0.63-1.267,0.926-3.247,0.847-4.667
		c-0.229-3.083-2.626-5.808-2.506-8.929c0.147-3.842,5.113-7.381,6.781-10.755c2.298-4.727,2.675-10.883,0.743-15.828
		c-0.578-1.481-1.896-2.639-2.425-4.049c-0.284-0.706,0.462-1.512,0.507-2.242c0.16-2.585-1.397-5.038-4.239-4.791
		c-2.939,0.256-4.963,3.842-3.302,6.414c1.07,1.688,3.055,2.17,4.925,1.827c-0.049,5.7-6.442,8.788-11.566,8.029
		c-2.94-0.435-5.207-2.069-8.32-1.934c-2.269,0.1-4.306,0.923-6.494,1.412c-0.718,0.128-1.854,0.608-2.544,0.203
		c-2.76-1.538-1.557-4.823-1.311-7.103c1.624,1.141,3.535,2.029,5.477,0.885c2.895-1.696,2.299-6.676-1.013-7.486
		c-1.552-0.379-3.381,0.24-4.333,1.536c-0.438,0.602-0.465,1.561-1.049,2.034c-1.155,0.933-3.044,1.045-4.318,2.056
		c-2.709,2.146-3.604,6.454-3.255,9.701c0.142,1.335,0.574,2.848,1.183,4.059c0.462,0.915,1.395,1.683,0.973,2.807
		c-0.807,2.143-2.674,4.04-3.648,6.156c-0.774,1.624-0.648,3.678-1.471,5.203c-0.404,0.751-1.335,1.096-1.875,1.752
		c-0.885,1.077-0.71,2.489-0.474,3.766c-2.841-0.667-6.418,1.366-5.682,4.465c-1.228-0.851-2.8-2.029-4.261-2.409
		c-6.214-1.446-12.805,3.682-18.484,5.457c-1.346,0.422-3.038,0.858-4.445,0.806c-1.016-0.049-2.49-0.574-3.394,0.006
		c-1.544,1.009,0.755,2.395,1.161,3.153c0.458,0.834-0.896,0.527-1.218,0.375c-1.217-0.569-4.464-1.998-5.073-3.191
		c-0.442-0.919,0-2.944-0.004-3.994c-0.083-4.157,0.97-8.263,1.019-12.382c0-1.263,0.282-2.609,0.184-3.855
		c-0.06-0.741-0.501-1.474-0.145-2.198c0.517-1.047,1.544-1.86,2.121-2.909c0.797-1.441,1.063-3.087,2.24-4.305
		c1.285-1.343,3.789-2.553,4.669-4.237c0.396-0.755-0.341-1.454-0.021-2.137c0.271-0.627,1.569-1.183,2.115-1.564
		c1.826-1.262,3.531-2.636,5.272-4.008c0.601-0.475,1.51-1.907,2.335-1.092c1.604,1.583,0.593,7.462-1.581,8.247
		c-1.159,0.406-2.303-1.256-3.795-0.608c-1.073,0.418-1.623,1.532-1.623,2.638c-0.065,3.931,6.392,3.277,5.275-0.608
		c4.812-1.315,3.813-7.502,4.913-11.161c0.422-1.404,1.962-2.4,2.19-3.652c0.87-0.258,1.67-1.478,2.483-0.359
		c0.763,1.084-0.105,4.62-0.049,6.041c0.166,3.505,1.218,6.696-0.122,10.146c-0.304,0.771-0.579,2.029-1.341,2.457
		c-0.54,0.574-2.252,0.243-3.33,0.745c-2.011,1.429-1.55,6,2.45,4.586c2.157-0.761,0.994-2.22,2.025-3.573
		c1.074-1.413,2.792-2.283,3.769-3.808c2.22-3.439,1.075-7.504,0.406-11.16c-0.203-1.071-0.678-5.233,1.209-5.233
		c0.714,0,1.019,1.053,1.215,1.58c0.67,1.826,1.337,3.601,1.751,5.479c0.897,4.129,1.396,9.874-1.204,13.596
		c-0.857,1.218-2.701,0.629-3.378,2.236c-0.68,1.757,0.134,3.724,2.029,4.149c2.029,0.463,3.529-1.209,3.44-3.137
		c-0.031-0.715-0.606-1.575-0.25-2.232c0.566-1.062,1.654-1.741,2.21-2.841c1.801-3.565,2.072-8.626,0.747-12.378
		c-1.075-2.961-5.953-6.494-4.95-9.741c0.829-2.69,3.988-2.214,6.105-3.327c4.793-2.522,5.917-5.993,4.269-10.64
		c-0.116-0.812,0.882-1.604,0.394-2.439c-0.438-0.749-1.415-0.639-1.869,0c-0.909,1.291,0.753,2.202-0.896,3.458
		c-1.022,0.793-2.358,0.499-3.518,0.915c-0.538,0.195-0.919,0.792-1.473,0.896c-0.869,0.18-1.654-0.498-2.479,0.18
		c-1.332,1.018-0.919,3.988-3.354,4.262c-3.766,0.339-3.474-2.559-5.372-4.87c-1.477-1.8-3.76-2.877-5.992-3.403
		c-3.317-0.779-7.062,0.12-9.138,3.03c-1.211,1.687-1.764,5.806-4.458,5.714c-1.051-0.036-3.719-0.866-4.131-1.936
		c-0.536-1.311,0.347-2.596-1.165-3.608c-1.429-0.931-3.563-0.296-3.959,1.423c-0.369,1.619,0.327,3.411,2.152,3.607
		c0.736,0.082,1.513-0.365,2.198-0.025c1.824,0.97,3.218,2.638,5.513,2.205c2.989-0.563,3.855-4.571,6.089-6.339
		c2.751-2.168,7.826-0.321,10.552,1.041c0.981,0.523,2.568,1.335,2.773,2.553c0.228,1.337-2.57,0.465-3.18,0.405
		c-3.373-0.48-7.305,0.55-9.083,3.657c-1.287,2.246-0.329,4.671-3.499,5.617c-0.871,0.264-2.184,0.669-2.939-0.053
		c-0.98-0.901-0.566-2.494-2.138-3c-1.683-0.537-3.56,0.218-3.807,2.101c-0.053,0.408,0,0.828,0.126,1.218
		c1.045,3.302,3.65,0.86,5.712,1.124c1.995,0.256,3.854,0.842,5.674-0.601c2.289-1.814,1.834-4.582,5.081-5.73
		c1.345-0.471,5.538-1.607,6.159,0.339c0.446,1.416-1.518,2.313-2.388,2.984c-2.021,1.561-3.998,3.219-6.002,4.849
		C66.798,58.178,63.745,60.542,62.896,61.191z M86.915,47.758c2.005-0.203,4.409-2.571,4.957-4.465
		c0.242-0.812-0.191-2.029,0.294-2.771c0.55-0.824,2.976-1.969,3.63-0.865c2.146,3.637-2.411,8.136-5.637,8.533
		C89.146,48.313,87.32,49.144,86.915,47.758z M50.794,40.533c2.47-0.322,3.121,3.782,0.608,4.136
		C48.72,45.046,48.156,40.874,50.794,40.533z M85.494,43.901c-0.069,0.619,0.203,1.854,1.106,1.131
		c0.372-0.301-1.451-2.146-0.375-3.239c0.612-0.608,1.583-0.055,2.312-0.158c0.7-0.099,1.42-0.929,2.167-0.641
		c0.937,0.365,0.416,2.311,0.065,2.926c-0.913,1.632-3.19,3.953-5.276,3.578C83.209,47.082,84.063,44.76,85.494,43.901z
		 M88.335,42.685l0.812,1.42C90.474,43.293,89.755,42.011,88.335,42.685z M86.508,44.846c-0.072,0.072-0.39,0.243-0.521,0.192
		c-0.131-0.051-0.314-1.478-0.314-1.478L86.508,44.846z M80.827,45.678c2.374-0.559,4.44,4.328,3.706,6.138
		c-0.627,1.528-1.638,0.301-2.691,0.559c-0.608,0.15-0.812,0.87-1.433,0.99c-0.394,0.077-0.838-0.113-0.851-0.532
		c-0.024-0.855,1.324-1.12,0.97-2.022c-0.375-0.952-2.746-0.29-2.542-1.427c0.239-1.344,1.932,0,2.417-0.868
		C80.871,47.709,79.256,46.055,80.827,45.678z M55.258,52.088c2.609-0.475,3.689,3.281,0.812,3.74
		C53.576,56.228,52.675,52.572,55.258,52.088z M135.21,150.843c-3.854-0.744-8.15-3.934-9.174-7.914
		c-0.574-2.23,2.562-5.146-0.972-6.59c-1.724-0.713-3.131,1.724-3.129,3.141c0.002,1.482,1.233,2.141,1.591,3.449
		c0.563,2.054-1.303,5.145-2.198,6.898c-0.322,0.609-0.741,1.737-1.54,1.844c-1.22,0.187-2.677-3.159-3.07-4.075
		c-0.605-1.412-1.684-3.503-1.533-5.072c0.087-0.907,0.815-1.577,1.053-2.437c0.579-2.111-0.197-4.262-2.333-5.043
		c-1.5-0.549-3.45,0.791-3.898,2.205c-0.769,2.258,1.304,3.767,1.02,5.682c-0.422,2.841-5.075,5.574-7.064,7.306h-0.203
		c-1.774-1.585-1.623-3.854-1.91-6.088c-0.118-0.812-0.391-2.187,0.085-2.924c1.165-1.743,3.652-2.009,3.15-4.787
		c-0.536-2.948-4.166-3.334-5.911-1.21c-1.702,2.066,0.105,4.188-0.832,6.283c-1.518,3.393-5.132,5.968-7.77,8.318
		c0,0-1.029-0.008-1.229-0.211s-0.646-0.716-0.832-1.244c-0.505-1.443-0.693-3.523-0.518-5.037c0.144-1.491-0.353-3.855,0.268-5.221
		c0.534-1.154,2.919-1.471,3.831-2.433c2.062-2.169-0.516-5.69-3.143-5.29c-1.985,0.302-3.572,2.451-3.411,4.422
		c0.075,0.926,0.811,2.066,0.28,2.939c-2.24,3.69-8.086,5.845-12.088,6.598c0-3.652,1.163-9.896,3.961-12.518
		c1.486-1.394,3.791-0.193,5.17-2.5c1.475-2.435-0.347-5.264-3.042-5.433c-1.889-0.117-3.385,1.78-3.855,3.403
		c-0.153,0.609,0,1.421-0.343,1.9c-1.55,2.002-4.933,2.854-7.166,3.695c-0.852,0.316-4.184,1.457-4.87,0.572
		c-0.666-0.881,0.588-3.084,0.921-3.936c0.905-2.34,2.161-5.191,4.559-6.429c1.779-0.917,3.564,0.188,4.925-1.892
		c1.771-2.753-0.501-6.844-3.91-5.669c-2.638,0.904-2.029,3.376-3.537,4.965c-2.449,2.563-6.96,2.937-10.262,2.937
		c0.381-3.044,3.513-7.809,6.122-9.413c0.844-0.52,1.717-0.021,2.604-0.22c1.827-0.42,3.439-2.683,2.959-4.563
		c-0.459-1.792-3.027-2.443-4.582-1.833c-0.616,0.25-1.152,0.958-1.826,1.029c-0.692,0.075-1.218-0.765-1.643-1.175
		c-1.145-1.065-2.975-2.063-3.229-3.712c2.943,0,5.682,0,8.497-1.015c4.558-1.674,9.106-4.829,14.027-5.44
		c3.336-0.414,5.205,2.6,8.32,2.6c-0.014-0.689-0.28-1.564-0.045-2.224c0.822-2.293,4.27-1.163,5.401-2.646
		c0.562-0.783,0.163-1.806,0.5-2.638c0.435-1.098,1.651-1.465,2.174-2.436c0.761-1.471,0.695-3.346,1.375-4.87
		c1.039-2.357,3.176-4.667,3.884-7.103c0.464-1.623-1.238-3.526-1.723-5.073c-1.016-3.178-0.745-6.414,0.949-9.334
		c1.485-2.602,3.59-2.411,5.743-3.803c1.686-1.067,2.695-4.412,5.481-3.004c2.146,1.084,2.191,4.64,0,5.729
		c-1.896,0.941-3.043-0.871-4.667-0.544c-2.912,0.52-1.219,6.316-0.073,7.647c0.853,0.999,1.948,0.892,3.117,0.672
		c2.474-0.542,4.754-1.376,7.305-1.589c2.435-0.203,4.261,1.386,6.494,1.897c4.702,1.145,12.317-0.917,13.596-6.195
		c0.203-0.86,0.609-2.232-0.089-2.956c-0.633-0.644-1.552-0.404-2.346-0.564c-1.631-0.327-2.861-1.926-2.571-3.584
		c0.499-2.841,4.314-3.771,5.941-1.42c1.161,1.676-0.355,3.195,0.047,4.87c0.201,0.813,1.111,1.483,1.521,2.231
		c0.945,1.733,1.526,3.533,1.867,5.479c0.901,5.132-0.439,10.146-3.375,14.407c-1.644,2.387-4.522,4.471-4.994,7.509
		c-0.536,3.464,2.009,6.392,2.34,9.74c0.133,1.339-0.093,3.212-0.633,4.464c-0.296,0.672-0.987,1.067-1.109,1.831
		c-0.323,2.024,1.119,3.965-1.093,5.556c-2.256,1.623-5.79-0.893-5.165-3.531c0.233-0.972,0.971-2.071,1.944-2.388
		c0.77-0.25,1.942-0.134,2.429-0.915c0.561-0.897-0.147-2.379-0.627-3.19c-1.433-2.348-3.585-4.093-6.469-3.699
		c-1.284,0.175-2.263,1.167-3.247,1.922c-1.015,0.767-2.541,1.491-3.326,2.468c-1.498,1.856-0.745,4.791-0.735,6.82
		c0.004,0.955-0.739,2.126-0.461,3.043c0.407,1.327,2.822,2.157,3.917,2.842c2.082,1.258,3.722,3.084,4.795,5.275
		c1.952,3.992,1.254,9.479,2.491,13.799c1.093,3.812,2.78,7.594,4.482,11.16C133.463,147.19,134.656,148.917,135.21,150.843z
		 M67.434,59.068c1.015-0.301,1.333,1.481,0.377,1.727C66.729,61.073,66.403,59.375,67.434,59.068z M60.737,63.18l-0.203,0.203
		L60.737,63.18z M61.549,63.482c1.95-0.368,1.588,2.005-0.202,2.274C59.384,66.055,60.118,63.752,61.549,63.482z M52.072,67.788
		c1.749-0.621,2.415,4.726,1.122,4.945C52.074,72.926,50.794,68.253,52.072,67.788z M50.997,74.746
		c-1.623-0.271-2.768-4.204-2.082-5.625c0.802-1.655,1.82,0.881,1.879,1.566c0.071,0.542,0.17,1.078,0.195,1.624
		C50.997,73.123,50.997,73.937,50.997,74.746z M59.925,68.658c-0.55,1.827-2.841,2.582-4.001,3.893
		c-1.359,1.502-1.742,3.933-3.101,5.586c-0.733,0.948-2.535,1.402-3.061,2.196c-0.39,0.568,0.827,0.823,1.111,1.109
		c0.621,0.609,0.325,1.965-0.197,2.522c-0.748,0.764-3.942,2.146-4.896,1.41c-0.808-0.622-1.027-2.019-1.372-2.918
		c-0.233-0.604-0.718-1.318-0.617-1.994c0.087-0.694,1.621-2.33,2.333-2.348c0.605-0.015,0.975,0.527,1.613,0.3
		c1.071-0.382,0.822-1.619,1.478-2.327c1.033-1.129,2.263-0.167,2.592-2.358C55.352,74.153,56.204,69.064,59.925,68.658z
		 M65.81,68.949c2.841-0.822,4.379,2.995,1.614,3.835C64.944,73.539,63.322,69.673,65.81,68.949z M56.679,69.064
		c-0.15,0.838-0.623,0.941-1.421,1.015C55.406,69.194,55.833,69.093,56.679,69.064z M46.407,70.637
		c0.647-0.187,0.986,0.591,1.132,1.065c0.296,0.964,1.483,4.895,0.166,5.427c-0.648,0.262-1.094-0.475-1.292-0.962
		C46.029,75.226,44.887,71.094,46.407,70.637z M45.112,77.993c-1.42-0.467-2.695-3.652-1.826-5.017
		c0.812-1.274,1.624,0.394,1.765,1.161c0.062,0.538,0.062,1.083,0.146,1.623C45.301,76.572,45.256,77.218,45.112,77.993z
		 M124.658,81.24c0,0-1.262-0.836-2.727-1.23c-1.131-0.304-2.403-0.19-3.158-0.19c0.149-1.181,0.853-2.681,0.406-3.855
		c-1.438-4.113-8.806-1.421-11.161-0.043c-5.706,3.362-9.54,10.506-8.606,17.091c0.13,0.909-0.12,1.73,0.231,2.638
		c1.581,4.059,7.105,3.661,10.606,3.281C118.025,98.083,127.019,89.396,124.658,81.24z M75.145,74.641
		c2.993-0.753,3.11,3.604,0.776,4.107C72.913,79.414,72.214,75.377,75.145,74.641z M110.454,83.472l-2.231,2.232
		c2.112-0.363,4.84-1.617,5.77-3.652c0.927-2.101-1-5.682-3.334-5.885c0.531,1.913,4.393,5.479,0.812,6.696
		c0-2.51-0.406-5.203-3.45-5.276c0.889-2.954,8.521-4.014,10.401-1.554c0.954,1.246-0.938,3.086,0.239,4.062
		c1.69,1.402,4.982-0.365,5.883,2.768c0.779,2.711-1.149,5.682-2.67,7.711c-3.938,5.307-13.295,10.828-19.94,6.696
		c-1.656-1.065-2.029-3.246-2.029-5.072c-0.006-3.938,1-6.638,3.103-9.943c0.688-1.082,1.768-3.548,3.177-3.821
		c0.621-0.128,0.904,1.181,1.089,1.587C107.939,81.593,108.731,82.961,110.454,83.472z M43.123,77.385
		c0.719-0.133,1.175,0.857,0.977,1.428c-0.272,0.932-1.995,2.756-3.01,2.833c-0.643,0-1.455-0.913-1.134-1.52
		C40.278,79.469,42.431,77.479,43.123,77.385z M84.073,77.506c2.681-1.045,4.107,2.995,1.808,3.957
		C83.132,82.615,81.573,78.488,84.073,77.506z M110.719,82.859c-0.143,0.105-0.278-0.011-0.521-0.09
		c-0.241-0.079-0.799-0.665-1.102-1.01c-0.303-0.346-0.95-1.285-0.95-1.285s0.61,0.203,1.203-0.333
		c0.593-0.535,0.616-1.154,0.616-1.154s0.307,0.352,0.659,1.406c0.189,0.568,0.4,1.662,0.357,1.903
		C110.943,82.539,110.861,82.754,110.719,82.859z M107.938,78.336c0.428-0.428,0.667-0.256,0.896-0.175s0.781,0.404,0.781,0.404
		s-0.487-0.069-1.049,0.438c-0.562,0.507-0.59,0.947-0.59,0.947s-0.25-0.537-0.284-0.817
		C107.643,78.748,107.507,78.767,107.938,78.336z M32.937,87.937c-2.315-1.474,1.941-4.771,3.651-5.179
		c2.202-0.503,0.647,1.932,0,2.453c-0.462,0.388-0.938,0.764-1.42,1.124C34.436,86.883,33.663,87.378,32.937,87.937z
		 M116.338,84.689l3.044,1.632l2.436,1.818C121.665,85.35,118.847,83.949,116.338,84.689z M101.931,88.342l2.435-3.246
		C102.673,85.209,101.519,86.652,101.931,88.342z M48.562,85.568c3.17-0.527,2.007,4.405,1.792,6.427
		c-0.372,3.189-0.574,6.335-0.795,9.537c-0.075,1.106-0.592,2.366-0.489,3.45c0.144,1.826,1.625,1.694,2.21,2.903
		c0.527,1.1,0.039,3.059-0.167,4.198c-0.341,1.89-1.404,7.062-3.585,7.646c-0.938,0.268-1.94-0.205-2.823-0.456
		c-2.235-0.638-5.885-1.078-6.226-3.943c-0.211-1.694,0.477-3.788,0.72-5.479c0.812-5.642,2.514-11.161,4.056-16.64
		C44.097,90.19,44.899,86.177,48.562,85.568z M114.715,86.922H113.7c0.193,2.664,3.744,4.32,6.088,4.667
		c-0.004-1.321-0.059-3.61-1.071-4.582C117.732,86.058,115.04,84.938,114.715,86.922z M111.874,93.415l-1.42,2.232
		c3.616-0.564,2.232-3.844,1.217-6.088c-1.014,0.968-0.091,1.749,0.203,2.841c-1.972-0.298-3.969-2.431-5.275-3.855
		c-0.457-0.529-1.016-1.899-1.827-1.899c-2.289,0-1.877,4.606-0.913,5.711C105.551,94.294,109.642,93.829,111.874,93.415z
		 M108.83,86.719c-0.203,1.352,1.218,2.101,2.436,2.232C111.164,87.63,109.973,87.125,108.83,86.719z M104.771,87.53l4.667,5.276
		C106.862,92.807,102.574,90.777,104.771,87.53z M115.099,87.065c0.179-0.322,0.58-0.706,1.147-0.765
		c0.568,0,1.006,0.412,1.006,0.412s-0.676,0.177-1.158,0.714c-0.483,0.538-0.602,1.524-0.602,1.524
		C114.926,88.833,114.827,87.636,115.099,87.065z M117.349,88.648c0.556-0.542,0.546-1.38,0.546-1.38s0.627,0.459,0.927,1.297
		c0.306,0.854,0.574,1.851,0.274,2.151c-0.301,0.3-1.34-0.188-1.987-0.485c-0.529-0.243-1.171-0.895-1.171-0.895
		S116.825,89.158,117.349,88.648z M28.878,89.279c1.335-0.07,0.881,1.498-0.203,1.585C27.537,90.986,27.839,89.356,28.878,89.279z
		 M100.863,102.959c-0.479,0.452,0.347,1.045,0.662,1.235c0.864,0.485,2.841,1.396,3.722,0.435
		C106.064,103.73,101.486,102.37,100.863,102.959z M91.785,104.17c1.217,5.236,7.289,7.983,11.972,9.083
		c1.827,0.455,4.939,0.781,6.291-0.763c-4.146-1.073-7.937-1.015-11.77-3.37C96.247,107.888,94.116,104.373,91.785,104.17z
		 M58.495,113.286c-2.941,11.649-7.941,21.199-15.116,27.323c-2.382,2.035-4.891,2.93-8.007,2.93c-0.644,0-2.435,0.308-2.707-0.47
		c-0.353-0.926,6.528-6.592,8.675-8.866c4.634-5.008,7.964-10.731,10.267-17.045c1.218-3.285,2.425-6.595,2.435-10.146
		C54.84,107.014,58.812,109.217,58.495,113.286z M58.708,116.549l1.016-6.088l-2.029-3.247c1.215,0.331,2.195,1.683,3.45,1.827
		c2.028,0.215,4.058-2.219,6.175-0.051c0.599,0.62,0.369,1.604,0.002,2.282c-1.605,2.955-3.742,0.873-5.771,2.271
		C60.402,114.335,60.004,116.143,58.708,116.549z M33.545,138.059c-1.132-0.358,2.349-11.306,3.04-13.155
		c0.542-1.453,1.425-3.949,2.565-5.035c0.613-0.59,2.033-0.396,2.186,0.548c0.213,1.317-1.352,3.051-1.815,4.25
		c-1.475,3.793-2.583,7.433-3.563,11.362C35.674,137.144,34.678,138.417,33.545,138.059z M88.741,131.229
		c2.09-0.41,4.034,1.187,3.044,3.381c-0.538,1.218-2.764,2.453-4.059,2.705c-1.112,0.22-1.335-1.487-1.445-2.3
		C86.044,133.312,86.915,131.585,88.741,131.229z M90.973,162.003c-0.406-1.42,1.553-4.336,2.188-5.682
		c2.192-4.646,4.712-9.375,6.479-14.205c0.595-1.623-1.159-3.434-0.593-5.275c0.491-1.68,2.609-2.842,4.245-1.971
		c1.677,0.918,1.354,2.982,0.22,4.2c-0.807,0.843-2.104,1.112-2.799,2.067c-1.22,1.675-1.93,3.97-2.792,5.847
		C95.634,151.958,93.611,157.218,90.973,162.003z M87.523,138.871l-2.778,6.898l-6.15,13.799h-0.203
		C78.662,156.525,85.047,141.935,87.523,138.871z M87.523,141.509c0,0-4.945,16.045-7.711,17.857l4.987-11.568L87.523,141.509z
		 M101.119,142.726l-2.146,5.479l-6.174,13.394h-0.202c0.71-3.991,3.524-8.285,5.213-11.974
		C98.816,147.427,99.569,144.599,101.119,142.726z M97.669,144.146l-8.319,18.264h-0.203c-0.203-1.496,1.213-3.531,1.877-4.871
		c1.523-3.043,2.865-6.242,4.36-9.334C96.046,146.835,96.488,145.162,97.669,144.146z M101.322,145.77
		c-0.406,3.718-3.378,8.17-4.933,11.567c-0.553,1.217-1.031,3.109-2.169,3.854l4.509-10.146L101.322,145.77z M87.523,146.175
		l-3.567,8.32l-2.52,5.275c-0.203-1.559,1.151-3.697,1.826-5.072c1.42-2.742,2.638-5.675,3.854-8.523H87.523z M101.525,147.394
		c0.323,1.77-0.544,3.09-1.246,4.667c-1.238,2.778-3.295,5.938-3.827,8.929c1.759,0,2.232-1.146,2.896-2.638
		c1.102-2.517,2.969-5.179,3.395-7.914h-0.203l-4.667,10.146H97.67c0.495-3.348,2.965-7.633,4.667-10.551
		c0,0,1.259,1.014,1.624,1.014c0.366,0,1.685-0.354,4.377-1.467c0.359-0.117,6.952-2.186,6.125-0.904
		c-0.254,0.398-1.335,0.094-1.777,0.343c0,0-5.197,0.875-4.825,2.64c0.563,2.717,2.941,5.102,3.607,7.912
		c1.754,7.104-0.1,14.428-1.762,21.309c-0.761,3.154-2.035,6.695-3.577,9.537c-0.853,1.576-2.605,3.361-3.033,5.072
		c-0.172,0.678-0.557,2.184-0.389,2.842c0.197,0.844,0.988,1.67,0.834,2.604c-0.284,1.736-1.759,2.363-1.303,4.499
		c0.097,0.487,0.284,0.962,0.475,1.421c1.246,3.044,2.839,0.273,5.103-0.491c0.503-0.171,1.266-0.516,1.761-0.173
		c1.417,0.986-0.81,3.505-1.769,3.912c-0.834,0.365-2.467,1.084-3.365,0.688c-1.71-0.756-2.558-4.511-2.677-6.168
		c-0.071-0.981,0.418-2.08,0.043-3.033c-0.284-0.695-1.097-0.947-1.351-1.633c-0.354-0.852,0.152-1.769-0.077-2.64
		c-0.479-1.804-1.501-3.448-2.015-5.274c-1.024-3.615-1.321-7.438-1.676-11.162c-0.238-2.414,0.02-5.072,0.168-7.508
		c0.087-1,0.475-2.231,0.082-3.234c-0.602-1.489-3.531-0.823-4.546-0.215H92.19c-0.854-0.344-1.353-0.067-1.624,0.812h-0.203
		c-0.609-1.11-1.922-0.791-2.841-0.203h-1.42H85.9c-1.016-0.335-2.841,0.609-3.45,1.421c-0.812-0.279-1.232-0.193-1.827,0.405
		l-4.87,0.812c0.858-1.508,3.527-1.551,5.073-1.826c1.5-0.305,4.938-1.107,5.885-2.319c1.016-1.235,1.104-4.153,0.812-5.595
		l0.608-0.608c1.354,0.209,4.309-0.446,5.276-1.42l1.218,0.405l0.406-0.812h0.203l0.812,0.406c0-2.029,1.342-4.051,2.198-5.886
		C99.496,152.833,100.567,150.143,101.525,147.394z M94.422,147.596l-2.258,5.276l-4.641,10.146H87.32l4.379-9.942L94.422,147.596z
		 M29.552,148.33c1.545-0.728,5.21,1.825,4.926,3.527c-0.22,1.312-1.291,0.668-2.043,1.163c-0.414,0.271-0.584,0.812-1.022,1.069
		C28.766,155.541,27.61,149.242,29.552,148.33z M87.726,148.408c-0.15,2.881-2.52,6.329-3.744,8.93
		c-0.452,0.961-0.801,2.275-1.735,2.841C83.262,156.578,85.472,151.389,87.726,148.408z M103.757,195.893
		c0.468-2.571,3.044-4.979,4.041-7.509c2.521-6.493,4.593-13.512,5.073-20.495c0.217-3.142,0.122-6.575-1.037-9.537
		c-0.778-1.991-2.89-4.619-3.081-6.692c-0.136-1.466,3.649-2.225,4.745-2.129c1.372,0.119,1.676,1.869,2.007,2.938
		c0.977,3.141,1.562,6.289,1.905,9.537c0.828,7.914-4.093,22.529-4.648,23.945C112.205,187.363,108.073,193.882,103.757,195.893z
		 M115.324,149.423c3.929,5.522,4.034,15.492,2.957,21.914c-0.397,2.367-0.741,4.771-1.333,7.104
		c-0.158,0.758-0.812,2.238-0.479,2.984c0.403,0.922,1.493-0.346,1.77-0.752c1.195-1.623,1.826-3.652,2.717-5.479
		c2.989-6.063,5.032-13.073,5.325-19.887h0.203c0,9.368-3.679,19.563-8.681,27.396c-1.896,2.967-3.799,6.045-6.741,8.116
		c4.225-7.694,8.317-23.138,6.668-31.774C117.251,156.539,115.324,149.423,115.324,149.423z M91.785,150.031
		c-0.873,4.077-3.69,8.401-5.479,12.176h-0.203l3.98-8.929L91.785,150.031z M105.583,150.031v0.203h-0.608L105.583,150.031z
		 M88.741,150.234l-4.87,10.553l1.016,0.405l3.577-7.711l1.698-3.044l-5.073,11.16l-1.275-1.059l1.682-4.05l2.841-6.256
		L88.741,150.234L88.741,150.234z M107.611,153.494c-1.622,0.215-4.667,5.614-2.027,5.428c1.674-0.117,2.962-1.119,3.204-2.803
		C108.903,155.319,108.889,153.32,107.611,153.494z M107.815,154.089c1.206,2.26-0.406,3.97-2.639,4.263
		C105.35,156.671,106.395,155.007,107.815,154.089z M87.523,164.642v0.203c-0.847,0.968-0.497,3.172-1.339,3.855
		c-2.622,2.104-7.325,2.028-10.431,3.15c-3.359,1.246-6.105,4.199-9.739,4.763c1.175-2.231,5.733-2.198,6.341-4.862
		c0.29-1.275-1.987-1.062-2.689-0.987c-3.297,0.372-6.37,1.604-9.74,0.979v-0.203l11.161-2.435c-0.712-2.231-2.51-1.485-4.27-1.421
		c-2.229,0.039-5.374,0.021-7.5-0.607v-0.203c2.364-1.006,5.195-0.812,7.711-0.812c0.81,0,2.707,0.219,3.247-0.523
		c0.771-0.99-1.765-1.275-2.232-1.422c-2.663-0.837-5.723-1.302-8.522-1.302c0.396-1.126,1.662-0.688,2.638-0.761
		c2.833-0.211,5.359,0.558,8.117,0.761c0.916,0.049,3.306,0.345,3.441-1.015c0.079-0.785-0.879-1.314-1.412-1.692
		c-1.218-0.842-2.927-1.819-3.044-3.381l7.103,3.45l6.899,1.623L87.523,164.642z M102.54,160.746
		c-2.945,0.977-6.1,1.619-9.132,2.274c-1.217,0.254-2.766,0.056-3.819,0.751c-1.254,0.82-1.947,3.309-1.307,4.682
		c0.629,1.346,3.78,0.508,4.923,0.452c4.06-0.2,8.32-0.343,12.378-0.868c1.189-0.146,3.247,0.058,4.174-0.843
		c1.306-1.292,0.72-6.692-0.093-8.185C109.112,157.994,104.07,160.238,102.54,160.746z M108.617,159.498
		c0.755,0.07,0.952,0.883,1.006,1.491c0.116,1.317,0.676,4.767-0.475,5.71c-1.004,0.824-3.164,0.444-4.396,0.605
		c-3.764,0.49-7.746,0.691-11.548,0.789c-1.157,0.029-2.899,0.615-3.994,0.076c-1.52-0.748,0.341-3.564,1.355-3.918
		c3.711-1.299,7.963-1.412,11.77-2.633C104.137,161.046,106.711,159.367,108.617,159.498z M103.148,169.019
		c-1.532,0.451-1.355,3.055-1.42,4.35c-0.203,4.588,0,9.225,0.203,13.799c0.045,0.851,0.122,5.334,1.502,4.9
		c1.237-0.39,1.947-3.184,2.267-4.292c0.548-1.979-0.319-4.653-0.487-6.696c-0.248-2.596-0.033-5.275-0.033-7.914
		C105.178,171.604,105.778,168.248,103.148,169.019z M103.554,191.428c-1.016-0.608-0.824-2.94-0.956-4.06
		c-0.501-4.229-0.263-8.521-0.263-12.783c0-1.016-0.23-4.385,0.873-4.871c2.171-1.012,1.125,4.139,1.242,5.074
		c0.306,2.436-0.033,4.875,0.118,7.305c0.122,1.502,0.864,3.175,0.698,4.668C105.082,188.419,103.871,189.83,103.554,191.428z
		 M88.538,170.324l-0.406,1.217h-0.202L88.538,170.324z M89.958,170.324l-0.203,1.014h-0.203L89.958,170.324z M85.291,170.729
		l-0.406,1.218h-0.202L85.291,170.729z M86.711,170.729l-0.608,1.826H85.9L86.711,170.729z M83.667,171.541v0.203l-0.608,0.812
		L83.667,171.541z M81.638,172.15l-1.016,2.436H80.42L81.638,172.15z M84.682,172.15l-0.203,0.812h-0.203L84.682,172.15z
		 M79.812,172.759L79,174.789h-0.203L79.812,172.759z M82.856,172.759l-0.609,1.623h-0.203L82.856,172.759z M78.188,172.962
		l-0.609,1.623h-0.203l0.406-1.623H78.188z M76.362,173.367v0.609h-0.203L76.362,173.367z M74.536,174.18l-0.812,2.231h-0.203
		L74.536,174.18z M77.377,174.789l-0.203,0.203L77.377,174.789z M72.709,174.992l-1.217,2.84h-0.203L72.709,174.992z
		 M70.883,175.803l-2.841,6.493h-0.203C68.093,180.602,69.386,176.716,70.883,175.803z M104.163,207.865
		c-1.218-1.09-2.435-6.812,0.608-6.273c0.767,0.134,4.095,2.926,3.616,3.707c-0.278,0.451-1.331,0.537-1.79,0.74
		C105.63,206.444,104.851,207.08,104.163,207.865z"/>
	<path fill="#E6180A" d="M42.827,169.498c-1.945,4.289,2,9.856,2.025,13.969c3.135-2.658,9.922-3.301,11.912-7.567
		c0.93-2.017,0.115-4.375-1.804-5.251c-1.929-0.879-4.245,0.031-5.166,2.051c0.926-2.027,0.116-4.375-1.803-5.251
		C46.068,166.56,43.757,167.483,42.827,169.498z"/>
	<path fill="#E6180A" d="M59.926,196.181c-2.478,0.638-4.954,1.273-7.432,1.91c0.836-0.254,1.416-0.987,1.98-1.614
		c1.23-1.546,2.321-3.235,3.055-5.073c0.327-0.912,0.656-1.931,0.42-2.904 M52.494,198.091c1.083-0.241,2.176,0.205,3.157,0.627
		c1.759,0.842,3.383,1.965,4.842,3.257c0.554,0.547,1.188,1.114,1.409,1.89c-0.659-2.562-1.317-5.121-1.977-7.684 M61.902,203.863
		c-0.257-1.152,0.185-2.322,0.615-3.377c0.797-1.763,1.854-3.412,3.104-4.887c0.499-0.523,1.017-1.127,1.735-1.33
		c-2.478,0.637-4.954,1.273-7.432,1.911 M67.357,194.27c-1.083,0.242-2.176-0.205-3.156-0.625c-1.759-0.843-3.383-1.966-4.842-3.258
		c-0.554-0.548-1.188-1.116-1.409-1.89c0.659,2.562,1.317,5.121,1.977,7.684"/>
	<path d="M88.055,195.593c-0.879,1.585-2.911,2.139-4.548,1.23c-1.636-0.906-2.243-2.924-1.365-4.508
		c0.877-1.583,2.911-2.137,4.547-1.229C88.324,191.994,88.932,194.011,88.055,195.593z"/>
	<path d="M88.857,203.14c-0.877,1.583-2.911,2.137-4.547,1.23c-1.636-0.908-2.244-2.926-1.366-4.509s2.911-2.137,4.547-1.229
		C89.127,199.539,89.735,201.557,88.857,203.14z"/>
	<path d="M81.273,198.958c-0.32,0.578-0.795,1.022-1.354,1.309c-0.956,0.486-2.161,0.494-3.191-0.078
		c-1.637-0.906-2.244-2.924-1.366-4.507c0.877-1.584,2.911-2.138,4.546-1.229C81.542,195.359,82.15,197.376,81.273,198.958z"/>
	<path d="M82.462,206.901c-1.461-0.81-1.57-2.426-1.313-3.839c0.257-1.412,0.881-2.621,0.881-2.621l-0.752-0.417
		c0,0-2.772,4.672-5.699,3.062L82.462,206.901z"/>
	<path d="M81.927,194.953c0.741,2.584-0.641,5.076-0.641,5.076l0.739,0.422c0,0,1.411-2.547,3.926-3.268"/>
	<path d="M79.302,200.473c2.583-0.74,5.076,0.642,5.076,0.642l0.412-0.744c0,0-2.545-1.41-3.267-3.926"/>
	<path d="M82.629,202.33c-0.74-2.584-3.233-3.966-3.233-3.966l0.412-0.743c0,0,2.545,1.41,5.061,0.689"/>
	<path d="M64.5,157.476c-1.604,0.463-2.941-1.004-3.877-2.586c-0.935-1.583-1.466-3.281-1.466-3.281l-0.819,0.227
		c0,0,1.821,6.894-1.388,7.817L64.5,157.476z"/>
	<path d="M65.245,149.843c-0.971-3.33-6.673-4.309-8.902-6.518c-0.708,3.064-5.016,6.93-4.066,10.256
		c0.454,1.574,2.272,2.435,4.069,1.916c1.786-0.515,2.868-2.211,2.414-3.785c0.454,1.574,2.273,2.436,4.069,1.916
		C64.626,153.111,65.699,151.417,65.245,149.843z"/>
	<path d="M17.39,31.453c1.682,0,2.75-0.661,3.208-1.983c0.288-0.816,0.433-2.584,0.433-5.3V10.576c0-0.673-0.061-1.105-0.18-1.298
		c-0.048-0.096-0.21-0.191-0.486-0.288c-0.276-0.096-0.823-0.192-1.638-0.288c-0.816-0.097-1.752-0.146-2.809-0.146V8.233h14.256
		v0.323c-1.992,0-3.373,0.146-4.14,0.433l-0.324,0.145c-0.168,0.169-0.252,0.649-0.252,1.442v13.305
		c0,2.332-0.731,4.231-2.195,5.697c-1.465,1.466-3.421,2.199-5.868,2.199c-1.032,0-1.969-0.318-2.809-0.954
		c-0.84-0.636-1.392-1.314-1.655-2.034c-0.266-0.72-0.396-1.368-0.396-1.944c0-1.56,0.572-2.664,1.717-3.312
		c0.405-0.239,0.847-0.36,1.323-0.36c0.691,0,1.288,0.252,1.789,0.756c0.5,0.505,0.751,1.165,0.751,1.98
		c0,0.744-0.281,1.35-0.841,1.818c-0.561,0.468-1.187,0.701-1.877,0.701c-0.311,0-0.597-0.054-0.858-0.161
		c-0.262-0.108-0.512-0.258-0.751-0.45c-0.048,0.24-0.072,0.42-0.072,0.54c0,0.815,0.378,1.536,1.136,2.16
		C15.608,31.141,16.453,31.453,17.39,31.453z"/>
	<path d="M51.306,19.825c0,3.528-1.188,6.456-3.564,8.784c-2.16,2.112-4.596,3.168-7.308,3.168c-2.761,0-5.196-1.008-7.309-3.024
		c-2.376-2.279-3.563-5.256-3.563-8.928c0-3.528,1.188-6.444,3.563-8.748c2.16-2.088,4.597-3.132,7.309-3.132
		c2.76,0,5.195,0.996,7.308,2.988C50.118,13.189,51.306,16.153,51.306,19.825z M46.518,19.843c0-3.785-0.509-6.661-1.525-8.626
		C43.976,9.252,42.45,8.27,40.416,8.27c-2.01,0-3.522,0.982-4.541,2.947c-1.018,1.965-1.524,4.841-1.524,8.626
		c0,3.738,0.508,6.608,1.524,8.609c1.018,2.001,2.53,3.001,4.541,3.001c1.986,0,3.5-1,4.541-3.001
		C45.997,26.451,46.518,23.581,46.518,19.843z"/>
	<path d="M61.529,21.409l8.238-8.218c1.132-1.135,1.697-2.076,1.697-2.824c0-0.603-0.336-1.056-1.008-1.357
		c-0.672-0.302-1.656-0.453-2.952-0.453V8.233h10.116v0.323c-1.152,0-2.245,0.327-3.275,0.979c-0.646,0.41-2.117,1.81-4.414,4.199
		l-2.368,2.426l6.854,12.949c0.504,0.938,0.966,1.509,1.387,1.713c0.42,0.205,1.506,0.307,3.258,0.307v0.324H66.569v-0.324
		c1.488,0,2.466-0.036,2.934-0.107c0.469-0.072,0.702-0.252,0.702-0.541c0-0.096-0.013-0.18-0.036-0.253l-0.323-0.648l-5.318-10.343
		l-2.999,2.893v6.94c0,0.698,0.048,1.145,0.144,1.337c0.049,0.097,0.21,0.199,0.486,0.308c0.276,0.109,0.774,0.198,1.494,0.271
		c0.72,0.072,1.523,0.108,2.412,0.108v0.36h-13.86v-0.36c0.983,0,1.859-0.048,2.628-0.145c0.769-0.096,1.267-0.186,1.494-0.271
		c0.229-0.084,0.402-0.15,0.522-0.198c0.168-0.145,0.252-0.614,0.252-1.408V10.507c0-0.674-0.05-1.095-0.145-1.264
		c-0.048-0.096-0.205-0.192-0.468-0.289c-0.696-0.265-2.124-0.397-4.284-0.397V8.233h14.185v0.323c-2.137,0-3.553,0.133-4.248,0.398
		L61.781,9.1c-0.168,0.146-0.252,0.616-0.252,1.412V21.409z"/>
	<path d="M88.061,19.394v9.642c0,0.674,0.036,1.096,0.106,1.264c0.072,0.169,0.299,0.319,0.684,0.452
		c0.383,0.133,0.825,0.211,1.329,0.234c0.503,0.024,1.399,0.036,2.691,0.036c2.729,0,4.793-0.813,6.194-2.438
		c1.4-1.626,2.28-4.233,2.639-7.822h0.468v10.692H78.773v-0.36c2.136,0,3.551-0.132,4.248-0.396c0.24-0.097,0.401-0.223,0.485-0.38
		c0.083-0.156,0.126-0.571,0.126-1.245V10.579c0-0.697-0.048-1.131-0.144-1.3c-0.048-0.096-0.204-0.192-0.468-0.288
		c-0.265-0.097-0.805-0.192-1.62-0.289c-0.816-0.097-1.692-0.146-2.628-0.146V8.233h22.212v9h-0.468c0-1.856-0.468-3.627-1.4-5.314
		c-1.244-2.241-3.003-3.362-5.277-3.362c-0.909,0-1.824,0.007-2.746,0.019c-0.921,0.013-1.74,0.127-2.457,0.344
		c-0.218,0.097-0.366,0.224-0.45,0.38c-0.083,0.158-0.125,0.587-0.125,1.287v8.446c2.481,0,4.021-0.252,4.619-0.756
		c0.906-0.768,1.539-2.832,1.896-6.192h0.432V26.27h-0.432c-0.357-3.288-0.979-5.316-1.862-6.084
		C92.094,19.657,90.542,19.394,88.061,19.394z"/>
	<path d="M127.948,26.27v1.188c0,1.416-0.133,2.4-0.398,2.952c-0.434,0.912-1.291,1.368-2.568,1.368
		c-1.665,0-2.764-0.624-3.293-1.872c-0.435-1.008-0.651-2.928-0.651-5.76v-0.757c0-0.239,0.012-0.491,0.036-0.756
		c0-1.271-0.299-2.129-0.896-2.573s-1.456-0.666-2.579-0.666h-4.229v9.678c0,0.722,0.042,1.18,0.126,1.372s0.264,0.343,0.54,0.451
		c0.275,0.108,0.84,0.175,1.692,0.198c0.852,0.024,1.746,0.036,2.682,0.036v0.324h-14.652v-0.36c2.521,0,4.032-0.096,4.536-0.289
		c0.24-0.096,0.408-0.233,0.504-0.415c0.097-0.181,0.145-0.62,0.145-1.317V10.507c0-0.674-0.048-1.095-0.145-1.264
		c-0.048-0.096-0.204-0.192-0.468-0.289c-0.696-0.265-2.22-0.397-4.572-0.397V8.233h14.725c2.592,0,4.656,0.696,6.191,2.091
		c1.225,1.105,1.836,2.247,1.836,3.425c0,1.394-0.481,2.536-1.445,3.425c-1.157,1.081-2.989,1.767-5.495,2.055
		c2.558,0.503,4.248,1.929,5.069,4.278c0.412,1.175,0.618,2.948,0.618,5.321c0,0.695,0.062,1.198,0.183,1.51
		c0.122,0.312,0.413,0.467,0.875,0.467c0.51,0,0.861-0.401,1.057-1.205c0.194-0.805,0.292-1.914,0.292-3.33H127.948z
		 M113.368,18.997h3.334c1.744,0,3.035-0.326,3.872-0.979c1.003-0.773,1.506-2.078,1.506-3.915c0-2.029-0.412-3.462-1.237-4.295
		c-0.824-0.834-2.192-1.252-4.104-1.252h-1.721c-0.502,0-0.873,0.037-1.112,0.109c-0.239,0.073-0.389,0.224-0.448,0.453
		c-0.059,0.229-0.089,0.694-0.089,1.396V18.997z"/>
	<path d="M156.761,215.597c-1.683,0-2.75,0.66-3.208,1.982c-0.288,0.816-0.434,2.584-0.434,5.301v13.594
		c0,0.673,0.062,1.105,0.18,1.298c0.049,0.097,0.21,0.19,0.486,0.288c0.276,0.096,0.823,0.191,1.638,0.288
		c0.816,0.097,1.752,0.146,2.809,0.146v0.323h-14.256v-0.323c1.992,0,3.373-0.146,4.14-0.433l0.324-0.146
		c0.168-0.168,0.252-0.648,0.252-1.441v-13.305c0-2.332,0.731-4.231,2.196-5.697c1.464-1.467,3.42-2.199,5.867-2.199
		c1.032,0,1.969,0.318,2.809,0.954s1.392,1.313,1.656,2.034c0.265,0.72,0.396,1.367,0.396,1.943c0,1.561-0.572,2.664-1.717,3.312
		c-0.405,0.238-0.846,0.359-1.323,0.359c-0.691,0-1.288-0.252-1.789-0.756c-0.5-0.505-0.751-1.164-0.751-1.979
		c0-0.744,0.281-1.351,0.841-1.818c0.561-0.468,1.187-0.7,1.877-0.7c0.311,0,0.597,0.053,0.858,0.16
		c0.262,0.108,0.512,0.258,0.751,0.45c0.048-0.239,0.072-0.42,0.072-0.54c0-0.814-0.378-1.536-1.136-2.16
		C158.543,215.91,157.698,215.597,156.761,215.597z"/>
	<path d="M122.845,227.225c0-3.528,1.188-6.456,3.563-8.784c2.16-2.111,4.596-3.168,7.308-3.168c2.761,0,5.196,1.008,7.309,3.023
		c2.376,2.279,3.563,5.257,3.563,8.929c0,3.528-1.188,6.444-3.563,8.748c-2.16,2.088-4.596,3.132-7.309,3.132
		c-2.76,0-5.195-0.996-7.308-2.988C124.033,233.86,122.845,230.896,122.845,227.225z M127.633,227.207
		c0,3.785,0.509,6.662,1.525,8.627s2.542,2.946,4.577,2.946c2.01,0,3.522-0.981,4.541-2.946c1.018-1.965,1.524-4.842,1.524-8.627
		c0-3.738-0.508-6.607-1.524-8.608c-1.018-2.001-2.53-3.001-4.541-3.001c-1.986,0-3.5,1-4.541,3.001
		C128.154,220.599,127.633,223.468,127.633,227.207z"/>
	<path d="M112.622,225.641l-8.238,8.218c-1.132,1.135-1.697,2.076-1.697,2.824c0,0.604,0.336,1.057,1.008,1.357
		s1.656,0.453,2.952,0.453v0.322H96.529v-0.322c1.152,0,2.245-0.328,3.276-0.979c0.646-0.41,2.116-1.81,4.414-4.199l2.367-2.426
		l-6.854-12.949c-0.504-0.938-0.966-1.509-1.386-1.713c-0.421-0.205-1.507-0.308-3.259-0.308v-0.323h12.492v0.323
		c-1.488,0-2.466,0.037-2.934,0.107c-0.468,0.072-0.702,0.252-0.702,0.541c0,0.096,0.013,0.18,0.036,0.253l0.324,0.647l5.317,10.344
		l2.999-2.893v-6.94c0-0.698-0.048-1.146-0.144-1.337c-0.048-0.098-0.21-0.199-0.486-0.309c-0.276-0.108-0.774-0.197-1.494-0.271
		c-0.72-0.071-1.523-0.108-2.412-0.108v-0.359h13.86v0.359c-0.983,0-1.859,0.049-2.628,0.146c-0.769,0.096-1.267,0.187-1.494,0.271
		s-0.402,0.15-0.522,0.198c-0.168,0.146-0.252,0.614-0.252,1.408v18.563c0,0.674,0.05,1.096,0.145,1.265
		c0.048,0.096,0.205,0.192,0.468,0.288c0.696,0.266,2.124,0.398,4.284,0.398v0.322h-14.184v-0.322c2.136,0,3.552-0.134,4.247-0.398
		l0.36-0.145c0.168-0.146,0.252-0.617,0.252-1.412V225.641L112.622,225.641z"/>
	<path d="M86.09,227.656v-9.642c0-0.675-0.035-1.097-0.106-1.265c-0.072-0.168-0.299-0.318-0.684-0.451
		c-0.383-0.133-0.825-0.211-1.328-0.234c-0.504-0.023-1.4-0.036-2.692-0.036c-2.729,0-4.793,0.813-6.194,2.438
		c-1.4,1.625-2.279,4.232-2.639,7.822h-0.468v-10.692h23.399v0.36c-2.136,0-3.551,0.131-4.248,0.396
		c-0.239,0.097-0.401,0.224-0.485,0.38c-0.083,0.156-0.126,0.571-0.126,1.245v18.492c0,0.696,0.048,1.131,0.144,1.3
		c0.048,0.096,0.204,0.191,0.468,0.288c0.265,0.097,0.805,0.192,1.62,0.289c0.816,0.097,1.692,0.146,2.628,0.146v0.323H73.166v-9
		h0.468c0,1.856,0.468,3.627,1.4,5.313c1.244,2.242,3.003,3.363,5.277,3.363c0.91,0,1.825-0.008,2.746-0.02
		c0.921-0.014,1.74-0.127,2.458-0.344c0.216-0.099,0.364-0.226,0.448-0.381c0.083-0.158,0.125-0.588,0.125-1.287v-8.446
		c-2.481,0-4.021,0.252-4.618,0.756c-0.907,0.769-1.539,2.832-1.897,6.192h-0.432V220.78h0.432c0.358,3.288,0.979,5.316,1.862,6.084
		C82.057,227.393,83.608,227.656,86.09,227.656z"/>
	<path d="M46.202,220.78v-1.188c0-1.416,0.133-2.399,0.398-2.951c0.434-0.912,1.291-1.368,2.568-1.368
		c1.665,0,2.764,0.624,3.293,1.872c0.435,1.008,0.651,2.928,0.651,5.76v0.758c0,0.238-0.012,0.49-0.036,0.756
		c0,1.271,0.299,2.129,0.896,2.572c0.598,0.444,1.457,0.666,2.58,0.666h4.229v-9.678c0-0.723-0.042-1.18-0.126-1.372
		s-0.264-0.343-0.54-0.451c-0.275-0.108-0.84-0.175-1.692-0.198c-0.852-0.023-1.745-0.035-2.682-0.035v-0.324h14.652v0.359
		c-2.521,0-4.032,0.097-4.536,0.289c-0.24,0.096-0.408,0.233-0.504,0.416c-0.097,0.18-0.145,0.619-0.145,1.316v18.564
		c0,0.674,0.048,1.095,0.145,1.264c0.048,0.096,0.204,0.191,0.468,0.289c0.696,0.265,2.22,0.396,4.572,0.396v0.323H55.67
		c-2.592,0-4.655-0.696-6.191-2.091c-1.225-1.105-1.836-2.247-1.836-3.426c0-1.394,0.481-2.535,1.445-3.424
		c1.157-1.082,2.989-1.768,5.495-2.056c-2.558-0.503-4.248-1.929-5.068-4.278c-0.413-1.174-0.619-2.947-0.619-5.32
		c0-0.695-0.062-1.198-0.183-1.51c-0.122-0.312-0.413-0.467-0.875-0.467c-0.51,0-0.861,0.4-1.057,1.205
		c-0.194,0.805-0.292,1.913-0.292,3.329h-0.287V220.78z M60.782,228.053h-3.334c-1.744,0-3.035,0.325-3.872,0.979
		c-1.003,0.772-1.506,2.077-1.506,3.914c0,2.029,0.412,3.463,1.237,4.295c0.824,0.834,2.192,1.252,4.104,1.252h1.721
		c0.502,0,0.873-0.037,1.112-0.109s0.389-0.223,0.448-0.452c0.059-0.229,0.089-0.694,0.089-1.396V228.053z"/>
</g>
</svg>
