<?xml version="1.0" encoding="utf-8"?>
<!-- Generator: Adobe Illustrator 16.0.0, SVG Export Plug-In . SVG Version: 6.00 Build 0)  -->
<!DOCTYPE svg PUBLIC "-//W3C//DTD SVG 1.1//EN" "http://www.w3.org/Graphics/SVG/1.1/DTD/svg11.dtd">
<svg version="1.1" id="Layer_1" xmlns="http://www.w3.org/2000/svg" xmlns:xlink="http://www.w3.org/1999/xlink" x="0px" y="0px"
	 width="171.512px" height="247.046px" viewBox="0 0 171.512 247.046" enable-background="new 0 0 171.512 247.046"
	 xml:space="preserve">
<g>
	<path fill="#FFFFFF" d="M9.367,245.8c-4.476,0-8.117-3.643-8.117-8.117V9.367c0-4.476,3.642-8.117,8.117-8.117h152.788
		c4.471,0,8.107,3.642,8.107,8.117v228.315c0,4.476-3.638,8.116-8.107,8.116H9.367V245.8z"/>
	<path fill="#D4D4D4" d="M162.155,2.5c3.769,0,6.857,3.089,6.857,6.867v228.315c0,3.778-3.09,6.866-6.857,6.866H9.367
		c-3.778,0-6.867-3.088-6.867-6.866V9.367C2.5,5.589,5.589,2.5,9.367,2.5H162.155 M162.155,0H9.367C4.202,0,0,4.202,0,9.367v228.315
		c0,5.165,4.202,9.366,9.367,9.366h152.788c5.16,0,9.357-4.201,9.357-9.366V9.367C171.513,4.202,167.315,0,162.155,0z"/>
	<path d="M12.227,60.562c1.669,0,2.549-1.779,3.009-3.559c0.46-1.78,0.5-3.559,0.5-3.559l0.85-0.011c0,0,0.159,7.128,3.498,7.128
		L12.227,60.562L12.227,60.562z"/>
	<path d="M9.397,53.434c0.01-3.469,5.218-5.987,6.747-8.727c1.528,2.749,6.737,5.269,6.748,8.727c0,1.64-1.511,2.97-3.379,2.97
		c-1.859,0-3.369-1.33-3.369-2.97c0,1.64-1.51,2.97-3.379,2.97C10.896,56.403,9.397,55.073,9.397,53.434z"/>
	<path d="M160.281,185.492c-1.669,0-2.549,1.779-3.009,3.559c-0.46,1.781-0.5,3.56-0.5,3.56l-0.851,0.011
		c0,0-0.159-7.127-3.499-7.127h7.858V185.492z"/>
	<path d="M163.11,192.619c-0.01,3.469-5.218,5.988-6.748,8.728c-1.529-2.749-6.737-5.269-6.747-8.728c0-1.64,1.51-2.969,3.379-2.969
		c1.859,0,3.368,1.329,3.368,2.969c0-1.64,1.51-2.969,3.379-2.969S163.11,190.979,163.11,192.619z"/>
	<path d="M36.938,58.271c4.007,0,6.118-4.271,7.222-8.541c1.104-4.27,1.199-8.54,1.199-8.54l2.039-0.024
		c0,0,0.384,17.105,8.396,17.105H36.938z"/>
	<path d="M30.148,41.165c0.022-8.325,12.522-14.371,16.192-20.944c3.672,6.598,16.172,12.644,16.194,20.944
		c0,3.935-3.622,7.125-8.108,7.125c-4.463,0-8.086-3.19-8.086-7.125c0,3.935-3.621,7.125-8.107,7.125S30.148,45.1,30.148,41.165z"/>
	<path d="M36.938,135.184c4.007,0,6.118-4.271,7.222-8.541c1.104-4.27,1.199-8.54,1.199-8.54l2.039-0.024
		c0,0,0.384,17.105,8.396,17.105H36.938z"/>
	<path d="M30.148,118.078c0.022-8.325,12.522-14.37,16.192-20.944c3.672,6.598,16.172,12.644,16.194,20.944
		c0,3.935-3.622,7.125-8.108,7.125c-4.463,0-8.086-3.189-8.086-7.125c0,3.935-3.621,7.125-8.107,7.125
		S30.148,122.013,30.148,118.078z"/>
	<path d="M55.747,183.634c-4.007,0-6.118,4.271-7.222,8.541c-1.104,4.27-1.199,8.541-1.199,8.541l-2.039,0.022
		c0,0-0.384-17.104-8.396-17.104H55.747z"/>
	<path d="M62.536,200.739c-0.022,8.325-12.521,14.371-16.193,20.944c-3.671-6.598-16.17-12.645-16.193-20.944
		c0-3.935,3.623-7.125,8.108-7.125c4.463,0,8.085,3.19,8.085,7.125c0-3.935,3.622-7.125,8.108-7.125S62.536,196.805,62.536,200.739z
		"/>
	<path d="M116.766,58.271c4.007,0,6.117-4.271,7.222-8.541c1.104-4.27,1.199-8.54,1.199-8.54l2.039-0.024
		c0,0,0.384,17.105,8.396,17.105H116.766z"/>
	<path d="M109.977,41.165C110,32.84,122.5,26.794,126.17,20.221c3.671,6.598,16.17,12.644,16.194,20.944
		c0,3.935-3.623,7.125-8.109,7.125c-4.462,0-8.085-3.19-8.085-7.125c0,3.935-3.622,7.125-8.107,7.125
		C113.576,48.29,109.977,45.1,109.977,41.165z"/>
	<path d="M116.766,135.184c4.007,0,6.117-4.271,7.222-8.541c1.104-4.27,1.199-8.54,1.199-8.54l2.039-0.024
		c0,0,0.384,17.105,8.396,17.105H116.766z"/>
	<path d="M109.977,118.078c0.022-8.325,12.522-14.37,16.192-20.944c3.671,6.598,16.17,12.644,16.194,20.944
		c0,3.935-3.623,7.125-8.109,7.125c-4.462,0-8.085-3.189-8.085-7.125c0,3.935-3.622,7.125-8.107,7.125
		C113.576,125.203,109.977,122.013,109.977,118.078z"/>
	<path d="M135.575,183.634c-4.007,0-6.118,4.271-7.222,8.541c-1.104,4.27-1.199,8.541-1.199,8.541l-2.039,0.022
		c0,0-0.384-17.104-8.397-17.104H135.575z"/>
	<path d="M142.364,200.739c-0.023,8.325-12.523,14.371-16.193,20.944c-3.671-6.598-16.171-12.645-16.193-20.944
		c0-3.935,3.623-7.125,8.108-7.125c4.462,0,8.085,3.19,8.085,7.125c0-3.935,3.622-7.125,8.108-7.125
		S142.364,196.805,142.364,200.739z"/>
	<path d="M76.852,112.406c4.007,0,6.118-4.271,7.222-8.54c1.104-4.27,1.199-8.541,1.199-8.541l2.04-0.024
		c0,0,0.384,17.105,8.396,17.105H76.852z"/>
	<path d="M70.062,95.301c0.023-8.324,12.522-14.37,16.193-20.944c3.67,6.598,16.17,12.644,16.193,20.944
		c0,3.935-3.622,7.126-8.108,7.126c-4.463,0-8.085-3.191-8.085-7.126c0,3.935-3.623,7.126-8.108,7.126
		C73.661,102.427,70.062,99.235,70.062,95.301z"/>
	<path d="M161.729,233.167c-0.405,0.951-0.812,1.545-1.217,1.783c-0.405,0.237-1.038,0.356-1.897,0.356
		c-1.001,0-2.117-0.75-3.346-2.25c-1.229-1.5-2.152-2.25-2.773-2.25c-0.835,0-1.461,0.401-1.879,1.206
		c-0.417,0.804-0.626,1.902-0.626,3.294h-0.433c-0.023-0.168-0.035-0.42-0.035-0.757c0-0.983,0.197-2.016,0.594-3.096
		c0.397-1.08,0.834-1.992,1.314-2.735c1.104-1.681,1.799-2.82,2.088-3.421c0.72-1.512,1.08-4.188,1.08-8.027
		c0-2.136,0.19-3.636,0.575-4.5c0.384-0.863,0.984-1.296,1.8-1.296c0.647,0,1.151,0.229,1.513,0.685
		c0.432,0.553,0.646,1.465,0.646,2.736c0,0.96-0.264,2.089-0.791,3.385c-0.646,1.561-1.778,3.576-3.403,6.051
		c-0.859,1.271-1.713,2.543-2.562,3.815c-0.849,1.272-1.38,2.185-1.595,2.737c0.43-0.182,0.805-0.312,1.127-0.391
		c0.322-0.08,0.662-0.119,1.021-0.119c0.452,0,0.918,0.049,1.395,0.145c0.812,0.24,1.467,0.42,1.967,0.54
		c0.955,0.265,1.754,0.396,2.397,0.396c0.523,0,0.988-0.084,1.396-0.254c0.787-0.339,1.336-1.16,1.646-2.465
		c0.19-0.773,0.287-1.619,0.287-2.537h0.432c0,0.721-0.023,1.729-0.072,3.023c-0.048,1.296-0.071,2.232-0.071,2.809v0.396
		c0,0.937,0.071,1.896,0.217,2.88h-0.434L161.729,233.167z"/>
	<path d="M9.628,12.671c0.406-0.951,0.812-1.545,1.218-1.783c0.405-0.237,1.037-0.356,1.896-0.356c1.001,0,2.117,0.75,3.346,2.25
		c1.229,1.5,2.153,2.25,2.774,2.25c0.835,0,1.461-0.401,1.878-1.206c0.417-0.804,0.626-1.902,0.626-3.294h0.432
		c0.023,0.168,0.036,0.42,0.036,0.756c0,0.984-0.197,2.016-0.594,3.096c-0.396,1.08-0.834,1.992-1.314,2.736
		c-1.104,1.68-1.8,2.82-2.088,3.42c-0.72,1.512-1.08,4.188-1.08,8.028c0,2.136-0.191,3.636-0.575,4.5
		c-0.385,0.863-0.984,1.296-1.801,1.296c-0.647,0-1.151-0.229-1.512-0.685c-0.432-0.552-0.647-1.464-0.647-2.736
		c0-0.96,0.264-2.089,0.792-3.385c0.645-1.561,1.778-3.576,3.403-6.05c0.859-1.271,1.713-2.544,2.562-3.816
		c0.849-1.272,1.38-2.185,1.595-2.737c-0.43,0.182-0.805,0.312-1.127,0.391c-0.322,0.079-0.662,0.118-1.02,0.118
		c-0.453,0-0.919-0.048-1.396-0.144c-0.811-0.24-1.466-0.42-1.967-0.54c-0.954-0.264-1.753-0.396-2.397-0.396
		c-0.524,0-0.989,0.085-1.395,0.254c-0.788,0.339-1.336,1.16-1.646,2.465c-0.19,0.773-0.287,1.619-0.287,2.537H8.91
		c0-0.72,0.024-1.728,0.072-3.023c0.048-1.296,0.072-2.232,0.072-2.809v-0.396c0-0.937-0.072-1.896-0.217-2.88H9.27L9.628,12.671z"
		/>
</g>
</svg>
