<?xml version="1.0" encoding="utf-8"?>
<!-- Generator: Adobe Illustrator 16.0.0, SVG Export Plug-In . SVG Version: 6.00 Build 0)  -->
<!DOCTYPE svg PUBLIC "-//W3C//DTD SVG 1.1//EN" "http://www.w3.org/Graphics/SVG/1.1/DTD/svg11.dtd">
<svg version="1.1" id="Layer_1" xmlns="http://www.w3.org/2000/svg" xmlns:xlink="http://www.w3.org/1999/xlink" x="0px" y="0px"
	 width="171.512px" height="247.046px" viewBox="0 0 171.512 247.046" enable-background="new 0 0 171.512 247.046"
	 xml:space="preserve">
<g>
	<path fill="#FFFFFF" d="M9.367,245.8c-4.476,0-8.117-3.643-8.117-8.117V9.367c0-4.476,3.643-8.117,8.117-8.117h152.788
		c4.471,0,8.107,3.642,8.107,8.117v228.315c0,4.476-3.638,8.116-8.107,8.116H9.367V245.8z"/>
	<path fill="#D4D4D4" d="M162.155,2.5c3.769,0,6.857,3.089,6.857,6.867v228.315c0,3.778-3.09,6.866-6.857,6.866H9.367
		c-3.778,0-6.867-3.088-6.867-6.866V9.367C2.5,5.589,5.589,2.5,9.367,2.5H162.155 M162.155,0H9.367C4.202,0,0,4.202,0,9.367v228.315
		c0,5.165,4.202,9.366,9.367,9.366h152.788c5.16,0,9.357-4.201,9.357-9.366V9.367C171.513,4.202,167.315,0,162.155,0z"/>
	<path d="M12.236,60.562c1.669,0,2.549-1.779,3.009-3.559c0.46-1.78,0.5-3.559,0.5-3.559l0.851-0.011c0,0,0.159,7.128,3.499,7.128
		L12.236,60.562L12.236,60.562z"/>
	<path d="M9.407,53.434c0.01-3.469,5.218-5.987,6.747-8.727c1.53,2.749,6.738,5.269,6.748,8.727c0,1.64-1.51,2.97-3.379,2.97
		c-1.859,0-3.369-1.33-3.369-2.97c0,1.64-1.509,2.97-3.378,2.97C10.906,56.403,9.407,55.073,9.407,53.434z"/>
	<path d="M160.291,185.492c-1.669,0-2.549,1.779-3.009,3.559c-0.46,1.781-0.5,3.56-0.5,3.56l-0.85,0.011c0,0-0.16-7.127-3.499-7.127
		h7.857V185.492z"/>
	<path d="M163.12,192.619c-0.01,3.469-5.218,5.988-6.747,8.728c-1.53-2.749-6.738-5.269-6.748-8.728c0-1.64,1.51-2.969,3.379-2.969
		c1.859,0,3.369,1.329,3.369,2.969c0-1.64,1.509-2.969,3.378-2.969C161.621,189.65,163.12,190.979,163.12,192.619z"/>
	<path d="M36.943,58.271c4.007,0,6.118-4.271,7.222-8.541c1.104-4.27,1.199-8.54,1.199-8.54l2.039-0.024
		c0,0,0.384,17.105,8.396,17.105H36.943z"/>
	<path d="M30.154,41.165c0.022-8.325,12.522-14.371,16.193-20.944c3.671,6.598,16.17,12.644,16.193,20.944
		c0,3.935-3.623,7.125-8.108,7.125c-4.462,0-8.085-3.19-8.085-7.125c0,3.935-3.622,7.125-8.108,7.125S30.154,45.1,30.154,41.165z"/>
	<path d="M36.943,112.406c4.007,0,6.118-4.271,7.222-8.54c1.104-4.27,1.199-8.541,1.199-8.541l2.039-0.024
		c0,0,0.384,17.105,8.396,17.105H36.943z"/>
	<path d="M30.154,95.301c0.022-8.324,12.522-14.37,16.193-20.944C50.019,80.954,62.518,87,62.542,95.301
		c0,3.935-3.623,7.126-8.108,7.126c-4.462,0-8.085-3.191-8.085-7.126c0,3.935-3.622,7.126-8.108,7.126S30.154,99.235,30.154,95.301z
		"/>
	<path d="M55.753,129.498c-4.007,0-6.118,4.271-7.222,8.541c-1.104,4.271-1.199,8.541-1.199,8.541l-2.039,0.023
		c0,0-0.385-17.105-8.396-17.105H55.753z"/>
	<path d="M62.542,146.604c-0.022,8.325-12.522,14.371-16.193,20.944c-3.67-6.598-16.17-12.645-16.193-20.944
		c0-3.935,3.623-7.125,8.109-7.125c4.462,0,8.084,3.19,8.084,7.125c0-3.935,3.623-7.125,8.108-7.125
		C58.943,139.479,62.542,142.669,62.542,146.604z"/>
	<path d="M55.753,183.634c-4.007,0-6.118,4.271-7.222,8.541c-1.104,4.27-1.199,8.541-1.199,8.541l-2.039,0.022
		c0,0-0.385-17.104-8.396-17.104H55.753z"/>
	<path d="M62.542,200.739c-0.022,8.325-12.522,14.371-16.193,20.944c-3.67-6.598-16.17-12.645-16.193-20.944
		c0-3.935,3.623-7.125,8.109-7.125c4.462,0,8.084,3.19,8.084,7.125c0-3.935,3.623-7.125,8.108-7.125
		C58.943,193.614,62.542,196.805,62.542,200.739z"/>
	<path d="M116.771,58.271c4.007,0,6.117-4.271,7.221-8.541c1.104-4.27,1.2-8.54,1.2-8.54l2.039-0.024c0,0,0.384,17.105,8.396,17.105
		H116.771z"/>
	<path d="M109.982,41.165c0.022-8.325,12.521-14.371,16.192-20.944c3.672,6.598,16.171,12.644,16.194,20.944
		c0,3.935-3.623,7.125-8.109,7.125c-4.462,0-8.085-3.19-8.085-7.125c0,3.935-3.622,7.125-8.108,7.125S109.982,45.1,109.982,41.165z"
		/>
	<path d="M116.771,112.406c4.007,0,6.117-4.271,7.221-8.54c1.104-4.271,1.2-8.541,1.2-8.541l2.039-0.024
		c0,0,0.384,17.105,8.396,17.105H116.771z"/>
	<path d="M109.982,95.301c0.022-8.324,12.521-14.37,16.192-20.944c3.672,6.598,16.171,12.644,16.194,20.944
		c0,3.935-3.623,7.126-8.109,7.126c-4.462,0-8.085-3.191-8.085-7.126c0,3.935-3.622,7.126-8.108,7.126
		S109.982,99.235,109.982,95.301z"/>
	<path d="M135.58,129.498c-4.006,0-6.117,4.271-7.221,8.541c-1.104,4.271-1.199,8.541-1.199,8.541l-2.04,0.023
		c0,0-0.384-17.105-8.396-17.105H135.58z"/>
	<path d="M142.37,146.604c-0.023,8.325-12.522,14.371-16.194,20.944c-3.67-6.598-16.17-12.645-16.192-20.944
		c0-3.935,3.622-7.125,8.107-7.125c4.464,0,8.085,3.19,8.085,7.125c0-3.935,3.623-7.125,8.109-7.125S142.37,142.669,142.37,146.604z
		"/>
	<path d="M135.58,183.634c-4.006,0-6.117,4.271-7.221,8.541c-1.104,4.27-1.199,8.541-1.199,8.541l-2.04,0.022
		c0,0-0.384-17.104-8.396-17.104H135.58z"/>
	<path d="M142.37,200.739c-0.023,8.325-12.522,14.371-16.194,20.944c-3.67-6.598-16.17-12.645-16.192-20.944
		c0-3.935,3.622-7.125,8.107-7.125c4.464,0,8.085,3.19,8.085,7.125c0-3.935,3.623-7.125,8.109-7.125S142.37,196.805,142.37,200.739z
		"/>
	<path d="M76.857,85.34c4.007,0,6.118-4.271,7.222-8.541c1.104-4.27,1.199-8.541,1.199-8.541l2.039-0.023
		c0,0,0.384,17.105,8.396,17.105H76.857z"/>
	<path d="M70.068,68.234c0.022-8.325,12.522-14.371,16.193-20.944c3.671,6.598,16.17,12.644,16.193,20.944
		c0,3.935-3.623,7.125-8.108,7.125c-4.463,0-8.085-3.19-8.085-7.125c0,3.935-3.622,7.125-8.108,7.125S70.068,72.169,70.068,68.234z"
		/>
	<path d="M95.666,156.564c-4.006,0-6.117,4.271-7.221,8.541c-1.104,4.27-1.199,8.541-1.199,8.541l-2.04,0.023
		c0,0-0.384-17.105-8.396-17.105H95.666z"/>
	<path d="M102.456,173.669c-0.023,8.326-12.522,14.371-16.193,20.944c-3.671-6.598-16.171-12.643-16.193-20.944
		c0-3.935,3.622-7.125,8.107-7.125c4.464,0,8.086,3.19,8.086,7.125c0-3.935,3.622-7.125,8.108-7.125
		S102.456,169.735,102.456,173.669z"/>
	<path d="M166.335,233.255c-2.082,0-3.502,0.139-4.26,0.414s-1.455,0.822-2.092,1.639h-0.361v-21.165
		c0-0.697-0.035-1.142-0.104-1.334c-0.035-0.097-0.152-0.198-0.353-0.308c-0.196-0.106-0.553-0.197-1.062-0.27
		c-0.51-0.072-1.076-0.107-1.697-0.107V211.8h9.928v0.324c-0.742,0-1.387,0.035-1.932,0.107c-0.545,0.071-0.916,0.162-1.115,0.271
		c-0.197,0.107-0.328,0.24-0.389,0.396c-0.062,0.156-0.09,0.572-0.09,1.246v16.764c0,0.648,0.047,1.064,0.143,1.244
		c0.096,0.182,0.246,0.326,0.453,0.436s0.52,0.181,0.934,0.216c0.414,0.036,1.08,0.055,1.996,0.055V233.255z"/>
	<path d="M150.03,211.476c1.436,0,2.688,1.066,3.76,3.204c1.158,2.305,1.736,5.207,1.736,8.712c0,3.504-0.57,6.396-1.711,8.677
		c-1.072,2.16-2.332,3.239-3.785,3.239c-1.451,0-2.713-1.066-3.783-3.204c-1.158-2.304-1.736-5.208-1.736-8.712
		c0-3.505,0.558-6.366,1.673-8.586C147.296,212.585,148.579,211.476,150.03,211.476z M150.03,211.8c-0.689,0-1.209,0.97-1.555,2.91
		c-0.347,1.941-0.519,4.842-0.519,8.699c0,3.715,0.025,6.026,0.076,6.938c0.174,3.09,0.84,4.637,1.996,4.637
		c0.674,0,1.184-0.965,1.529-2.896c0.346-1.928,0.52-4.821,0.52-8.68c0-3.738-0.024-6.062-0.078-6.974
		C151.829,213.346,151.171,211.8,150.03,211.8z"/>
	<path d="M6.012,12.583c2.081,0,3.502-0.138,4.26-0.414c0.758-0.275,1.455-0.822,2.092-1.638h0.361v21.165
		c0,0.697,0.034,1.142,0.104,1.334c0.035,0.097,0.152,0.199,0.353,0.307c0.196,0.108,0.553,0.199,1.062,0.271
		c0.51,0.072,1.076,0.108,1.697,0.108v0.324H6.012v-0.324c0.741,0,1.387-0.036,1.932-0.108c0.545-0.072,0.916-0.163,1.115-0.271
		c0.196-0.108,0.328-0.241,0.389-0.397c0.061-0.157,0.09-0.572,0.09-1.247V14.93c0-0.65-0.047-1.065-0.143-1.246
		c-0.097-0.181-0.246-0.325-0.453-0.434c-0.207-0.108-0.521-0.18-0.935-0.216c-0.414-0.036-1.079-0.055-1.995-0.055V12.583z"/>
	<path d="M22.316,34.363c-1.437,0-2.688-1.068-3.76-3.204c-1.158-2.304-1.736-5.208-1.736-8.712c0-3.504,0.57-6.396,1.711-8.676
		c1.072-2.16,2.332-3.24,3.785-3.24c1.451,0,2.713,1.068,3.783,3.204c1.157,2.304,1.735,5.208,1.735,8.712
		c0,3.504-0.557,6.366-1.672,8.586C25.051,33.253,23.768,34.363,22.316,34.363z M22.316,34.039c0.688,0,1.209-0.97,1.555-2.912
		c0.346-1.94,0.519-4.84,0.519-8.698c0-3.714-0.025-6.027-0.076-6.938c-0.174-3.091-0.84-4.637-1.996-4.637
		c-0.674,0-1.185,0.965-1.529,2.894c-0.346,1.929-0.52,4.823-0.52,8.681c0,3.738,0.024,6.063,0.078,6.973
		C20.518,32.494,21.176,34.039,22.316,34.039z"/>
</g>
</svg>
