<?xml version="1.0" encoding="utf-8"?>
<!-- Generator: Adobe Illustrator 16.0.0, SVG Export Plug-In . SVG Version: 6.00 Build 0)  -->
<!DOCTYPE svg PUBLIC "-//W3C//DTD SVG 1.1//EN" "http://www.w3.org/Graphics/SVG/1.1/DTD/svg11.dtd">
<svg version="1.1" id="Layer_1" xmlns="http://www.w3.org/2000/svg" xmlns:xlink="http://www.w3.org/1999/xlink" x="0px" y="0px"
	 width="171.512px" height="247.046px" viewBox="0 0 171.512 247.046" enable-background="new 0 0 171.512 247.046"
	 xml:space="preserve">
<g>
	<path fill="#FFFFFF" d="M9.367,245.8c-4.476,0-8.117-3.643-8.117-8.117V9.367c0-4.476,3.642-8.117,8.117-8.117h152.789
		c4.47,0,8.107,3.642,8.107,8.117v228.315c0,4.476-3.638,8.116-8.107,8.116H9.367V245.8z"/>
	<path fill="#D4D4D4" d="M162.156,2.5c3.769,0,6.857,3.089,6.857,6.867v228.315c0,3.778-3.09,6.866-6.857,6.866H9.367
		c-3.778,0-6.867-3.088-6.867-6.866V9.367C2.5,5.589,5.589,2.5,9.367,2.5H162.156 M162.156,0H9.367C4.202,0,0,4.202,0,9.367v228.315
		c0,5.165,4.202,9.366,9.367,9.366h152.789c5.16,0,9.357-4.201,9.357-9.366V9.367C171.513,4.202,167.315,0,162.156,0z"/>
	<path d="M12.226,60.562c1.669,0,2.549-1.779,3.009-3.559c0.459-1.779,0.5-3.559,0.5-3.559l0.85-0.011c0,0,0.16,7.128,3.499,7.128
		L12.226,60.562L12.226,60.562z"/>
	<path d="M9.397,53.434c0.01-3.469,5.218-5.987,6.748-8.727c1.528,2.749,6.736,5.269,6.748,8.727c0,1.64-1.511,2.97-3.379,2.97
		c-1.859,0-3.369-1.33-3.369-2.97c0,1.64-1.511,2.97-3.379,2.97C10.897,56.404,9.397,55.073,9.397,53.434z"/>
	<path d="M160.286,185.492c-1.669,0-2.549,1.779-3.009,3.559c-0.46,1.781-0.5,3.56-0.5,3.56l-0.851,0.011
		c0,0-0.159-7.127-3.498-7.127h7.857V185.492z"/>
	<path d="M163.115,192.619c-0.01,3.469-5.218,5.988-6.748,8.728c-1.529-2.749-6.737-5.269-6.748-8.728
		c0-1.64,1.51-2.969,3.379-2.969c1.859,0,3.369,1.329,3.369,2.969c0-1.64,1.509-2.969,3.379-2.969S163.115,190.979,163.115,192.619z
		"/>
	<path d="M76.852,135.184c4.006,0,6.118-4.271,7.221-8.541c1.104-4.27,1.2-8.54,1.2-8.54l2.039-0.024c0,0,0.384,17.105,8.396,17.105
		H76.852z"/>
	<path d="M70.062,118.078c0.023-8.325,12.522-14.37,16.193-20.944c3.67,6.598,16.17,12.644,16.194,20.944
		c0,3.935-3.623,7.125-8.109,7.125c-4.462,0-8.085-3.189-8.085-7.125c0,3.935-3.623,7.125-8.108,7.125
		C73.661,125.203,70.062,122.013,70.062,118.078z"/>
	<path d="M152.323,219.576h6.937l1.109-3.184c0.286-0.796,0.429-1.482,0.429-2.062c0-0.892-0.336-1.531-1.008-1.916
		c-0.671-0.387-1.62-0.578-2.844-0.578v-0.36h9.144v0.36c-1.655,0-2.939,0.625-3.852,1.873c-0.504,0.697-1.152,2.141-1.944,4.328
		l-6.084,16.945h-0.72l-7.776-21.129c-0.359-0.984-0.72-1.568-1.08-1.749c-0.359-0.181-1.439-0.271-3.239-0.271v-0.359h13.283v0.359
		c-1.8,0-3.035,0.065-3.707,0.199c-0.673,0.133-1.009,0.403-1.009,0.812l0.072,0.361L152.323,219.576z M152.501,219.972l3.29,9.166
		l3.29-9.166H152.501z"/>
	<path d="M19.652,25.939h-6.938l-1.108,3.183c-0.286,0.796-0.43,1.483-0.43,2.062c0,0.892,0.337,1.531,1.009,1.917
		c0.671,0.386,1.62,0.578,2.844,0.578v0.36H5.885v-0.36c1.656,0,2.94-0.625,3.853-1.874c0.504-0.697,1.152-2.14,1.944-4.327
		l6.084-16.946h0.72l7.776,21.129c0.359,0.985,0.72,1.569,1.079,1.749c0.36,0.18,1.44,0.27,3.24,0.27v0.36H17.297v-0.36
		c1.801,0,3.036-0.065,3.708-0.198c0.672-0.133,1.009-0.404,1.009-0.813l-0.072-0.362L19.652,25.939z M19.474,25.543l-3.29-9.166
		l-3.29,9.166H19.474z"/>
</g>
</svg>
