<?xml version="1.0" encoding="utf-8"?>
<!-- Generator: Adobe Illustrator 16.0.0, SVG Export Plug-In . SVG Version: 6.00 Build 0)  -->
<!DOCTYPE svg PUBLIC "-//W3C//DTD SVG 1.1//EN" "http://www.w3.org/Graphics/SVG/1.1/DTD/svg11.dtd">
<svg version="1.1" id="Layer_1" xmlns="http://www.w3.org/2000/svg" xmlns:xlink="http://www.w3.org/1999/xlink" x="0px" y="0px"
	 width="171.512px" height="247.046px" viewBox="0 0 171.512 247.046" enable-background="new 0 0 171.512 247.046"
	 xml:space="preserve">
<g>
	<path fill="#FFFFFF" d="M9.367,245.8c-4.476,0-8.117-3.643-8.117-8.117V9.367c0-4.476,3.642-8.117,8.117-8.117h152.788
		c4.47,0,8.107,3.642,8.107,8.117v228.315c0,4.476-3.638,8.116-8.107,8.116H9.367V245.8z"/>
	<path fill="#D4D4D4" d="M162.155,2.5c3.769,0,6.857,3.089,6.857,6.867v228.315c0,3.778-3.09,6.866-6.857,6.866H9.367
		c-3.778,0-6.867-3.088-6.867-6.866V9.367C2.5,5.589,5.589,2.5,9.367,2.5H162.155 M162.155,0H9.367C4.202,0,0,4.202,0,9.367v228.315
		c0,5.165,4.202,9.366,9.367,9.366h152.788c5.16,0,9.357-4.201,9.357-9.366V9.367C171.513,4.202,167.315,0,162.155,0z"/>
	<path d="M12.227,60.562c1.669,0,2.549-1.779,3.009-3.559c0.459-1.779,0.5-3.559,0.5-3.559l0.85-0.011c0,0,0.16,7.128,3.499,7.128
		L12.227,60.562L12.227,60.562z"/>
	<path d="M9.397,53.434c0.01-3.469,5.218-5.987,6.748-8.727c1.528,2.749,6.736,5.269,6.748,8.727c0,1.64-1.511,2.97-3.379,2.97
		c-1.859,0-3.369-1.33-3.369-2.97c0,1.64-1.511,2.97-3.379,2.97C10.897,56.404,9.397,55.073,9.397,53.434z"/>
	<path d="M160.286,185.492c-1.669,0-2.549,1.779-3.009,3.559c-0.46,1.781-0.5,3.56-0.5,3.56l-0.851,0.011
		c0,0-0.159-7.127-3.497-7.127h7.856V185.492z"/>
	<path d="M163.115,192.619c-0.01,3.469-5.218,5.988-6.747,8.728c-1.53-2.749-6.738-5.269-6.748-8.728c0-1.64,1.51-2.969,3.379-2.969
		c1.859,0,3.369,1.329,3.369,2.969c0-1.64,1.509-2.969,3.378-2.969C161.616,189.65,163.115,190.979,163.115,192.619z"/>
	<path d="M95.66,183.634c-4.007,0-6.118,4.271-7.222,8.541c-1.104,4.27-1.199,8.541-1.199,8.541l-2.039,0.022
		c0,0-0.384-17.104-8.396-17.104H95.66z"/>
	<path d="M102.449,200.739c-0.023,8.325-12.523,14.371-16.193,20.944c-3.671-6.598-16.17-12.645-16.193-20.944
		c0-3.935,3.623-7.125,8.108-7.125c4.462,0,8.085,3.19,8.085,7.125c0-3.935,3.622-7.125,8.108-7.125
		S102.449,196.805,102.449,200.739z"/>
	<path d="M76.852,135.184c4.006,0,6.116-4.271,7.221-8.541c1.104-4.27,1.2-8.54,1.2-8.54l2.039-0.024c0,0,0.384,17.105,8.396,17.105
		H76.852z"/>
	<path d="M70.062,118.078c0.023-8.325,12.522-14.37,16.193-20.944c3.67,6.598,16.17,12.644,16.193,20.944
		c0,3.935-3.622,7.125-8.108,7.125c-4.463,0-8.085-3.189-8.085-7.125c0,3.935-3.623,7.125-8.108,7.125
		C73.661,125.203,70.062,122.013,70.062,118.078z"/>
	<path d="M76.852,58.271c4.006,0,6.116-4.271,7.221-8.541c1.104-4.27,1.2-8.54,1.2-8.54l2.039-0.024c0,0,0.384,17.105,8.396,17.105
		H76.852z"/>
	<path d="M70.062,41.165c0.023-8.325,12.522-14.371,16.193-20.944c3.67,6.598,16.17,12.644,16.193,20.944
		c0,3.935-3.622,7.125-8.108,7.125c-4.463,0-8.085-3.19-8.085-7.125c0,3.935-3.623,7.125-8.108,7.125
		C73.661,48.29,70.062,45.1,70.062,41.165z"/>
	<path d="M156.569,224.939c-0.119-0.023-0.298-0.036-0.537-0.036c-0.931,0-1.629,0.406-2.095,1.22
		c-0.465,0.813-0.698,1.842-0.698,3.086c0,2.225,0.311,3.777,0.933,4.664c0.527,0.74,1.293,1.11,2.299,1.11
		c1.005,0,1.885-0.258,2.639-0.772c0.754-0.518,1.239-1.278,1.454-2.287c-0.096,0.072-0.196,0.127-0.304,0.162
		c-0.106,0.037-0.219,0.055-0.338,0.055c-0.403,0-0.777-0.208-1.124-0.624c-0.345-0.416-0.47-0.886-0.374-1.408
		c0.097-0.522,0.333-0.938,0.714-1.248c0.38-0.31,0.819-0.464,1.318-0.464c0.833,0,1.368,0.408,1.605,1.225
		c0.07,0.289,0.106,0.588,0.106,0.899c0,1.2-0.54,2.28-1.62,3.239c-1.176,1.031-2.64,1.549-4.392,1.549
		c-2.16,0-3.947-0.646-5.364-1.943c-1.271-1.177-1.908-2.496-1.908-3.961c0-1.318,0.612-2.376,1.837-3.168
		c1.057-0.672,2.483-1.14,4.283-1.402c-2.159,0-3.815-0.469-4.968-1.404c-1.248-1.032-1.872-2.557-1.872-4.572
		c0-2.398,1.116-4.309,3.349-5.725c1.728-1.104,3.433-1.655,5.111-1.655c1.824,0,3.384,0.606,4.681,1.817
		c1.296,1.213,1.943,2.599,1.943,4.158c0,0.911-0.244,1.596-0.731,2.053c-0.488,0.455-1.077,0.684-1.769,0.684
		c-0.452,0-0.81-0.084-1.07-0.252c-0.596-0.312-0.894-0.863-0.894-1.654c0-0.602,0.191-1.117,0.572-1.55s0.893-0.647,1.536-0.647
		c0.143,0,0.292,0.013,0.446,0.037c0.154,0.022,0.304,0.06,0.446,0.106c0.121-0.896-0.251-1.826-1.113-2.794
		c-0.98-1.089-2.166-1.635-3.554-1.635c-1.005,0-1.951,0.435-2.837,1.301c-1.173,1.131-1.759,2.742-1.759,4.838
		c0,2.383,0.269,4.085,0.806,5.107c0.538,1.022,1.271,1.535,2.203,1.535c0.334,0,0.687-0.066,1.057-0.199
		c0.37-0.131,0.747-0.252,1.128-0.359c0.384-0.107,0.729-0.162,1.039-0.162c0.573,0,0.907,0.217,1.003,0.648
		c-0.022,0.264-0.137,0.449-0.34,0.558s-0.471,0.162-0.806,0.162c-0.286,0-0.614-0.036-0.984-0.106
		C157.255,225.048,156.903,224.987,156.569,224.939z"/>
	<path d="M14.148,20.899c0.119,0.023,0.298,0.036,0.537,0.036c0.931,0,1.629-0.406,2.095-1.22c0.465-0.813,0.698-1.842,0.698-3.086
		c0-2.224-0.312-3.777-0.934-4.663c-0.526-0.741-1.293-1.111-2.298-1.111s-1.885,0.258-2.639,0.773
		c-0.754,0.517-1.239,1.278-1.454,2.286c0.095-0.072,0.196-0.126,0.303-0.162c0.107-0.036,0.219-0.054,0.338-0.054
		c0.404,0,0.778,0.208,1.124,0.624c0.346,0.416,0.471,0.886,0.374,1.408c-0.096,0.523-0.333,0.939-0.713,1.248
		c-0.38,0.31-0.82,0.464-1.318,0.464c-0.833,0-1.368-0.408-1.605-1.225c-0.071-0.288-0.107-0.588-0.107-0.899
		c0-1.2,0.54-2.28,1.62-3.24c1.177-1.031,2.641-1.548,4.393-1.548c2.16,0,3.946,0.647,5.363,1.943
		c1.272,1.177,1.908,2.497,1.908,3.961c0,1.319-0.611,2.376-1.836,3.168c-1.057,0.672-2.483,1.14-4.284,1.403
		c2.16,0,3.816,0.468,4.969,1.404c1.248,1.032,1.872,2.556,1.872,4.572c0,2.399-1.116,4.308-3.349,5.724
		c-1.728,1.104-3.433,1.656-5.112,1.656c-1.823,0-3.384-0.606-4.68-1.818s-1.944-2.598-1.944-4.158c0-0.911,0.244-1.596,0.732-2.052
		c0.488-0.455,1.077-0.684,1.768-0.684c0.452,0,0.811,0.084,1.071,0.252c0.595,0.312,0.894,0.863,0.894,1.655
		c0,0.601-0.191,1.116-0.572,1.549c-0.381,0.432-0.894,0.647-1.536,0.647c-0.143,0-0.292-0.012-0.447-0.036
		c-0.153-0.023-0.303-0.06-0.445-0.107c-0.121,0.895,0.251,1.826,1.112,2.794c0.981,1.089,2.166,1.634,3.555,1.634
		c1.005,0,1.95-0.434,2.837-1.3c1.173-1.131,1.759-2.743,1.759-4.838c0-2.383-0.27-4.085-0.806-5.107
		c-0.538-1.023-1.271-1.535-2.203-1.535c-0.334,0-0.688,0.066-1.058,0.198s-0.747,0.252-1.128,0.36
		c-0.383,0.107-0.729,0.162-1.039,0.162c-0.572,0-0.906-0.217-1.003-0.648c0.023-0.264,0.138-0.45,0.34-0.558
		c0.203-0.108,0.472-0.162,0.807-0.162c0.286,0,0.613,0.036,0.983,0.107C13.462,20.791,13.814,20.852,14.148,20.899z"/>
</g>
</svg>
