<?xml version="1.0" encoding="utf-8"?>
<!-- Generator: Adobe Illustrator 16.0.0, SVG Export Plug-In . SVG Version: 6.00 Build 0)  -->
<!DOCTYPE svg PUBLIC "-//W3C//DTD SVG 1.1//EN" "http://www.w3.org/Graphics/SVG/1.1/DTD/svg11.dtd">
<svg version="1.1" id="Layer_1" xmlns="http://www.w3.org/2000/svg" xmlns:xlink="http://www.w3.org/1999/xlink" x="0px" y="0px"
	 width="171.512px" height="247.046px" viewBox="0 0 171.512 247.046" enable-background="new 0 0 171.512 247.046"
	 xml:space="preserve">
<g>
	<path fill="#FFFFFF" d="M9.367,245.8c-4.476,0-8.117-3.643-8.117-8.117V9.367c0-4.476,3.642-8.117,8.117-8.117h152.789
		c4.47,0,8.107,3.642,8.107,8.117v228.316c0,4.477-3.638,8.117-8.107,8.117H9.367z"/>
	<path fill="#D4D4D4" d="M162.156,2.5c3.769,0,6.857,3.089,6.857,6.867v228.316c0,3.777-3.09,6.867-6.857,6.867H9.367
		c-3.778,0-6.867-3.09-6.867-6.867V9.367C2.5,5.589,5.589,2.5,9.367,2.5H162.156 M162.156,0H9.367C4.202,0,0,4.202,0,9.367v228.316
		c0,5.165,4.202,9.367,9.367,9.367h152.789c5.16,0,9.357-4.202,9.357-9.367V9.367C171.513,4.202,167.315,0,162.156,0z"/>
	<path d="M12.227,60.562c1.669,0,2.549-1.779,3.009-3.559c0.459-1.779,0.5-3.559,0.5-3.559l0.85-0.011c0,0,0.16,7.128,3.499,7.128
		L12.227,60.562L12.227,60.562z"/>
	<path d="M9.397,53.434c0.01-3.469,5.218-5.987,6.748-8.727c1.528,2.749,6.736,5.269,6.748,8.727c0,1.64-1.511,2.97-3.379,2.97
		c-1.859,0-3.369-1.33-3.369-2.97c0,1.64-1.511,2.97-3.379,2.97C10.897,56.404,9.397,55.073,9.397,53.434z"/>
	<path d="M160.286,185.494c-1.669,0-2.549,1.778-3.009,3.559c-0.46,1.779-0.5,3.559-0.5,3.559l-0.851,0.01
		c0,0-0.159-7.127-3.498-7.127H160.286L160.286,185.494z"/>
	<path d="M163.115,192.621c-0.01,3.469-5.218,5.987-6.748,8.727c-1.529-2.749-6.737-5.268-6.748-8.727c0-1.641,1.51-2.97,3.379-2.97
		c1.859,0,3.369,1.329,3.369,2.97c0-1.641,1.509-2.97,3.379-2.97S163.115,190.98,163.115,192.621z"/>
	<path d="M95.66,183.634c-4.006,0-6.118,4.271-7.221,8.541c-1.104,4.27-1.199,8.541-1.199,8.541l-2.04,0.022
		c0,0-0.384-17.104-8.396-17.104H95.66z"/>
	<path d="M102.449,200.74c-0.024,8.325-12.523,14.371-16.194,20.944c-3.67-6.599-16.17-12.644-16.193-20.944
		c0-3.935,3.623-7.125,8.108-7.125c4.462,0,8.085,3.19,8.085,7.125c0-3.935,3.623-7.125,8.109-7.125S102.449,196.805,102.449,200.74
		z"/>
	<path d="M76.851,58.271c4.006,0,6.117-4.271,7.221-8.541s1.2-8.54,1.2-8.54l2.039-0.024c0,0,0.384,17.105,8.396,17.105H76.851z"/>
	<path d="M70.062,41.165c0.023-8.325,12.522-14.371,16.193-20.944c3.67,6.598,16.17,12.644,16.194,20.944
		c0,3.935-3.623,7.125-8.109,7.125c-4.462,0-8.085-3.19-8.085-7.125c0,3.935-3.623,7.125-8.108,7.125
		C73.661,48.29,70.062,45.1,70.062,41.165z"/>
	<path d="M149.568,219.503v-1.477c0-0.96,0.042-1.806,0.126-2.537c0.084-0.732,0.271-1.363,0.56-1.891
		c0.386-0.721,0.85-1.254,1.391-1.602c0.541-0.349,1.125-0.522,1.751-0.522c0.746,0,1.443,0.204,2.094,0.612
		s1.204,0.959,1.661,1.656c0.649,1.008,1.107,1.619,1.372,1.836c0.337,0.287,0.854,0.432,1.553,0.432
		c0.385,0,0.746-0.276,1.083-0.828c0.434-0.721,0.65-1.729,0.65-3.023h0.611c0,3.096-0.686,5.424-2.06,6.983
		c-0.747,0.864-1.999,1.668-3.758,2.412c-1.229,0.528-2.145,1.396-2.747,2.599s-0.903,2.588-0.903,4.151
		c0,1.37,0.253,2.743,0.759,4.114c0.411,1.107,0.881,1.83,1.412,2.166c0.386,0.24,0.952,0.361,1.7,0.361
		c1.447,0,2.653-0.773,3.617-2.318c0.84-1.352,1.26-2.75,1.26-4.197c0-0.288-0.012-0.492-0.036-0.612
		c-0.118,0.336-0.278,0.589-0.479,0.757s-0.443,0.252-0.729,0.252c-0.354,0-0.675-0.139-0.96-0.414
		c-0.284-0.275-0.485-0.689-0.604-1.242c-0.049-0.168-0.072-0.396-0.072-0.684c0-0.648,0.179-1.201,0.535-1.656
		s0.797-0.685,1.319-0.685c0.263,0,0.487,0.048,0.678,0.146c0.428,0.215,0.755,0.61,0.98,1.188c0.227,0.577,0.339,1.271,0.339,2.088
		c0,1.872-0.516,3.564-1.548,5.076c-1.224,1.775-2.844,2.664-4.859,2.664c-2.593,0-4.523-1.008-5.797-3.023
		c-0.936-1.488-1.403-3.217-1.403-5.185c0-1.584,0.336-2.796,1.008-3.636c0.744-0.938,1.992-1.598,3.744-1.98
		c2.688-0.6,4.5-1.271,5.436-2.016c0.937-0.745,1.598-1.776,1.98-3.096c-0.192,0.166-0.481,0.252-0.867,0.252
		c-0.168,0-1.456-0.31-3.864-0.926c-1.154-0.296-2.154-0.443-2.998-0.443c-0.169,0-0.354,0.007-0.56,0.019
		c-0.205,0.013-0.488,0.056-0.851,0.128c-0.817,0.169-1.384,0.557-1.696,1.162c-0.217,0.436-0.325,1.064-0.325,1.889
		c0.023,0.508,0.036,0.883,0.036,1.125L149.568,219.503z"/>
	<path d="M21.474,26.335v1.477c0,0.96-0.042,1.806-0.126,2.537c-0.084,0.732-0.271,1.363-0.561,1.891
		c-0.385,0.72-0.849,1.254-1.39,1.602c-0.541,0.348-1.125,0.522-1.751,0.522c-0.746,0-1.444-0.204-2.094-0.612
		c-0.65-0.408-1.204-0.96-1.661-1.656c-0.65-1.008-1.108-1.62-1.372-1.836c-0.337-0.288-0.854-0.432-1.554-0.432
		c-0.385,0-0.745,0.276-1.083,0.828c-0.434,0.72-0.649,1.728-0.649,3.023H8.622c0-3.096,0.687-5.423,2.061-6.983
		c0.747-0.864,1.999-1.668,3.758-2.412c1.229-0.529,2.144-1.396,2.747-2.599c0.602-1.203,0.902-2.587,0.902-4.151
		c0-1.371-0.253-2.743-0.759-4.115c-0.411-1.107-0.881-1.829-1.412-2.166c-0.386-0.24-0.952-0.361-1.7-0.361
		c-1.446,0-2.652,0.773-3.616,2.318c-0.84,1.352-1.261,2.751-1.261,4.198c0,0.288,0.013,0.492,0.036,0.612
		c0.118-0.336,0.278-0.588,0.48-0.757c0.201-0.167,0.442-0.252,0.728-0.252c0.355,0,0.676,0.139,0.96,0.414
		c0.284,0.276,0.485,0.69,0.604,1.242c0.048,0.168,0.072,0.396,0.072,0.684c0,0.648-0.18,1.201-0.535,1.656
		c-0.357,0.456-0.797,0.685-1.32,0.685c-0.262,0-0.487-0.048-0.677-0.145c-0.428-0.216-0.755-0.611-0.981-1.188
		c-0.226-0.577-0.339-1.272-0.339-2.088c0-1.872,0.517-3.564,1.548-5.076c1.225-1.776,2.845-2.664,4.86-2.664
		c2.592,0,4.522,1.008,5.796,3.023c0.936,1.488,1.404,3.217,1.404,5.185c0,1.584-0.336,2.796-1.008,3.636
		c-0.744,0.937-1.992,1.597-3.744,1.98c-2.688,0.6-4.5,1.271-5.437,2.016c-0.936,0.745-1.597,1.776-1.979,3.096
		c0.191-0.167,0.48-0.252,0.866-0.252c0.169,0,1.456,0.309,3.864,0.925c1.155,0.296,2.155,0.443,2.998,0.443
		c0.169,0,0.355-0.006,0.561-0.018c0.205-0.013,0.487-0.055,0.85-0.128c0.818-0.169,1.384-0.557,1.697-1.162
		c0.217-0.435,0.325-1.064,0.325-1.888c-0.024-0.508-0.036-0.883-0.036-1.125L21.474,26.335z"/>
</g>
</svg>
