<?xml version="1.0" encoding="utf-8"?>
<!-- Generator: Adobe Illustrator 16.0.0, SVG Export Plug-In . SVG Version: 6.00 Build 0)  -->
<!DOCTYPE svg PUBLIC "-//W3C//DTD SVG 1.1//EN" "http://www.w3.org/Graphics/SVG/1.1/DTD/svg11.dtd">
<svg version="1.1" id="Layer_1" xmlns="http://www.w3.org/2000/svg" xmlns:xlink="http://www.w3.org/1999/xlink" x="0px" y="0px"
	 width="171.512px" height="247.046px" viewBox="0 0 171.512 247.046" enable-background="new 0 0 171.512 247.046"
	 xml:space="preserve">
<g>
	<path fill="#FFFFFF" d="M9.367,245.8c-4.476,0-8.117-3.643-8.117-8.117V9.367c0-4.476,3.643-8.117,8.117-8.117h152.788
		c4.471,0,8.107,3.642,8.107,8.117v228.315c0,4.476-3.638,8.116-8.107,8.116H9.367V245.8z"/>
	<path fill="#D4D4D4" d="M162.155,2.5c3.769,0,6.857,3.089,6.857,6.867v228.315c0,3.778-3.09,6.866-6.857,6.866H9.367
		c-3.778,0-6.867-3.088-6.867-6.866V9.367C2.5,5.589,5.589,2.5,9.367,2.5H162.155 M162.155,0H9.367C4.202,0,0,4.202,0,9.367v228.315
		c0,5.165,4.202,9.366,9.367,9.366h152.788c5.16,0,9.357-4.201,9.357-9.366V9.367C171.513,4.202,167.315,0,162.155,0z"/>
	<path d="M12.227,60.562c1.669,0,2.549-1.779,3.009-3.559c0.46-1.78,0.5-3.559,0.5-3.559l0.85-0.011c0,0,0.16,7.128,3.499,7.128
		L12.227,60.562L12.227,60.562z"/>
	<path d="M9.397,53.434c0.01-3.469,5.218-5.987,6.747-8.727c1.529,2.749,6.737,5.269,6.748,8.727c0,1.64-1.511,2.97-3.379,2.97
		c-1.859,0-3.369-1.33-3.369-2.97c0,1.64-1.51,2.97-3.378,2.97C10.896,56.403,9.397,55.073,9.397,53.434z"/>
	<path d="M160.281,185.492c-1.669,0-2.549,1.779-3.009,3.559c-0.46,1.781-0.5,3.56-0.5,3.56l-0.851,0.011
		c0,0-0.159-7.127-3.499-7.127h7.858V185.492z"/>
	<path d="M163.11,192.619c-0.01,3.469-5.218,5.988-6.747,8.728c-1.53-2.749-6.738-5.269-6.748-8.728c0-1.64,1.51-2.969,3.379-2.969
		c1.859,0,3.369,1.329,3.369,2.969c0-1.64,1.509-2.969,3.378-2.969C161.611,189.65,163.11,190.979,163.11,192.619z"/>
	<path d="M36.938,58.271c4.007,0,6.118-4.271,7.222-8.541c1.104-4.27,1.199-8.54,1.199-8.54l2.039-0.024
		c0,0,0.384,17.105,8.396,17.105H36.938z"/>
	<path d="M30.149,41.165c0.022-8.325,12.521-14.371,16.192-20.944c3.672,6.598,16.171,12.644,16.194,20.944
		c0,3.935-3.623,7.125-8.109,7.125c-4.462,0-8.085-3.19-8.085-7.125c0,3.935-3.621,7.125-8.107,7.125S30.149,45.1,30.149,41.165z"/>
	<path d="M36.938,112.406c4.007,0,6.118-4.271,7.222-8.54c1.104-4.27,1.199-8.541,1.199-8.541l2.039-0.024
		c0,0,0.384,17.105,8.396,17.105H36.938z"/>
	<path d="M30.149,95.301c0.022-8.324,12.521-14.37,16.192-20.944C50.014,80.954,62.513,87,62.537,95.301
		c0,3.935-3.623,7.126-8.108,7.126c-4.463,0-8.086-3.191-8.086-7.126c0,3.935-3.621,7.126-8.107,7.126S30.149,99.235,30.149,95.301z
		"/>
	<path d="M55.747,129.498c-4.006,0-6.117,4.271-7.221,8.541c-1.104,4.271-1.2,8.541-1.2,8.541l-2.039,0.023
		c0,0-0.384-17.105-8.396-17.105H55.747z"/>
	<path d="M62.537,146.604c-0.023,8.325-12.522,14.371-16.194,20.944c-3.671-6.598-16.17-12.645-16.193-20.944
		c0-3.935,3.623-7.125,8.108-7.125c4.464,0,8.085,3.19,8.085,7.125c0-3.935,3.623-7.125,8.109-7.125S62.537,142.669,62.537,146.604z
		"/>
	<path d="M55.747,183.634c-4.006,0-6.117,4.271-7.221,8.541c-1.104,4.27-1.2,8.541-1.2,8.541l-2.039,0.022
		c0,0-0.384-17.104-8.396-17.104H55.747z"/>
	<path d="M62.537,200.739c-0.023,8.325-12.522,14.371-16.194,20.944c-3.671-6.598-16.17-12.645-16.193-20.944
		c0-3.935,3.623-7.125,8.108-7.125c4.464,0,8.085,3.19,8.085,7.125c0-3.935,3.623-7.125,8.109-7.125S62.537,196.805,62.537,200.739z
		"/>
	<path d="M116.767,58.271c4.007,0,6.117-4.271,7.222-8.541c1.104-4.27,1.199-8.54,1.199-8.54l2.039-0.024
		c0,0,0.384,17.105,8.396,17.105H116.767z"/>
	<path d="M109.977,41.165c0.023-8.325,12.522-14.371,16.193-20.944c3.671,6.598,16.17,12.644,16.194,20.944
		c0,3.935-3.623,7.125-8.109,7.125c-4.462,0-8.085-3.19-8.085-7.125c0,3.935-3.622,7.125-8.107,7.125
		C113.577,48.29,109.977,45.1,109.977,41.165z"/>
	<path d="M116.767,112.406c4.007,0,6.117-4.271,7.222-8.54c1.104-4.27,1.199-8.541,1.199-8.541l2.039-0.024
		c0,0,0.384,17.105,8.396,17.105H116.767z"/>
	<path d="M109.977,95.301c0.023-8.324,12.522-14.37,16.193-20.944c3.671,6.598,16.17,12.644,16.194,20.944
		c0,3.935-3.623,7.126-8.109,7.126c-4.462,0-8.085-3.191-8.085-7.126c0,3.935-3.622,7.126-8.107,7.126
		C113.577,102.427,109.977,99.235,109.977,95.301z"/>
	<path d="M135.575,129.498c-4.007,0-6.117,4.271-7.221,8.541c-1.104,4.271-1.2,8.541-1.2,8.541l-2.039,0.023
		c0,0-0.384-17.105-8.396-17.105H135.575z"/>
	<path d="M142.365,146.604c-0.024,8.325-12.523,14.371-16.194,20.944c-3.671-6.598-16.17-12.645-16.193-20.944
		c0-3.935,3.623-7.125,8.108-7.125c4.462,0,8.085,3.19,8.085,7.125c0-3.935,3.623-7.125,8.109-7.125
		S142.365,142.669,142.365,146.604z"/>
	<path d="M135.575,183.634c-4.007,0-6.117,4.271-7.221,8.541c-1.104,4.271-1.2,8.541-1.2,8.541l-2.039,0.022
		c0,0-0.384-17.104-8.396-17.104H135.575z"/>
	<path d="M142.365,200.739c-0.024,8.325-12.523,14.371-16.194,20.944c-3.671-6.598-16.17-12.645-16.193-20.944
		c0-3.935,3.623-7.125,8.108-7.125c4.462,0,8.085,3.19,8.085,7.125c0-3.935,3.623-7.125,8.109-7.125
		S142.365,196.805,142.365,200.739z"/>
	<path d="M76.853,85.34c4.007,0,6.118-4.271,7.222-8.541c1.104-4.27,1.199-8.541,1.199-8.541l2.039-0.023
		c0,0,0.384,17.105,8.396,17.105H76.853z"/>
	<path d="M70.062,68.234c0.023-8.325,12.522-14.371,16.193-20.944c3.671,6.598,16.17,12.644,16.194,20.944
		c0,3.935-3.623,7.125-8.109,7.125c-4.462,0-8.085-3.19-8.085-7.125c0,3.935-3.622,7.125-8.107,7.125
		C73.662,75.359,70.062,72.169,70.062,68.234z"/>
	<path d="M160.626,213.778c-0.289-0.573-0.6-0.995-0.936-1.271c-0.625-0.473-1.478-0.709-2.558-0.709
		c-1.104,0-2.021,0.451-2.754,1.352c-0.732,0.9-1.17,2.107-1.313,3.62c-0.145,1.513-0.215,3.612-0.215,6.304
		c0.381-1.021,0.873-1.759,1.471-2.211c0.717-0.57,1.709-0.855,2.977-0.855c1.65,0,3.052,0.66,4.197,1.98
		c1.148,1.319,1.723,3.071,1.723,5.256c0,2.495-0.672,4.465-2.016,5.903c-1.344,1.44-3.119,2.16-5.328,2.16
		c-2.256,0-4.024-1.002-5.311-3.007c-1.283-2.004-1.926-4.721-1.926-8.153c0-3.384,0.696-6.252,2.088-8.604
		c1.606-2.713,3.793-4.067,6.553-4.067c1.561,0,2.771,0.407,3.635,1.226c0.744,0.694,1.117,1.522,1.117,2.482
		c0,1.056-0.393,1.691-1.178,1.908c-0.261,0.072-0.511,0.107-0.748,0.107c-0.523,0-0.963-0.166-1.32-0.498
		c-0.354-0.334-0.535-0.762-0.535-1.283c0-0.547,0.15-0.98,0.451-1.301c0.301-0.322,0.689-0.482,1.17-0.482
		c0.146,0,0.275,0.013,0.396,0.035C160.386,213.695,160.507,213.73,160.626,213.778z M156.267,220.656
		c-1.328,0-2.254,0.649-2.775,1.948c-0.404,1.011-0.604,2.671-0.604,4.979c0,2.117,0.153,3.717,0.463,4.801
		c0.498,1.732,1.375,2.599,2.633,2.599c1.067,0,1.852-0.589,2.35-1.769s0.746-2.947,0.746-5.305c0-2.384-0.225-4.188-0.676-5.414
		C157.95,221.269,157.239,220.656,156.267,220.656z"/>
	<path d="M10.545,32.061c0.289,0.573,0.601,0.996,0.937,1.27c0.625,0.473,1.477,0.709,2.557,0.709c1.104,0,2.021-0.45,2.754-1.351
		c0.733-0.901,1.17-2.107,1.314-3.62c0.144-1.513,0.215-3.613,0.215-6.304c-0.381,1.022-0.873,1.759-1.471,2.211
		c-0.718,0.57-1.709,0.855-2.978,0.855c-1.649,0-3.051-0.66-4.197-1.98c-1.147-1.319-1.723-3.071-1.723-5.256
		c0-2.495,0.672-4.464,2.016-5.903c1.345-1.44,3.119-2.16,5.328-2.16c2.257,0,4.025,1.002,5.312,3.006
		c1.283,2.004,1.926,4.722,1.926,8.154c0,3.384-0.697,6.252-2.088,8.604c-1.607,2.713-3.793,4.068-6.553,4.068
		c-1.562,0-2.771-0.408-3.636-1.225c-0.743-0.695-1.116-1.523-1.116-2.483c0-1.056,0.393-1.692,1.178-1.908
		c0.26-0.072,0.51-0.108,0.748-0.108c0.522,0,0.963,0.167,1.32,0.499c0.354,0.333,0.534,0.761,0.534,1.283
		c0,0.547-0.149,0.98-0.45,1.301c-0.302,0.321-0.689,0.481-1.171,0.481c-0.145,0-0.274-0.012-0.396-0.035
		C10.785,32.144,10.664,32.108,10.545,32.061z M14.904,25.183c1.328,0,2.254-0.649,2.775-1.948c0.403-1.011,0.604-2.671,0.604-4.98
		c0-2.117-0.154-3.717-0.463-4.8c-0.498-1.732-1.375-2.599-2.633-2.599c-1.068,0-1.853,0.589-2.351,1.769
		c-0.498,1.179-0.746,2.947-0.746,5.305c0,2.383,0.226,4.188,0.677,5.414C13.221,24.57,13.932,25.183,14.904,25.183z"/>
</g>
</svg>
