<?xml version="1.0" encoding="utf-8"?>
<!-- Generator: Adobe Illustrator 16.0.0, SVG Export Plug-In . SVG Version: 6.00 Build 0)  -->
<!DOCTYPE svg PUBLIC "-//W3C//DTD SVG 1.1//EN" "http://www.w3.org/Graphics/SVG/1.1/DTD/svg11.dtd">
<svg version="1.1" id="Layer_1" xmlns="http://www.w3.org/2000/svg" xmlns:xlink="http://www.w3.org/1999/xlink" x="0px" y="0px"
	 width="171.512px" height="247.046px" viewBox="0 0 171.512 247.046" enable-background="new 0 0 171.512 247.046"
	 xml:space="preserve">
<g>
	<path fill="#FFFFFF" d="M9.367,245.8c-4.476,0-8.117-3.643-8.117-8.117V9.367c0-4.476,3.642-8.117,8.117-8.117h152.788
		c4.47,0,8.107,3.642,8.107,8.117v228.315c0,4.476-3.638,8.116-8.107,8.116H9.367V245.8z"/>
	<path fill="#D4D4D4" d="M162.155,2.5c3.769,0,6.857,3.089,6.857,6.867v228.315c0,3.778-3.09,6.866-6.857,6.866H9.367
		c-3.778,0-6.867-3.088-6.867-6.866V9.367C2.5,5.589,5.589,2.5,9.367,2.5H162.155 M162.155,0H9.367C4.202,0,0,4.202,0,9.367v228.315
		c0,5.165,4.202,9.366,9.367,9.366h152.788c5.16,0,9.357-4.201,9.357-9.366V9.367C171.513,4.202,167.315,0,162.155,0z"/>
	<path d="M12.227,60.562c1.669,0,2.549-1.779,3.009-3.559c0.46-1.78,0.5-3.559,0.5-3.559l0.85-0.011c0,0,0.16,7.128,3.498,7.128
		L12.227,60.562L12.227,60.562z"/>
	<path d="M9.397,53.434c0.01-3.469,5.218-5.987,6.747-8.727c1.529,2.749,6.737,5.269,6.748,8.727c0,1.64-1.511,2.97-3.379,2.97
		c-1.859,0-3.369-1.33-3.369-2.97c0,1.64-1.51,2.97-3.378,2.97C10.896,56.403,9.397,55.073,9.397,53.434z"/>
	<path d="M160.286,185.492c-1.669,0-2.549,1.779-3.009,3.559c-0.46,1.781-0.5,3.56-0.5,3.56l-0.851,0.011
		c0,0-0.159-7.127-3.498-7.127h7.857V185.492z"/>
	<path d="M163.115,192.619c-0.01,3.469-5.218,5.988-6.747,8.728c-1.53-2.749-6.738-5.269-6.748-8.728c0-1.64,1.51-2.969,3.379-2.969
		c1.859,0,3.369,1.329,3.369,2.969c0-1.64,1.509-2.969,3.378-2.969C161.616,189.65,163.115,190.979,163.115,192.619z"/>
	<path d="M36.938,58.271c4.007,0,6.118-4.271,7.222-8.541c1.104-4.27,1.199-8.54,1.199-8.54l2.039-0.024
		c0,0,0.385,17.105,8.396,17.105H36.938z"/>
	<path d="M30.148,41.165c0.022-8.325,12.522-14.371,16.193-20.944c3.671,6.598,16.171,12.644,16.193,20.944
		c0,3.935-3.622,7.125-8.108,7.125c-4.463,0-8.085-3.19-8.085-7.125c0,3.935-3.622,7.125-8.108,7.125S30.148,45.1,30.148,41.165z"/>
	<path d="M36.938,135.184c4.007,0,6.118-4.271,7.222-8.541c1.104-4.27,1.199-8.54,1.199-8.54l2.039-0.024
		c0,0,0.385,17.105,8.396,17.105H36.938z"/>
	<path d="M30.148,118.078c0.022-8.325,12.522-14.37,16.193-20.944c3.671,6.598,16.171,12.644,16.193,20.944
		c0,3.935-3.622,7.125-8.108,7.125c-4.463,0-8.085-3.189-8.085-7.125c0,3.935-3.622,7.125-8.108,7.125
		S30.148,122.013,30.148,118.078z"/>
	<path d="M55.747,183.634c-4.007,0-6.118,4.271-7.222,8.541c-1.104,4.27-1.199,8.541-1.199,8.541l-2.039,0.022
		c0,0-0.384-17.104-8.396-17.104H55.747z"/>
	<path d="M62.536,200.739c-0.022,8.325-12.522,14.371-16.193,20.944c-3.671-6.598-16.17-12.645-16.193-20.944
		c0-3.935,3.622-7.125,8.107-7.125c4.464,0,8.086,3.19,8.086,7.125c0-3.935,3.622-7.125,8.108-7.125S62.536,196.805,62.536,200.739z
		"/>
	<path d="M116.766,58.271c4.007,0,6.117-4.271,7.222-8.541c1.104-4.27,1.199-8.54,1.199-8.54l2.039-0.024
		c0,0,0.384,17.105,8.396,17.105H116.766z"/>
	<path d="M109.977,41.165C110,32.84,122.499,26.794,126.17,20.221c3.671,6.598,16.17,12.644,16.194,20.944
		c0,3.935-3.623,7.125-8.109,7.125c-4.462,0-8.085-3.19-8.085-7.125c0,3.935-3.622,7.125-8.107,7.125
		C113.576,48.29,109.977,45.1,109.977,41.165z"/>
	<path d="M116.766,135.184c4.007,0,6.117-4.271,7.222-8.541c1.104-4.27,1.199-8.54,1.199-8.54l2.039-0.024
		c0,0,0.384,17.105,8.396,17.105H116.766z"/>
	<path d="M109.977,118.078c0.022-8.325,12.521-14.37,16.192-20.944c3.671,6.598,16.17,12.644,16.194,20.944
		c0,3.935-3.623,7.125-8.109,7.125c-4.462,0-8.085-3.189-8.085-7.125c0,3.935-3.622,7.125-8.107,7.125
		C113.576,125.203,109.977,122.013,109.977,118.078z"/>
	<path d="M135.575,183.634c-4.007,0-6.118,4.271-7.222,8.541c-1.104,4.27-1.199,8.541-1.199,8.541l-2.04,0.022
		c0,0-0.384-17.104-8.396-17.104H135.575z"/>
	<path d="M142.364,200.739c-0.024,8.325-12.523,14.371-16.194,20.944c-3.67-6.598-16.17-12.645-16.192-20.944
		c0-3.935,3.622-7.125,8.107-7.125c4.463,0,8.085,3.19,8.085,7.125c0-3.935,3.623-7.125,8.109-7.125
		S142.364,196.805,142.364,200.739z"/>
	<path d="M151.801,233.041c0.12,0.473,0.408,0.873,0.864,1.203c0.672,0.493,1.553,0.739,2.642,0.739c1.118,0,2.05-0.46,2.793-1.381
		c0.741-0.922,1.198-2.231,1.368-3.931c0.05-0.406,0.073-0.86,0.073-1.362v-4.63c-0.409,1.056-0.879,1.8-1.409,2.232
		c-0.697,0.575-1.686,0.862-2.962,0.862c-1.662,0-3.07-0.66-4.227-1.979s-1.734-3.071-1.734-5.256c0-2.496,0.661-4.463,1.98-5.904
		c1.319-1.438,3.145-2.159,5.472-2.159c2.4,0,4.164,0.974,5.292,2.916c1.128,1.944,1.692,4.681,1.692,8.208
		c0,3.384-0.671,6.252-2.017,8.604c-1.56,2.735-3.72,4.104-6.479,4.104c-1.561,0-2.748-0.396-3.564-1.188
		c-0.695-0.673-1.044-1.5-1.044-2.484c0-1.031,0.346-1.68,1.035-1.943c0.356-0.12,0.654-0.18,0.892-0.18
		c0.523,0,0.976,0.156,1.355,0.468s0.57,0.722,0.57,1.226c0,0.6-0.149,1.092-0.45,1.476c-0.3,0.384-0.714,0.575-1.242,0.575
		c-0.144,0-0.288-0.018-0.432-0.053C152.125,233.166,151.969,233.111,151.801,233.041z M156.154,226.128
		c1.311,0,2.246-0.746,2.804-2.237c0.438-1.156,0.655-2.72,0.655-4.692c0-2.334-0.109-3.934-0.328-4.8
		c-0.437-1.731-1.383-2.599-2.84-2.599c-1.092,0-1.899,0.595-2.421,1.785c-0.522,1.191-0.783,2.953-0.783,5.289
		c0,1.756,0.11,3.139,0.328,4.149C154.03,225.093,154.892,226.128,156.154,226.128z"/>
	<path d="M19.927,12.799c-0.119-0.473-0.407-0.874-0.863-1.203c-0.672-0.494-1.554-0.74-2.642-0.74c-1.118,0-2.05,0.46-2.793,1.381
		c-0.741,0.922-1.198,2.231-1.369,3.93c-0.049,0.407-0.072,0.861-0.072,1.363v4.63c0.409-1.056,0.879-1.8,1.409-2.232
		c0.697-0.576,1.686-0.863,2.962-0.863c1.662,0,3.07,0.66,4.227,1.979c1.156,1.32,1.734,3.072,1.734,5.256
		c0,2.497-0.661,4.464-1.98,5.904c-1.319,1.439-3.145,2.16-5.472,2.16c-2.4,0-4.164-0.973-5.292-2.916
		c-1.128-1.944-1.692-4.681-1.692-8.208c0-3.384,0.671-6.252,2.017-8.604c1.56-2.735,3.72-4.104,6.479-4.104
		c1.561,0,2.748,0.396,3.564,1.188c0.695,0.673,1.044,1.501,1.044,2.484c0,1.032-0.346,1.68-1.035,1.944
		c-0.356,0.12-0.654,0.18-0.893,0.18c-0.522,0-0.975-0.156-1.354-0.468s-0.57-0.721-0.57-1.225c0-0.6,0.149-1.092,0.45-1.476
		c0.3-0.384,0.714-0.576,1.242-0.576c0.144,0,0.288,0.018,0.432,0.054C19.603,12.673,19.759,12.728,19.927,12.799z M15.574,19.711
		c-1.311,0-2.246,0.746-2.804,2.237c-0.438,1.156-0.655,2.72-0.655,4.692c0,2.334,0.109,3.934,0.328,4.8
		c0.437,1.732,1.383,2.599,2.84,2.599c1.092,0,1.899-0.595,2.421-1.786c0.522-1.191,0.783-2.953,0.783-5.288
		c0-1.756-0.11-3.139-0.328-4.15C17.698,20.746,16.836,19.711,15.574,19.711z"/>
</g>
</svg>
