<?xml version="1.0" encoding="utf-8"?>
<!-- Generator: Adobe Illustrator 16.0.0, SVG Export Plug-In . SVG Version: 6.00 Build 0)  -->
<!DOCTYPE svg PUBLIC "-//W3C//DTD SVG 1.1//EN" "http://www.w3.org/Graphics/SVG/1.1/DTD/svg11.dtd">
<svg version="1.1" id="Layer_1" xmlns="http://www.w3.org/2000/svg" xmlns:xlink="http://www.w3.org/1999/xlink" x="0px" y="0px"
	 width="171.512px" height="247.046px" viewBox="0 0 171.512 247.046" enable-background="new 0 0 171.512 247.046"
	 xml:space="preserve">
<g>
	<path fill="#FFFFFF" d="M9.367,245.8c-4.476,0-8.117-3.643-8.117-8.117V9.367c0-4.476,3.642-8.117,8.117-8.117h152.788
		c4.47,0,8.107,3.642,8.107,8.117v228.315c0,4.476-3.638,8.116-8.107,8.116H9.367V245.8z"/>
	<path fill="#D4D4D4" d="M162.155,2.5c3.769,0,6.857,3.089,6.857,6.867v228.315c0,3.778-3.09,6.866-6.857,6.866H9.367
		c-3.778,0-6.867-3.088-6.867-6.866V9.367C2.5,5.589,5.589,2.5,9.367,2.5H162.155 M162.155,0H9.367C4.202,0,0,4.202,0,9.367v228.315
		c0,5.165,4.202,9.366,9.367,9.366h152.788c5.16,0,9.357-4.201,9.357-9.366V9.367C171.513,4.202,167.315,0,162.155,0z"/>
	<path d="M12.227,60.562c1.669,0,2.549-1.779,3.009-3.559c0.46-1.78,0.5-3.559,0.5-3.559l0.85-0.011c0,0,0.159,7.128,3.498,7.128
		L12.227,60.562L12.227,60.562z"/>
	<path d="M9.397,53.434c0.01-3.469,5.218-5.987,6.747-8.727c1.528,2.749,6.737,5.269,6.748,8.727c0,1.64-1.511,2.97-3.379,2.97
		c-1.859,0-3.369-1.33-3.369-2.97c0,1.64-1.51,2.97-3.379,2.97C10.896,56.403,9.397,55.073,9.397,53.434z"/>
	<path d="M160.286,185.492c-1.669,0-2.549,1.779-3.009,3.559c-0.46,1.781-0.5,3.56-0.5,3.56l-0.851,0.011
		c0,0-0.159-7.127-3.497-7.127h7.856V185.492z"/>
	<path d="M163.115,192.619c-0.01,3.469-5.218,5.988-6.747,8.728c-1.53-2.749-6.738-5.269-6.748-8.728c0-1.64,1.51-2.969,3.379-2.969
		c1.859,0,3.369,1.329,3.369,2.969c0-1.64,1.509-2.969,3.378-2.969C161.616,189.65,163.115,190.979,163.115,192.619z"/>
	<path d="M36.938,58.271c4.007,0,6.118-4.271,7.222-8.541c1.104-4.27,1.199-8.54,1.199-8.54l2.039-0.024
		c0,0,0.384,17.105,8.396,17.105H36.938z"/>
	<path d="M30.148,41.165c0.022-8.325,12.522-14.371,16.192-20.944c3.672,6.598,16.171,12.644,16.194,20.944
		c0,3.935-3.623,7.125-8.109,7.125c-4.462,0-8.085-3.19-8.085-7.125c0,3.935-3.621,7.125-8.107,7.125S30.148,45.1,30.148,41.165z"/>
	<path d="M55.746,183.634c-4.006,0-6.117,4.271-7.221,8.541c-1.104,4.27-1.199,8.541-1.199,8.541l-2.04,0.022
		c0,0-0.384-17.104-8.396-17.104H55.746z"/>
	<path d="M62.536,200.739c-0.023,8.325-12.522,14.371-16.194,20.944c-3.67-6.598-16.17-12.645-16.192-20.944
		c0-3.935,3.622-7.125,8.107-7.125c4.464,0,8.085,3.19,8.085,7.125c0-3.935,3.623-7.125,8.109-7.125S62.536,196.805,62.536,200.739z
		"/>
	<path d="M116.766,58.271c4.006,0,6.116-4.271,7.221-8.541c1.104-4.27,1.2-8.54,1.2-8.54l2.039-0.024c0,0,0.384,17.105,8.396,17.105
		H116.766z"/>
	<path d="M109.976,41.165C110,32.84,122.499,26.794,126.17,20.221c3.671,6.598,16.17,12.644,16.194,20.944
		c0,3.935-3.623,7.125-8.109,7.125c-4.462,0-8.085-3.19-8.085-7.125c0,3.935-3.623,7.125-8.108,7.125
		C113.575,48.29,109.976,45.1,109.976,41.165z"/>
	<path d="M135.574,183.634c-4.006,0-6.117,4.271-7.221,8.541c-1.104,4.27-1.2,8.541-1.2,8.541l-2.039,0.022
		c0,0-0.384-17.104-8.396-17.104H135.574z"/>
	<path d="M142.364,200.739c-0.024,8.325-12.523,14.371-16.194,20.944c-3.671-6.598-16.17-12.645-16.192-20.944
		c0-3.935,3.622-7.125,8.107-7.125c4.462,0,8.085,3.19,8.085,7.125c0-3.935,3.623-7.125,8.109-7.125
		S142.364,196.805,142.364,200.739z"/>
	<path d="M76.852,135.184c4.006,0,6.116-4.271,7.221-8.541c1.104-4.27,1.2-8.54,1.2-8.54l2.039-0.024c0,0,0.384,17.105,8.396,17.105
		H76.852z"/>
	<path d="M70.062,118.078c0.023-8.325,12.522-14.37,16.193-20.944c3.671,6.598,16.17,12.644,16.194,20.944
		c0,3.935-3.623,7.125-8.109,7.125c-4.462,0-8.085-3.189-8.085-7.125c0,3.935-3.623,7.125-8.108,7.125
		C73.661,125.203,70.062,122.013,70.062,118.078z"/>
	<path d="M149.136,235.308c0.72-1.561,1.481-2.694,2.285-3.402c0.806-0.707,1.819-1.062,3.043-1.062c1.2,0,2.845,0.383,4.933,1.151
		l1.008-8.154c-0.909,1.146-1.765,1.902-2.566,2.271c-0.801,0.37-1.859,0.555-3.176,0.555c-1.649,0-3.067-0.762-4.252-2.285
		s-1.777-3.365-1.777-5.525c0-1.729,0.769-3.359,2.305-4.896c1.728-1.728,3.864-2.592,6.408-2.592c1.487,0,2.771,0.444,3.852,1.332
		c1.176,0.961,1.764,2.196,1.764,3.709c0,0.911-0.218,1.596-0.652,2.051c-0.436,0.457-0.969,0.686-1.599,0.686
		c-0.896,0-1.487-0.359-1.778-1.08c-0.146-0.359-0.219-0.756-0.219-1.188c0-0.479,0.097-0.815,0.288-1.008
		c0.48-0.553,1.008-0.828,1.584-0.828c0.145,0,0.276,0.023,0.396,0.071c0.121,0.048,0.229,0.108,0.324,0.181
		c0.048-0.192,0.071-0.323,0.071-0.396c0-0.744-0.359-1.439-1.08-2.088c-0.84-0.744-1.877-1.116-3.112-1.116
		c-1.47,0-2.561,0.794-3.271,2.382c-0.64,1.42-0.96,3.404-0.96,5.955c0,2.453,0.232,4.102,0.696,4.943
		c0.464,0.843,1.1,1.264,1.909,1.264c1.546,0,2.854-0.652,3.924-1.958c0.809-0.991,1.296-2.007,1.463-3.046l0.468,0.072
		l-1.794,13.896c-1.315-0.529-2.393-0.912-3.229-1.152c-1.269-0.359-2.393-0.539-3.373-0.539c-0.813,0-1.501,0.126-2.064,0.378
		c-0.562,0.252-1.011,0.688-1.346,1.313L149.136,235.308z"/>
	<path d="M21.762,10.423c-0.721,1.561-1.482,2.694-2.286,3.402c-0.806,0.708-1.819,1.062-3.043,1.062
		c-1.2,0-2.845-0.383-4.933-1.151l-1.008,8.153c0.909-1.145,1.765-1.901,2.566-2.271c0.801-0.37,1.859-0.555,3.176-0.555
		c1.649,0,3.068,0.762,4.252,2.285c1.185,1.524,1.777,3.366,1.777,5.526c0,1.729-0.769,3.36-2.305,4.896
		c-1.728,1.728-3.863,2.592-6.408,2.592c-1.487,0-2.771-0.444-3.852-1.332c-1.176-0.96-1.764-2.196-1.764-3.708
		c0-0.912,0.218-1.596,0.652-2.052c0.436-0.456,0.969-0.685,1.599-0.685c0.896,0,1.487,0.36,1.778,1.08
		c0.146,0.36,0.219,0.756,0.219,1.188c0,0.479-0.097,0.815-0.288,1.008c-0.48,0.552-1.008,0.828-1.584,0.828
		c-0.145,0-0.276-0.024-0.396-0.072c-0.121-0.048-0.229-0.108-0.324-0.18C9.544,30.629,9.52,30.76,9.52,30.833
		c0,0.744,0.359,1.44,1.08,2.088c0.84,0.744,1.877,1.116,3.112,1.116c1.47,0,2.561-0.794,3.271-2.382
		c0.64-1.42,0.96-3.404,0.96-5.955c0-2.453-0.232-4.102-0.696-4.943c-0.464-0.843-1.1-1.264-1.909-1.264
		c-1.546,0-2.854,0.653-3.924,1.958c-0.809,0.991-1.296,2.007-1.463,3.046l-0.468-0.072l1.794-13.896
		c1.315,0.528,2.393,0.912,3.229,1.151c1.269,0.36,2.393,0.54,3.373,0.54c0.813,0,1.501-0.126,2.064-0.378
		c0.562-0.252,1.011-0.689,1.346-1.313L21.762,10.423z"/>
</g>
</svg>
