<?xml version="1.0" encoding="utf-8"?>
<!-- Generator: Adobe Illustrator 16.0.0, SVG Export Plug-In . SVG Version: 6.00 Build 0)  -->
<!DOCTYPE svg PUBLIC "-//W3C//DTD SVG 1.1//EN" "http://www.w3.org/Graphics/SVG/1.1/DTD/svg11.dtd">
<svg version="1.1" id="Layer_1" xmlns="http://www.w3.org/2000/svg" xmlns:xlink="http://www.w3.org/1999/xlink" x="0px" y="0px"
	 width="171.512px" height="247.046px" viewBox="0 0 171.512 247.046" enable-background="new 0 0 171.512 247.046"
	 xml:space="preserve">
<g>
	<path fill="#FFFFFF" d="M9.367,245.8c-4.476,0-8.117-3.643-8.117-8.117V9.367c0-4.476,3.642-8.117,8.117-8.117h152.788
		c4.47,0,8.107,3.642,8.107,8.117v228.315c0,4.476-3.638,8.116-8.107,8.116H9.367V245.8z"/>
	<path fill="#D4D4D4" d="M162.155,2.5c3.769,0,6.857,3.089,6.857,6.867v228.315c0,3.778-3.09,6.866-6.857,6.866H9.367
		c-3.778,0-6.867-3.088-6.867-6.866V9.367C2.5,5.589,5.589,2.5,9.367,2.5H162.155 M162.155,0H9.367C4.202,0,0,4.202,0,9.367v228.315
		c0,5.165,4.202,9.366,9.367,9.366h152.788c5.16,0,9.357-4.201,9.357-9.366V9.367C171.513,4.202,167.315,0,162.155,0z"/>
	<path d="M12.227,60.562c1.669,0,2.549-1.779,3.009-3.559c0.46-1.78,0.5-3.559,0.5-3.559l0.85-0.011c0,0,0.16,7.128,3.498,7.128
		L12.227,60.562L12.227,60.562z"/>
	<path d="M9.397,53.434c0.01-3.469,5.218-5.987,6.747-8.727c1.529,2.749,6.737,5.269,6.748,8.727c0,1.64-1.511,2.97-3.379,2.97
		c-1.859,0-3.369-1.33-3.369-2.97c0,1.64-1.51,2.97-3.378,2.97C10.896,56.403,9.397,55.073,9.397,53.434z"/>
	<path d="M160.286,185.492c-1.669,0-2.549,1.779-3.009,3.559c-0.46,1.781-0.5,3.56-0.5,3.56l-0.851,0.011
		c0,0-0.159-7.127-3.498-7.127h7.857V185.492z"/>
	<path d="M163.115,192.619c-0.01,3.469-5.218,5.988-6.747,8.728c-1.53-2.749-6.738-5.269-6.748-8.728c0-1.64,1.51-2.969,3.379-2.969
		c1.859,0,3.369,1.329,3.369,2.969c0-1.64,1.509-2.969,3.378-2.969C161.616,189.65,163.115,190.979,163.115,192.619z"/>
	<path d="M36.938,58.271c4.007,0,6.117-4.271,7.221-8.541c1.104-4.27,1.2-8.54,1.2-8.54l2.039-0.024c0,0,0.384,17.105,8.396,17.105
		H36.938z"/>
	<path d="M30.147,41.165c0.023-8.325,12.522-14.371,16.193-20.944c3.672,6.598,16.171,12.644,16.194,20.944
		c0,3.935-3.623,7.125-8.109,7.125c-4.462,0-8.085-3.19-8.085-7.125c0,3.935-3.623,7.125-8.108,7.125
		C33.746,48.29,30.147,45.1,30.147,41.165z"/>
	<path d="M55.746,183.634c-4.006,0-6.117,4.271-7.221,8.541c-1.104,4.27-1.2,8.541-1.2,8.541l-2.039,0.022
		c0,0-0.384-17.104-8.396-17.104H55.746z"/>
	<path d="M62.536,200.739c-0.023,8.325-12.522,14.371-16.194,20.944c-3.671-6.598-16.17-12.645-16.193-20.944
		c0-3.935,3.623-7.125,8.108-7.125c4.463,0,8.085,3.19,8.085,7.125c0-3.935,3.623-7.125,8.109-7.125S62.536,196.805,62.536,200.739z
		"/>
	<path d="M116.765,58.271c4.007,0,6.117-4.271,7.222-8.541c1.104-4.27,1.199-8.54,1.199-8.54l2.04-0.024
		c0,0,0.384,17.105,8.396,17.105H116.765z"/>
	<path d="M109.976,41.165C110,32.84,122.499,26.794,126.17,20.221c3.67,6.598,16.17,12.644,16.193,20.944
		c0,3.935-3.622,7.125-8.108,7.125c-4.463,0-8.085-3.19-8.085-7.125c0,3.935-3.623,7.125-8.108,7.125
		C113.575,48.29,109.976,45.1,109.976,41.165z"/>
	<path d="M135.574,183.634c-4.007,0-6.117,4.271-7.222,8.541s-1.199,8.541-1.199,8.541l-2.039,0.022c0,0-0.384-17.104-8.396-17.104
		H135.574z"/>
	<path d="M142.364,200.739c-0.024,8.325-12.523,14.371-16.194,20.944c-3.671-6.598-16.17-12.645-16.193-20.944
		c0-3.935,3.623-7.125,8.108-7.125c4.462,0,8.085,3.19,8.085,7.125c0-3.935,3.622-7.125,8.108-7.125
		S142.364,196.805,142.364,200.739z"/>
	<path d="M151.836,218.1v-3.947c0-0.7-0.048-1.147-0.144-1.341c-0.048-0.098-0.21-0.199-0.486-0.309
		c-0.275-0.108-0.726-0.198-1.35-0.271c-0.624-0.071-1.188-0.108-1.692-0.108v-0.359h12.204v0.359c-0.887,0-1.697,0.037-2.43,0.108
		c-0.732,0.072-1.236,0.162-1.513,0.271c-0.274,0.108-0.455,0.242-0.539,0.398c-0.083,0.157-0.127,0.573-0.127,1.25v3.947h7.345
		l-10.656,16.884h-0.612v-15.624h-3.672v-1.26L151.836,218.1L151.836,218.1z M155.76,219.359v9.686l6.049-9.686H155.76z"/>
	<path d="M18.739,27.703v3.947c0,0.701,0.048,1.147,0.144,1.341c0.049,0.097,0.21,0.199,0.486,0.308
		c0.276,0.109,0.727,0.199,1.351,0.271c0.623,0.072,1.188,0.108,1.691,0.108v0.36H10.207v-0.36c0.887,0,1.697-0.036,2.431-0.108
		c0.731-0.072,1.235-0.162,1.512-0.271c0.274-0.108,0.456-0.241,0.54-0.398c0.083-0.157,0.126-0.573,0.126-1.25v-3.947H7.471
		L18.127,10.82h0.612v15.624h3.672v1.26L18.739,27.703L18.739,27.703z M14.815,26.443v-9.685l-6.048,9.685H14.815z"/>
</g>
</svg>
