<?xml version="1.0" encoding="utf-8"?>
<!-- Generator: Adobe Illustrator 16.0.0, SVG Export Plug-In . SVG Version: 6.00 Build 0)  -->
<!DOCTYPE svg PUBLIC "-//W3C//DTD SVG 1.1//EN" "http://www.w3.org/Graphics/SVG/1.1/DTD/svg11.dtd">
<svg version="1.1" id="Layer_1" xmlns="http://www.w3.org/2000/svg" xmlns:xlink="http://www.w3.org/1999/xlink" x="0px" y="0px"
	 width="171.512px" height="247.046px" viewBox="0 0 171.512 247.046" enable-background="new 0 0 171.512 247.046"
	 xml:space="preserve">
<g>
	<path fill="#FFFFFF" d="M9.367,245.8c-4.476,0-8.117-3.643-8.117-8.117V9.367c0-4.476,3.643-8.117,8.117-8.117h152.788
		c4.471,0,8.107,3.642,8.107,8.117v228.315c0,4.476-3.638,8.116-8.107,8.116H9.367V245.8z"/>
	<path fill="#D4D4D4" d="M162.155,2.5c3.769,0,6.857,3.089,6.857,6.867v228.315c0,3.778-3.09,6.866-6.857,6.866H9.367
		c-3.778,0-6.867-3.088-6.867-6.866V9.367C2.5,5.589,5.589,2.5,9.367,2.5H162.155 M162.155,0H9.367C4.202,0,0,4.202,0,9.367v228.315
		c0,5.165,4.202,9.366,9.367,9.366h152.788c5.16,0,9.357-4.201,9.357-9.366V9.367C171.513,4.202,167.315,0,162.155,0z"/>
	<path d="M12.227,60.562c1.669,0,2.549-1.779,3.009-3.559c0.46-1.78,0.5-3.559,0.5-3.559l0.85-0.011c0,0,0.159,7.128,3.498,7.128
		L12.227,60.562L12.227,60.562z"/>
	<path d="M9.397,53.434c0.01-3.469,5.218-5.987,6.747-8.727c1.528,2.749,6.737,5.269,6.748,8.727c0,1.64-1.511,2.97-3.379,2.97
		c-1.859,0-3.369-1.33-3.369-2.97c0,1.64-1.51,2.97-3.379,2.97C10.896,56.403,9.397,55.073,9.397,53.434z"/>
	<path d="M160.291,185.492c-1.669,0-2.549,1.779-3.009,3.559c-0.46,1.781-0.5,3.56-0.5,3.56l-0.85,0.011c0,0-0.16-7.127-3.499-7.127
		h7.857V185.492z"/>
	<path d="M163.12,192.619c-0.01,3.469-5.218,5.988-6.747,8.728c-1.53-2.749-6.738-5.269-6.748-8.728c0-1.64,1.51-2.969,3.379-2.969
		c1.859,0,3.369,1.329,3.369,2.969c0-1.64,1.509-2.969,3.378-2.969C161.621,189.65,163.12,190.979,163.12,192.619z"/>
	<path d="M36.943,58.271c4.006,0,6.117-4.271,7.221-8.541c1.104-4.27,1.2-8.54,1.2-8.54l2.039-0.024c0,0,0.384,17.105,8.396,17.105
		H36.943z"/>
	<path d="M30.153,41.165c0.023-8.325,12.522-14.371,16.194-20.944c3.671,6.598,16.17,12.644,16.193,20.944
		c0,3.935-3.623,7.125-8.108,7.125c-4.462,0-8.085-3.19-8.085-7.125c0,3.935-3.623,7.125-8.109,7.125S30.153,45.1,30.153,41.165z"/>
	<path d="M36.943,112.406c4.006,0,6.117-4.271,7.221-8.54c1.104-4.27,1.2-8.541,1.2-8.541l2.039-0.024
		c0,0,0.384,17.105,8.396,17.105H36.943z"/>
	<path d="M30.153,95.301c0.023-8.324,12.522-14.37,16.194-20.944C50.019,80.954,62.518,87,62.542,95.301
		c0,3.935-3.623,7.126-8.108,7.126c-4.462,0-8.085-3.191-8.085-7.126c0,3.935-3.623,7.126-8.109,7.126S30.153,99.235,30.153,95.301z
		"/>
	<path d="M55.752,129.498c-4.007,0-6.117,4.271-7.221,8.541c-1.104,4.271-1.2,8.541-1.2,8.541l-2.039,0.023
		c0,0-0.384-17.105-8.396-17.105H55.752z"/>
	<path d="M62.541,146.604c-0.022,8.325-12.521,14.371-16.192,20.944c-3.672-6.598-16.17-12.645-16.194-20.944
		c0-3.935,3.623-7.125,8.109-7.125c4.462,0,8.085,3.19,8.085,7.125c0-3.935,3.623-7.125,8.108-7.125
		C58.943,139.479,62.541,142.669,62.541,146.604z"/>
	<path d="M55.752,183.634c-4.007,0-6.117,4.271-7.221,8.541c-1.104,4.271-1.2,8.541-1.2,8.541l-2.039,0.022
		c0,0-0.384-17.104-8.396-17.104H55.752z"/>
	<path d="M62.541,200.739c-0.022,8.325-12.521,14.371-16.192,20.944c-3.672-6.598-16.17-12.645-16.194-20.944
		c0-3.935,3.623-7.125,8.109-7.125c4.462,0,8.085,3.19,8.085,7.125c0-3.935,3.623-7.125,8.108-7.125
		C58.943,193.614,62.541,196.805,62.541,200.739z"/>
	<path d="M116.771,58.271c4.006,0,6.117-4.271,7.221-8.541c1.104-4.27,1.2-8.54,1.2-8.54l2.039-0.024c0,0,0.384,17.105,8.396,17.105
		H116.771z"/>
	<path d="M109.981,41.165c0.023-8.325,12.522-14.371,16.193-20.944c3.672,6.598,16.171,12.644,16.193,20.944
		c0,3.935-3.622,7.125-8.108,7.125c-4.462,0-8.085-3.19-8.085-7.125c0,3.935-3.622,7.125-8.108,7.125S109.981,45.1,109.981,41.165z"
		/>
	<path d="M116.771,112.406c4.006,0,6.117-4.271,7.221-8.54c1.104-4.27,1.2-8.541,1.2-8.541l2.039-0.024
		c0,0,0.384,17.105,8.396,17.105H116.771z"/>
	<path d="M109.981,95.301c0.023-8.324,12.522-14.37,16.193-20.944c3.672,6.598,16.171,12.644,16.193,20.944
		c0,3.935-3.622,7.126-8.108,7.126c-4.462,0-8.085-3.191-8.085-7.126c0,3.935-3.622,7.126-8.108,7.126
		S109.981,99.235,109.981,95.301z"/>
	<path d="M135.58,129.498c-4.007,0-6.118,4.271-7.222,8.541c-1.104,4.271-1.199,8.541-1.199,8.541l-2.039,0.023
		c0,0-0.384-17.105-8.396-17.105H135.58z"/>
	<path d="M142.369,146.604c-0.022,8.325-12.522,14.371-16.193,20.944c-3.671-6.598-16.17-12.645-16.193-20.944
		c0-3.935,3.623-7.125,8.108-7.125c4.463,0,8.085,3.19,8.085,7.125c0-3.935,3.622-7.125,8.108-7.125
		S142.369,142.669,142.369,146.604z"/>
	<path d="M135.58,183.634c-4.007,0-6.118,4.271-7.222,8.541c-1.104,4.27-1.199,8.541-1.199,8.541l-2.039,0.022
		c0,0-0.384-17.104-8.396-17.104H135.58z"/>
	<path d="M142.369,200.739c-0.022,8.325-12.522,14.371-16.193,20.944c-3.671-6.598-16.17-12.645-16.193-20.944
		c0-3.935,3.623-7.125,8.108-7.125c4.463,0,8.085,3.19,8.085,7.125c0-3.935,3.622-7.125,8.108-7.125
		S142.369,196.805,142.369,200.739z"/>
	<path d="M152.525,224.976c-1.08-0.264-1.967-0.967-2.664-2.105c-0.695-1.141-1.045-2.502-1.045-4.086
		c0-1.871,0.647-3.517,1.945-4.933c1.463-1.584,3.396-2.376,5.795-2.376c2.137,0,3.938,0.708,5.399,2.124
		c1.465,1.416,2.195,3.071,2.195,4.968c0,1.057-0.443,2.09-1.33,3.098c-0.049,0.047-0.721,0.67-2.018,1.871
		c0.815,0.479,1.44,1.135,1.872,1.963c0.433,0.828,0.648,1.781,0.648,2.86c0,1.849-0.613,3.433-1.836,4.752
		c-1.369,1.464-3.133,2.196-5.293,2.196c-2.039,0-3.707-0.77-5.004-2.305c-1.058-1.248-1.584-2.483-1.584-3.707
		C149.609,227.664,150.582,226.224,152.525,224.976z M160.301,223.285c0.562-0.48,0.955-1.22,1.179-2.216
		c0.223-0.995,0.334-2.058,0.334-3.187c0-1.991-0.463-3.504-1.396-4.535c-0.928-1.032-2.18-1.549-3.754-1.549
		c-1.619,0-2.906,0.457-3.858,1.369c-0.955,0.912-1.433,2.1-1.433,3.562c0,2.473,1.076,4.116,3.228,4.934
		C156.514,222.191,158.412,222.731,160.301,223.285z M152.922,225.156c-0.418,0.527-0.77,1.157-1.053,1.891
		c-0.281,0.73-0.424,1.506-0.424,2.322c0,1.92,0.504,3.371,1.512,4.354c0.865,0.84,1.992,1.26,3.385,1.26
		c1.32,0,2.447-0.378,3.384-1.134c0.938-0.756,1.403-1.83,1.403-3.223c0-1.992-1.146-3.383-3.438-4.176
		C157.211,226.283,155.621,225.852,152.922,225.156z"/>
	<path d="M19.041,20.863c1.08,0.264,1.967,0.966,2.664,2.105c0.695,1.141,1.045,2.502,1.045,4.086c0,1.872-0.647,3.517-1.944,4.933
		c-1.464,1.584-3.396,2.376-5.796,2.376c-2.137,0-3.938-0.708-5.399-2.124c-1.465-1.416-2.195-3.072-2.195-4.968
		c0-1.057,0.443-2.089,1.33-3.097c0.049-0.048,0.721-0.671,2.019-1.872c-0.816-0.479-1.441-1.134-1.873-1.962
		c-0.433-0.828-0.65-1.781-0.65-2.861c0-1.849,0.613-3.433,1.836-4.752c1.369-1.464,3.133-2.196,5.293-2.196
		c2.039,0,3.707,0.769,5.004,2.304c1.058,1.248,1.584,2.484,1.584,3.708C21.957,18.176,20.984,19.615,19.041,20.863z M11.266,22.555
		c-0.562,0.48-0.955,1.219-1.179,2.215c-0.223,0.996-0.334,2.058-0.334,3.186c0,1.992,0.463,3.504,1.396,4.536
		c0.928,1.032,2.18,1.548,3.754,1.548c1.619,0,2.906-0.456,3.859-1.368c0.954-0.912,1.432-2.1,1.432-3.563
		c0-2.472-1.076-4.116-3.228-4.933C15.053,23.647,13.154,23.107,11.266,22.555z M18.645,20.683c0.418-0.527,0.77-1.157,1.053-1.89
		c0.281-0.731,0.424-1.506,0.424-2.322c0-1.92-0.504-3.371-1.512-4.355c-0.865-0.84-1.992-1.26-3.385-1.26
		c-1.32,0-2.447,0.378-3.384,1.134c-0.938,0.756-1.403,1.83-1.403,3.222c0,1.992,1.146,3.384,3.438,4.176
		C14.355,19.556,15.945,19.987,18.645,20.683z"/>
</g>
</svg>
